<svg xmlns="http://www.w3.org/2000/svg" width="400" height="400" viewBox="0 0 400 400">
  <rect width="400" height="400" fill="#FDFAF5"/>
  <text x="200" y="28" text-anchor="middle" font-family="monospace" font-size="9" fill="#00BFB3" letter-spacing="4">CCA CLASS OF 2026</text>
  <line x1="145" y1="34" x2="255" y2="34" stroke="#00BFB3" stroke-opacity="0.3" stroke-width="1"/>
  <rect x="68" y="55" rx="9" ry="9" width="264" height="264" fill="#F5F0E5" stroke="#00BFB3" stroke-width="2.5"/>
  <!-- Confetti shapes (replacing dots) -->
  <rect x="28" y="78" width="7" height="4" rx="1" fill="#00BFB3" opacity="0.2" transform="rotate(30 32 80)"/>
  <circle cx="370" cy="120" r="3" fill="#FFC845" opacity="0.2"/>
  <polygon points="50,295 54,303 46,303" fill="#563D82" opacity="0.2"/>
  <rect x="355" y="200" width="6" height="4" rx="1" fill="#E57200" opacity="0.2" transform="rotate(-20 358 202)"/>
  <circle cx="25" cy="200" r="2.5" fill="#005776" opacity="0.2"/>
  <polygon points="370,300 374,308 366,308" fill="#00BFB3" opacity="0.2"/>
  <rect x="40" y="150" width="5" height="3" rx="1" fill="#FFC845" opacity="0.2" transform="rotate(55 43 152)"/>
  <circle cx="365" cy="60" r="2" fill="#563D82" opacity="0.2"/>
  <!-- Seal accent (bottom-right) -->
  <circle cx="340" cy="340" r="30" fill="none" stroke="#00BFB3" stroke-opacity="0.08" stroke-width="1.5"/>
  <circle cx="340" cy="340" r="25" fill="none" stroke="#00BFB3" stroke-opacity="0.06" stroke-width="1"/>
  <text x="200" y="350" text-anchor="middle" font-family="sans-serif" font-size="20" font-weight="700" fill="#1a1a1a">Your Name</text>
  <text x="200" y="375" text-anchor="middle" font-family="monospace" font-size="11" fill="#00BFB3" letter-spacing="1">MFA DESIGN</text>
</svg>
