<?xml version="1.0" encoding="UTF-8"?>
<svg id="PRIMARY_Logos" xmlns="http://www.w3.org/2000/svg" version="1.1" viewBox="0 0 948.8 269.9">
  <!-- Generator: Adobe Illustrator 30.2.1, SVG Export Plug-In . SVG Version: 2.1.1 Build 1)  -->
  <defs>
    <style>
      .st0 {
        fill: #f2b23a;
      }
    </style>
  </defs>
  <path class="st0" d="M123.4,75.9h39.8v39.8h-28.2l-69.6,74.6c-10.9,11.6-16.2,19.6-16.2,30.2,0,17.9,0,25.5-1.3,31.2-2.6,10.9-13.6,18.2-23.9,18.2S0,258.3,0,245.4s13.9-25.9,29.5-41.8c7.3-7,15.6-15.9,21.2-21.9l72.6-77.6v-28.2h0ZM2.7,75.9v-39.8h39.8v39.8H2.7ZM42.5,0h120.7v36.1H42.5V0h0ZM59,265.3v-39.8h132.3v39.8H59ZM163.2,36.1h39.8v39.8h-39.8v-39.8Z"/>
  <path class="st0" d="M256.4,26.5c0-13.6,7.6-26.5,31.8-26.5h106.5v39.8h-39.8v-22.9c-19.9.7-29.5,2-34.5,3.3-16.2,4.6-18.6,28.9-41.1,28.9s-22.9-7.6-22.9-22.6h0ZM258,57.4h40.5v168.1h-40.5V57.4ZM437.8,238.8c0,13.6-7.6,26.5-31.8,26.5h-107.4v-39.8h39.8v23.2c25.5,0,41.1-2,50.7-16.6,4.3-6.6,13.6-15.9,25.9-15.9s22.9,7.6,22.9,22.6h0ZM436.1,207.9h-41.5V39.8h41.5v168.1Z"/>
  <path class="st0" d="M614.5,75.9h39.8v39.8h-28.2l-69.6,74.6c-10.9,11.6-16.2,19.6-16.2,30.2,0,17.9,0,25.5-1.3,31.2-2.6,10.9-13.6,18.2-23.9,18.2s-23.9-11.6-23.9-24.5,13.9-25.9,29.5-41.8c7.3-7,15.6-15.9,21.2-21.9l72.6-77.6v-28.2h0ZM493.8,75.9v-39.8h39.8v39.8h-39.8ZM533.6,0h120.7v36.1h-120.7S533.6,0,533.6,0ZM550.2,265.3v-39.8h132.3v39.8h-132.3ZM654.3,36.1h39.8v39.8h-39.8v-39.8Z"/>
  <g>
    <rect class="st0" x="749.1" y="39.8" width="42.1" height="185.7"/>
    <rect class="st0" x="791.2" y="0" width="114.8" height="39.8"/>
    <path class="st0" d="M909,139h-39.8v-23.2c-10.6,0-16.6,0-20.6,3.3-6.3,6.6.3,15.3-12.6,24.2-3.3,2.3-8.3,3.7-13.3,3.7-13.6,0-21.6-9.9-21.6-21.6,0-18.6,15.3-26.2,34.8-26.2h73v39.8h0Z"/>
    <rect class="st0" x="909" y="139" width="39.8" height="68.9"/>
    <path class="st0" d="M930,238.8c0,13.7-7.7,26.7-32,26.7h-106.8v-40h39.8v23.3c25.1,0,40.4-2.2,50-16.7,4.3-6.7,13.7-16,26-16s23,7.7,23,22.7Z"/>
  </g>
</svg>