<svg width="161" height="183" viewBox="0 0 161 183" fill="none" xmlns="http://www.w3.org/2000/svg">
<g clip-path="url(#clip0_5370_4289)">
<path d="M40.91 80.79C17.88 80.79 0 63.35 0 40.53C0 17.71 18.06 0 40.91 0C49.46 0 56.31 1.84 63.38 6.49V21.37C55.4 14.31 49.07 11.51 40.55 11.51C24.37 11.51 13.04 23.57 13.04 40.65C13.04 57.73 24.19 69.1 40.55 69.1C49.46 69.1 55.4 66.68 63.58 59.46V74.1C55.79 78.93 49.46 80.8 40.92 80.8" fill="#00BFB3"/>
<path d="M40.94 182.81C17.86 182.81 0.0300293 165.37 0.0300293 142.55C0.0300293 119.73 18.05 102.02 40.93 102.02C49.44 102.02 56.34 103.86 63.41 108.51V123.39C55.39 116.33 49.08 113.53 40.57 113.53C24.36 113.53 13.05 125.59 13.05 142.67C13.05 159.75 24.18 171.12 40.57 171.12C49.45 171.12 55.39 168.7 63.57 161.48V176.12C55.77 180.95 49.45 182.82 40.93 182.82" fill="#00BFB3"/>
<path d="M106.15 104.17L99.3899 115.98H147.67V180.87H160.1V104.17H106.15Z" fill="#00BFB3"/>
<path d="M115.4 129.62C100.74 129.62 88.8 141.55 88.8 156.21C88.8 170.87 100.73 182.81 115.4 182.81C130.07 182.81 142 170.88 142 156.21C142 141.54 130.07 129.62 115.4 129.62ZM115.4 172C106.76 172 99.74 164.85 99.74 156.21C99.74 147.57 106.76 140.43 115.4 140.43C124.04 140.43 131.06 147.58 131.06 156.21C131.06 164.84 124.03 172 115.4 172Z" fill="#00BFB3"/>
</g>
<defs>
<clipPath id="clip0_5370_4289">
<rect width="160.1" height="182.81" fill="white"/>
</clipPath>
</defs>
</svg>
