<svg width="161" height="193" viewBox="0 0 161 193" fill="none" xmlns="http://www.w3.org/2000/svg">
<g clip-path="url(#clip0_5084_534)">
<path d="M43.04 85C18.81 85 0 66.65 0 42.64C0 18.63 19 0 43.04 0C52.03 0 59.24 1.94 66.68 6.83V22.48C58.28 15.05 51.63 12.1 42.66 12.1C25.64 12.1 13.72 24.79 13.72 42.75C13.72 60.71 25.45 72.68 42.66 72.68C52.03 72.68 58.28 70.13 66.88 62.54V77.95C58.68 83.03 52.03 85 43.04 85Z" fill="#00BFB3"/>
<path d="M136.25 85C111.98 85 93.22 66.65 93.22 42.65C93.22 18.65 112.18 0 136.25 0C145.21 0 152.46 1.94 159.9 6.82V22.48C151.46 15.05 144.83 12.1 135.87 12.1C118.81 12.1 106.92 24.79 106.92 42.75C106.92 60.71 118.62 72.68 135.87 72.68C145.21 72.68 151.46 70.13 160.07 62.54V77.95C151.87 83.04 145.21 85 136.25 85Z" fill="#00BFB3"/>
<path d="M103.31 109.6L96.2 122.01H146.99V190.28H160.07V109.6H103.31Z" fill="#00BFB3"/>
<path d="M113.04 136.37C97.6101 136.37 85.0601 148.92 85.0601 164.35C85.0601 179.78 97.6201 192.33 113.04 192.33C128.46 192.33 141.02 179.78 141.02 164.35C141.02 148.92 128.47 136.37 113.04 136.37ZM113.04 180.95C103.95 180.95 96.5701 173.43 96.5701 164.34C96.5701 155.25 103.96 147.74 113.04 147.74C122.12 147.74 129.51 155.26 129.51 164.34C129.51 173.42 122.12 180.95 113.04 180.95Z" fill="#00BFB3"/>
</g>
<defs>
<clipPath id="clip0_5084_534">
<rect width="160.07" height="192.33" fill="white"/>
</clipPath>
</defs>
</svg>
