<svg width="226" height="142" viewBox="0 0 226 142" fill="none" xmlns="http://www.w3.org/2000/svg">
<g clip-path="url(#clip0_1740_911)">
<path d="M37.0824 73.3972C16.2043 73.3972 0 57.5556 0 36.8312C0 16.1067 16.3806 0 37.0824 0C44.8208 0 51.0379 1.67917 57.4535 5.89918V19.4209C50.2222 13.0135 44.4901 10.4506 36.7517 10.4506C22.0907 10.4506 11.817 21.4094 11.817 36.9196C11.817 52.4298 21.9143 62.7699 36.7517 62.7699C44.8208 62.7699 50.2222 60.5605 57.6299 54.0205V67.3213C50.575 71.7181 44.8428 73.3972 37.0824 73.3972Z" fill="#00B8B0"/>
<path d="M117.464 73.3972C96.5422 73.3972 80.382 57.5556 80.382 36.8312C80.382 16.1067 96.7406 0 117.464 0C125.181 0 131.442 1.67917 137.836 5.89918V19.4209C130.56 13.0135 124.85 10.4506 117.134 10.4506C102.429 10.4506 92.177 21.4094 92.177 36.9196C92.177 52.4298 102.252 62.7699 117.134 62.7699C125.181 62.7699 130.56 60.5605 137.99 54.0205V67.3213C130.913 71.7181 125.181 73.3972 117.464 73.3972Z" fill="#00B8B0"/>
<path d="M176.483 1.96631L170.354 12.682H214.117V71.6296H225.383V1.96631H176.483Z" fill="#00B8B0"/>
<path d="M184.861 25.0771C171.567 25.0771 160.742 35.9034 160.742 49.2262C160.742 62.5491 171.567 73.3974 184.861 73.3974C198.155 73.3974 208.958 62.5491 208.958 49.2262C208.958 35.9034 198.133 25.0771 184.861 25.0771ZM184.861 63.5654C177.034 63.5654 170.663 57.0697 170.663 49.2262C170.663 41.3827 177.034 34.887 184.861 34.887C192.688 34.887 199.059 41.3827 199.059 49.2262C199.059 57.0697 192.688 63.5654 184.861 63.5654Z" fill="#00B8B0"/>
<path d="M6.72422 105.191C6.72422 108.748 9.41391 111.444 12.8973 111.444C15.2342 111.444 16.9539 110.295 18.0121 108.903L20.4152 111.068C18.8058 113.123 16.1381 114.559 12.8311 114.559C7.20925 114.559 3.2629 110.405 3.2629 105.169C3.2629 99.9325 7.16515 95.7788 12.787 95.7788C15.4767 95.7788 17.7696 96.7951 19.379 98.3859L17.1302 100.794C16.0499 99.6895 14.5287 98.9162 12.743 98.9162C9.30368 98.9162 6.72422 101.7 6.72422 105.169V105.191Z" fill="#231F20"/>
<path d="M34.9439 114.316H31.7251V113.299C30.6889 114.183 29.4984 114.581 28.2417 114.581C26.3898 114.581 24.6261 113.741 23.5238 112.438C22.5537 111.289 21.9143 109.72 21.9143 107.997C21.9143 104.263 24.6481 101.391 28.0433 101.391C29.4543 101.391 30.733 101.855 31.7031 102.672V101.656H34.9219V114.316H34.9439ZM31.5928 106.097C30.8873 105.147 29.785 104.528 28.5063 104.528C26.5441 104.528 25.2875 106.163 25.2875 107.997C25.2875 109.985 26.6985 111.444 28.5945 111.444C29.8511 111.444 30.9755 110.825 31.6149 109.875V106.097H31.5928Z" fill="#231F20"/>
<path d="M42.3075 114.316H38.9564V95.7788H42.3075V114.316Z" fill="#231F20"/>
<path d="M47.9735 95.0054C49.186 95.0054 50.1561 95.9554 50.1561 97.1706C50.1561 98.3858 49.186 99.3358 47.9735 99.3358C46.7609 99.3358 45.7909 98.3858 45.7909 97.1706C45.7909 95.9554 46.7609 95.0054 47.9735 95.0054ZM49.649 114.316H46.2979V101.656H49.649V114.316Z" fill="#231F20"/>
<path d="M62.1274 98.6511C61.8408 98.5627 61.4219 98.5185 61.1133 98.5185C60.2975 98.5185 59.6361 98.7615 59.2393 99.2476C58.9527 99.6232 58.7763 100.087 58.7763 101.258V101.656H62.6345V104.528H58.7763V114.316H55.4252V104.528H52.2064V101.656H55.4252V101.126C55.4252 99.0929 55.8882 97.8557 56.7701 96.994C57.6519 96.1323 58.9527 95.5137 60.6723 95.5137C61.3337 95.5137 61.951 95.5579 62.6565 95.7567L62.1494 98.6511H62.1274Z" fill="#231F20"/>
<path d="M70.461 101.391C74.253 101.391 77.1191 104.329 77.1191 107.997C77.1191 111.664 74.253 114.581 70.461 114.581C66.669 114.581 63.8029 111.664 63.8029 107.997C63.8029 104.329 66.669 101.391 70.461 101.391ZM70.461 111.444C72.4232 111.444 73.768 109.897 73.768 107.997C73.768 106.097 72.4232 104.528 70.461 104.528C68.4989 104.528 67.154 106.097 67.154 107.997C67.154 109.897 68.4989 111.444 70.461 111.444Z" fill="#231F20"/>
<path d="M87.6794 104.661C87.4369 104.572 86.9519 104.528 86.4669 104.528C84.9898 104.528 83.8433 105.589 83.4244 106.362V114.316H80.0734V101.656H83.2922V102.937C84.0417 101.987 85.4086 101.391 86.9299 101.391C87.4149 101.391 87.7015 101.435 88.0542 101.501L87.6574 104.661H87.6794Z" fill="#231F20"/>
<path d="M90.788 114.316V101.656H94.0068V102.672C94.9548 101.899 96.1454 101.391 97.5343 101.391C99.2539 101.391 100.841 102.164 101.877 103.423C102.693 104.418 103.178 105.699 103.178 107.864V114.316H99.8271V107.599C99.8271 106.34 99.5405 105.699 99.0775 105.235C98.6366 104.793 97.9752 104.528 97.2036 104.528C95.7926 104.528 94.6241 105.434 94.1611 106.097V114.316H90.8101H90.788Z" fill="#231F20"/>
<path d="M108.536 95.0054C109.748 95.0054 110.718 95.9554 110.718 97.1706C110.718 98.3858 109.748 99.3358 108.536 99.3358C107.323 99.3358 106.353 98.3858 106.353 97.1706C106.353 95.9554 107.323 95.0054 108.536 95.0054ZM110.211 114.316H106.86V101.656H110.211V114.316Z" fill="#231F20"/>
<path d="M126.173 114.316H122.954V113.299C121.918 114.183 120.727 114.581 119.471 114.581C117.619 114.581 115.855 113.741 114.753 112.438C113.783 111.289 113.143 109.72 113.143 107.997C113.143 104.263 115.877 101.391 119.272 101.391C120.683 101.391 121.962 101.855 122.932 102.672V101.656H126.151V114.316H126.173ZM122.822 106.097C122.116 105.147 121.014 104.528 119.735 104.528C117.773 104.528 116.516 106.163 116.516 107.997C116.516 109.985 117.927 111.444 119.823 111.444C121.08 111.444 122.204 110.825 122.844 109.875V106.097H122.822Z" fill="#231F20"/>
<path d="M139.335 105.191C139.335 108.748 142.024 111.444 145.508 111.444C147.845 111.444 149.564 110.295 150.623 108.903L153.026 111.068C151.416 113.123 148.749 114.559 145.442 114.559C139.82 114.559 135.873 110.405 135.873 105.169C135.873 99.9325 139.776 95.7788 145.398 95.7788C148.087 95.7788 150.38 96.7951 151.989 98.3859L149.741 100.794C148.66 99.6895 147.139 98.9162 145.353 98.9162C141.914 98.9162 139.335 101.7 139.335 105.169V105.191Z" fill="#231F20"/>
<path d="M161.205 101.391C164.997 101.391 167.863 104.329 167.863 107.997C167.863 111.664 164.997 114.581 161.205 114.581C157.413 114.581 154.547 111.664 154.547 107.997C154.547 104.329 157.413 101.391 161.205 101.391ZM161.205 111.444C163.167 111.444 164.512 109.897 164.512 107.997C164.512 106.097 163.167 104.528 161.205 104.528C159.243 104.528 157.898 106.097 157.898 107.997C157.898 109.897 159.243 111.444 161.205 111.444Z" fill="#231F20"/>
<path d="M173.948 114.316H170.597V95.7788H173.948V114.316Z" fill="#231F20"/>
<path d="M181.267 114.316H177.916V95.7788H181.267V114.316Z" fill="#231F20"/>
<path d="M195.642 112.305C194.429 113.763 192.445 114.581 190.505 114.581C186.757 114.581 183.957 111.974 183.957 107.997C183.957 104.484 186.338 101.391 190.042 101.391C193.503 101.391 195.95 104.329 195.95 107.864C195.95 108.196 195.928 108.549 195.884 108.836H187.22C187.396 110.604 188.829 111.841 190.593 111.841C192.004 111.841 193.151 111.024 193.746 110.383L195.664 112.305H195.642ZM192.511 106.362C192.401 105.235 191.409 104.152 190.042 104.152C188.675 104.152 187.507 105.213 187.352 106.362H192.511Z" fill="#231F20"/>
<path d="M211.163 113.609C211.163 115.884 210.766 117.232 210.038 118.315C208.914 119.906 206.886 120.856 204.482 120.856C202.079 120.856 199.72 119.707 198.464 118.248L200.58 116.039C201.242 116.768 202.41 117.873 204.482 117.873C205.563 117.873 206.467 117.541 207.04 116.857C207.547 116.282 207.812 115.509 207.812 113.874V113.454C206.797 114.227 205.717 114.603 204.46 114.603C202.609 114.603 200.823 113.763 199.72 112.46C198.75 111.311 198.155 109.742 198.155 108.019C198.155 104.285 200.889 101.413 204.284 101.413C205.695 101.413 206.974 101.877 207.944 102.694V101.678H211.163V113.631V113.609ZM207.812 106.097C207.106 105.147 206.004 104.528 204.725 104.528C202.763 104.528 201.506 106.163 201.506 107.997C201.506 109.985 202.917 111.443 204.813 111.443C206.07 111.443 207.194 110.825 207.834 109.875V106.097H207.812Z" fill="#231F20"/>
<path d="M225.691 112.305C224.479 113.763 222.495 114.581 220.554 114.581C216.807 114.581 214.007 111.974 214.007 107.997C214.007 104.484 216.388 101.391 220.091 101.391C223.553 101.391 226 104.329 226 107.864C226 108.196 225.978 108.549 225.934 108.836H217.27C217.446 110.604 218.879 111.841 220.643 111.841C222.054 111.841 223.2 111.024 223.795 110.383L225.713 112.305H225.691ZM222.561 106.362C222.45 105.235 221.458 104.152 220.091 104.152C218.725 104.152 217.556 105.213 217.402 106.362H222.561Z" fill="#231F20"/>
<path d="M10.0753 128.832C13.8894 128.832 16.7775 131.771 16.7775 135.438C16.7775 139.106 13.8894 142.022 10.0753 142.022C6.26124 142.022 3.37313 139.106 3.37313 135.438C3.37313 131.771 6.26124 128.832 10.0753 128.832ZM10.0753 138.885C12.0595 138.885 13.4044 137.338 13.4044 135.438C13.4044 133.538 12.0595 131.969 10.0753 131.969C8.09111 131.969 6.74627 133.538 6.74627 135.438C6.74627 137.338 8.09111 138.885 10.0753 138.885Z" fill="#231F20"/>
<path d="M28.0874 126.092C27.8008 126.004 27.3819 125.959 27.0733 125.959C26.2355 125.959 25.5961 126.202 25.1773 126.689C24.8906 127.064 24.7143 127.528 24.7143 128.699V129.097H28.6165V131.969H24.7143V141.757H21.3411V131.969H18.1003V129.097H21.3411V128.567C21.3411 126.534 21.8041 125.297 22.686 124.435C23.5678 123.573 24.8906 122.955 26.6103 122.955C27.2937 122.955 27.911 122.999 28.6165 123.198L28.0874 126.092Z" fill="#231F20"/>
<path d="M47.5105 141.735C47.0696 141.89 46.0554 142 45.4161 142C43.3878 142 41.9106 141.315 41.0508 140.166C40.4115 139.305 40.1249 138.178 40.1249 136.388V131.947H36.6195V129.075H40.1249V125.562H43.498V129.075H47.6648V131.947H43.498V136.764C43.498 137.537 43.6303 138.023 43.9169 138.355C44.2476 138.752 44.7988 138.973 45.6365 138.973C46.1216 138.973 46.7829 138.885 47.0034 138.841L47.5325 141.713L47.5105 141.735Z" fill="#231F20"/>
<path d="M53.882 141.735H50.5088V123.198H53.882V129.981C54.8079 129.252 56.0205 128.81 57.3212 128.81C59.0629 128.81 60.6503 129.583 61.6865 130.842C62.5242 131.837 62.9872 133.118 62.9872 135.283V141.735H59.6141V135.018C59.6141 133.759 59.3275 133.118 58.8645 132.654C58.4236 132.212 57.7401 131.947 56.9685 131.947C55.5355 131.947 54.367 132.853 53.904 133.516V141.735H53.882Z" fill="#231F20"/>
<path d="M77.2514 139.747C76.0388 141.205 74.0326 142.022 72.0704 142.022C68.3005 142.022 65.4785 139.415 65.4785 135.438C65.4785 131.925 67.8595 128.832 71.6075 128.832C75.0908 128.832 77.56 131.771 77.56 135.306C77.56 135.637 77.538 135.991 77.4719 136.278H68.7414C68.9178 138.045 70.3508 139.283 72.1366 139.283C73.5696 139.283 74.716 138.465 75.3113 137.824L77.2293 139.747H77.2514ZM74.0987 133.803C73.9885 132.676 72.9743 131.594 71.6075 131.594C70.2406 131.594 69.05 132.654 68.8957 133.803H74.0987Z" fill="#231F20"/>
<path d="M84.8575 141.735L92.662 123.463H95.1312L102.936 141.735H99.276L97.5563 137.692H90.2589L88.5393 141.735H84.8795H84.8575ZM91.5597 134.554H96.1894L93.8746 129.141L91.5597 134.554Z" fill="#231F20"/>
<path d="M112.438 132.102C112.195 132.014 111.71 131.969 111.225 131.969C109.748 131.969 108.58 133.03 108.161 133.803V141.757H104.788V129.097H108.028V130.379C108.778 129.429 110.167 128.832 111.688 128.832C112.173 128.832 112.46 128.876 112.835 128.943L112.438 132.102Z" fill="#231F20"/>
<path d="M125.556 141.735C125.115 141.89 124.1 142 123.461 142C121.433 142 119.956 141.315 119.096 140.166C118.457 139.305 118.17 138.178 118.17 136.388V131.947H114.665V129.075H118.17V125.562H121.543V129.075H125.71V131.947H121.543V136.764C121.543 137.537 121.675 138.023 121.962 138.355C122.293 138.752 122.844 138.973 123.682 138.973C124.167 138.973 124.828 138.885 125.048 138.841L125.578 141.713L125.556 141.735Z" fill="#231F20"/>
<path d="M129.458 137.891C130.318 138.664 131.64 139.15 132.919 139.15C133.823 139.15 134.529 138.708 134.529 138.089C134.529 136.189 128.422 136.874 128.422 132.787C128.422 130.356 130.759 128.854 133.25 128.854C134.881 128.854 136.689 129.473 137.505 130.135L135.917 132.588C135.278 132.124 134.418 131.726 133.492 131.726C132.566 131.726 131.773 132.102 131.773 132.743C131.773 134.378 137.88 133.737 137.88 138.112C137.88 140.542 135.521 142.022 132.853 142.022C131.111 142.022 129.259 141.426 127.782 140.321L129.414 137.891H129.458Z" fill="#231F20"/>
</g>
<defs>
<clipPath id="clip0_1740_911">
<rect width="226" height="142" fill="white"/>
</clipPath>
</defs>
</svg>
