<svg width="479" height="73" viewBox="0 0 479 73" fill="none" xmlns="http://www.w3.org/2000/svg">
<g clip-path="url(#clip0_1740_913)">
<path d="M37.1501 73C16.2242 73 0 57.2269 0 36.6208C0 16.0147 16.4008 0 37.1501 0C44.898 0 51.1228 1.66958 57.5462 5.86548V19.31C50.306 12.9392 44.5669 10.3909 36.819 10.3909C22.14 10.3909 11.8315 21.2871 11.8315 36.7087C11.8315 52.1303 21.9634 62.4114 36.819 62.4114C44.898 62.4114 50.306 60.2146 57.7228 53.712V66.9368C50.6592 71.3085 44.898 72.978 37.1501 72.978" fill="#00B8B0"/>
<path d="M117.653 73C96.705 73 80.525 57.2489 80.525 36.6208C80.525 15.9928 96.8816 0 117.653 0C125.379 0 131.648 1.66958 138.049 5.86548V19.31C130.765 12.9392 125.048 10.3909 117.322 10.3909C102.599 10.3909 92.3344 21.2871 92.3344 36.7087C92.3344 52.1303 102.444 62.4114 117.322 62.4114C125.379 62.4114 130.787 60.2146 138.204 53.69V66.9148C131.118 71.2865 125.379 72.978 117.653 72.978" fill="#00B8B0"/>
<path d="M176.744 1.95508L170.63 12.6096H214.446V71.2425H225.726V1.95508H176.744Z" fill="#00B8B0"/>
<path d="M256.386 34.9072C256.386 38.4441 259.101 41.1462 262.611 41.1462C264.973 41.1462 266.695 40.0038 267.776 38.6199L270.205 40.7727C268.593 42.8158 265.878 44.2437 262.545 44.2437C256.85 44.2437 252.877 40.1137 252.877 34.9072C252.877 29.7008 256.806 25.5708 262.501 25.5708C265.216 25.5708 267.534 26.5813 269.167 28.163L266.894 30.5576C265.79 29.4592 264.267 28.6903 262.457 28.6903C258.991 28.6903 256.386 31.4583 256.386 34.9292V34.9072Z" fill="#231F20"/>
<path d="M284.928 43.9802H281.661V42.9697C280.623 43.8484 279.409 44.2439 278.151 44.2439C276.275 44.2439 274.509 43.4091 273.383 42.113C272.39 40.9706 271.772 39.4109 271.772 37.6974C271.772 33.9848 274.531 31.1289 277.975 31.1289C279.409 31.1289 280.69 31.5902 281.683 32.4031V31.3925H284.95V43.9802H284.928ZM281.528 35.8081C280.822 34.8635 279.696 34.2484 278.394 34.2484C276.407 34.2484 275.127 35.874 275.127 37.6974C275.127 39.6745 276.562 41.1244 278.46 41.1244C279.74 41.1244 280.866 40.5093 281.506 39.5647V35.8081H281.528Z" fill="#231F20"/>
<path d="M292.345 43.9801H288.945V25.5488H292.345V43.9801Z" fill="#231F20"/>
<path d="M298.062 24.7798C299.298 24.7798 300.269 25.7244 300.269 26.9327C300.269 28.1409 299.276 29.0855 298.062 29.0855C296.848 29.0855 295.854 28.1409 295.854 26.9327C295.854 25.7244 296.848 24.7798 298.062 24.7798ZM299.761 43.9799H296.362V31.3922H299.761V43.9799Z" fill="#231F20"/>
<path d="M312.41 28.4046C312.123 28.3168 311.703 28.2728 311.394 28.2728C310.555 28.2728 309.915 28.5145 309.496 28.9978C309.209 29.3712 309.032 29.8326 309.032 30.9969V31.3923H312.939V34.2481H309.032V43.98H305.633V34.2481H302.366V31.3923H305.633V30.8651C305.633 28.844 306.096 27.6138 306.979 26.757C307.862 25.9003 309.187 25.2852 310.909 25.2852C311.593 25.2852 312.211 25.3291 312.917 25.5268L312.387 28.4046H312.41Z" fill="#231F20"/>
<path d="M320.842 31.1289C324.683 31.1289 327.574 34.0507 327.574 37.6974C327.574 41.3441 324.683 44.2439 320.842 44.2439C317.001 44.2439 314.109 41.3441 314.109 37.6974C314.109 34.0507 317.001 31.1289 320.842 31.1289ZM320.842 41.1244C322.828 41.1244 324.175 39.5866 324.175 37.6974C324.175 35.8081 322.828 34.2484 320.842 34.2484C318.855 34.2484 317.509 35.8081 317.509 37.6974C317.509 39.5866 318.855 41.1244 320.842 41.1244Z" fill="#231F20"/>
<path d="M338.258 34.3802C338.015 34.2923 337.529 34.2484 337.022 34.2484C335.543 34.2484 334.351 35.3028 333.953 36.0717V43.9802H330.554V31.3925H333.821V32.6667C334.572 31.722 335.962 31.1289 337.507 31.1289C337.993 31.1289 338.28 31.1728 338.655 31.2387L338.258 34.3802Z" fill="#231F20"/>
<path d="M341.392 43.9802V31.3925H344.659V32.4031C345.631 31.6342 346.822 31.1289 348.235 31.1289C349.979 31.1289 351.568 31.8978 352.606 33.15C353.445 34.1385 353.908 35.4127 353.908 37.5656V43.9802H350.509V37.3019C350.509 36.0498 350.222 35.4127 349.758 34.9514C349.317 34.512 348.633 34.2484 347.86 34.2484C346.425 34.2484 345.255 35.1491 344.792 35.8081V43.9802H341.392Z" fill="#231F20"/>
<path d="M359.382 24.7798C360.619 24.7798 361.59 25.7244 361.59 26.9327C361.59 28.1409 360.596 29.0855 359.382 29.0855C358.168 29.0855 357.175 28.1409 357.175 26.9327C357.175 25.7244 358.168 24.7798 359.382 24.7798ZM361.082 43.9799H357.683V31.3922H361.082V43.9799Z" fill="#231F20"/>
<path d="M377.218 43.9802H373.951V42.9697C372.914 43.8484 371.7 44.2439 370.441 44.2439C368.565 44.2439 366.799 43.4091 365.673 42.113C364.68 40.9706 364.062 39.4109 364.062 37.6974C364.062 33.9848 366.821 31.1289 370.265 31.1289C371.7 31.1289 372.98 31.5902 373.973 32.4031V31.3925H377.24V43.9802H377.218ZM373.819 35.8081C373.112 34.8635 371.987 34.2484 370.684 34.2484C368.698 34.2484 367.417 35.874 367.417 37.6974C367.417 39.6745 368.852 41.1244 370.75 41.1244C372.031 41.1244 373.156 40.5093 373.797 39.5647V35.8081H373.819Z" fill="#231F20"/>
<path d="M390.793 34.9072C390.793 38.4441 393.508 41.1462 397.018 41.1462C399.402 41.1462 401.102 40.0038 402.183 38.6199L404.612 40.7727C403 42.8158 400.285 44.2437 396.952 44.2437C391.257 44.2437 387.284 40.1137 387.284 34.9072C387.284 29.7008 391.213 25.5708 396.908 25.5708C399.623 25.5708 401.941 26.5813 403.574 28.163L401.3 30.5576C400.197 29.4592 398.674 28.6903 396.864 28.6903C393.398 28.6903 390.793 31.4583 390.793 34.9292V34.9072Z" fill="#231F20"/>
<path d="M412.889 31.1289C416.73 31.1289 419.622 34.0507 419.622 37.6974C419.622 41.3441 416.73 44.2439 412.889 44.2439C409.048 44.2439 406.157 41.3441 406.157 37.6974C406.157 34.0507 409.048 31.1289 412.889 31.1289ZM412.889 41.1244C414.876 41.1244 416.222 39.5866 416.222 37.6974C416.222 35.8081 414.876 34.2484 412.889 34.2484C410.903 34.2484 409.556 35.8081 409.556 37.6974C409.556 39.5866 410.903 41.1244 412.889 41.1244Z" fill="#231F20"/>
<path d="M426.023 43.9801H422.624V25.5488H426.023V43.9801Z" fill="#231F20"/>
<path d="M433.418 43.9801H430.018V25.5488H433.418V43.9801Z" fill="#231F20"/>
<path d="M448.207 41.9811C446.971 43.431 444.984 44.2439 443.02 44.2439C439.245 44.2439 436.398 41.6516 436.398 37.6974C436.398 34.2044 438.804 31.1289 442.556 31.1289C446.044 31.1289 448.516 34.0507 448.516 37.5656C448.516 37.8951 448.494 38.2466 448.428 38.5322H439.665C439.841 40.2896 441.276 41.5198 443.086 41.5198C444.521 41.5198 445.669 40.707 446.265 40.0699L448.185 41.9811H448.207ZM445.051 36.0717C444.94 34.9514 443.925 33.8749 442.556 33.8749C441.188 33.8749 439.996 34.9294 439.841 36.0717H445.051Z" fill="#231F20"/>
<path d="M463.879 43.2773C463.879 45.54 463.482 46.88 462.732 47.9565C461.584 49.5382 459.553 50.4828 457.125 50.4828C454.697 50.4828 452.291 49.3405 451.055 47.8906L453.196 45.6938C453.88 46.4187 455.05 47.5171 457.125 47.5171C458.229 47.5171 459.134 47.1876 459.708 46.5066C460.237 45.9354 460.48 45.1665 460.48 43.5409V43.1235C459.465 43.8924 458.361 44.2658 457.081 44.2658C455.205 44.2658 453.394 43.431 452.291 42.1349C451.297 40.9926 450.701 39.4329 450.701 37.7193C450.701 34.0067 453.461 31.1509 456.904 31.1509C458.339 31.1509 459.619 31.6122 460.613 32.425V31.4145H463.879V43.2992V43.2773ZM460.48 35.8081C459.774 34.8635 458.648 34.2484 457.346 34.2484C455.359 34.2484 454.079 35.874 454.079 37.6974C454.079 39.6745 455.514 41.1244 457.412 41.1244C458.692 41.1244 459.818 40.5093 460.458 39.5647V35.8081H460.48Z" fill="#231F20"/>
<path d="M478.691 41.9811C477.455 43.431 475.468 44.2439 473.504 44.2439C469.729 44.2439 466.882 41.6516 466.882 37.6974C466.882 34.2044 469.288 31.1289 473.04 31.1289C476.528 31.1289 479 34.0507 479 37.5656C479 37.8951 478.978 38.2466 478.912 38.5322H470.148C470.325 40.2896 471.76 41.5198 473.57 41.5198C475.005 41.5198 476.152 40.707 476.748 40.0699L478.669 41.9811H478.691ZM475.534 36.0717C475.424 34.9514 474.409 33.8749 473.04 33.8749C471.672 33.8749 470.48 34.9294 470.325 36.0717H475.534Z" fill="#231F20"/>
<path d="M259.72 58.4131C263.56 58.4131 266.452 61.3348 266.452 64.9815C266.452 68.6283 263.56 71.528 259.72 71.528C255.879 71.528 252.987 68.6283 252.987 64.9815C252.987 61.3348 255.879 58.4131 259.72 58.4131ZM259.72 68.4086C261.706 68.4086 263.053 66.8708 263.053 64.9815C263.053 63.0923 261.706 61.5326 259.72 61.5326C257.733 61.5326 256.386 63.0923 256.386 64.9815C256.386 66.8708 257.733 68.4086 259.72 68.4086Z" fill="#231F20"/>
<path d="M277.798 55.6893C277.511 55.6014 277.092 55.5575 276.783 55.5575C275.944 55.5575 275.304 55.7991 274.884 56.2824C274.597 56.6559 274.421 57.1172 274.421 58.2815V58.677H278.328V61.5328H274.421V71.2647H271.021V61.5328H267.754V58.677H271.021V58.1497C271.021 56.1287 271.485 54.8984 272.368 54.0417C273.251 53.1849 274.575 52.5698 276.297 52.5698C276.981 52.5698 277.599 52.6138 278.306 52.8115L277.776 55.6893H277.798Z" fill="#231F20"/>
<path d="M297.775 71.2647C297.333 71.4185 296.318 71.5284 295.656 71.5284C293.625 71.5284 292.146 70.8473 291.285 69.705C290.623 68.8482 290.336 67.7279 290.336 65.9485V61.5329H286.826V58.677H290.336V55.1841H293.735V58.677H297.907V61.5329H293.735V66.3439C293.735 67.1128 293.868 67.5961 294.155 67.9256C294.486 68.321 295.037 68.5407 295.876 68.5407C296.362 68.5407 297.024 68.4528 297.267 68.4089L297.797 71.2647H297.775Z" fill="#231F20"/>
<path d="M304.154 71.2647H300.755V52.8335H304.154V59.5777C305.103 58.8528 306.295 58.4134 307.597 58.4134C309.341 58.4134 310.931 59.1823 311.968 60.4345C312.807 61.423 313.27 62.6972 313.27 64.8501V71.2647H309.871V64.5864C309.871 63.3342 309.584 62.6972 309.121 62.2358C308.679 61.7965 307.995 61.5329 307.222 61.5329C305.787 61.5329 304.617 62.4336 304.154 63.0926V71.2647Z" fill="#231F20"/>
<path d="M327.839 69.2653C326.603 70.7152 324.616 71.528 322.652 71.528C318.877 71.528 316.03 68.9358 316.03 64.9815C316.03 61.4886 318.436 58.4131 322.188 58.4131C325.676 58.4131 328.17 61.3348 328.17 64.8497C328.17 65.1793 328.148 65.5307 328.082 65.8163H319.319C319.495 67.5738 320.93 68.804 322.74 68.804C324.175 68.804 325.323 67.9912 325.919 67.3541L327.839 69.2653ZM324.683 63.3559C324.572 62.2355 323.557 61.1591 322.188 61.1591C320.82 61.1591 319.628 62.2136 319.473 63.3559H324.683Z" fill="#231F20"/>
<path d="M336.36 71.2643L344.174 53.0967H346.646L354.46 71.2643H350.774L349.052 67.2441H341.723L340.002 71.2643H336.315H336.36ZM343.092 64.1247H347.728L345.41 58.7425L343.092 64.1247Z" fill="#231F20"/>
<path d="M364.04 61.6644C363.797 61.5765 363.312 61.5326 362.804 61.5326C361.325 61.5326 360.155 62.587 359.736 63.3559V71.2644H356.336V58.6767H359.603V59.9509C360.354 59.0062 361.744 58.4131 363.289 58.4131C363.775 58.4131 364.062 58.457 364.437 58.5229L364.04 61.6644Z" fill="#231F20"/>
<path d="M377.196 71.2647C376.754 71.4185 375.739 71.5284 375.077 71.5284C373.046 71.5284 371.567 70.8473 370.706 69.705C370.044 68.8482 369.757 67.7279 369.757 65.9485V61.5329H366.247V58.677H369.757V55.1841H373.156V58.677H377.328V61.5329H373.156V66.3439C373.156 67.1128 373.289 67.5961 373.576 67.9256C373.907 68.321 374.459 68.5407 375.298 68.5407C375.783 68.5407 376.445 68.4528 376.688 68.4089L377.218 71.2647H377.196Z" fill="#231F20"/>
<path d="M381.103 67.42C381.964 68.1889 383.288 68.6722 384.569 68.6722C385.474 68.6722 386.18 68.2328 386.18 67.6177C386.18 65.7285 380.043 66.3875 380.043 62.3454C380.043 59.9289 382.383 58.4351 384.9 58.4351C386.533 58.4351 388.343 59.0502 389.182 59.7092L387.593 62.1477C386.93 61.6863 386.07 61.2909 385.165 61.2909C384.26 61.2909 383.443 61.6644 383.443 62.3014C383.443 63.9271 389.579 63.29 389.579 67.6397C389.579 70.0562 387.217 71.528 384.547 71.528C382.803 71.528 380.948 70.9349 379.47 69.8365L381.103 67.42Z" fill="#231F20"/>
<path d="M185.154 24.9336C171.844 24.9336 161.006 35.7199 161.006 48.9667C161.006 62.2135 171.844 72.9998 185.154 72.9998C198.465 72.9998 209.303 62.2135 209.303 48.9667C209.303 35.7199 198.465 24.9336 185.154 24.9336ZM185.154 63.224C177.318 63.224 170.939 56.7654 170.939 48.9667C170.939 41.168 177.318 34.7094 185.154 34.7094C192.991 34.7094 199.37 41.168 199.37 48.9667C199.37 56.7654 192.991 63.224 185.154 63.224Z" fill="#00B8B0"/>
</g>
<defs>
<clipPath id="clip0_1740_913">
<rect width="479" height="73" fill="white"/>
</clipPath>
</defs>
</svg>
