<svg width="374" height="28" viewBox="251 51 374 28" fill="none" xmlns="http://www.w3.org/2000/svg">
<path d="M256.511 62.3692C256.511 65.9187 259.228 68.6304 262.739 68.6304C265.103 68.6304 266.825 67.484 267.908 66.095L270.337 68.2556C268.725 70.3059 266.008 71.7389 262.673 71.7389C256.975 71.7389 252.999 67.5942 252.999 62.3692C252.999 57.1442 256.931 52.9995 262.629 52.9995C265.346 52.9995 267.665 54.0136 269.299 55.601L267.024 58.004C265.92 56.9017 264.396 56.1301 262.585 56.1301C259.117 56.1301 256.511 58.9079 256.511 62.3913V62.3692Z" fill="currentColor"/>
<path d="M285.069 71.4962H281.8V70.4821C280.762 71.364 279.547 71.7608 278.288 71.7608C276.411 71.7608 274.644 70.923 273.518 69.6223C272.524 68.4759 271.905 66.9106 271.905 65.191C271.905 61.4651 274.666 58.5991 278.112 58.5991C279.547 58.5991 280.828 59.0621 281.822 59.8778V58.8637H285.091V71.4962H285.069ZM281.667 63.295C280.961 62.347 279.834 61.7297 278.531 61.7297C276.543 61.7297 275.262 63.3611 275.262 65.191C275.262 67.1752 276.698 68.6302 278.597 68.6302C279.878 68.6302 281.005 68.0129 281.645 67.0649V63.295H281.667Z" fill="currentColor"/>
<path d="M292.49 71.4964H289.088V52.9995H292.49V71.4964Z" fill="currentColor"/>
<path d="M298.21 52.2056C299.447 52.2056 300.419 53.1536 300.419 54.3661C300.419 55.5787 299.425 56.5266 298.21 56.5266C296.995 56.5266 296.001 55.5787 296.001 54.3661C296.001 53.1536 296.995 52.2056 298.21 52.2056ZM299.911 71.4741H296.509V58.8415H299.911V71.4741Z" fill="currentColor"/>
<path d="M312.566 55.8654C312.279 55.7773 311.859 55.7332 311.55 55.7332C310.711 55.7332 310.07 55.9757 309.651 56.4607C309.364 56.8355 309.187 57.2985 309.187 58.4669V58.8638H313.096V61.7298H309.187V71.4963H305.786V61.7298H302.517V58.8638H305.786V58.3346C305.786 56.3064 306.25 55.0718 307.133 54.212C308.016 53.3522 309.342 52.7349 311.064 52.7349C311.749 52.7349 312.367 52.779 313.074 52.9774L312.544 55.8654H312.566Z" fill="currentColor"/>
<path d="M321.003 58.5991C324.846 58.5991 327.74 61.5313 327.74 65.191C327.74 68.8507 324.846 71.7608 321.003 71.7608C317.16 71.7608 314.267 68.8507 314.267 65.191C314.267 61.5313 317.16 58.5991 321.003 58.5991ZM321.003 68.6302C322.991 68.6302 324.338 67.087 324.338 65.191C324.338 63.295 322.991 61.7297 321.003 61.7297C319.015 61.7297 317.668 63.295 317.668 65.191C317.668 67.087 319.015 68.6302 321.003 68.6302Z" fill="currentColor"/>
<path d="M338.429 61.862C338.186 61.7738 337.701 61.7297 337.193 61.7297C335.713 61.7297 334.52 62.7879 334.123 63.5596V71.4962H330.721V58.8637H333.99V60.1424C334.741 59.1944 336.132 58.5991 337.678 58.5991C338.164 58.5991 338.451 58.6432 338.827 58.7094L338.429 61.862Z" fill="currentColor"/>
<path d="M341.566 71.4962V58.8637H344.834V59.8778C345.806 59.1062 346.999 58.5991 348.412 58.5991C350.157 58.5991 351.747 59.3707 352.786 60.6274C353.625 61.6195 354.089 62.8982 354.089 65.0587V71.4962H350.687V64.7941C350.687 63.5375 350.4 62.8982 349.936 62.4352C349.495 61.9943 348.81 61.7297 348.037 61.7297C346.601 61.7297 345.431 62.6336 344.967 63.295V71.4962H341.566Z" fill="currentColor"/>
<path d="M359.566 52.2056C360.803 52.2056 361.775 53.1536 361.775 54.3661C361.775 55.5787 360.781 56.5266 359.566 56.5266C358.351 56.5266 357.357 55.5787 357.357 54.3661C357.357 53.1536 358.351 52.2056 359.566 52.2056ZM361.267 71.4741H357.865V58.8415H361.267V71.4741Z" fill="currentColor"/>
<path d="M377.412 71.4962H374.143V70.4821C373.105 71.364 371.89 71.7608 370.631 71.7608C368.754 71.7608 366.987 70.923 365.861 69.6223C364.867 68.4759 364.248 66.9106 364.248 65.191C364.248 61.4651 367.009 58.5991 370.455 58.5991C371.89 58.5991 373.171 59.0621 374.165 59.8778V58.8637H377.434V71.4962H377.412ZM374.011 63.295C373.304 62.347 372.177 61.7297 370.874 61.7297C368.886 61.7297 367.605 63.3611 367.605 65.191C367.605 67.1752 369.041 68.6302 370.941 68.6302C372.222 68.6302 373.348 68.0129 373.988 67.0649V63.295H374.011Z" fill="currentColor"/>
<path d="M390.973 62.3692C390.973 65.9187 393.689 68.6304 397.201 68.6304C399.587 68.6304 401.287 67.484 402.369 66.095L404.799 68.2556C403.187 70.3059 400.47 71.7389 397.135 71.7389C391.437 71.7389 387.461 67.5942 387.461 62.3692C387.461 57.1442 391.392 52.9995 397.091 52.9995C399.807 52.9995 402.126 54.0136 403.761 55.601L401.486 58.004C400.382 56.9017 398.858 56.1301 397.047 56.1301C393.579 56.1301 390.973 58.9079 390.973 62.3913V62.3692Z" fill="currentColor"/>
<path d="M413.103 58.5991C416.946 58.5991 419.84 61.5313 419.84 65.191C419.84 68.8507 416.946 71.7608 413.103 71.7608C409.26 71.7608 406.367 68.8507 406.367 65.191C406.367 61.5313 409.26 58.5991 413.103 58.5991ZM413.103 68.6302C415.091 68.6302 416.438 67.087 416.438 65.191C416.438 63.295 415.091 61.7297 413.103 61.7297C411.116 61.7297 409.768 63.295 409.768 65.191C409.768 67.087 411.116 68.6302 413.103 68.6302Z" fill="currentColor"/>
<path d="M426.223 71.4964H422.821V52.9995H426.223V71.4964Z" fill="currentColor"/>
<path d="M433.644 71.4964H430.242V52.9995H433.644V71.4964Z" fill="currentColor"/>
<path d="M448.419 69.49C447.183 70.9451 445.195 71.7608 443.229 71.7608C439.452 71.7608 436.603 69.1593 436.603 65.191C436.603 61.6856 439.011 58.5991 442.765 58.5991C446.255 58.5991 448.729 61.5313 448.729 65.0587C448.729 65.3894 448.707 65.7421 448.64 66.0287H439.872C440.049 67.7925 441.484 69.027 443.295 69.027C444.731 69.027 445.88 68.2113 446.476 67.572L448.397 69.49H448.419ZM445.261 63.5596C445.151 62.4352 444.135 61.3549 442.765 61.3549C441.396 61.3549 440.203 62.4131 440.049 63.5596H445.261Z" fill="currentColor"/>
<path d="M464.101 70.7907C464.101 73.0615 463.703 74.4063 462.952 75.4866C461.804 77.0739 459.772 78.0219 457.342 78.0219C454.913 78.0219 452.505 76.8755 451.269 75.4204L453.411 73.2158C454.096 73.9433 455.266 75.0456 457.342 75.0456C458.447 75.0456 459.352 74.7149 459.926 74.0315C460.457 73.4583 460.699 72.6867 460.699 71.0552V70.6364C459.684 71.408 458.579 71.7828 457.298 71.7828C455.421 71.7828 453.61 70.945 452.505 69.6443C451.512 68.4979 450.915 66.9326 450.915 65.213C450.915 61.4871 453.676 58.6211 457.122 58.6211C458.557 58.6211 459.838 59.0841 460.832 59.8998V58.8856H464.101V70.8127V70.7907ZM460.699 63.2949C459.993 62.3469 458.866 61.7296 457.563 61.7296C455.575 61.7296 454.294 63.3611 454.294 65.1909C454.294 67.1751 455.73 68.6301 457.629 68.6301C458.911 68.6301 460.037 68.0128 460.677 67.0648V63.2949H460.699Z" fill="currentColor"/>
<path d="M478.921 69.49C477.684 70.9451 475.696 71.7608 473.73 71.7608C469.954 71.7608 467.105 69.1593 467.105 65.191C467.105 61.6856 469.512 58.5991 473.267 58.5991C476.756 58.5991 479.23 61.5313 479.23 65.0587C479.23 65.3894 479.208 65.7421 479.142 66.0287H470.373C470.55 67.7925 471.986 69.027 473.797 69.027C475.232 69.027 476.381 68.2113 476.977 67.572L478.899 69.49H478.921ZM475.762 63.5596C475.652 62.4352 474.636 61.3549 473.267 61.3549C471.897 61.3549 470.705 62.4131 470.55 63.5596H475.762Z" fill="currentColor"/>
<path d="M495.11 58.5991C498.953 58.5991 501.846 61.5313 501.846 65.191C501.846 68.8507 498.953 71.7608 495.11 71.7608C491.267 71.7608 488.374 68.8507 488.374 65.191C488.374 61.5313 491.267 58.5991 495.11 58.5991ZM495.11 68.6302C497.098 68.6302 498.445 67.087 498.445 65.191C498.445 63.295 497.098 61.7297 495.11 61.7297C493.122 61.7297 491.775 63.295 491.775 65.191C491.775 67.087 493.122 68.6302 495.11 68.6302Z" fill="currentColor"/>
<path d="M513.177 55.8654C512.89 55.7773 512.47 55.7332 512.161 55.7332C511.321 55.7332 510.681 55.9757 510.261 56.4607C509.974 56.8355 509.798 57.2985 509.798 58.4669V58.8638H513.707V61.7298H509.798V71.4963H506.396V61.7298H503.127V58.8638H506.396V58.3346C506.396 56.3064 506.86 55.0718 507.743 54.212C508.627 53.3522 509.952 52.7349 511.675 52.7349C512.36 52.7349 512.978 52.779 513.685 52.9774L513.155 55.8654H513.177Z" fill="currentColor"/>
<path d="M533.165 71.4963C532.723 71.6507 531.707 71.7609 531.045 71.7609C529.013 71.7609 527.533 71.0774 526.671 69.931C526.009 69.0712 525.722 67.9469 525.722 66.1611V61.7298H522.21V58.8638H525.722V55.3584H529.123V58.8638H533.297V61.7298H529.123V66.5579C529.123 67.3296 529.256 67.8146 529.543 68.1453C529.874 68.5421 530.426 68.7626 531.265 68.7626C531.751 68.7626 532.414 68.6744 532.657 68.6303L533.187 71.4963H533.165Z" fill="currentColor"/>
<path d="M539.548 71.4964H536.147V52.9995H539.548V59.7677C540.475 59.0402 541.69 58.5993 542.993 58.5993C544.738 58.5993 546.328 59.3709 547.366 60.6275C548.206 61.6196 548.67 62.8983 548.67 65.0589V71.4964H545.268V64.7943C545.268 63.5377 544.981 62.8983 544.517 62.4353C544.076 61.9944 543.391 61.7299 542.618 61.7299C541.182 61.7299 540.012 62.6338 539.548 63.2952V71.4964Z" fill="currentColor"/>
<path d="M563.224 69.49C561.988 70.9451 560 71.7608 558.034 71.7608C554.257 71.7608 551.408 69.1593 551.408 65.191C551.408 61.6856 553.816 58.5991 557.57 58.5991C561.06 58.5991 563.534 61.5313 563.534 65.0587C563.534 65.3894 563.512 65.7421 563.445 66.0287H554.677C554.854 67.7925 556.289 69.027 558.1 69.027C559.536 69.027 560.684 68.2113 561.281 67.572L563.202 69.49H563.224ZM560.066 63.5596C559.956 62.4352 558.94 61.3549 557.57 61.3549C556.201 61.3549 555.008 62.4131 554.854 63.5596H560.066Z" fill="currentColor"/>
<path d="M571.75 71.4965L579.568 53.2642H582.042L589.861 71.4965H586.172L584.449 67.462H577.117L575.394 71.4965H571.706H571.75ZM578.486 64.3314H583.124L580.805 58.9301L578.486 64.3314Z" fill="currentColor"/>
<path d="M599.424 61.862C599.181 61.7738 598.695 61.7297 598.209 61.7297C596.729 61.7297 595.537 62.7879 595.139 63.5596V71.4962H591.738V58.8637H595.007V60.1424C595.758 59.1944 597.149 58.5991 598.695 58.5991C599.181 58.5991 599.468 58.6432 599.844 58.7094L599.446 61.862H599.424Z" fill="currentColor"/>
<path d="M612.61 71.4963C612.168 71.6507 611.152 71.7609 610.489 71.7609C608.457 71.7609 606.978 71.0774 606.116 69.931C605.454 69.0712 605.166 67.9469 605.166 66.1611V61.7298H601.655V58.8638H605.166V55.3584H608.568V58.8638H612.742V61.7298H608.568V66.5579C608.568 67.3296 608.7 67.8146 608.987 68.1453C609.319 68.5421 609.871 68.7626 610.71 68.7626C611.196 68.7626 611.859 68.6744 612.102 68.6303L612.632 71.4963H612.61Z" fill="currentColor"/>
<path d="M616.519 67.6381C617.38 68.4097 618.705 68.8947 619.986 68.8947C620.892 68.8947 621.599 68.4538 621.599 67.8365C621.599 65.9405 615.459 66.6019 615.459 62.5453C615.459 60.1202 617.8 58.6211 620.318 58.6211C621.952 58.6211 623.763 59.2384 624.602 59.8998L623.012 62.3469C622.35 61.884 621.488 61.4871 620.583 61.4871C619.677 61.4871 618.86 61.8619 618.86 62.5013C618.86 64.1327 625 63.4933 625 67.8585C625 70.2836 622.637 71.7607 619.964 71.7607C618.219 71.7607 616.364 71.1655 614.884 70.0632L616.519 67.6381Z" fill="currentColor"/>
</svg>
