<svg xmlns="http://www.w3.org/2000/svg" width="400" height="400" viewBox="0 0 400 400">
  <rect width="400" height="400" fill="#0C2340"/>
  <line x1="15" y1="15" x2="385" y2="15" stroke="#E8A830" stroke-opacity="0.4" stroke-width="1"/>
  <line x1="15" y1="385" x2="385" y2="385" stroke="#E8A830" stroke-opacity="0.4" stroke-width="1"/>
  <text x="200" y="40" text-anchor="middle" font-family="monospace" font-size="10" fill="#3DD6C9" letter-spacing="3">CCA CLASS OF 2026</text>
  <!-- Seal watermark hint -->
  <circle cx="200" cy="170" r="130" fill="none" stroke="#E8A830" stroke-opacity="0.06" stroke-width="2"/>
  <circle cx="200" cy="170" r="120" fill="none" stroke="#E8A830" stroke-opacity="0.04" stroke-width="1"/>
  <circle cx="200" cy="170" r="110" fill="#122D4D" stroke="#E8A830" stroke-width="3"/>
  <!-- Confetti shapes -->
  <rect x="45" y="60" width="6" height="4" rx="1" fill="#00BFB3" opacity="0.15" transform="rotate(25 48 62)"/>
  <circle cx="350" cy="90" r="3" fill="#FFC845" opacity="0.15"/>
  <polygon points="70,280 74,288 66,288" fill="#563D82" opacity="0.15"/>
  <rect x="330" y="250" width="5" height="3" rx="1" fill="#E57200" opacity="0.15" transform="rotate(-15 333 252)"/>
  <circle cx="60" cy="180" r="2.5" fill="#005776" opacity="0.15"/>
  <polygon points="360,340 364,348 356,348" fill="#00BFB3" opacity="0.15"/>
  <rect x="100" y="350" width="6" height="4" rx="1" fill="#FFC845" opacity="0.15" transform="rotate(40 103 352)"/>
  <circle cx="300" cy="370" r="2" fill="#563D82" opacity="0.15"/>
  <text x="200" y="320" text-anchor="middle" font-family="serif" font-size="22" font-style="italic" font-weight="700" fill="#FFFFFF">Your Name</text>
  <text x="200" y="350" text-anchor="middle" font-family="sans-serif" font-size="13" fill="#E8A830">BFA Illustration</text>
</svg>
