<?xml version="1.0" encoding="UTF-8"?>
<svg id="SECONDARY_Logos" data-name="SECONDARY Logos" xmlns="http://www.w3.org/2000/svg" viewBox="0 0 1000 520">
  <defs>
    <style>
      .cls-1 {
        fill: #f2b23a;
      }

      .cls-2 {
        fill: #002f40;
      }

      .cls-3 {
        fill: #fff;
      }

      .cls-4 {
        fill: #00bfb3;
      }
    </style>
  </defs>
  <g>
    <path class="cls-3" d="M271.58,66.14c-6.61,0-11.69-5.09-11.69-11.74s4.89-11.74,11.4-11.74c3.38,0,6.26,1.47,8.32,3.52l4.26-4.5c-3.08-2.98-7.44-4.89-12.52-4.89-10.66,0-18.05,7.78-18.05,17.61s7.49,17.61,18.15,17.61c6.26,0,11.35-2.69,14.38-6.55l-4.55-4.06c-2.01,2.59-5.23,4.75-9.69,4.75Z"/>
    <path class="cls-3" d="M307.3,49.7c-1.86-1.52-4.26-2.4-6.95-2.4-6.46,0-11.64,5.38-11.64,12.38,0,3.23,1.17,6.16,3.03,8.32,2.1,2.45,5.43,4.01,8.95,4.01,2.4,0,4.65-.73,6.6-2.4v1.91h6.12v-23.73h-6.12v1.91ZM307.05,63.2c-1.22,1.76-3.33,2.94-5.72,2.94-3.57,0-6.26-2.74-6.26-6.46,0-3.43,2.4-6.51,6.12-6.51,2.45,0,4.55,1.17,5.87,2.94v7.09Z"/>
    <rect class="cls-3" x="320.99" y="36.78" width="6.36" height="34.74"/>
    <rect class="cls-3" x="334.89" y="47.79" width="6.36" height="23.73"/>
    <path class="cls-3" d="M338.07,35.32c-2.3,0-4.16,1.76-4.16,4.06s1.86,4.06,4.16,4.06,4.16-1.76,4.16-4.06-1.86-4.06-4.16-4.06Z"/>
    <path class="cls-3" d="M359.5,43.29c.78-.93,2.01-1.37,3.57-1.37.59,0,1.37.1,1.91.24l.98-5.43c-1.32-.34-2.49-.44-3.77-.44-3.23,0-5.72,1.17-7.39,2.79-1.66,1.61-2.54,3.91-2.54,7.73v.98h-6.12v5.38h6.12v18.35h6.36v-18.35h7.34v-5.38h-7.34v-.73c0-2.2.34-3.08.88-3.77Z"/>
    <path class="cls-3" d="M380.83,47.3c-7.19,0-12.62,5.53-12.62,12.38s5.43,12.33,12.62,12.33,12.62-5.48,12.62-12.33-5.43-12.38-12.62-12.38ZM380.83,66.14c-3.72,0-6.26-2.89-6.26-6.46s2.54-6.51,6.26-6.51,6.26,2.94,6.26,6.51-2.54,6.46-6.26,6.46Z"/>
    <path class="cls-3" d="M405.19,50.19v-2.4h-6.12v23.73h6.36v-14.92c.78-1.42,2.98-3.43,5.77-3.43.93,0,1.86.1,2.3.25l.73-5.92c-.68-.1-1.22-.2-2.15-.2-2.89,0-5.48,1.12-6.9,2.89Z"/>
    <path class="cls-3" d="M432.19,47.3c-2.64,0-4.89.93-6.7,2.4v-1.91h-6.12v23.73h6.36v-15.41c.88-1.22,3.08-2.94,5.77-2.94,1.47,0,2.74.49,3.57,1.32.88.88,1.42,2.1,1.42,4.45v12.57h6.36v-12.08c0-4.06-.88-6.46-2.45-8.32-1.96-2.35-4.94-3.82-8.22-3.82Z"/>
    <rect class="cls-3" x="449.95" y="47.79" width="6.36" height="23.73"/>
    <path class="cls-3" d="M453.13,35.32c-2.3,0-4.16,1.76-4.16,4.06s1.86,4.06,4.16,4.06,4.16-1.76,4.16-4.06-1.86-4.06-4.16-4.06Z"/>
    <path class="cls-3" d="M480.48,49.7c-1.86-1.52-4.26-2.4-6.95-2.4-6.46,0-11.64,5.38-11.64,12.38,0,3.23,1.17,6.16,3.03,8.32,2.1,2.45,5.43,4.01,8.95,4.01,2.4,0,4.65-.73,6.61-2.4v1.91h6.12v-23.73h-6.12v1.91ZM480.23,63.2c-1.22,1.76-3.33,2.94-5.72,2.94-3.57,0-6.26-2.74-6.26-6.46,0-3.43,2.4-6.51,6.12-6.51,2.45,0,4.55,1.17,5.87,2.94v7.09Z"/>
    <path class="cls-3" d="M523.72,66.14c-6.6,0-11.69-5.09-11.69-11.74s4.89-11.74,11.4-11.74c3.37,0,6.26,1.47,8.32,3.52l4.26-4.5c-3.08-2.98-7.44-4.89-12.52-4.89-10.67,0-18.05,7.78-18.05,17.61s7.48,17.61,18.15,17.61c6.26,0,11.35-2.69,14.38-6.55l-4.55-4.06c-2.01,2.59-5.23,4.75-9.69,4.75Z"/>
    <path class="cls-3" d="M553.52,47.3c-7.19,0-12.62,5.53-12.62,12.38s5.43,12.33,12.62,12.33,12.62-5.48,12.62-12.33-5.43-12.38-12.62-12.38ZM553.52,66.14c-3.72,0-6.26-2.89-6.26-6.46s2.54-6.51,6.26-6.51,6.26,2.94,6.26,6.51-2.55,6.46-6.26,6.46Z"/>
    <rect class="cls-3" x="571.76" y="36.78" width="6.36" height="34.74"/>
    <rect class="cls-3" x="585.66" y="36.78" width="6.36" height="34.74"/>
    <path class="cls-3" d="M609.14,47.3c-7.05,0-11.55,5.77-11.55,12.38,0,7.44,5.33,12.33,12.43,12.33,3.67,0,7.44-1.52,9.74-4.26l-3.62-3.62c-1.12,1.22-3.28,2.74-5.97,2.74-3.38,0-6.07-2.3-6.41-5.63h16.44c.1-.54.15-1.17.15-1.81,0-6.6-4.65-12.13-11.2-12.13ZM604.05,56.6c.29-2.15,2.45-4.16,5.09-4.16s4.5,2.06,4.7,4.16h-9.79Z"/>
    <path class="cls-3" d="M643.04,49.7c-1.86-1.52-4.26-2.4-6.95-2.4-6.46,0-11.64,5.38-11.64,12.38,0,3.23,1.12,6.16,2.98,8.32,2.1,2.45,5.48,4.01,9,4.01,2.4,0,4.45-.68,6.36-2.15v.78c0,3.03-.49,4.5-1.47,5.58-1.08,1.27-2.79,1.91-4.84,1.91-3.91,0-6.12-2.06-7.39-3.43l-4.01,4.16c2.35,2.74,6.75,4.89,11.4,4.89s8.37-1.76,10.52-4.75c1.42-2.01,2.15-4.55,2.15-8.81v-22.41h-6.12v1.91ZM642.8,63.2c-1.22,1.76-3.33,2.94-5.72,2.94-3.57,0-6.26-2.74-6.26-6.46,0-3.43,2.4-6.51,6.12-6.51,2.45,0,4.55,1.17,5.87,2.94v7.09Z"/>
    <path class="cls-3" d="M666.33,47.3c-7.05,0-11.55,5.77-11.55,12.38,0,7.44,5.33,12.33,12.43,12.33,3.67,0,7.44-1.52,9.74-4.26l-3.62-3.62c-1.12,1.22-3.28,2.74-5.97,2.74-3.38,0-6.07-2.3-6.41-5.63h16.44c.1-.54.15-1.17.15-1.81,0-6.6-4.65-12.13-11.2-12.13ZM661.24,56.6c.29-2.15,2.45-4.16,5.09-4.16s4.5,2.06,4.7,4.16h-9.79Z"/>
    <path class="cls-3" d="M707.28,47.3c-7.19,0-12.62,5.53-12.62,12.38s5.43,12.33,12.62,12.33,12.62-5.48,12.62-12.33-5.43-12.38-12.62-12.38ZM707.28,66.14c-3.72,0-6.26-2.89-6.26-6.46s2.54-6.51,6.26-6.51,6.26,2.94,6.26,6.51-2.55,6.46-6.26,6.46Z"/>
    <path class="cls-3" d="M735.7,43.29c.78-.93,2.01-1.37,3.57-1.37.59,0,1.37.1,1.91.24l.98-5.43c-1.32-.34-2.5-.44-3.77-.44-3.23,0-5.72,1.17-7.39,2.79-1.66,1.61-2.55,3.91-2.55,7.73v.98h-6.12v5.38h6.12v18.35h6.36v-18.35h7.34v-5.38h-7.34v-.73c0-2.2.34-3.08.88-3.77Z"/>
    <path class="cls-3" d="M771.07,41.19h-6.36v6.6h-6.61v5.38h6.61v8.32c0,3.38.54,5.48,1.76,7.09,1.61,2.15,4.4,3.42,8.22,3.42,1.22,0,3.13-.19,3.96-.49l-.98-5.38c-.44.1-1.66.24-2.59.24-1.57,0-2.59-.44-3.23-1.17-.54-.64-.78-1.52-.78-2.98v-9.05h7.83v-5.38h-7.83v-6.6Z"/>
    <path class="cls-3" d="M797.09,47.3c-2.45,0-4.7.83-6.46,2.2v-12.72h-6.36v34.74h6.36v-15.41c.88-1.22,3.08-2.94,5.77-2.94,1.47,0,2.74.49,3.57,1.32.88.88,1.42,2.1,1.42,4.45v12.57h6.36v-12.08c0-4.06-.88-6.46-2.45-8.32-1.96-2.35-4.94-3.82-8.22-3.82Z"/>
    <path class="cls-3" d="M824.39,47.3c-7.05,0-11.55,5.77-11.55,12.38,0,7.44,5.33,12.33,12.43,12.33,3.67,0,7.44-1.52,9.74-4.26l-3.62-3.62c-1.12,1.22-3.28,2.74-5.97,2.74-3.38,0-6.07-2.3-6.41-5.63h16.44c.1-.54.15-1.17.15-1.81,0-6.6-4.65-12.13-11.2-12.13ZM819.31,56.6c.29-2.15,2.45-4.16,5.09-4.16s4.5,2.06,4.7,4.16h-9.79Z"/>
    <path class="cls-3" d="M865.68,37.27l-14.68,34.25h6.9l3.23-7.58h13.75l3.23,7.58h6.9l-14.68-34.25h-4.65ZM863.63,58.07l4.35-10.13,4.35,10.13h-8.71Z"/>
    <path class="cls-3" d="M894.59,50.19v-2.4h-6.12v23.73h6.36v-14.92c.78-1.42,2.98-3.43,5.77-3.43.93,0,1.86.1,2.3.25l.74-5.92c-.69-.1-1.22-.2-2.15-.2-2.89,0-5.48,1.12-6.9,2.89Z"/>
    <path class="cls-3" d="M920.03,41.19h-6.36v6.6h-6.61v5.38h6.61v8.32c0,3.38.54,5.48,1.76,7.09,1.61,2.15,4.4,3.42,8.22,3.42,1.22,0,3.13-.19,3.96-.49l-.98-5.38c-.44.1-1.66.24-2.59.24-1.57,0-2.59-.44-3.23-1.17-.54-.64-.78-1.52-.78-2.98v-9.05h7.83v-5.38h-7.83v-6.6Z"/>
    <path class="cls-3" d="M939.36,54.59c0-1.22,1.47-1.91,3.23-1.91s3.33.73,4.55,1.61l2.98-4.6c-1.56-1.22-4.94-2.4-8.02-2.4-4.7,0-9.1,2.84-9.1,7.39,0,7.63,11.5,6.36,11.5,9.93,0,1.17-1.32,2.01-3.03,2.01-2.4,0-4.89-.88-6.51-2.35l-3.08,4.55c2.79,2.06,6.26,3.18,9.54,3.18,4.99,0,9.44-2.79,9.44-7.34,0-8.22-11.5-7-11.5-10.08Z"/>
  </g>
  <g>
    <path class="cls-1" d="M118.82,24.26c76.23,0,116.12,60.99,116.12,132.53v186.48s740.06,0,740.06,0v152.47s-798.7,0-798.7,0v-200.56c-1.17-34.01-5.86-71.54-16.42-86.79-16.42-24.63-80.93-2.35-112.6-39.88-12.9-15.25-22.28-37.53-22.28-60.99,0-49.26,43.39-83.27,93.82-83.27Z"/>
    <g>
      <path class="cls-4" d="M360.97,178.44h28.41v28.41h-20.12l-49.72,53.27c-7.81,8.28-11.6,13.97-11.6,21.54,0,12.78,0,18.23-.95,22.25-1.89,7.81-9.71,13.02-17.05,13.02-8.99,0-17.04-8.29-17.04-17.52s9.95-18.47,21.07-29.83c5.21-4.97,11.13-11.36,15.15-15.62l51.84-55.4v-20.12ZM274.81,178.44v-28.41h28.41v28.41h-28.41ZM303.21,124.23h86.17v25.8h-86.17v-25.8ZM315.05,313.61v-28.41h94.46v28.41h-94.46ZM389.39,150.03h28.41v28.41h-28.41v-28.41Z"/>
      <path class="cls-4" d="M455.91,143.17c0-9.71,5.44-18.94,22.72-18.94h76v28.41h-28.41v-16.33c-14.2.47-21.07,1.42-24.62,2.37-11.6,3.31-13.26,20.6-29.35,20.6-8.29,0-16.33-5.45-16.33-16.1ZM457.09,165.18h28.88v120.02h-28.88v-120.02ZM585.4,294.67c0,9.7-5.45,18.94-22.73,18.94h-76.7v-28.41h28.41v16.57c18.23,0,29.35-1.42,36.22-11.83,3.08-4.73,9.71-11.36,18.47-11.36,8.28,0,16.33,5.44,16.33,16.1ZM584.21,272.66h-29.59v-120.02h29.59v120.02Z"/>
      <path class="cls-4" d="M711.57,178.44h28.41v28.41h-20.12l-49.71,53.27c-7.81,8.28-11.6,13.97-11.6,21.54,0,12.78,0,18.23-.95,22.25-1.89,7.81-9.71,13.02-17.04,13.02-9,0-17.04-8.29-17.04-17.52s9.94-18.47,21.07-29.83c5.21-4.97,11.13-11.36,15.15-15.62l51.84-55.4v-20.12ZM625.4,178.44v-28.41h28.41v28.41h-28.41ZM653.81,124.23h86.17v25.8h-86.17v-25.8ZM665.65,313.61v-28.41h94.46v28.41h-94.46ZM739.98,150.03h28.41v28.41h-28.41v-28.41Z"/>
      <g>
        <rect class="cls-4" x="807.66" y="152.64" width="30.07" height="132.56"/>
        <rect class="cls-4" x="837.73" y="124.23" width="81.93" height="28.41"/>
        <path class="cls-4" d="M921.79,223.43h-28.42v-16.57c-7.58,0-11.84,0-14.68,2.37-4.5,4.74.24,10.89-8.99,17.28-2.37,1.66-5.92,2.61-9.47,2.61-9.71,0-15.39-7.1-15.39-15.39,0-13.26,10.89-18.71,24.86-18.71h52.09v28.41Z"/>
        <rect class="cls-4" x="921.79" y="223.43" width="28.41" height="49.22"/>
        <path class="cls-4" d="M936.82,294.72c0,9.76-5.48,19.05-22.86,19.05h-76.24s0-28.57,0-28.57h28.42s0,16.08,0,16.66c17.89-.04,28.87-1.57,35.68-11.9,3.1-4.76,9.76-11.43,18.57-11.43,8.33,0,16.43,5.48,16.43,16.19Z"/>
      </g>
    </g>
  </g>
  <g>
    <g>
      <path class="cls-2" d="M50.61,101.23v-6.68l11.14-6.35h4.73v47.25h-6.75v-38.81l-9.11,4.59Z"/>
      <path class="cls-2" d="M83,101.23v-6.68l11.14-6.35h4.73v47.25h-6.75v-38.81l-9.11,4.59Z"/>
      <path class="cls-2" d="M131.59,119.59c-.88.13-1.76.13-2.57.13-8.64,0-15.66-6.88-15.66-15.99s6.95-16.2,16.4-16.2,16.33,7.16,16.33,16c0,2.23-.34,4.46-1.55,7.22-.95,2.16-2.57,4.86-4.46,7.69l-11.21,17.01h-7.62l10.33-15.86ZM139.42,103.73c0-5.6-4.18-9.79-9.65-9.79s-9.65,4.39-9.65,9.65,3.98,9.92,9.52,9.92c3.04,0,5.74-.88,7.42-2.5,1.62-2.5,2.36-4.59,2.36-7.29Z"/>
      <path class="cls-2" d="M153.64,87.21h14.87v2.94h-5.89v18.75h-3.1v-18.75h-5.89v-2.94Z"/>
      <path class="cls-2" d="M188.5,98.67h-12.08v10.23h-3.1v-21.69h3.1v8.52h12.08v-8.52h3.1v21.69h-3.1v-10.23Z"/>
    </g>
    <g>
      <path class="cls-2" d="M235.41,389.21c8.41,0,16.41,3.45,21.54,9.09l-5.64,5.55c-3.45-3.79-9.59-6.65-15.9-6.65-12.04,0-21.37,9.59-21.37,22.3s9.59,22.3,22.13,22.3c7.91,0,13.63-4.38,16.92-8.33l5.98,5.39c-5.05,6.48-13.8,10.94-22.89,10.94-17.59,0-30.55-12.88-30.55-30.3s12.79-30.29,29.79-30.29Z"/>
      <path class="cls-2" d="M296.25,389.21c16.66,0,29.45,13.13,29.45,30.29s-12.79,30.3-29.45,30.3-29.45-13.13-29.45-30.3,12.79-30.29,29.45-30.29ZM296.25,441.81c12.03,0,21.04-9.51,21.04-22.3s-9-22.3-21.04-22.3-21.04,9.59-21.04,22.3,9,22.3,21.04,22.3Z"/>
      <path class="cls-2" d="M371.74,436.34h-5.89l-17.25-27.01v39.63h-8.41v-58.9h5.89l22.72,35.93,22.72-35.93h5.89v58.9h-8.41v-39.63l-17.25,27.01Z"/>
      <path class="cls-2" d="M448.06,436.34h-5.89l-17.25-27.01v39.63h-8.41v-58.9h5.89l22.72,35.93,22.72-35.93h5.89v58.9h-8.41v-39.63l-17.25,27.01Z"/>
      <path class="cls-2" d="M520.6,413.2v7.99h-19.35v19.77h26.09v8h-34.5v-58.9h33.66v7.99h-25.24v15.15h19.35Z"/>
      <path class="cls-2" d="M550.65,405.71v43.25h-8.41v-58.9h5.89l35.34,43.25v-43.25h8.41v58.9h-5.89l-35.34-43.25Z"/>
      <path class="cls-2" d="M636.15,389.21c8.41,0,16.41,3.45,21.54,9.09l-5.64,5.55c-3.45-3.79-9.59-6.65-15.9-6.65-12.04,0-21.37,9.59-21.37,22.3s9.59,22.3,22.13,22.3c7.91,0,13.63-4.38,16.92-8.33l5.98,5.39c-5.05,6.48-13.8,10.94-22.89,10.94-17.59,0-30.55-12.88-30.55-30.3s12.79-30.29,29.79-30.29Z"/>
      <path class="cls-2" d="M700.77,413.2v7.99h-19.35v19.77h26.09v8h-34.5v-58.9h33.66v7.99h-25.24v15.15h19.35Z"/>
      <path class="cls-2" d="M753.96,436.34h-5.89l-17.25-27.01v39.63h-8.41v-58.9h5.89l22.72,35.93,22.72-35.93h5.89v58.9h-8.41v-39.63l-17.25,27.01Z"/>
      <path class="cls-2" d="M826.5,413.2v7.99h-19.35v19.77h26.09v8h-34.5v-58.9h33.66v7.99h-25.24v15.15h19.35Z"/>
      <path class="cls-2" d="M856.54,405.71v43.25h-8.41v-58.9h5.89l35.34,43.25v-43.25h8.41v58.9h-5.89l-35.34-43.25Z"/>
      <path class="cls-2" d="M910.57,390.06h40.39v7.99h-15.99v50.91h-8.42v-50.91h-15.99v-7.99Z"/>
    </g>
  </g>
</svg>