<svg xmlns="http://www.w3.org/2000/svg" viewBox="2895.49 4094.37 1051.158 519.786" style="background:#f5f5f5">
  <path d="M3761.1 4354.3 L3743 4357.1 L3727.8 4359.6 L3714.6 4361.9 L3703.1 4364.1 L3693.1 4366.1 L3683.9 4368 L3675.9 4369.8 L3668.4 4371.6 L3661.7 4373.2 L3655.4 4374.8 L3650.7 4376.4 L3648.1 4378.1 L3646.5 4379.9 L3645.6 4381.8 L3645.2 4383.8 L3645.2 4385.8 L3645.2 4387.8 L3645.1 4389.8 L3645.1 4391.8 L3645.1 4393.8 L3645.1 4395.8 L3645 4397.8 L3645 4399.8 L3645 4401.9 L3645 4403.9 L3644.9 4405.9 L3644.9 4408 L3644.9 4410.1 L3644.9 4412.1 L3644.8 4414.2 L3644.8 4416.3 L3644.8 4418.4 L3644.8 4420.5 L3644.7 4422.6 L3644.7 4424.8 L3644.7 4426.9 L3644.7 4429.1 L3644.6 4431.2 L3644.6 4433.4 L3644.6 4435.6 L3644.6 4437.8 L3644.5 4440 L3644.5 4442.3 L3644.5 4444.5 L3644.5 4446.8 L3644.4 4449.1 L3644.4 4451.4 L3644.4 4453.7 L3644.4 4456 L3644.3 4458.4 L3644.3 4460.7 L3644.3 4463.1 L3644.3 4465.5 L3644.2 4468 L3644.2 4470.4 L3644.2 4472.9 L3644.2 4475.4 L3644.1 4477.9 L3644.1 4480.5 L3644.1 4483 L3644.1 4485.6 L3644 4488.2 L3644 4490.9 L3644 4493.6 L3644 4496.3 L3643.9 4499 L3643.9 4501.8 L3643.9 4504.5 L3643.9 4507.4 L3643.8 4510.2 L3643.8 4513.1 L3643.8 4516.1 L3643.8 4519 L3643.7 4522 L3643.7 4525.1 L3643.7 4528.2 L3643.7 4531.3 L3643.6 4534.5 L3643.6 4537.7 L3643.6 4541 L3643.6 4544.3 L3643.5 4547.7 L3643.5 4551.1 L3643.5 4554.5 L3643.5 4558.1 L3643.5 4561.6 L3643.4 4565.3 L3643.4 4569 L3643.4 4572.7 L3643.4 4576.6 L3643.4 4580.5 L3641.2 4582.2 L3637.4 4582.2 L3633.7 4582.2 L3630 4582.2 L3626.3 4582.2 L3622.8 4582.2 L3619.2 4582.2 L3615.8 4582.2 L3612.3 4582.2 L3609 4582.2 L3605.7 4582.2 L3602.4 4582.2 L3599.2 4582.2 L3596 4582.2 L3592.8 4582.2 L3589.7 4582.2 L3586.7 4582.2 L3583.6 4582.2 L3580.7 4582.2 L3577.7 4582.2 L3574.8 4582.2 L3571.9 4582.2 L3569.1 4582.2 L3566.2 4582.1 L3563.5 4582.1 L3560.7 4582.1 L3558 4582.1 L3555.3 4582.1 L3552.6 4582.1 L3550 4582.1 L3547.4 4582.1 L3544.8 4582.1 L3542.2 4582.1 L3539.7 4582.1 L3537.2 4582.1 L3534.7 4582.1 L3532.2 4582.1 L3529.7 4582.1 L3527.3 4582.1 L3524.9 4582.1 L3522.5 4582.1 L3520.1 4582 L3517.8 4582 L3515.4 4582 L3513.1 4582 L3510.8 4582 L3508.5 4582 L3506.2 4582 L3504 4582 L3501.7 4582 L3499.5 4582 L3497.3 4582 L3495.1 4582 L3492.9 4582 L3490.7 4582 L3488.5 4582 L3486.4 4581.9 L3484.2 4581.9 L3482.1 4581.9 L3479.9 4581.9 L3477.8 4581.9 L3475.7 4581.9 L3473.6 4581.9 L3471.5 4581.9 L3469.5 4581.9 L3467.4 4581.9 L3465.3 4581.9 L3463.3 4581.9 L3461.2 4581.9 L3459.2 4581.9 L3457.1 4581.9 L3455.1 4581.8 L3453.1 4581.8 L3451 4581.8 L3449 4581.8 L3447 4581.8 L3445 4581.8 L3443 4581.8 L3441 4581.8 L3439 4581.8 L3437 4581.8 L3435 4581.8 L3433 4581.8 L3431 4581.8 L3429 4581.7 L3427 4581.7 L3425 4581.7 L3423.1 4581.7 L3421.1 4581.7 L3419.1 4581.7 L3417.1 4581.7 L3415.1 4581.7 L3413.1 4581.7 L3411.1 4581.7 L3409.2 4581.7 L3407.2 4581.7 L3405.2 4581.7 L3403.2 4581.6 L3401.2 4581.6 L3399.2 4581.6 L3397.2 4581.6 L3395.2 4581.6 L3393.2 4581.6 L3391.1 4581.6 L3389.1 4581.6 L3387.1 4581.6 L3385.1 4581.6 L3383 4581.6 L3381 4581.6 L3378.9 4581.5 L3376.9 4581.5 L3374.8 4581.5 L3372.8 4581.5 L3370.7 4581.5 L3368.6 4581.5 L3366.5 4581.5 L3364.4 4581.5 L3362.3 4581.5 L3360.2 4581.5 L3358.1 4581.5 L3355.9 4581.4 L3353.8 4581.4 L3351.6 4581.4 L3349.4 4581.4 L3347.3 4581.4 L3345.1 4581.4 L3342.9 4581.4 L3340.6 4581.4 L3338.4 4581.4 L3336.2 4581.4 L3333.9 4581.3 L3331.6 4581.3 L3329.3 4581.3 L3327 4581.3 L3324.7 4581.3 L3322.4 4581.3 L3320 4581.3 L3317.6 4581.3 L3315.2 4581.3 L3312.8 4581.2 L3310.4 4581.2 L3307.9 4581.2 L3305.4 4581.2 L3302.9 4581.2 L3300.4 4581.2 L3297.9 4581.2 L3295.3 4581.2 L3292.7 4581.2 L3290.1 4581.1 L3287.4 4581.1 L3284.8 4581.1 L3282.1 4581.1 L3279.3 4581.1 L3276.6 4581.1 L3273.8 4581.1 L3271 4581.1 L3268.1 4581 L3265.2 4581 L3262.3 4581 L3259.3 4581 L3256.3 4581 L3253.3 4581 L3250.2 4581 L3247.1 4580.9 L3244 4580.9 L3240.8 4580.9 L3237.6 4580.9 L3234.3 4580.9 L3230.9 4580.9 L3227.6 4580.8 L3224.1 4580.8 L3220.6 4580.8 L3217.1 4580.8 L3213.5 4580.8 L3209.9 4580.8 L3206.2 4580.7 L3202.4 4580.7 L3198.6 4580.7 L3194.7 4580.7 L3190.7 4580.7 L3186.6 4580.6 L3182.5 4580.6 L3178.4 4580.6 L3174.1 4580.6 L3169.7 4580.6 L3165.3 4580.5 L3160.8 4580.5 L3156.2 4580.5 L3151.5 4580.5 L3146.7 4580.5 L3141.8 4580.4 L3136.8 4580.4 L3131.7 4580.4 L3126.4 4580.4 L3121.1 4580.3 L3115.6 4580.3 L3110 4580.3 L3104.2 4580.3 L3098.4 4580.2 L3092.3 4580.2 L3086.1 4580.2 L3079.8 4580.1 L3073.3 4580.1 L3066.6 4580.1 L3059.7 4580.1 L3052.6 4580 L3045.4 4580 L3037.9 4580 L3030.2 4579.9 L3022.2 4579.9 L3014 4579.9 L3005.6 4579.9 L2996.9 4579.8 L2987.8 4579.8 L2978.5 4579.8 L2968.9 4579.7 L2958.9 4579.7 L2948.5 4579.7 L2937.8 4579.6 L2927.2 4579.4 L2927.2 4574.2 L2927.2 4569 L2927.3 4563.9 L2927.3 4558.8 L2927.4 4553.7 L2927.4 4548.7 L2927.4 4543.7 L2927.5 4538.8 L2927.5 4533.9 L2927.6 4529 L2927.6 4524.2 L2927.7 4519.4 L2927.7 4514.6 L2927.8 4509.8 L2927.8 4505.1 L2927.9 4500.4 L2927.9 4495.7 L2928 4491 L2928 4486.4 L2928.1 4481.8 L2928.1 4477.2 L2928.2 4472.6 L2928.2 4468 L2928.3 4463.5 L2928.3 4459 L2928.4 4454.5 L2928.4 4450 L2928.5 4445.6 L2928.5 4441.1 L2928.6 4436.7 L2928.6 4432.3 L2928.7 4427.8 L2928.7 4423.5 L2928.8 4419.1 L2928.8 4414.7 L2928.9 4410.3 L2928.9 4406 L2929 4401.6 L2929 4397.3 L2929.1 4393 L2929.1 4388.7 L2929.2 4384.3 L2930.8 4380 L2936.7 4375.4 L2954.1 4370.6 L2979 4365.8 L3002.6 4361.6 L3025 4357.7 L3046.1 4354.3 L3066 4351.2 L3084.8 4348.4 L3102.4 4345.9 L3119 4343.7 L3134.5 4341.8 L3148.1 4340 L3162.8 4338.5 L3176 4337.1 L3186.8 4335.8 L3195.8 4334.6 L3203.2 4333.3 L3209 4332 L3213.7 4330.6 L3217.6 4329.3 L3219.9 4327.8 L3221.6 4326.2 L3221.9 4324.5 L3220.7 4322.5 L2935.8 4273.1 L2935.9 4268.7 L2935.9 4264.3 L2936 4260 L2936 4255.6 L2936.1 4251.2 L2936.1 4246.8 L2936.2 4242.3 L2936.2 4237.9 L2936.2 4233.4 L2936.3 4228.9 L2936.3 4224.4 L2936.3 4219.8 L2936.4 4215.3 L2936.4 4210.7 L2936.4 4206.1 L2936.5 4201.5 L2936.5 4196.8 L2936.5 4192.1 L2936.6 4187.4 L2936.6 4182.7 L2936.6 4177.9 L2936.7 4173.2 L2936.7 4168.3 L2936.8 4163.5 L2936.8 4158.6 L2936.9 4153.7 L2937 4148.8 L2937 4143.8 L2937.1 4138.8 L2937.2 4133.8 L2937.3 4128.7 L2942.9 4126.2 L2953.5 4126.2 L2963.8 4126.3 L2973.7 4126.3 L2983.3 4126.4 L2992.5 4126.4 L3001.5 4126.4 L3010.1 4126.5 L3018.5 4126.5 L3026.6 4126.5 L3034.5 4126.6 L3042.1 4126.6 L3049.6 4126.6 L3056.8 4126.6 L3063.8 4126.7 L3070.6 4126.7 L3077.3 4126.7 L3083.7 4126.7 L3090 4126.8 L3096.2 4126.8 L3102.2 4126.8 L3108 4126.8 L3113.7 4126.8 L3119.3 4126.8 L3124.7 4126.9 L3130 4126.9 L3135.2 4126.9 L3140.3 4126.9 L3145.3 4126.9 L3150.2 4127 L3154.9 4127 L3159.6 4127 L3164.2 4127 L3168.7 4127 L3173.1 4127 L3177.4 4127 L3181.6 4127.1 L3185.8 4127.1 L3189.9 4127.1 L3193.9 4127.1 L3197.8 4127.1 L3201.7 4127.1 L3205.5 4127.1 L3209.3 4127.1 L3213 4127.2 L3216.6 4127.2 L3220.2 4127.2 L3223.7 4127.2 L3227.1 4127.2 L3230.5 4127.2 L3233.9 4127.2 L3237.2 4127.2 L3240.5 4127.2 L3243.7 4127.2 L3246.9 4127.3 L3250 4127.3 L3253.1 4127.3 L3256.2 4127.3 L3259.2 4127.3 L3262.2 4127.3 L3265.1 4127.3 L3268 4127.3 L3270.9 4127.3 L3273.7 4127.3 L3276.5 4127.3 L3279.3 4127.4 L3282 4127.4 L3284.7 4127.4 L3287.4 4127.4 L3290.1 4127.4 L3292.7 4127.4 L3295.3 4127.4 L3297.9 4127.4 L3300.5 4127.4 L3303 4127.4 L3305.5 4127.4 L3308 4127.4 L3310.4 4127.5 L3312.9 4127.5 L3315.3 4127.5 L3317.7 4127.5 L3320.1 4127.5 L3322.5 4127.5 L3324.8 4127.5 L3327.1 4127.5 L3329.5 4127.5 L3331.8 4127.5 L3334 4127.5 L3336.3 4127.5 L3338.5 4127.5 L3340.8 4127.5 L3343 4127.6 L3345.2 4127.6 L3347.4 4127.6 L3349.6 4127.6 L3351.8 4127.6 L3353.9 4127.6 L3356.1 4127.6 L3358.2 4127.6 L3360.3 4127.6 L3362.5 4127.6 L3364.6 4127.6 L3366.7 4127.6 L3368.7 4127.6 L3370.8 4127.6 L3372.9 4127.6 L3375 4127.7 L3377 4127.7 L3379.1 4127.7 L3381.1 4127.7 L3383.2 4127.7 L3385.2 4127.7 L3387.2 4127.7 L3389.2 4127.7 L3391.2 4127.7 L3393.3 4127.7 L3395.3 4127.7 L3397.3 4127.7 L3399.3 4127.7 L3401.3 4127.7 L3403.2 4127.7 L3405.2 4127.7 L3407.2 4127.8 L3409.2 4127.8 L3411.2 4127.8 L3413.2 4127.8 L3415.1 4127.8 L3417.1 4127.8 L3419.1 4127.8 L3421.1 4127.8 L3423 4127.8 L3425 4127.8 L3427 4127.8 L3429 4127.8 L3431 4127.8 L3432.9 4127.8 L3434.9 4127.8 L3436.9 4127.8 L3438.9 4127.9 L3440.9 4127.9 L3442.9 4127.9 L3444.9 4127.9 L3446.9 4127.9 L3448.9 4127.9 L3450.9 4127.9 L3452.9 4127.9 L3454.9 4127.9 L3456.9 4127.9 L3458.9 4127.9 L3461 4127.9 L3463 4127.9 L3465.1 4127.9 L3467.1 4127.9 L3469.2 4128 L3471.2 4128 L3473.3 4128 L3475.4 4128 L3477.5 4128 L3479.6 4128 L3481.7 4128 L3483.8 4128 L3485.9 4128 L3488.1 4128 L3490.2 4128 L3492.4 4128 L3494.6 4128 L3496.8 4128 L3499 4128.1 L3501.2 4128.1 L3503.4 4128.1 L3505.6 4128.1 L3507.9 4128.1 L3510.2 4128.1 L3512.4 4128.1 L3514.7 4128.1 L3517.1 4128.1 L3519.4 4128.1 L3521.7 4128.1 L3524.1 4128.1 L3526.5 4128.1 L3528.9 4128.2 L3531.3 4128.2 L3533.8 4128.2 L3536.3 4128.2 L3538.8 4128.2 L3541.3 4128.2 L3543.8 4128.2 L3546.4 4128.2 L3549 4128.2 L3551.6 4128.2 L3554.2 4128.2 L3556.9 4128.3 L3559.6 4128.3 L3562.3 4128.3 L3565 4128.3 L3567.8 4128.3 L3570.6 4128.3 L3573.5 4128.3 L3576.4 4128.3 L3579.3 4128.3 L3582.2 4128.3 L3585.2 4128.4 L3588.2 4128.4 L3591.3 4128.4 L3594.4 4128.4 L3597.5 4128.4 L3600.7 4128.4 L3603.9 4128.4 L3607.2 4128.4 L3610.5 4128.5 L3613.9 4128.5 L3617.3 4128.5 L3620.8 4128.5 L3624.3 4128.5 L3627.9 4128.5 L3631.6 4128.5 L3635.3 4128.6 L3639 4128.6 L3642.8 4128.6 L3646.7 4128.6 L3650.7 4128.6 L3653.1 4130.2 L3653.1 4134.1 L3653 4138 L3653 4141.8 L3652.9 4145.5 L3652.9 4149.2 L3652.8 4152.8 L3652.8 4156.3 L3652.8 4159.9 L3652.7 4163.3 L3652.7 4166.7 L3652.6 4170.1 L3652.6 4173.4 L3652.6 4176.6 L3652.5 4179.8 L3652.5 4183 L3652.5 4186.1 L3652.5 4189.2 L3652.4 4192.3 L3652.4 4195.3 L3652.4 4198.3 L3652.3 4201.2 L3652.3 4204.1 L3652.3 4207 L3652.3 4209.8 L3652.2 4212.6 L3652.2 4215.4 L3652.2 4218.1 L3652.2 4220.8 L3652.1 4223.5 L3652.1 4226.2 L3652.1 4228.8 L3652.1 4231.4 L3652 4234 L3652 4236.6 L3652 4239.1 L3652 4241.6 L3652 4244.1 L3651.9 4246.6 L3651.9 4249.1 L3651.9 4251.5 L3651.9 4253.9 L3651.8 4256.3 L3651.8 4258.7 L3651.8 4261 L3651.8 4263.4 L3651.8 4265.7 L3651.7 4268 L3651.7 4270.3 L3651.7 4272.6 L3651.7 4274.9 L3651.7 4277.1 L3651.7 4279.3 L3651.6 4281.6 L3651.6 4283.8 L3651.6 4286 L3651.5 4288.2 L3651.7 4290.3 L3652.3 4292.3 L3654.4 4293.9 L3659 4294.9 L3664 4296 L3669.1 4297 L3674.9 4298 L3680.9 4299 L3687.8 4300 L3695.1 4301 L3703.3 4301.9 L3712.4 4302.9 L3722.6 4303.8 L3734.1 4304.7 L3747.1 4305.5 L3761.7 4306.4 L3777.8 4307.3 L3795 4308.4 L3812.8 4309.6 L3833.7 4310.9 L3855.2 4312.5 L3877.7 4314.3 L3901.6 4316.4 L3913.2 4319.9 L3915.6 4324 L3912.4 4328.5 L3900.9 4333.3 L3876.1 4338.4 L3838.4 4343.3 L3808.4 4347.5 L3782.6 4351.1 Z" fill="rgba(0,120,255,0.2)" stroke="blue" stroke-width="1.5"/>
  <g opacity="0.5"><path d="m0 0-16.319.436c.199 48.457.775 96.931 1.348 145.387.331 12.139 32.918 12.028 42.46 15.259 41.264 8.088 82.967 13.829 124.722 18.707 5.935 1.647 64.071 3.869 50.349 14.312-38.959 6.067-78.702 7.211-118.041 9.902-30.75 3.228-62.724 1.889-92.58 10.347-4.721 1.024-.72 28.588-1.79 34.701.408 30.327.202 60.658.974 90.971 5.595 0 16.483.065 16.483.065-.763-32.199-.61-64.418-1.028-96.624-.075-8.472-.161-16.945-.376-25.414-.318-4.274 4.914-4.615 7.911-5.608 41.466-6.91 83.641-7.977 125.514-10.892 26.346-1.943 52.802-3.373 78.942-7.313 16.824-10.58-50.176-13.448-55.43-14.973-47.725-5.637-95.191-13.302-142.375-22.398-7.573-2.047-20.942-2.754-19.343-13.548C.881 95.526.267 47.735-.074-.058Z" style="fill:#231f20;fill-opacity:1;fill-rule:nonzero;stroke:none" transform="matrix(1.33333 0 0 -1.33333 2927.247 4579.52)"/>
<path d="M0 0c-.001.063-.012.127.025.188-178.837.071-357.611 1.516-536.444 1.983.132-5.363-.683-10.737.199-16.067 178.965-.958 357.107-1.815 535.444-2.35.598 5.52-.084 10.769.791 16.24C.013-.003 0-.003 0 0" style="fill:#231f20;fill-opacity:1;fill-rule:nonzero;stroke:none" transform="matrix(1.33333 0 0 -1.33333 3642.643 4582.494)"/>
<path d="M0 0c-1.332 4.917-1.443 5.815-6.642 6.195-13.302 1.027-26.582 2.346-39.89 3.304-45.348 3.105-90.8 4.984-135.934 10.634-4.89 1.267-14.455.744-14.871 7.34.344 39.911 1.139 79.847.891 119.74h-16.197c-.497-39.14-.81-78.281-1.145-117.422-.061-2.781-.584-6.035 2.845-6.663 38.147-8.684 77.934-8.343 116.842-11.523 24.72-1.289 49.376-3.484 74.024-5.744C1.058-6.593-59.115-11.642-65.588-12.595c-49.11-7.062-98.86-12.628-146.917-25.12-3.233-1.104-6.269-3.2-6.087-7.02-.612-49.43-1.167-98.73-1.388-148.182-.003 0 .002-.001 0-.001.002-.084.003-.098.007-.188h16.283c.898 48.503.88 97.028 1.567 145.542.061 6.568.943 7.987 7.078 10.249C-154.459-27-112.54-21.6-71.098-15.586-57.896-12.235-3.782-10.735 0 0" style="fill:#231f20;fill-opacity:1;fill-rule:nonzero;stroke:none" transform="matrix(1.33333 0 0 -1.33333 3936.65 4325.008)"/>
<path d="M0 0v16.344c179.438-.41 357.126-1.488 536.736-1.833.282-5.562-.868-11.003.133-16.436l.13.072C393.086-1.225 118.9-.576 0 0" style="fill:#231f20;fill-opacity:1;fill-rule:nonzero;stroke:none" transform="matrix(1.33333 0 0 -1.33333 2937.338 4126.158)"/></g>
  <path d="M3761.1 4354.3 L3743 4357.1 L3727.8 4359.6 L3714.6 4361.9 L3703.1 4364.1 L3693.1 4366.1 L3683.9 4368 L3675.9 4369.8 L3668.4 4371.6 L3661.7 4373.2 L3655.4 4374.8 L3650.7 4376.4 L3648.1 4378.1 L3646.5 4379.9 L3645.6 4381.8 L3645.2 4383.8 L3645.2 4385.8 L3645.2 4387.8 L3645.1 4389.8 L3645.1 4391.8 L3645.1 4393.8 L3645.1 4395.8 L3645 4397.8 L3645 4399.8 L3645 4401.9 L3645 4403.9 L3644.9 4405.9 L3644.9 4408 L3644.9 4410.1 L3644.9 4412.1 L3644.8 4414.2 L3644.8 4416.3 L3644.8 4418.4 L3644.8 4420.5 L3644.7 4422.6 L3644.7 4424.8 L3644.7 4426.9 L3644.7 4429.1 L3644.6 4431.2 L3644.6 4433.4 L3644.6 4435.6 L3644.6 4437.8 L3644.5 4440 L3644.5 4442.3 L3644.5 4444.5 L3644.5 4446.8 L3644.4 4449.1 L3644.4 4451.4 L3644.4 4453.7 L3644.4 4456 L3644.3 4458.4 L3644.3 4460.7 L3644.3 4463.1 L3644.3 4465.5 L3644.2 4468 L3644.2 4470.4 L3644.2 4472.9 L3644.2 4475.4 L3644.1 4477.9 L3644.1 4480.5 L3644.1 4483 L3644.1 4485.6 L3644 4488.2 L3644 4490.9 L3644 4493.6 L3644 4496.3 L3643.9 4499 L3643.9 4501.8 L3643.9 4504.5 L3643.9 4507.4 L3643.8 4510.2 L3643.8 4513.1 L3643.8 4516.1 L3643.8 4519 L3643.7 4522 L3643.7 4525.1 L3643.7 4528.2 L3643.7 4531.3 L3643.6 4534.5 L3643.6 4537.7 L3643.6 4541 L3643.6 4544.3 L3643.5 4547.7 L3643.5 4551.1 L3643.5 4554.5 L3643.5 4558.1 L3643.5 4561.6 L3643.4 4565.3 L3643.4 4569 L3643.4 4572.7 L3643.4 4576.6 L3643.4 4580.5 L3641.2 4582.2 L3637.4 4582.2 L3633.7 4582.2 L3630 4582.2 L3626.3 4582.2 L3622.8 4582.2 L3619.2 4582.2 L3615.8 4582.2 L3612.3 4582.2 L3609 4582.2 L3605.7 4582.2 L3602.4 4582.2 L3599.2 4582.2 L3596 4582.2 L3592.8 4582.2 L3589.7 4582.2 L3586.7 4582.2 L3583.6 4582.2 L3580.7 4582.2 L3577.7 4582.2 L3574.8 4582.2 L3571.9 4582.2 L3569.1 4582.2 L3566.2 4582.1 L3563.5 4582.1 L3560.7 4582.1 L3558 4582.1 L3555.3 4582.1 L3552.6 4582.1 L3550 4582.1 L3547.4 4582.1 L3544.8 4582.1 L3542.2 4582.1 L3539.7 4582.1 L3537.2 4582.1 L3534.7 4582.1 L3532.2 4582.1 L3529.7 4582.1 L3527.3 4582.1 L3524.9 4582.1 L3522.5 4582.1 L3520.1 4582 L3517.8 4582 L3515.4 4582 L3513.1 4582 L3510.8 4582 L3508.5 4582 L3506.2 4582 L3504 4582 L3501.7 4582 L3499.5 4582 L3497.3 4582 L3495.1 4582 L3492.9 4582 L3490.7 4582 L3488.5 4582 L3486.4 4581.9 L3484.2 4581.9 L3482.1 4581.9 L3479.9 4581.9 L3477.8 4581.9 L3475.7 4581.9 L3473.6 4581.9 L3471.5 4581.9 L3469.5 4581.9 L3467.4 4581.9 L3465.3 4581.9 L3463.3 4581.9 L3461.2 4581.9 L3459.2 4581.9 L3457.1 4581.9 L3455.1 4581.8 L3453.1 4581.8 L3451 4581.8 L3449 4581.8 L3447 4581.8 L3445 4581.8 L3443 4581.8 L3441 4581.8 L3439 4581.8 L3437 4581.8 L3435 4581.8 L3433 4581.8 L3431 4581.8 L3429 4581.7 L3427 4581.7 L3425 4581.7 L3423.1 4581.7 L3421.1 4581.7 L3419.1 4581.7 L3417.1 4581.7 L3415.1 4581.7 L3413.1 4581.7 L3411.1 4581.7 L3409.2 4581.7 L3407.2 4581.7 L3405.2 4581.7 L3403.2 4581.6 L3401.2 4581.6 L3399.2 4581.6 L3397.2 4581.6 L3395.2 4581.6 L3393.2 4581.6 L3391.1 4581.6 L3389.1 4581.6 L3387.1 4581.6 L3385.1 4581.6 L3383 4581.6 L3381 4581.6 L3378.9 4581.5 L3376.9 4581.5 L3374.8 4581.5 L3372.8 4581.5 L3370.7 4581.5 L3368.6 4581.5 L3366.5 4581.5 L3364.4 4581.5 L3362.3 4581.5 L3360.2 4581.5 L3358.1 4581.5 L3355.9 4581.4 L3353.8 4581.4 L3351.6 4581.4 L3349.4 4581.4 L3347.3 4581.4 L3345.1 4581.4 L3342.9 4581.4 L3340.6 4581.4 L3338.4 4581.4 L3336.2 4581.4 L3333.9 4581.3 L3331.6 4581.3 L3329.3 4581.3 L3327 4581.3 L3324.7 4581.3 L3322.4 4581.3 L3320 4581.3 L3317.6 4581.3 L3315.2 4581.3 L3312.8 4581.2 L3310.4 4581.2 L3307.9 4581.2 L3305.4 4581.2 L3302.9 4581.2 L3300.4 4581.2 L3297.9 4581.2 L3295.3 4581.2 L3292.7 4581.2 L3290.1 4581.1 L3287.4 4581.1 L3284.8 4581.1 L3282.1 4581.1 L3279.3 4581.1 L3276.6 4581.1 L3273.8 4581.1 L3271 4581.1 L3268.1 4581 L3265.2 4581 L3262.3 4581 L3259.3 4581 L3256.3 4581 L3253.3 4581 L3250.2 4581 L3247.1 4580.9 L3244 4580.9 L3240.8 4580.9 L3237.6 4580.9 L3234.3 4580.9 L3230.9 4580.9 L3227.6 4580.8 L3224.1 4580.8 L3220.6 4580.8 L3217.1 4580.8 L3213.5 4580.8 L3209.9 4580.8 L3206.2 4580.7 L3202.4 4580.7 L3198.6 4580.7 L3194.7 4580.7 L3190.7 4580.7 L3186.6 4580.6 L3182.5 4580.6 L3178.4 4580.6 L3174.1 4580.6 L3169.7 4580.6 L3165.3 4580.5 L3160.8 4580.5 L3156.2 4580.5 L3151.5 4580.5 L3146.7 4580.5 L3141.8 4580.4 L3136.8 4580.4 L3131.7 4580.4 L3126.4 4580.4 L3121.1 4580.3 L3115.6 4580.3 L3110 4580.3 L3104.2 4580.3 L3098.4 4580.2 L3092.3 4580.2 L3086.1 4580.2 L3079.8 4580.1 L3073.3 4580.1 L3066.6 4580.1 L3059.7 4580.1 L3052.6 4580 L3045.4 4580 L3037.9 4580 L3030.2 4579.9 L3022.2 4579.9 L3014 4579.9 L3005.6 4579.9 L2996.9 4579.8 L2987.8 4579.8 L2978.5 4579.8 L2968.9 4579.7 L2958.9 4579.7 L2948.5 4579.7 L2937.8 4579.6 L2927.2 4579.4 L2927.2 4574.2 L2927.2 4569 L2927.3 4563.9 L2927.3 4558.8 L2927.4 4553.7 L2927.4 4548.7 L2927.4 4543.7 L2927.5 4538.8 L2927.5 4533.9 L2927.6 4529 L2927.6 4524.2 L2927.7 4519.4 L2927.7 4514.6 L2927.8 4509.8 L2927.8 4505.1 L2927.9 4500.4 L2927.9 4495.7 L2928 4491 L2928 4486.4 L2928.1 4481.8 L2928.1 4477.2 L2928.2 4472.6 L2928.2 4468 L2928.3 4463.5 L2928.3 4459 L2928.4 4454.5 L2928.4 4450 L2928.5 4445.6 L2928.5 4441.1 L2928.6 4436.7 L2928.6 4432.3 L2928.7 4427.8 L2928.7 4423.5 L2928.8 4419.1 L2928.8 4414.7 L2928.9 4410.3 L2928.9 4406 L2929 4401.6 L2929 4397.3 L2929.1 4393 L2929.1 4388.7 L2929.2 4384.3 L2930.8 4380 L2936.7 4375.4 L2954.1 4370.6 L2979 4365.8 L3002.6 4361.6 L3025 4357.7 L3046.1 4354.3 L3066 4351.2 L3084.8 4348.4 L3102.4 4345.9 L3119 4343.7 L3134.5 4341.8 L3148.1 4340 L3162.8 4338.5 L3176 4337.1 L3186.8 4335.8 L3195.8 4334.6 L3203.2 4333.3 L3209 4332 L3213.7 4330.6 L3217.6 4329.3 L3219.9 4327.8 L3221.6 4326.2 L3221.9 4324.5 L3220.7 4322.5 L2935.8 4273.1 L2935.9 4268.7 L2935.9 4264.3 L2936 4260 L2936 4255.6 L2936.1 4251.2 L2936.1 4246.8 L2936.2 4242.3 L2936.2 4237.9 L2936.2 4233.4 L2936.3 4228.9 L2936.3 4224.4 L2936.3 4219.8 L2936.4 4215.3 L2936.4 4210.7 L2936.4 4206.1 L2936.5 4201.5 L2936.5 4196.8 L2936.5 4192.1 L2936.6 4187.4 L2936.6 4182.7 L2936.6 4177.9 L2936.7 4173.2 L2936.7 4168.3 L2936.8 4163.5 L2936.8 4158.6 L2936.9 4153.7 L2937 4148.8 L2937 4143.8 L2937.1 4138.8 L2937.2 4133.8 L2937.3 4128.7 L2942.9 4126.2 L2953.5 4126.2 L2963.8 4126.3 L2973.7 4126.3 L2983.3 4126.4 L2992.5 4126.4 L3001.5 4126.4 L3010.1 4126.5 L3018.5 4126.5 L3026.6 4126.5 L3034.5 4126.6 L3042.1 4126.6 L3049.6 4126.6 L3056.8 4126.6 L3063.8 4126.7 L3070.6 4126.7 L3077.3 4126.7 L3083.7 4126.7 L3090 4126.8 L3096.2 4126.8 L3102.2 4126.8 L3108 4126.8 L3113.7 4126.8 L3119.3 4126.8 L3124.7 4126.9 L3130 4126.9 L3135.2 4126.9 L3140.3 4126.9 L3145.3 4126.9 L3150.2 4127 L3154.9 4127 L3159.6 4127 L3164.2 4127 L3168.7 4127 L3173.1 4127 L3177.4 4127 L3181.6 4127.1 L3185.8 4127.1 L3189.9 4127.1 L3193.9 4127.1 L3197.8 4127.1 L3201.7 4127.1 L3205.5 4127.1 L3209.3 4127.1 L3213 4127.2 L3216.6 4127.2 L3220.2 4127.2 L3223.7 4127.2 L3227.1 4127.2 L3230.5 4127.2 L3233.9 4127.2 L3237.2 4127.2 L3240.5 4127.2 L3243.7 4127.2 L3246.9 4127.3 L3250 4127.3 L3253.1 4127.3 L3256.2 4127.3 L3259.2 4127.3 L3262.2 4127.3 L3265.1 4127.3 L3268 4127.3 L3270.9 4127.3 L3273.7 4127.3 L3276.5 4127.3 L3279.3 4127.4 L3282 4127.4 L3284.7 4127.4 L3287.4 4127.4 L3290.1 4127.4 L3292.7 4127.4 L3295.3 4127.4 L3297.9 4127.4 L3300.5 4127.4 L3303 4127.4 L3305.5 4127.4 L3308 4127.4 L3310.4 4127.5 L3312.9 4127.5 L3315.3 4127.5 L3317.7 4127.5 L3320.1 4127.5 L3322.5 4127.5 L3324.8 4127.5 L3327.1 4127.5 L3329.5 4127.5 L3331.8 4127.5 L3334 4127.5 L3336.3 4127.5 L3338.5 4127.5 L3340.8 4127.5 L3343 4127.6 L3345.2 4127.6 L3347.4 4127.6 L3349.6 4127.6 L3351.8 4127.6 L3353.9 4127.6 L3356.1 4127.6 L3358.2 4127.6 L3360.3 4127.6 L3362.5 4127.6 L3364.6 4127.6 L3366.7 4127.6 L3368.7 4127.6 L3370.8 4127.6 L3372.9 4127.6 L3375 4127.7 L3377 4127.7 L3379.1 4127.7 L3381.1 4127.7 L3383.2 4127.7 L3385.2 4127.7 L3387.2 4127.7 L3389.2 4127.7 L3391.2 4127.7 L3393.3 4127.7 L3395.3 4127.7 L3397.3 4127.7 L3399.3 4127.7 L3401.3 4127.7 L3403.2 4127.7 L3405.2 4127.7 L3407.2 4127.8 L3409.2 4127.8 L3411.2 4127.8 L3413.2 4127.8 L3415.1 4127.8 L3417.1 4127.8 L3419.1 4127.8 L3421.1 4127.8 L3423 4127.8 L3425 4127.8 L3427 4127.8 L3429 4127.8 L3431 4127.8 L3432.9 4127.8 L3434.9 4127.8 L3436.9 4127.8 L3438.9 4127.9 L3440.9 4127.9 L3442.9 4127.9 L3444.9 4127.9 L3446.9 4127.9 L3448.9 4127.9 L3450.9 4127.9 L3452.9 4127.9 L3454.9 4127.9 L3456.9 4127.9 L3458.9 4127.9 L3461 4127.9 L3463 4127.9 L3465.1 4127.9 L3467.1 4127.9 L3469.2 4128 L3471.2 4128 L3473.3 4128 L3475.4 4128 L3477.5 4128 L3479.6 4128 L3481.7 4128 L3483.8 4128 L3485.9 4128 L3488.1 4128 L3490.2 4128 L3492.4 4128 L3494.6 4128 L3496.8 4128 L3499 4128.1 L3501.2 4128.1 L3503.4 4128.1 L3505.6 4128.1 L3507.9 4128.1 L3510.2 4128.1 L3512.4 4128.1 L3514.7 4128.1 L3517.1 4128.1 L3519.4 4128.1 L3521.7 4128.1 L3524.1 4128.1 L3526.5 4128.1 L3528.9 4128.2 L3531.3 4128.2 L3533.8 4128.2 L3536.3 4128.2 L3538.8 4128.2 L3541.3 4128.2 L3543.8 4128.2 L3546.4 4128.2 L3549 4128.2 L3551.6 4128.2 L3554.2 4128.2 L3556.9 4128.3 L3559.6 4128.3 L3562.3 4128.3 L3565 4128.3 L3567.8 4128.3 L3570.6 4128.3 L3573.5 4128.3 L3576.4 4128.3 L3579.3 4128.3 L3582.2 4128.3 L3585.2 4128.4 L3588.2 4128.4 L3591.3 4128.4 L3594.4 4128.4 L3597.5 4128.4 L3600.7 4128.4 L3603.9 4128.4 L3607.2 4128.4 L3610.5 4128.5 L3613.9 4128.5 L3617.3 4128.5 L3620.8 4128.5 L3624.3 4128.5 L3627.9 4128.5 L3631.6 4128.5 L3635.3 4128.6 L3639 4128.6 L3642.8 4128.6 L3646.7 4128.6 L3650.7 4128.6 L3653.1 4130.2 L3653.1 4134.1 L3653 4138 L3653 4141.8 L3652.9 4145.5 L3652.9 4149.2 L3652.8 4152.8 L3652.8 4156.3 L3652.8 4159.9 L3652.7 4163.3 L3652.7 4166.7 L3652.6 4170.1 L3652.6 4173.4 L3652.6 4176.6 L3652.5 4179.8 L3652.5 4183 L3652.5 4186.1 L3652.5 4189.2 L3652.4 4192.3 L3652.4 4195.3 L3652.4 4198.3 L3652.3 4201.2 L3652.3 4204.1 L3652.3 4207 L3652.3 4209.8 L3652.2 4212.6 L3652.2 4215.4 L3652.2 4218.1 L3652.2 4220.8 L3652.1 4223.5 L3652.1 4226.2 L3652.1 4228.8 L3652.1 4231.4 L3652 4234 L3652 4236.6 L3652 4239.1 L3652 4241.6 L3652 4244.1 L3651.9 4246.6 L3651.9 4249.1 L3651.9 4251.5 L3651.9 4253.9 L3651.8 4256.3 L3651.8 4258.7 L3651.8 4261 L3651.8 4263.4 L3651.8 4265.7 L3651.7 4268 L3651.7 4270.3 L3651.7 4272.6 L3651.7 4274.9 L3651.7 4277.1 L3651.7 4279.3 L3651.6 4281.6 L3651.6 4283.8 L3651.6 4286 L3651.5 4288.2 L3651.7 4290.3 L3652.3 4292.3 L3654.4 4293.9 L3659 4294.9 L3664 4296 L3669.1 4297 L3674.9 4298 L3680.9 4299 L3687.8 4300 L3695.1 4301 L3703.3 4301.9 L3712.4 4302.9 L3722.6 4303.8 L3734.1 4304.7 L3747.1 4305.5 L3761.7 4306.4 L3777.8 4307.3 L3795 4308.4 L3812.8 4309.6 L3833.7 4310.9 L3855.2 4312.5 L3877.7 4314.3 L3901.6 4316.4 L3913.2 4319.9 L3915.6 4324 L3912.4 4328.5 L3900.9 4333.3 L3876.1 4338.4 L3838.4 4343.3 L3808.4 4347.5 L3782.6 4351.1 Z" fill="none" stroke="red" stroke-width="0.5"/>
</svg>