<svg xmlns="http://www.w3.org/2000/svg" viewBox="1055.48 637.244 381.247 356.093" style="background:#f5f5f5">
  <path d="M1094.8 674.6 L1115.9 673.8 L1136.9 673 L1158 672.3 L1179.1 671.7 L1200.3 671.1 L1221.4 670.6 L1242.5 670.1 L1263.6 669.6 L1284.7 669.1 L1305.8 668.6 L1326.9 668.1 L1348 667.6 L1348 667.7 L1347.8 666.5 L1347.9 664.9 L1348.1 662.9 L1348.4 660.7 L1348.7 658.4 L1349 656.1 L1349.2 653.8 L1349.4 651.7 L1348 667.6 L1348 671.9 L1347.4 676.3 L1346.2 680.9 L1344.7 685.5 L1343 690.2 L1341.2 694.9 L1339.5 699.5 L1338.2 704 L1337.2 708.4 L1336.9 712.6 L1337.3 716.6 L1338.6 720.3 L1341.4 724.6 L1347 728.5 L1354.7 732 L1363.7 735.3 L1373.5 738.3 L1383.2 741.3 L1392.3 744.2 L1400 747.1 L1405.5 750.2 L1408.3 753.4 L1407.6 756.8 L1402.8 760.6 L1399.4 762.5 L1393.8 764.9 L1386.5 767.8 L1378.2 771.1 L1369.4 774.7 L1360.7 778.6 L1352.7 782.5 L1345.9 786.5 L1341.1 790.5 L1338.6 794.3 L1339.2 798 L1343.4 801.3 L1348.3 803.5 L1353.3 805.4 L1358.3 807.2 L1363.4 808.9 L1368.6 810.5 L1373.7 812.2 L1378.8 813.8 L1383.9 815.6 L1388.9 817.6 L1393.8 819.7 L1398.5 822.1 L1403.1 824.8 L1405.5 828.1 L1404.9 831.3 L1401.8 834.5 L1396.7 837.7 L1390.1 840.9 L1382.5 844 L1374.5 847.2 L1366.5 850.4 L1359.1 853.5 L1352.8 856.7 L1348 859.9 L1345.2 863.1 L1343.7 866.9 L1343.7 870.4 L1345.2 873.5 L1347.8 876.4 L1351.3 879.1 L1355.4 881.6 L1359.9 883.9 L1364.6 886 L1369.2 888.1 L1373.4 890 L1377 892 L1379.7 893.9 L1382 895.3 L1383.7 896.8 L1384.7 898.6 L1385.3 900.4 L1385.5 902.4 L1385.3 904.5 L1385 906.6 L1384.5 908.8 L1383.9 911.1 L1383.4 913.3 L1383 915.6 L1382.8 917.8 L1382.7 921.5 L1382.7 925.3 L1382.6 929 L1382.5 932.7 L1382.5 936.5 L1382.4 940.2 L1382.3 944 L1382.2 947.7 L1382.1 951.4 L1382 955.2 L1381.9 958.9 L1381.8 962.6 L1400.5 962.6 L1382.4 982.6 L1382.1 977.8 L1382 973.8 L1382.1 970.6 L1382.2 968.1 L1382.1 966.1 L1381.7 964.7 L1380.9 963.8 L1379.6 963.2 L1377.5 962.9 L1374.5 962.9 L1370.5 962.9 L1365.3 963 L1345.8 963.1 L1326.2 963.2 L1306.6 963.3 L1287.1 963.4 L1267.5 963.5 L1248 963.6 L1228.4 963.6 L1208.9 963.7 L1189.3 963.7 L1169.8 963.8 L1150.2 963.8 L1130.6 963.8 L1130.6 963.8 L1130.7 964.9 L1130.7 966.4 L1130.7 968.2 L1130.6 970.2 L1130.6 972.4 L1116.6 963.6 L1118.5 963.5 L1120.6 963.5 L1122.6 963.3 L1124.6 963.2 L1126.3 963.2 L1127.7 963.2 L1128.8 963.3 L1129.2 958.4 L1129.4 953.5 L1129.4 948.6 L1129.4 943.7 L1129.3 938.7 L1129.2 933.8 L1129.2 928.9 L1129.4 923.9 L1129.7 919.1 L1130.3 914.2 L1131.2 909.4 L1132.5 904.7 L1132.6 901.8 L1131.9 899.2 L1130.5 897 L1128.6 895 L1126.2 893.3 L1123.5 891.7 L1120.6 890.3 L1117.6 888.9 L1114.6 887.6 L1111.8 886.4 L1109.2 885.1 L1107 883.7 L1095.8 876.9 L1090.6 870.9 L1090.5 865.4 L1094.5 860.5 L1101.5 855.9 L1110.5 851.7 L1120.6 847.6 L1130.8 843.7 L1139.9 839.7 L1147.2 835.7 L1151.4 831.4 L1151.7 826.8 L1148.8 824.2 L1145.6 821.9 L1142.1 820 L1138.5 818.4 L1134.7 817 L1130.8 815.7 L1126.8 814.6 L1122.8 813.4 L1118.9 812.3 L1115 811.1 L1111.2 809.7 L1107.6 808.1 L1105.4 807.2 L1102.8 806.3 L1099.8 805.3 L1096.7 804.1 L1093.6 802.9 L1090.8 801.6 L1088.3 800.1 L1086.5 798.4 L1085.5 796.5 L1085.4 794.4 L1086.5 792 L1088.9 789.4 L1093.9 786.2 L1099.1 783.3 L1104.3 780.6 L1109.6 778.1 L1115.1 775.7 L1120.5 773.4 L1126 771.1 L1131.4 768.8 L1136.9 766.5 L1142.2 764 L1147.5 761.4 L1152.7 758.6 L1155.1 755.7 L1155.1 753 L1153 750.4 L1149.4 748.1 L1144.5 745.8 L1138.8 743.8 L1132.6 741.9 L1126.4 740.2 L1120.5 738.6 L1115.3 737.2 L1111.2 736 L1108.6 735 L1099.8 731.7 L1093.2 728.1 L1088.6 724.3 L1085.7 720.2 L1084.4 715.7 L1084.3 710.9 L1085.1 705.8 L1086.6 700.4 L1088.6 694.5 L1090.8 688.3 L1093 681.7 L1094.8 674.6 L1094.8 674.6 L1088.7 674.6 Z" fill="rgba(0,120,255,0.2)" stroke="blue" stroke-width="1.5"/>
  <g opacity="0.5"><path d="M0 0h14.621c-1.881-21.838-23.176-40.26 8.33-50.159 5.135-2.718 44.309-9.095 34.591-17.697-8.151-7.852-76.027-24.233-40.608-35.342 12.862-5.216 28.328-6.9 39.155-15.844 6.715-11.028-44.652-17.357-45.723-30.822-.525-6.74 7.756-8.741 12.201-11.951 6.233-4.656 21.802-6.545 19.218-16.818-3.893-13.765-.935-28.484-2.348-42.596H25.352c.341 11.193.655 22.449.774 33.64.183 6.614 5.694 14.042-2.313 17.948-6.697 5.685-33.254 11.207-25.839 23.052 4.543 9.698 55.562 18.862 43.398 28.752-13.526 8.617-30.305 10.756-44.805 17.584-18.546 9.511 38.308 25.872 44.539 30.555C62.679-57.829-3.449-53.002-7.022-39.51-12.513-28.726 1.337-12.522.047.053z" style="fill:#231f20;fill-opacity:1;fill-rule:nonzero;stroke:none" transform="matrix(1.33333 0 0 -1.33333 1347.95 667.667)"/>
<path d="M0 0c-4.669-21.783-19.824-35.771 10.401-45.292 5.129-2.859 44.102-8.788 33.075-17.705C28.059-71.77 10.375-76.089-4.393-86.086c-9.482-8.294 8.542-11.36 13.996-14.062 10.639-5.087 24.743-5.373 33.096-14.023 6.101-14.229-77.318-21.204-33.52-42.634 5.891-4.259 20.704-6.539 19.129-15.734-4.454-14.177-1.218-29.382-2.794-43.99-2.437.645-13.762-1.613-12.965 1.522.625 13.412-1.399 27.468 1.691 40.533 5.185 11.973-22.286 16.905-28.739 24.229-16.826 17.579 55.206 24.012 42.313 37.587-13.393 8.596-29.97 10.666-44.369 17.337-20.391 9.332 39.395 26.877 45.584 31.704C42.899-54.042-1.55-47.191-7.03-43.937c-13.491 4.47-18.927 13.938-11.78 26.992C-12.079-.548-20.562.271.029-.024z" style="fill:#231f20;fill-opacity:1;fill-rule:nonzero;stroke:none" transform="matrix(1.33333 0 0 -1.33333 1094.771 674.614)"/>
<path d="M0 0c-63.299-1.572-126.694-2.618-189.93-5.263l.028-.024c2.216 3.214-.104 15.753 2.942 15.97 34.776.908 69.548 1.88 104.328 2.575 27.464.785 54.937 1.225 82.4 2.007 3.022.011-.486-12.562.186-15.316z" style="fill:#231f20;fill-opacity:1;fill-rule:nonzero;stroke:none" transform="matrix(1.33333 0 0 -1.33333 1348.013 667.597)"/>
<path d="M0 0c58.691-.025 117.32.294 176.002.57 17.396.346 11.184 1.144 12.843-14.679-44.919-.251-89.865-.25-134.787-.345-17.454-.068-34.92-.037-52.367-.197C-.688-14.311.197-2.502 0 0" style="fill:#231f20;fill-opacity:1;fill-rule:nonzero;stroke:none" transform="matrix(1.33333 0 0 -1.33333 1130.643 963.802)"/></g>
  <path d="M1094.8 674.6 L1115.9 673.8 L1136.9 673 L1158 672.3 L1179.1 671.7 L1200.3 671.1 L1221.4 670.6 L1242.5 670.1 L1263.6 669.6 L1284.7 669.1 L1305.8 668.6 L1326.9 668.1 L1348 667.6 L1348 667.7 L1347.8 666.5 L1347.9 664.9 L1348.1 662.9 L1348.4 660.7 L1348.7 658.4 L1349 656.1 L1349.2 653.8 L1349.4 651.7 L1348 667.6 L1348 671.9 L1347.4 676.3 L1346.2 680.9 L1344.7 685.5 L1343 690.2 L1341.2 694.9 L1339.5 699.5 L1338.2 704 L1337.2 708.4 L1336.9 712.6 L1337.3 716.6 L1338.6 720.3 L1341.4 724.6 L1347 728.5 L1354.7 732 L1363.7 735.3 L1373.5 738.3 L1383.2 741.3 L1392.3 744.2 L1400 747.1 L1405.5 750.2 L1408.3 753.4 L1407.6 756.8 L1402.8 760.6 L1399.4 762.5 L1393.8 764.9 L1386.5 767.8 L1378.2 771.1 L1369.4 774.7 L1360.7 778.6 L1352.7 782.5 L1345.9 786.5 L1341.1 790.5 L1338.6 794.3 L1339.2 798 L1343.4 801.3 L1348.3 803.5 L1353.3 805.4 L1358.3 807.2 L1363.4 808.9 L1368.6 810.5 L1373.7 812.2 L1378.8 813.8 L1383.9 815.6 L1388.9 817.6 L1393.8 819.7 L1398.5 822.1 L1403.1 824.8 L1405.5 828.1 L1404.9 831.3 L1401.8 834.5 L1396.7 837.7 L1390.1 840.9 L1382.5 844 L1374.5 847.2 L1366.5 850.4 L1359.1 853.5 L1352.8 856.7 L1348 859.9 L1345.2 863.1 L1343.7 866.9 L1343.7 870.4 L1345.2 873.5 L1347.8 876.4 L1351.3 879.1 L1355.4 881.6 L1359.9 883.9 L1364.6 886 L1369.2 888.1 L1373.4 890 L1377 892 L1379.7 893.9 L1382 895.3 L1383.7 896.8 L1384.7 898.6 L1385.3 900.4 L1385.5 902.4 L1385.3 904.5 L1385 906.6 L1384.5 908.8 L1383.9 911.1 L1383.4 913.3 L1383 915.6 L1382.8 917.8 L1382.7 921.5 L1382.7 925.3 L1382.6 929 L1382.5 932.7 L1382.5 936.5 L1382.4 940.2 L1382.3 944 L1382.2 947.7 L1382.1 951.4 L1382 955.2 L1381.9 958.9 L1381.8 962.6 L1400.5 962.6 L1382.4 982.6 L1382.1 977.8 L1382 973.8 L1382.1 970.6 L1382.2 968.1 L1382.1 966.1 L1381.7 964.7 L1380.9 963.8 L1379.6 963.2 L1377.5 962.9 L1374.5 962.9 L1370.5 962.9 L1365.3 963 L1345.8 963.1 L1326.2 963.2 L1306.6 963.3 L1287.1 963.4 L1267.5 963.5 L1248 963.6 L1228.4 963.6 L1208.9 963.7 L1189.3 963.7 L1169.8 963.8 L1150.2 963.8 L1130.6 963.8 L1130.6 963.8 L1130.7 964.9 L1130.7 966.4 L1130.7 968.2 L1130.6 970.2 L1130.6 972.4 L1116.6 963.6 L1118.5 963.5 L1120.6 963.5 L1122.6 963.3 L1124.6 963.2 L1126.3 963.2 L1127.7 963.2 L1128.8 963.3 L1129.2 958.4 L1129.4 953.5 L1129.4 948.6 L1129.4 943.7 L1129.3 938.7 L1129.2 933.8 L1129.2 928.9 L1129.4 923.9 L1129.7 919.1 L1130.3 914.2 L1131.2 909.4 L1132.5 904.7 L1132.6 901.8 L1131.9 899.2 L1130.5 897 L1128.6 895 L1126.2 893.3 L1123.5 891.7 L1120.6 890.3 L1117.6 888.9 L1114.6 887.6 L1111.8 886.4 L1109.2 885.1 L1107 883.7 L1095.8 876.9 L1090.6 870.9 L1090.5 865.4 L1094.5 860.5 L1101.5 855.9 L1110.5 851.7 L1120.6 847.6 L1130.8 843.7 L1139.9 839.7 L1147.2 835.7 L1151.4 831.4 L1151.7 826.8 L1148.8 824.2 L1145.6 821.9 L1142.1 820 L1138.5 818.4 L1134.7 817 L1130.8 815.7 L1126.8 814.6 L1122.8 813.4 L1118.9 812.3 L1115 811.1 L1111.2 809.7 L1107.6 808.1 L1105.4 807.2 L1102.8 806.3 L1099.8 805.3 L1096.7 804.1 L1093.6 802.9 L1090.8 801.6 L1088.3 800.1 L1086.5 798.4 L1085.5 796.5 L1085.4 794.4 L1086.5 792 L1088.9 789.4 L1093.9 786.2 L1099.1 783.3 L1104.3 780.6 L1109.6 778.1 L1115.1 775.7 L1120.5 773.4 L1126 771.1 L1131.4 768.8 L1136.9 766.5 L1142.2 764 L1147.5 761.4 L1152.7 758.6 L1155.1 755.7 L1155.1 753 L1153 750.4 L1149.4 748.1 L1144.5 745.8 L1138.8 743.8 L1132.6 741.9 L1126.4 740.2 L1120.5 738.6 L1115.3 737.2 L1111.2 736 L1108.6 735 L1099.8 731.7 L1093.2 728.1 L1088.6 724.3 L1085.7 720.2 L1084.4 715.7 L1084.3 710.9 L1085.1 705.8 L1086.6 700.4 L1088.6 694.5 L1090.8 688.3 L1093 681.7 L1094.8 674.6 L1094.8 674.6 L1088.7 674.6 Z" fill="none" stroke="red" stroke-width="0.5"/>
</svg>