<svg xmlns="http://www.w3.org/2000/svg" viewBox="4819.68 993.51 756.74 555.648" style="background:#f5f5f5">
  <path d="M5125.1 1003.9 L5143.3 1003.5 L5143.3 1025.3 L5150.4 1025.2 L5155.8 1025.1 L5159.9 1025 L5162.8 1025.3 L5164.7 1026 L5165.7 1027.4 L5166.1 1029.5 L5166.2 1032.6 L5166 1036.9 L5165.8 1042.4 L5165.8 1049.5 L5166.2 1058.2 L5166.4 1062.5 L5167.2 1066.4 L5168.6 1070.1 L5170.5 1073.5 L5172.8 1076.7 L5175.4 1079.7 L5178.2 1082.6 L5181.2 1085.4 L5184.2 1088.1 L5187.3 1090.9 L5190.2 1093.7 L5192.9 1096.6 L5197.6 1102.9 L5202.6 1108.9 L5207.9 1114.7 L5213.5 1120.2 L5219.4 1125.5 L5225.5 1130.4 L5231.8 1135.1 L5238.4 1139.6 L5245.1 1143.7 L5251.9 1147.6 L5258.9 1151.3 L5266 1154.6 L5272.5 1157.5 L5279.1 1160.5 L5285.6 1163.4 L5292.2 1166.3 L5298.7 1169.2 L5305.3 1172 L5311.8 1174.9 L5318.4 1177.8 L5325 1180.7 L5331.5 1183.6 L5338.1 1186.4 L5344.7 1189.3 L5351.4 1192.5 L5358 1196 L5364.5 1199.7 L5370.9 1203.5 L5377.3 1207.5 L5383.5 1211.6 L5389.8 1215.7 L5396 1219.8 L5402.2 1224 L5408.4 1228.1 L5414.7 1232.2 L5421 1236.2 L5429.8 1242 L5438.3 1248.1 L5446.8 1254.4 L5455.1 1260.9 L5463.3 1267.5 L5471.4 1274.2 L5479.4 1281.1 L5248.2 1461.3 L5247.5 1453.2 L5246.9 1445.1 L5246.5 1437 L5246.3 1428.9 L5246.3 1420.8 L5246.6 1417.1 L5246.9 1413.4 L5247.1 1409.6 L5247.3 1405.9 L5247.5 1402.2 L5247.8 1398.5 L5248.1 1394.8 L5248.5 1391.1 L5249 1387.4 L5249.6 1383.8 L5250.4 1380.1 L5251.4 1376.5 L5251.8 1375.1 L5252.1 1373.7 L5252.3 1372.2 L5252.4 1370.8 L5252.3 1369.4 L5252.2 1367.9 L5251.9 1366.5 L5251.6 1365.2 L5251.1 1363.8 L5250.5 1362.5 L5249.8 1361.1 L5249 1359.9 L5243.8 1353.9 L5238.4 1348.1 L5232.8 1342.4 L5227.1 1336.9 L5221.3 1331.5 L5215.4 1326.1 L5209.4 1320.8 L5203.5 1315.5 L5197.6 1310.2 L5191.7 1304.9 L5185.9 1299.4 L5180.2 1293.9 L5168.7 1283.9 L5157.1 1274.1 L5145.2 1264.6 L5133.2 1255.2 L5121 1246.1 L5108.6 1237.2 L5096.1 1228.6 L5083.3 1220.2 L5070.5 1212.1 L5057.4 1204.2 L5044.2 1196.7 L5030.9 1189.4 Z" fill="rgba(0,120,255,0.2)" stroke="blue" stroke-width="1.5"/>
  <g opacity="0.5"><path d="M0 0c-1.798 20.006-4.352 39.969-1.666 59.983-1.536 11.254 7.957 23.44.228 33.38-9.595 11.867-21.833 21.155-32.887 31.582-23.175 21.391-46.669 42.864-73.091 60.164-19.095 11.728-36.792 25.788-57.264 35.152-19.704 8.609-39.399 17.237-59.033 26.001-21.337 9.654-41.304 24.242-54.782 43.508-7.813 8.907-20.632 15.388-20.023 28.813-1.989 28.771 6.699 24.683-17.226 24.673V359.6c-54.599-1.048-109.141-2.338-163.732-3.573a14146 14146 0 0 0-53.322-1.09c-3.952.477-.591-13.612-1.449-16.716 55.954 1.356 111.912 2.53 167.871 3.656 16.258.339 32.516.675 48.772 1.076 1.639.041 2.18-.379 2.198-2.079.331-36.039-1.901-28.015 21.981-52.932 24.05-33.966 65.416-46.366 101.64-62.878 65.311-29.781 119.672-78.75 171.118-127.917 5.631-5.646 7.456-12.307 4.77-20.107-2.782-8.099-1.612-16.907-2.675-25.326-1.952-23.01 2.488-46.121 3.786-69.123C5.916-16.4 1.448-20.11 0 0" style="fill:#231f20;fill-opacity:1;fill-rule:nonzero;stroke:none" transform="matrix(1.33333 0 0 -1.33333 5564.245 1482.979)"/>
<path d="M0 0c-.829-38.066 5.764-26.581 25.156-52.465 31.014-39.104 83.602-47.778 124.93-71.973 49.741-29.094 94.041-65.99 135.409-105.926 7.304-7.496 18.21-15.395 14.206-27.274-3.212-12.218-3.153-25.032-3.76-37.548.673-21.929 4.914-43.655 4.568-65.582.001-2.449.008-2.445 2.399-2.348 4.524.227 8.956.283 13.495.598.577 24.431-4.652 48.386-3.993 72.843 1.121 11.094.524 22.411 3.839 33.175 1.279 4.298.83 8.717-1.85 12.502-15.19 18.267-34.765 32.681-51.586 49.487-34.099 30.177-71.728 57.076-112 78.334C111.851-97.913 66.509-85.724 39.416-50.03 17.982-24.885 16.113-35.348 16.572 1.849 13.639 1.057-.347 3.254 0 0" style="fill:#231f20;fill-opacity:1;fill-rule:nonzero;stroke:none" transform="matrix(1.33333 0 0 -1.33333 4829.774 1034.534)"/>
<path d="M0 0c71.843.116 145.615 5.89 218.115 7.836v16.845L-.759 15.699C-.518 10.24-.322 5.116 0 0" style="fill:#231f20;fill-opacity:1;fill-rule:nonzero;stroke:none" transform="matrix(1.33333 0 0 -1.33333 5253.646 1539.16)"/></g>
  <path d="M5125.1 1003.9 L5143.3 1003.5 L5143.3 1025.3 L5150.4 1025.2 L5155.8 1025.1 L5159.9 1025 L5162.8 1025.3 L5164.7 1026 L5165.7 1027.4 L5166.1 1029.5 L5166.2 1032.6 L5166 1036.9 L5165.8 1042.4 L5165.8 1049.5 L5166.2 1058.2 L5166.4 1062.5 L5167.2 1066.4 L5168.6 1070.1 L5170.5 1073.5 L5172.8 1076.7 L5175.4 1079.7 L5178.2 1082.6 L5181.2 1085.4 L5184.2 1088.1 L5187.3 1090.9 L5190.2 1093.7 L5192.9 1096.6 L5197.6 1102.9 L5202.6 1108.9 L5207.9 1114.7 L5213.5 1120.2 L5219.4 1125.5 L5225.5 1130.4 L5231.8 1135.1 L5238.4 1139.6 L5245.1 1143.7 L5251.9 1147.6 L5258.9 1151.3 L5266 1154.6 L5272.5 1157.5 L5279.1 1160.5 L5285.6 1163.4 L5292.2 1166.3 L5298.7 1169.2 L5305.3 1172 L5311.8 1174.9 L5318.4 1177.8 L5325 1180.7 L5331.5 1183.6 L5338.1 1186.4 L5344.7 1189.3 L5351.4 1192.5 L5358 1196 L5364.5 1199.7 L5370.9 1203.5 L5377.3 1207.5 L5383.5 1211.6 L5389.8 1215.7 L5396 1219.8 L5402.2 1224 L5408.4 1228.1 L5414.7 1232.2 L5421 1236.2 L5429.8 1242 L5438.3 1248.1 L5446.8 1254.4 L5455.1 1260.9 L5463.3 1267.5 L5471.4 1274.2 L5479.4 1281.1 L5248.2 1461.3 L5247.5 1453.2 L5246.9 1445.1 L5246.5 1437 L5246.3 1428.9 L5246.3 1420.8 L5246.6 1417.1 L5246.9 1413.4 L5247.1 1409.6 L5247.3 1405.9 L5247.5 1402.2 L5247.8 1398.5 L5248.1 1394.8 L5248.5 1391.1 L5249 1387.4 L5249.6 1383.8 L5250.4 1380.1 L5251.4 1376.5 L5251.8 1375.1 L5252.1 1373.7 L5252.3 1372.2 L5252.4 1370.8 L5252.3 1369.4 L5252.2 1367.9 L5251.9 1366.5 L5251.6 1365.2 L5251.1 1363.8 L5250.5 1362.5 L5249.8 1361.1 L5249 1359.9 L5243.8 1353.9 L5238.4 1348.1 L5232.8 1342.4 L5227.1 1336.9 L5221.3 1331.5 L5215.4 1326.1 L5209.4 1320.8 L5203.5 1315.5 L5197.6 1310.2 L5191.7 1304.9 L5185.9 1299.4 L5180.2 1293.9 L5168.7 1283.9 L5157.1 1274.1 L5145.2 1264.6 L5133.2 1255.2 L5121 1246.1 L5108.6 1237.2 L5096.1 1228.6 L5083.3 1220.2 L5070.5 1212.1 L5057.4 1204.2 L5044.2 1196.7 L5030.9 1189.4 Z" fill="none" stroke="red" stroke-width="0.5"/>
</svg>