<svg xmlns="http://www.w3.org/2000/svg" viewBox="1742.92 4094.36 1002.541 929.176" style="background:#f5f5f5">
  <path d="M1896.5 4150.5 L1896.5 4152.4 L1896.6 4154.3 L1896.6 4156.2 L1896.8 4158 L1896.9 4159.9 L1897.1 4161.8 L1897.3 4163.6 L1897.1 4163.6 L1946.3 4160.5 L1995.6 4157.4 L2044.8 4154.4 L2094 4151.3 L2143.3 4148.3 L2192.5 4145.3 L2241.8 4142.2 L2291 4139.2 L2340.3 4136.1 L2389.5 4133 L2438.8 4129.8 L2488 4126.7 L2488 4126.2 L2487.8 4130.2 L2487.6 4134.2 L2487.4 4138.3 L2487.3 4142.3 L2487.1 4146.3 L2486.9 4150.3 L2486.7 4154.3 L2486.5 4158.3 L2486.3 4162.4 L2486.1 4166.4 L2485.9 4170.4 L2485.6 4174.4 L2485.6 4175.8 L2485.8 4177.1 L2486.2 4178.4 L2486.7 4179.5 L2487.4 4180.5 L2488.3 4181.4 L2489.2 4182.3 L2490.3 4183 L2491.4 4183.7 L2492.6 4184.2 L2493.8 4184.7 L2495.1 4185 L2507.8 4187.3 L2520.6 4189.2 L2533.4 4190.7 L2546.3 4191.9 L2559.3 4192.9 L2572.2 4193.7 L2585.1 4194.4 L2598.1 4195 L2611.1 4195.7 L2624 4196.4 L2636.9 4197.2 L2649.8 4198.3 L2654.7 4198.7 L2659.7 4199.1 L2664.6 4199.4 L2669.6 4199.7 L2674.5 4200 L2679.4 4200.4 L2684.4 4200.8 L2689.3 4201.2 L2694.2 4201.8 L2699.1 4202.4 L2704 4203.2 L2708.9 4204.1 L2710.1 4204.3 L2711.1 4204.7 L2712 4205.4 L2712.6 4206.2 L2713 4207.2 L2713.3 4208.3 L2713.3 4209.4 L2713.1 4210.5 L2712.8 4211.5 L2712.2 4212.4 L2711.4 4213.2 L2710.5 4213.8 L2700.3 4216.5 L2690 4218.6 L2679.6 4220.3 L2669.2 4221.7 L2658.7 4222.7 L2648.2 4223.6 L2637.6 4224.2 L2627.1 4224.9 L2616.5 4225.5 L2606 4226.1 L2595.5 4226.9 L2585.1 4228 L2572.4 4229.1 L2559.7 4230.1 L2547 4231 L2534.2 4231.9 L2521.5 4232.9 L2508.8 4233.9 L2496.1 4235 L2483.4 4236.3 L2470.8 4237.8 L2458.1 4239.6 L2445.6 4241.6 L2433.1 4244 L2431 4245 L2429.4 4246.3 L2428.2 4248 L2427.4 4250 L2427 4252.2 L2426.8 4254.5 L2426.7 4256.9 L2426.7 4259.4 L2426.8 4261.9 L2426.7 4264.3 L2426.6 4266.5 L2426.2 4268.6 L2426 4272.1 L2425.7 4275.6 L2425.5 4279.1 L2425.3 4282.6 L2425 4286.1 L2424.8 4289.6 L2424.6 4293.2 L2424.3 4296.7 L2424.1 4300.2 L2423.9 4303.7 L2423.7 4307.2 L2423.4 4310.7 L2423.2 4313.8 L2423 4317 L2422.8 4320.1 L2422.6 4323.2 L2422.4 4326.4 L2422.2 4329.5 L2422 4332.7 L2421.8 4335.8 L2421.6 4338.9 L2421.4 4342.1 L2421.2 4345.2 L2421 4348.3 L2421.1 4350.5 L2421 4352.9 L2420.7 4355.4 L2420.4 4357.9 L2420.1 4360.5 L2420 4362.9 L2420.1 4365.3 L2420.5 4367.4 L2421.4 4369.3 L2422.7 4370.8 L2424.6 4371.9 L2427.2 4372.5 L2434.4 4373.7 L2441.7 4374.8 L2448.9 4375.6 L2456.2 4376.3 L2463.5 4376.9 L2470.8 4377.4 L2478.1 4377.8 L2485.4 4378.2 L2492.7 4378.6 L2500.1 4379 L2507.4 4379.4 L2514.6 4380 L2528 4380.8 L2541.4 4381.5 L2554.8 4382.1 L2568.2 4382.8 L2581.6 4383.4 L2595 4384 L2608.4 4384.8 L2621.8 4385.6 L2635.2 4386.5 L2648.5 4387.7 L2661.9 4389 L2675.2 4390.5 L2675.6 4390.6 L2676 4390.7 L2676.4 4390.9 L2676.8 4391 L2677.2 4391.2 L2677.6 4391.4 L2678 4391.6 L2678.3 4391.8 L2678.7 4392 L2679 4392.3 L2679.3 4392.6 L2679.5 4392.9 L2680.2 4396.2 L2679.4 4398.8 L2677.2 4400.9 L2674 4402.5 L2669.9 4403.6 L2665.3 4404.4 L2660.4 4405 L2655.4 4405.3 L2650.6 4405.6 L2646.2 4405.9 L2642.6 4406.2 L2639.9 4406.7 L2619.3 4408.2 L2598.8 4409.6 L2578.3 4410.8 L2557.7 4412.1 L2537.2 4413.3 L2516.6 4414.4 L2496.1 4415.7 L2475.5 4416.9 L2455 4418.3 L2434.5 4419.7 L2414 4421.4 L2393.5 4423.2 L2387.7 4423.8 L2382.8 4424.4 L2378.7 4425.1 L2375.5 4425.9 L2373 4427.1 L2371.1 4428.6 L2369.8 4430.6 L2369 4433.2 L2368.6 4436.5 L2368.6 4440.5 L2368.9 4445.4 L2369.4 4451.3 L2370 4456.4 L2370.4 4461.5 L2370.6 4466.6 L2370.7 4471.7 L2370.6 4476.8 L2370.3 4481.9 L2370 4487 L2369.7 4492.1 L2369.3 4497.2 L2368.9 4502.3 L2368.5 4507.4 L2368.2 4512.5 L2368.6 4514.9 L2370.1 4516.9 L2372.5 4518.4 L2375.7 4519.5 L2379.4 4520.3 L2383.4 4520.9 L2387.7 4521.3 L2392 4521.6 L2396.1 4521.8 L2399.8 4522.1 L2403 4522.4 L2405.5 4522.8 L2409.9 4523.2 L2414.4 4523.6 L2418.8 4524 L2423.2 4524.3 L2427.6 4524.6 L2432.1 4525 L2436.5 4525.3 L2440.9 4525.6 L2445.4 4525.9 L2449.8 4526.2 L2454.3 4526.4 L2458.7 4526.7 L2475.9 4527.9 L2493 4529 L2510.2 4530 L2527.4 4531 L2544.6 4532 L2561.8 4533 L2579 4534.1 L2596.2 4535.2 L2613.3 4536.5 L2630.5 4538 L2647.6 4539.6 L2664.7 4541.4 L2665.9 4541.7 L2667.1 4542 L2668.4 4542.3 L2669.8 4542.5 L2671.2 4542.9 L2672.5 4543.3 L2673.7 4543.7 L2674.8 4544.3 L2675.8 4545.1 L2676.5 4546 L2677 4547.1 L2677.2 4548.5 L2677.3 4549.7 L2677.1 4550.8 L2676.7 4551.8 L2676.1 4552.6 L2675.4 4553.3 L2674.6 4553.9 L2673.7 4554.4 L2672.7 4554.8 L2671.6 4555.2 L2670.5 4555.5 L2669.5 4555.8 L2668.4 4556.1 L2655.6 4558.4 L2642.8 4560.2 L2629.9 4561.8 L2617 4563 L2604.1 4564.1 L2591.1 4565 L2578.1 4565.9 L2565.2 4566.8 L2552.2 4567.7 L2539.3 4568.8 L2526.3 4570.1 L2513.4 4571.6 L2509.8 4572.3 L2506.6 4572.9 L2503.9 4573.5 L2501.6 4574.1 L2499.6 4574.8 L2497.9 4575.8 L2496.5 4577 L2495.3 4578.7 L2494.3 4580.7 L2493.4 4583.3 L2492.6 4586.5 L2491.8 4590.3 L2491.1 4596.5 L2490.3 4602.6 L2489.6 4608.7 L2488.9 4614.9 L2488.2 4621 L2487.5 4627.1 L2486.9 4633.3 L2486.2 4639.4 L2485.6 4645.6 L2484.9 4651.7 L2484.3 4657.9 L2483.7 4664 L2483.4 4668.4 L2483 4672.5 L2482.5 4676.3 L2482 4679.8 L2481.9 4683.1 L2482.1 4686 L2482.8 4688.7 L2484.1 4691 L2486.2 4693 L2489.3 4694.8 L2493.4 4696.2 L2498.7 4697.3 L2508.2 4698.7 L2517.7 4700 L2527.3 4701.2 L2536.8 4702.2 L2546.4 4703.1 L2556 4704 L2565.6 4704.8 L2575.2 4705.5 L2584.8 4706.2 L2594.4 4706.9 L2604 4707.7 L2613.6 4708.4 L2616.4 4708.8 L2621.1 4709.2 L2627.1 4709.7 L2633.9 4710.1 L2641.2 4710.8 L2648.4 4711.6 L2655.1 4712.7 L2660.8 4714.1 L2665 4715.9 L2667.3 4718.2 L2667.2 4720.9 L2664.2 4724.2 L2655.8 4726.8 L2647.4 4728.9 L2638.9 4730.6 L2630.3 4732 L2621.6 4733.2 L2612.9 4734.2 L2604.1 4735.1 L2595.4 4736 L2586.7 4736.9 L2577.9 4737.9 L2569.3 4739.1 L2560.7 4740.5 L2558.5 4741 L2556 4741.5 L2553.4 4741.9 L2550.6 4742.3 L2547.9 4742.9 L2545.3 4743.6 L2542.9 4744.5 L2540.8 4745.7 L2539.2 4747.2 L2538.1 4749 L2537.7 4751.3 L2538 4754.1 L2540.2 4766.5 L2542.3 4778.8 L2544.5 4791.1 L2546.6 4803.5 L2548.8 4815.8 L2551 4828.1 L2553.1 4840.4 L2555.3 4852.8 L2557.4 4865.1 L2559.4 4877.4 L2561.4 4889.8 L2563.4 4902.2 L2567.5 4923.6 L2563.7 4902.2 L2563.8 4902.2 L2521.4 4909.4 L2475.2 4917.3 L2426.2 4925.7 L2375 4934.5 L2322.4 4943.6 L2269 4952.8 L2215.8 4962.1 L2163.3 4971.1 L2112.4 4979.9 L2063.8 4988.3 L2018.3 4996.1 L1976.5 5003.2 L1977.3 5009.6 L1976.9 5010 L1976.5 5010.3 L1976.1 5010.6 L1975.6 5010.9 L1975.2 5011.1 L1974.7 5011.4 L1974.3 5011.6 L1973.8 5011.9 L1973.4 5012.2 L1973 5012.6 L1972.7 5013 L1972.4 5013.5 L1954.7 5006.7 L1975.8 5003 L1973.3 4988.1 L1970.8 4973.3 L1968.3 4958.4 L1965.7 4943.6 L1963.2 4928.7 L1960.6 4913.9 L1958.1 4899 L1955.5 4884.2 L1952.9 4869.4 L1950.4 4854.5 L1947.8 4839.7 L1945.3 4824.8 L1943.8 4817.7 L1942.8 4811.9 L1942.1 4807.2 L1942 4803.5 L1942.5 4800.7 L1943.8 4798.5 L1945.7 4796.8 L1948.5 4795.6 L1952.3 4794.5 L1957 4793.6 L1962.9 4792.5 L1969.9 4791.3 L1978 4790.2 L1986.2 4789.1 L1994.4 4788.2 L2002.6 4787.3 L2010.8 4786.4 L2019 4785.4 L2027.2 4784.4 L2035.3 4783.3 L2043.5 4782.1 L2051.6 4780.6 L2059.7 4779 L2067.7 4777.1 L2073.4 4773.8 L2075.5 4771 L2074.5 4768.6 L2071 4766.7 L2065.6 4765.1 L2058.7 4763.9 L2051 4762.9 L2043.1 4762.1 L2035.5 4761.5 L2028.9 4761 L2023.6 4760.5 L2020.5 4760.1 L2010 4759 L1999.4 4758.2 L1988.8 4757.5 L1978.2 4756.9 L1967.6 4756.2 L1957 4755.5 L1946.4 4754.7 L1935.8 4753.6 L1925.4 4752.2 L1915 4750.4 L1904.7 4748.2 L1894.5 4745.4 L1892.3 4744.2 L1890.7 4742.6 L1889.6 4740.8 L1889 4738.8 L1888.7 4736.6 L1888.6 4734.3 L1888.8 4731.9 L1889.2 4729.5 L1889.5 4727.1 L1889.9 4724.7 L1890.1 4722.4 L1890.1 4720.2 L1891 4713 L1891.8 4705.8 L1892.5 4698.6 L1893.1 4691.4 L1893.8 4684.2 L1894.4 4677 L1895.2 4669.8 L1896 4662.6 L1896.9 4655.4 L1898 4648.2 L1899.3 4641.1 L1900.8 4634 L1901.1 4631.8 L1901.9 4630 L1903 4628.5 L1904.5 4627.3 L1906.3 4626.4 L1908.3 4625.7 L1910.4 4625.1 L1912.5 4624.7 L1914.7 4624.3 L1916.9 4623.9 L1918.9 4623.6 L1920.7 4623.1 L1930.8 4622 L1940.9 4621 L1951 4620 L1961.1 4619.2 L1971.2 4618.4 L1981.3 4617.6 L1991.4 4616.9 L2001.5 4616.1 L2011.6 4615.3 L2021.8 4614.5 L2031.9 4613.7 L2042 4612.8 L2044.6 4612.3 L2048.1 4611.9 L2052.4 4611.5 L2057.1 4611.1 L2062 4610.6 L2067 4609.9 L2071.7 4609 L2076.1 4607.9 L2079.8 4606.5 L2082.6 4604.8 L2084.4 4602.7 L2084.8 4600.1 L2084.7 4599 L2084.4 4598.1 L2084 4597.3 L2083.3 4596.6 L2082.5 4596.1 L2081.6 4595.6 L2080.6 4595.2 L2079.6 4594.8 L2078.6 4594.5 L2077.6 4594.3 L2076.6 4594 L2075.7 4593.8 L2059.7 4591.9 L2043.6 4590.2 L2027.4 4588.8 L2011.3 4587.5 L1995.2 4586.3 L1979 4585.3 L1962.8 4584.3 L1946.7 4583.4 L1930.5 4582.5 L1914.3 4581.6 L1898.2 4580.6 L1882 4579.6 L1877.3 4579 L1869.6 4578.4 L1859.5 4577.9 L1847.7 4577.2 L1834.9 4576.5 L1821.8 4575.6 L1809.1 4574.6 L1797.4 4573.3 L1787.5 4571.7 L1780 4569.8 L1775.6 4567.5 L1775 4564.8 L1775.2 4561.1 L1775.4 4557.4 L1775.7 4553.7 L1776 4550 L1776.3 4546.3 L1776.6 4542.6 L1776.9 4538.9 L1777.1 4535.2 L1777.3 4531.5 L1777.5 4527.8 L1777.6 4524.1 L1777.6 4520.4 L1777.5 4517.3 L1777.3 4514.2 L1777 4511.1 L1776.7 4507.9 L1776.4 4504.8 L1776.1 4501.7 L1775.9 4498.5 L1775.7 4495.4 L1775.6 4492.3 L1775.6 4489.1 L1775.7 4486 L1776 4482.9 L1776.3 4481.6 L1776.8 4480.5 L1777.5 4479.7 L1778.4 4479 L1779.5 4478.5 L1780.6 4478 L1781.8 4477.7 L1783.1 4477.5 L1784.3 4477.2 L1785.5 4477 L1786.7 4476.8 L1787.8 4476.5 L1808.9 4474.2 L1830 4472.2 L1851.1 4470.5 L1872.2 4469 L1893.4 4467.6 L1914.5 4466.4 L1935.7 4465.3 L1956.8 4464.1 L1978 4462.9 L1999.2 4461.7 L2020.3 4460.2 L2041.4 4458.6 L2044.3 4458.1 L2048.1 4457.8 L2052.7 4457.5 L2057.8 4457.3 L2063.2 4457 L2068.5 4456.5 L2073.7 4455.8 L2078.4 4454.9 L2082.3 4453.6 L2085.4 4451.8 L2087.2 4449.5 L2087.6 4446.6 L2087.5 4446 L2087.4 4445.5 L2087.2 4445 L2087.1 4444.6 L2086.8 4444.2 L2086.6 4443.9 L2086.2 4443.6 L2085.9 4443.3 L2085.4 4443.1 L2084.9 4442.8 L2084.3 4442.6 L2083.5 4442.4 L2067.9 4440.7 L2052.3 4439.2 L2036.6 4437.9 L2020.9 4436.9 L2005.2 4435.9 L1989.5 4435.1 L1973.7 4434.3 L1958 4433.6 L1942.3 4432.8 L1926.6 4432 L1910.9 4431 L1895.2 4430 L1891.6 4429.5 L1886.4 4429 L1880 4428.7 L1872.7 4428.4 L1865 4428 L1857.1 4427.4 L1849.5 4426.7 L1842.5 4425.7 L1836.5 4424.3 L1831.8 4422.6 L1828.9 4420.4 L1828 4417.6 L1828.3 4411.6 L1828.6 4405.6 L1828.9 4399.6 L1829.2 4393.5 L1829.6 4387.5 L1829.9 4381.5 L1830.3 4375.5 L1830.7 4369.5 L1831.1 4363.5 L1831.5 4357.5 L1832 4351.5 L1832.4 4345.5 L1832.6 4341.9 L1832.9 4338.4 L1833.1 4334.8 L1833.4 4331.2 L1833.6 4327.7 L1833.8 4324.1 L1834.1 4320.5 L1834.3 4317 L1834.5 4313.4 L1834.7 4309.9 L1835 4306.3 L1835.2 4302.7 L1835.4 4300.9 L1836 4299.3 L1836.9 4298 L1838.1 4297 L1839.5 4296.1 L1841 4295.4 L1842.6 4294.9 L1844.4 4294.4 L1846.1 4294 L1847.8 4293.7 L1849.5 4293.4 L1851 4293 L1862.6 4291.4 L1874.2 4290 L1885.8 4288.7 L1897.4 4287.5 L1909.1 4286.3 L1920.7 4285.3 L1932.3 4284.3 L1944 4283.3 L1955.6 4282.4 L1967.3 4281.5 L1978.9 4280.5 L1990.6 4279.6 L2001.2 4278.6 L2011.8 4277.9 L2022.5 4277.2 L2033.1 4276.6 L2043.8 4275.9 L2054.5 4275.2 L2065.1 4274.3 L2075.8 4273.3 L2086.3 4271.9 L2096.8 4270.3 L2107.3 4268.2 L2117.6 4265.7 L2118.8 4265.3 L2119.7 4264.6 L2120.4 4263.7 L2120.9 4262.7 L2121.2 4261.6 L2121.2 4260.5 L2121 4259.4 L2120.6 4258.3 L2120 4257.4 L2119.1 4256.6 L2118.1 4256 L2116.8 4255.7 L2112.3 4255 L2107.9 4254.3 L2103.4 4253.7 L2099 4253.2 L2094.5 4252.7 L2090 4252.3 L2085.6 4251.9 L2081.1 4251.6 L2076.6 4251.2 L2072.1 4250.9 L2067.6 4250.6 L2063.1 4250.3 L2055 4249.7 L2047 4249.2 L2038.9 4248.7 L2030.8 4248.2 L2022.7 4247.7 L2014.6 4247.2 L2006.6 4246.7 L1998.5 4246.2 L1990.4 4245.7 L1982.3 4245.2 L1974.2 4244.7 L1966.2 4244.2 L1960.5 4243.7 L1954.8 4243.2 L1949 4242.8 L1943.3 4242.5 L1937.5 4242.1 L1931.7 4241.6 L1925.9 4241.1 L1920.2 4240.3 L1914.6 4239.3 L1909 4238.1 L1903.6 4236.5 L1898.2 4234.6 L1897.5 4234.1 L1896.8 4233.6 L1896.2 4233 L1895.6 4232.5 L1895.1 4231.9 L1894.7 4231.2 L1894.4 4230.5 L1894.1 4229.8 L1893.9 4229 L1893.8 4228.2 L1893.7 4227.3 L1893.7 4226.4 L1894 4221.1 L1894.3 4215.9 L1894.5 4210.6 L1894.8 4205.3 L1895 4200.1 L1895.3 4194.8 L1895.6 4189.5 L1895.8 4184.3 L1896.1 4179 L1896.4 4173.7 L1896.8 4168.5 L1897.2 4163.2 L1897.3 4163.3 L1895.4 4163.2 L1893.6 4163.1 L1891.7 4163 L1889.9 4162.9 L1888 4162.8 L1886.2 4162.7 L1884.3 4162.6 L1882.4 4162.5 L1880.6 4162.4 L1878.7 4162.3 L1876.8 4162.1 L1875 4162 Z" fill="rgba(0,120,255,0.2)" stroke="blue" stroke-width="1.5"/>
  <g opacity="0.5"><path d="M0 0c-1.18-15.78-1.705-31.598-2.563-47.397-.152-2.827 1.026-4.741 3.342-6.127 15.914-6.412 34.081-5.319 50.975-7.242 24.236-1.534 48.485-2.914 72.716-4.537 13.443-.981 26.967-1.732 40.246-4.084 4.171-.511 4.486-6.533.637-7.487-30.928-8.278-63.588-7.228-95.303-10.41C35.131-90.161.119-92.421-34.59-97.336c-4.43-1.165-11.714-1.298-11.912-7.306-.612-10.693-1.353-21.378-2.074-32.064-1.333-18.016-2.488-36.039-3.282-54.086-.845-9.162 42.239-7.415 50.377-9.291 47.052-3.423 94.427-3.657 141.272-9.321 2.24-.638 2.81-1.262 3.014-3.17 1.216-9.55-27.715-7.203-34.616-9.004-63.331-5.131-127.063-5.957-190.185-13.36-3.153-.969-8.343-.612-8.895-4.797-1.03-9.44.938-18.796 1.235-28.181.025-11.094-1.442-22.173-1.984-33.246-4.567-8.785 71.413-9.251 80.3-11.121 48.419-3.322 97.092-4.552 145.265-10.644 2.55-.769 6.954-1.251 6.824-4.749.807-8.386-25.811-7.993-32.155-9.487-30.277-2.919-60.707-4.18-90.92-7.776-5.181-1.471-14.763-.936-14.978-8.177-4.829-21.19-5.137-43.124-7.973-64.641.227-6.282-4.272-15.668 3.274-18.892 30.349-9.137 63.124-7.407 94.47-11.009 5.925-1.357 58.772-1.977 35.428-12.733-24.017-6.114-48.915-7.081-73.365-10.666-22.825-4.203-23.268-1.839-18.427-25.135 7.6-44.569 15.392-89.066 22.913-133.654l-15.899-2.743c-8.947 48.474-16.984 97.111-25.443 145.675-.108 3.451-3.277 8.973.903 11.011 7.973 3.872 17.188 4.113 25.802 5.711 22.325 3.234 45.087 4.007 66.988 9.708 24.203 11.369-34.193 12.17-39.995 13.334-27.211 2.077-54.508 3.592-81.487 7.885-15.361 2.756-13.201 7.834-11.783 21.043 1.875 19.408 3.79 38.813 6.176 58.166 1.329 3.696.671 9.561 4.391 11.694 7.969 3.677 16.938 3.591 25.488 4.817 34.742 4.067 70.294 3.058 104.559 10.38 10.269 2.73 5.025 10.102-3.095 10.696-73.149 9.084-147.544 7.071-220.501 17.309-2.72.963-3.459 1.94-3.276 4.821.653 11.483 2.483 22.92 2.047 34.446-.942 8.56-1.864 17.135-1.459 25.764.115 4.785 6.891 4.313 10.263 5.41 61.478 6.554 123.373 8.16 185.015 12.67 6.148 1.386 50.037.578 36.037 12.482-45.923 6.043-92.588 5.871-138.79 9.296-8.765 1.781-53.568.169-53.472 9.288 1.559 28.972 3.514 57.925 5.498 86.867 1.075 8.971 26.771 7.517 34.219 9.581 30.18 3.173 60.444 5.554 90.713 7.692 26.998 2.481 54.344 2.68 80.969 8.161 2.995 1.164 8.876 1.176 8.476 5.359-.093 2.61-.458 3.318-3.007 3.874-14.452 3.074-29.351 3.043-44.024 4.422-27.405 1.847-54.844 3.225-82.236 5.268C9.78-58.6-2.951-58.425-14.672-54.073c-3.228 1.241-4.762 3.611-4.539 7.292 1.022 15.904 1.438 31.745 2.563 47.658C-11.004.557-5.467.243.067-.069z" style="fill:#231f20;fill-opacity:1;fill-rule:nonzero;stroke:none" transform="matrix(1.33333 0 0 -1.33333 1897.162 4163.21)"/>
<path d="m0 0 2.853-16.114c-82.288-14.418-288.749-49.695-368.416-63.378-25.853-3.496-51.844-2.896-77.902-4.04.804 1.622 2.606 1.711 3.643 2.973l-.578 4.776C-321.577-55.701-120.982-20.39.069-.065z" style="fill:#231f20;fill-opacity:1;fill-rule:nonzero;stroke:none" transform="matrix(1.33333 0 0 -1.33333 2563.698 4902.157)"/>
<path d="M0 0c-5.774 37.09-12.688 74.009-18.997 111.015-2.232 9.22 11.015 8.461 16.977 10.248 25.696 4.653 52.796 3.806 77.626 12.202 13.768 10.832-32.667 10.397-37.928 11.865-28.78 2.252-57.681 3.781-86.22 8.322-17.785 2.851-11.677 11.379-11.191 24.948 1.763 18.453 3.802 36.877 6.05 55.278 2.317 12.661 4.491 11.718 16.236 14.029 38.602 5.13 77.972 4.163 116.221 11.617 3.083.879 7.087 1.713 6.611 5.74-.11 4.376-6.237 4.287-9.37 5.284-51.321 5.867-103.035 7.286-154.532 11.037-13.308.805-26.609 1.733-39.891 2.897-6.138 1.629-28.648-.356-27.953 7.765.747 15.295 3.161 30.628.869 45.885-1.802 19.17-.859 19.155 18.065 21.116 61.478 5.687 123.234 7.63 184.783 12.373 6.524 1.687 34.485-.664 29.735 10.353-.649.909-2.064 1.454-3.236 1.761-39.875 4.977-80.305 5.32-120.408 7.9-21.835 1.788-43.983 1.517-65.548 5.628-8.991 1.048-3.932 11.98-4.652 18.097.562 9.414 1.184 18.823 1.795 28.234.682 10.527 1.379 21.053 2.071 31.58 1.507 5.893-2.102 16.173 5.181 18.421 37.374 7.752 76.002 8.483 113.968 12.048 31.266 3.457 63.655 1.839 94.046 10.603 3.206 1.452 2.812 7.208-1.201 7.302-14.544 3.003-29.52 2.963-44.272 4.347-38.617 3.516-77.956 2.449-116.06 9.948-3.715.961-7.535 3.56-7.08 7.968.684 12.048 1.204 24.106 1.783 36.161l-.069-.067 16.438-1.001c-.326-11.771-1.077-23.495-1.635-35.255-.402-6.802 7.655-8.232 12.78-9.318 42.452-6.061 85.575-5.949 128.276-9.703 9.099-.957 18.385-1.253 27.309-3.318 3.066-.351 3.342-5.962.561-6.903-31.271-8.696-64.51-7.562-96.663-10.783-31.527-2.349-63.032-5.112-94.453-8.606-6.636-1.978-20.228-.115-21.467-8.879-.632-11.251-1.503-22.487-2.211-33.733-1.08-17.148-2.106-34.3-3.134-51.451-1.53-7.238 12.017-6.308 16.748-7.603 57.195-5.301 114.758-5.51 171.923-11.169 2.296-.471 5.785-.42 6.125-3.442 3.045-10.757-40.996-8.695-48.77-10.377-58.528-4.197-117.308-5.633-175.618-12.413-3.167-.847-8.419-.856-8.684-5.1-.545-6.245-.266-12.488.636-18.636 1.888-13.812-.552-27.571-1.303-41.359-4.772-10.293 54.038-8.98 62.011-10.967 54.202-4.234 108.768-5.193 162.731-11.881 4.554-.082 10.017-5.173 4.9-8.842-14.472-5.373-30.377-5.021-45.564-6.763-23.805-1.819-47.64-3.316-71.379-5.909-12.906-1.806-18.671-1.69-20.228-16.336-2.891-22.102-4.816-44.324-7.174-66.489-2.498-9.373 8.261-11.48 15.241-12.644 34.299-5.116 69.038-6.18 103.519-9.662 5.889-.816 12.013-1.028 17.669-2.953 6.741-3.81-.493-8.167-5.17-8.903-21.411-5.213-43.655-5.921-65.405-9.154-22.738-5.112-27.19.901-21.326-25.101 5.22-31.41 11.068-62.718 16.156-94.139C10.677 2.103 5.351 1.333-.068.065Z" style="fill:#231f20;fill-opacity:1;fill-rule:nonzero;stroke:none" transform="matrix(1.33333 0 0 -1.33333 2563.377 4902.157)"/>
<path d="M0 0c-147.712-9.603-295.475-18.393-443.205-27.685l.147-.059c-.564 5.569-.938 11.323.008 16.854L-.002 16.717-.134-.079z" style="fill:#231f20;fill-opacity:1;fill-rule:nonzero;stroke:none" transform="matrix(1.33333 0 0 -1.33333 2488.003 4126.654)"/></g>
  <path d="M1896.5 4150.5 L1896.5 4152.4 L1896.6 4154.3 L1896.6 4156.2 L1896.8 4158 L1896.9 4159.9 L1897.1 4161.8 L1897.3 4163.6 L1897.1 4163.6 L1946.3 4160.5 L1995.6 4157.4 L2044.8 4154.4 L2094 4151.3 L2143.3 4148.3 L2192.5 4145.3 L2241.8 4142.2 L2291 4139.2 L2340.3 4136.1 L2389.5 4133 L2438.8 4129.8 L2488 4126.7 L2488 4126.2 L2487.8 4130.2 L2487.6 4134.2 L2487.4 4138.3 L2487.3 4142.3 L2487.1 4146.3 L2486.9 4150.3 L2486.7 4154.3 L2486.5 4158.3 L2486.3 4162.4 L2486.1 4166.4 L2485.9 4170.4 L2485.6 4174.4 L2485.6 4175.8 L2485.8 4177.1 L2486.2 4178.4 L2486.7 4179.5 L2487.4 4180.5 L2488.3 4181.4 L2489.2 4182.3 L2490.3 4183 L2491.4 4183.7 L2492.6 4184.2 L2493.8 4184.7 L2495.1 4185 L2507.8 4187.3 L2520.6 4189.2 L2533.4 4190.7 L2546.3 4191.9 L2559.3 4192.9 L2572.2 4193.7 L2585.1 4194.4 L2598.1 4195 L2611.1 4195.7 L2624 4196.4 L2636.9 4197.2 L2649.8 4198.3 L2654.7 4198.7 L2659.7 4199.1 L2664.6 4199.4 L2669.6 4199.7 L2674.5 4200 L2679.4 4200.4 L2684.4 4200.8 L2689.3 4201.2 L2694.2 4201.8 L2699.1 4202.4 L2704 4203.2 L2708.9 4204.1 L2710.1 4204.3 L2711.1 4204.7 L2712 4205.4 L2712.6 4206.2 L2713 4207.2 L2713.3 4208.3 L2713.3 4209.4 L2713.1 4210.5 L2712.8 4211.5 L2712.2 4212.4 L2711.4 4213.2 L2710.5 4213.8 L2700.3 4216.5 L2690 4218.6 L2679.6 4220.3 L2669.2 4221.7 L2658.7 4222.7 L2648.2 4223.6 L2637.6 4224.2 L2627.1 4224.9 L2616.5 4225.5 L2606 4226.1 L2595.5 4226.9 L2585.1 4228 L2572.4 4229.1 L2559.7 4230.1 L2547 4231 L2534.2 4231.9 L2521.5 4232.9 L2508.8 4233.9 L2496.1 4235 L2483.4 4236.3 L2470.8 4237.8 L2458.1 4239.6 L2445.6 4241.6 L2433.1 4244 L2431 4245 L2429.4 4246.3 L2428.2 4248 L2427.4 4250 L2427 4252.2 L2426.8 4254.5 L2426.7 4256.9 L2426.7 4259.4 L2426.8 4261.9 L2426.7 4264.3 L2426.6 4266.5 L2426.2 4268.6 L2426 4272.1 L2425.7 4275.6 L2425.5 4279.1 L2425.3 4282.6 L2425 4286.1 L2424.8 4289.6 L2424.6 4293.2 L2424.3 4296.7 L2424.1 4300.2 L2423.9 4303.7 L2423.7 4307.2 L2423.4 4310.7 L2423.2 4313.8 L2423 4317 L2422.8 4320.1 L2422.6 4323.2 L2422.4 4326.4 L2422.2 4329.5 L2422 4332.7 L2421.8 4335.8 L2421.6 4338.9 L2421.4 4342.1 L2421.2 4345.2 L2421 4348.3 L2421.1 4350.5 L2421 4352.9 L2420.7 4355.4 L2420.4 4357.9 L2420.1 4360.5 L2420 4362.9 L2420.1 4365.3 L2420.5 4367.4 L2421.4 4369.3 L2422.7 4370.8 L2424.6 4371.9 L2427.2 4372.5 L2434.4 4373.7 L2441.7 4374.8 L2448.9 4375.6 L2456.2 4376.3 L2463.5 4376.9 L2470.8 4377.4 L2478.1 4377.8 L2485.4 4378.2 L2492.7 4378.6 L2500.1 4379 L2507.4 4379.4 L2514.6 4380 L2528 4380.8 L2541.4 4381.5 L2554.8 4382.1 L2568.2 4382.8 L2581.6 4383.4 L2595 4384 L2608.4 4384.8 L2621.8 4385.6 L2635.2 4386.5 L2648.5 4387.7 L2661.9 4389 L2675.2 4390.5 L2675.6 4390.6 L2676 4390.7 L2676.4 4390.9 L2676.8 4391 L2677.2 4391.2 L2677.6 4391.4 L2678 4391.6 L2678.3 4391.8 L2678.7 4392 L2679 4392.3 L2679.3 4392.6 L2679.5 4392.9 L2680.2 4396.2 L2679.4 4398.8 L2677.2 4400.9 L2674 4402.5 L2669.9 4403.6 L2665.3 4404.4 L2660.4 4405 L2655.4 4405.3 L2650.6 4405.6 L2646.2 4405.9 L2642.6 4406.2 L2639.9 4406.7 L2619.3 4408.2 L2598.8 4409.6 L2578.3 4410.8 L2557.7 4412.1 L2537.2 4413.3 L2516.6 4414.4 L2496.1 4415.7 L2475.5 4416.9 L2455 4418.3 L2434.5 4419.7 L2414 4421.4 L2393.5 4423.2 L2387.7 4423.8 L2382.8 4424.4 L2378.7 4425.1 L2375.5 4425.9 L2373 4427.1 L2371.1 4428.6 L2369.8 4430.6 L2369 4433.2 L2368.6 4436.5 L2368.6 4440.5 L2368.9 4445.4 L2369.4 4451.3 L2370 4456.4 L2370.4 4461.5 L2370.6 4466.6 L2370.7 4471.7 L2370.6 4476.8 L2370.3 4481.9 L2370 4487 L2369.7 4492.1 L2369.3 4497.2 L2368.9 4502.3 L2368.5 4507.4 L2368.2 4512.5 L2368.6 4514.9 L2370.1 4516.9 L2372.5 4518.4 L2375.7 4519.5 L2379.4 4520.3 L2383.4 4520.9 L2387.7 4521.3 L2392 4521.6 L2396.1 4521.8 L2399.8 4522.1 L2403 4522.4 L2405.5 4522.8 L2409.9 4523.2 L2414.4 4523.6 L2418.8 4524 L2423.2 4524.3 L2427.6 4524.6 L2432.1 4525 L2436.5 4525.3 L2440.9 4525.6 L2445.4 4525.9 L2449.8 4526.2 L2454.3 4526.4 L2458.7 4526.7 L2475.9 4527.9 L2493 4529 L2510.2 4530 L2527.4 4531 L2544.6 4532 L2561.8 4533 L2579 4534.1 L2596.2 4535.2 L2613.3 4536.5 L2630.5 4538 L2647.6 4539.6 L2664.7 4541.4 L2665.9 4541.7 L2667.1 4542 L2668.4 4542.3 L2669.8 4542.5 L2671.2 4542.9 L2672.5 4543.3 L2673.7 4543.7 L2674.8 4544.3 L2675.8 4545.1 L2676.5 4546 L2677 4547.1 L2677.2 4548.5 L2677.3 4549.7 L2677.1 4550.8 L2676.7 4551.8 L2676.1 4552.6 L2675.4 4553.3 L2674.6 4553.9 L2673.7 4554.4 L2672.7 4554.8 L2671.6 4555.2 L2670.5 4555.5 L2669.5 4555.8 L2668.4 4556.1 L2655.6 4558.4 L2642.8 4560.2 L2629.9 4561.8 L2617 4563 L2604.1 4564.1 L2591.1 4565 L2578.1 4565.9 L2565.2 4566.8 L2552.2 4567.7 L2539.3 4568.8 L2526.3 4570.1 L2513.4 4571.6 L2509.8 4572.3 L2506.6 4572.9 L2503.9 4573.5 L2501.6 4574.1 L2499.6 4574.8 L2497.9 4575.8 L2496.5 4577 L2495.3 4578.7 L2494.3 4580.7 L2493.4 4583.3 L2492.6 4586.5 L2491.8 4590.3 L2491.1 4596.5 L2490.3 4602.6 L2489.6 4608.7 L2488.9 4614.9 L2488.2 4621 L2487.5 4627.1 L2486.9 4633.3 L2486.2 4639.4 L2485.6 4645.6 L2484.9 4651.7 L2484.3 4657.9 L2483.7 4664 L2483.4 4668.4 L2483 4672.5 L2482.5 4676.3 L2482 4679.8 L2481.9 4683.1 L2482.1 4686 L2482.8 4688.7 L2484.1 4691 L2486.2 4693 L2489.3 4694.8 L2493.4 4696.2 L2498.7 4697.3 L2508.2 4698.7 L2517.7 4700 L2527.3 4701.2 L2536.8 4702.2 L2546.4 4703.1 L2556 4704 L2565.6 4704.8 L2575.2 4705.5 L2584.8 4706.2 L2594.4 4706.9 L2604 4707.7 L2613.6 4708.4 L2616.4 4708.8 L2621.1 4709.2 L2627.1 4709.7 L2633.9 4710.1 L2641.2 4710.8 L2648.4 4711.6 L2655.1 4712.7 L2660.8 4714.1 L2665 4715.9 L2667.3 4718.2 L2667.2 4720.9 L2664.2 4724.2 L2655.8 4726.8 L2647.4 4728.9 L2638.9 4730.6 L2630.3 4732 L2621.6 4733.2 L2612.9 4734.2 L2604.1 4735.1 L2595.4 4736 L2586.7 4736.9 L2577.9 4737.9 L2569.3 4739.1 L2560.7 4740.5 L2558.5 4741 L2556 4741.5 L2553.4 4741.9 L2550.6 4742.3 L2547.9 4742.9 L2545.3 4743.6 L2542.9 4744.5 L2540.8 4745.7 L2539.2 4747.2 L2538.1 4749 L2537.7 4751.3 L2538 4754.1 L2540.2 4766.5 L2542.3 4778.8 L2544.5 4791.1 L2546.6 4803.5 L2548.8 4815.8 L2551 4828.1 L2553.1 4840.4 L2555.3 4852.8 L2557.4 4865.1 L2559.4 4877.4 L2561.4 4889.8 L2563.4 4902.2 L2567.5 4923.6 L2563.7 4902.2 L2563.8 4902.2 L2521.4 4909.4 L2475.2 4917.3 L2426.2 4925.7 L2375 4934.5 L2322.4 4943.6 L2269 4952.8 L2215.8 4962.1 L2163.3 4971.1 L2112.4 4979.9 L2063.8 4988.3 L2018.3 4996.1 L1976.5 5003.2 L1977.3 5009.6 L1976.9 5010 L1976.5 5010.3 L1976.1 5010.6 L1975.6 5010.9 L1975.2 5011.1 L1974.7 5011.4 L1974.3 5011.6 L1973.8 5011.9 L1973.4 5012.2 L1973 5012.6 L1972.7 5013 L1972.4 5013.5 L1954.7 5006.7 L1975.8 5003 L1973.3 4988.1 L1970.8 4973.3 L1968.3 4958.4 L1965.7 4943.6 L1963.2 4928.7 L1960.6 4913.9 L1958.1 4899 L1955.5 4884.2 L1952.9 4869.4 L1950.4 4854.5 L1947.8 4839.7 L1945.3 4824.8 L1943.8 4817.7 L1942.8 4811.9 L1942.1 4807.2 L1942 4803.5 L1942.5 4800.7 L1943.8 4798.5 L1945.7 4796.8 L1948.5 4795.6 L1952.3 4794.5 L1957 4793.6 L1962.9 4792.5 L1969.9 4791.3 L1978 4790.2 L1986.2 4789.1 L1994.4 4788.2 L2002.6 4787.3 L2010.8 4786.4 L2019 4785.4 L2027.2 4784.4 L2035.3 4783.3 L2043.5 4782.1 L2051.6 4780.6 L2059.7 4779 L2067.7 4777.1 L2073.4 4773.8 L2075.5 4771 L2074.5 4768.6 L2071 4766.7 L2065.6 4765.1 L2058.7 4763.9 L2051 4762.9 L2043.1 4762.1 L2035.5 4761.5 L2028.9 4761 L2023.6 4760.5 L2020.5 4760.1 L2010 4759 L1999.4 4758.2 L1988.8 4757.5 L1978.2 4756.9 L1967.6 4756.2 L1957 4755.5 L1946.4 4754.7 L1935.8 4753.6 L1925.4 4752.2 L1915 4750.4 L1904.7 4748.2 L1894.5 4745.4 L1892.3 4744.2 L1890.7 4742.6 L1889.6 4740.8 L1889 4738.8 L1888.7 4736.6 L1888.6 4734.3 L1888.8 4731.9 L1889.2 4729.5 L1889.5 4727.1 L1889.9 4724.7 L1890.1 4722.4 L1890.1 4720.2 L1891 4713 L1891.8 4705.8 L1892.5 4698.6 L1893.1 4691.4 L1893.8 4684.2 L1894.4 4677 L1895.2 4669.8 L1896 4662.6 L1896.9 4655.4 L1898 4648.2 L1899.3 4641.1 L1900.8 4634 L1901.1 4631.8 L1901.9 4630 L1903 4628.5 L1904.5 4627.3 L1906.3 4626.4 L1908.3 4625.7 L1910.4 4625.1 L1912.5 4624.7 L1914.7 4624.3 L1916.9 4623.9 L1918.9 4623.6 L1920.7 4623.1 L1930.8 4622 L1940.9 4621 L1951 4620 L1961.1 4619.2 L1971.2 4618.4 L1981.3 4617.6 L1991.4 4616.9 L2001.5 4616.1 L2011.6 4615.3 L2021.8 4614.5 L2031.9 4613.7 L2042 4612.8 L2044.6 4612.3 L2048.1 4611.9 L2052.4 4611.5 L2057.1 4611.1 L2062 4610.6 L2067 4609.9 L2071.7 4609 L2076.1 4607.9 L2079.8 4606.5 L2082.6 4604.8 L2084.4 4602.7 L2084.8 4600.1 L2084.7 4599 L2084.4 4598.1 L2084 4597.3 L2083.3 4596.6 L2082.5 4596.1 L2081.6 4595.6 L2080.6 4595.2 L2079.6 4594.8 L2078.6 4594.5 L2077.6 4594.3 L2076.6 4594 L2075.7 4593.8 L2059.7 4591.9 L2043.6 4590.2 L2027.4 4588.8 L2011.3 4587.5 L1995.2 4586.3 L1979 4585.3 L1962.8 4584.3 L1946.7 4583.4 L1930.5 4582.5 L1914.3 4581.6 L1898.2 4580.6 L1882 4579.6 L1877.3 4579 L1869.6 4578.4 L1859.5 4577.9 L1847.7 4577.2 L1834.9 4576.5 L1821.8 4575.6 L1809.1 4574.6 L1797.4 4573.3 L1787.5 4571.7 L1780 4569.8 L1775.6 4567.5 L1775 4564.8 L1775.2 4561.1 L1775.4 4557.4 L1775.7 4553.7 L1776 4550 L1776.3 4546.3 L1776.6 4542.6 L1776.9 4538.9 L1777.1 4535.2 L1777.3 4531.5 L1777.5 4527.8 L1777.6 4524.1 L1777.6 4520.4 L1777.5 4517.3 L1777.3 4514.2 L1777 4511.1 L1776.7 4507.9 L1776.4 4504.8 L1776.1 4501.7 L1775.9 4498.5 L1775.7 4495.4 L1775.6 4492.3 L1775.6 4489.1 L1775.7 4486 L1776 4482.9 L1776.3 4481.6 L1776.8 4480.5 L1777.5 4479.7 L1778.4 4479 L1779.5 4478.5 L1780.6 4478 L1781.8 4477.7 L1783.1 4477.5 L1784.3 4477.2 L1785.5 4477 L1786.7 4476.8 L1787.8 4476.5 L1808.9 4474.2 L1830 4472.2 L1851.1 4470.5 L1872.2 4469 L1893.4 4467.6 L1914.5 4466.4 L1935.7 4465.3 L1956.8 4464.1 L1978 4462.9 L1999.2 4461.7 L2020.3 4460.2 L2041.4 4458.6 L2044.3 4458.1 L2048.1 4457.8 L2052.7 4457.5 L2057.8 4457.3 L2063.2 4457 L2068.5 4456.5 L2073.7 4455.8 L2078.4 4454.9 L2082.3 4453.6 L2085.4 4451.8 L2087.2 4449.5 L2087.6 4446.6 L2087.5 4446 L2087.4 4445.5 L2087.2 4445 L2087.1 4444.6 L2086.8 4444.2 L2086.6 4443.9 L2086.2 4443.6 L2085.9 4443.3 L2085.4 4443.1 L2084.9 4442.8 L2084.3 4442.6 L2083.5 4442.4 L2067.9 4440.7 L2052.3 4439.2 L2036.6 4437.9 L2020.9 4436.9 L2005.2 4435.9 L1989.5 4435.1 L1973.7 4434.3 L1958 4433.6 L1942.3 4432.8 L1926.6 4432 L1910.9 4431 L1895.2 4430 L1891.6 4429.5 L1886.4 4429 L1880 4428.7 L1872.7 4428.4 L1865 4428 L1857.1 4427.4 L1849.5 4426.7 L1842.5 4425.7 L1836.5 4424.3 L1831.8 4422.6 L1828.9 4420.4 L1828 4417.6 L1828.3 4411.6 L1828.6 4405.6 L1828.9 4399.6 L1829.2 4393.5 L1829.6 4387.5 L1829.9 4381.5 L1830.3 4375.5 L1830.7 4369.5 L1831.1 4363.5 L1831.5 4357.5 L1832 4351.5 L1832.4 4345.5 L1832.6 4341.9 L1832.9 4338.4 L1833.1 4334.8 L1833.4 4331.2 L1833.6 4327.7 L1833.8 4324.1 L1834.1 4320.5 L1834.3 4317 L1834.5 4313.4 L1834.7 4309.9 L1835 4306.3 L1835.2 4302.7 L1835.4 4300.9 L1836 4299.3 L1836.9 4298 L1838.1 4297 L1839.5 4296.1 L1841 4295.4 L1842.6 4294.9 L1844.4 4294.4 L1846.1 4294 L1847.8 4293.7 L1849.5 4293.4 L1851 4293 L1862.6 4291.4 L1874.2 4290 L1885.8 4288.7 L1897.4 4287.5 L1909.1 4286.3 L1920.7 4285.3 L1932.3 4284.3 L1944 4283.3 L1955.6 4282.4 L1967.3 4281.5 L1978.9 4280.5 L1990.6 4279.6 L2001.2 4278.6 L2011.8 4277.9 L2022.5 4277.2 L2033.1 4276.6 L2043.8 4275.9 L2054.5 4275.2 L2065.1 4274.3 L2075.8 4273.3 L2086.3 4271.9 L2096.8 4270.3 L2107.3 4268.2 L2117.6 4265.7 L2118.8 4265.3 L2119.7 4264.6 L2120.4 4263.7 L2120.9 4262.7 L2121.2 4261.6 L2121.2 4260.5 L2121 4259.4 L2120.6 4258.3 L2120 4257.4 L2119.1 4256.6 L2118.1 4256 L2116.8 4255.7 L2112.3 4255 L2107.9 4254.3 L2103.4 4253.7 L2099 4253.2 L2094.5 4252.7 L2090 4252.3 L2085.6 4251.9 L2081.1 4251.6 L2076.6 4251.2 L2072.1 4250.9 L2067.6 4250.6 L2063.1 4250.3 L2055 4249.7 L2047 4249.2 L2038.9 4248.7 L2030.8 4248.2 L2022.7 4247.7 L2014.6 4247.2 L2006.6 4246.7 L1998.5 4246.2 L1990.4 4245.7 L1982.3 4245.2 L1974.2 4244.7 L1966.2 4244.2 L1960.5 4243.7 L1954.8 4243.2 L1949 4242.8 L1943.3 4242.5 L1937.5 4242.1 L1931.7 4241.6 L1925.9 4241.1 L1920.2 4240.3 L1914.6 4239.3 L1909 4238.1 L1903.6 4236.5 L1898.2 4234.6 L1897.5 4234.1 L1896.8 4233.6 L1896.2 4233 L1895.6 4232.5 L1895.1 4231.9 L1894.7 4231.2 L1894.4 4230.5 L1894.1 4229.8 L1893.9 4229 L1893.8 4228.2 L1893.7 4227.3 L1893.7 4226.4 L1894 4221.1 L1894.3 4215.9 L1894.5 4210.6 L1894.8 4205.3 L1895 4200.1 L1895.3 4194.8 L1895.6 4189.5 L1895.8 4184.3 L1896.1 4179 L1896.4 4173.7 L1896.8 4168.5 L1897.2 4163.2 L1897.3 4163.3 L1895.4 4163.2 L1893.6 4163.1 L1891.7 4163 L1889.9 4162.9 L1888 4162.8 L1886.2 4162.7 L1884.3 4162.6 L1882.4 4162.5 L1880.6 4162.4 L1878.7 4162.3 L1876.8 4162.1 L1875 4162 Z" fill="none" stroke="red" stroke-width="0.5"/>
</svg>