<svg xmlns="http://www.w3.org/2000/svg" viewBox="3354.56 1693.34 703.281 892.672" style="background:#f5f5f5">
  <path d="M3508.8 1725.6 L3533.1 1726.8 L3557.4 1728.1 L3581.7 1729.3 L3606 1730.6 L3630.3 1731.8 L3654.6 1733.1 L3678.9 1734.3 L3703.2 1735.6 L3727.5 1736.8 L3751.8 1738 L3776.1 1739.1 L3800.4 1740.2 L3800.3 1740.3 L3801.3 1718 L3800.4 1740.2 L3800.2 1744.3 L3800 1748.3 L3799.8 1752.3 L3799.6 1756.3 L3799.4 1760.3 L3799.3 1764.4 L3799.1 1768.4 L3798.9 1772.4 L3798.7 1776.4 L3798.5 1780.4 L3798.2 1784.4 L3798 1788.5 L3798 1789.9 L3798.2 1791.2 L3798.5 1792.4 L3799.1 1793.5 L3799.8 1794.6 L3800.7 1795.5 L3801.6 1796.3 L3802.7 1797.1 L3803.8 1797.7 L3805 1798.3 L3806.2 1798.7 L3807.5 1799.1 L3820.2 1801.4 L3833 1803.2 L3845.8 1804.7 L3858.7 1805.9 L3871.6 1806.9 L3884.6 1807.7 L3897.5 1808.4 L3910.5 1809 L3923.4 1809.7 L3936.4 1810.4 L3949.3 1811.3 L3962.2 1812.3 L3967.1 1812.8 L3972.1 1813.1 L3977 1813.5 L3981.9 1813.8 L3986.9 1814.1 L3991.8 1814.4 L3996.8 1814.8 L4001.7 1815.3 L4006.6 1815.8 L4011.5 1816.5 L4016.4 1817.2 L4021.2 1818.1 L4022.5 1818.3 L4023.5 1818.8 L4024.3 1819.4 L4025 1820.3 L4025.4 1821.3 L4025.6 1822.3 L4025.7 1823.4 L4025.5 1824.5 L4025.1 1825.6 L4024.6 1826.5 L4023.8 1827.3 L4022.8 1827.9 L4012.6 1830.5 L4002.4 1832.7 L3992 1834.4 L3981.6 1835.7 L3971.1 1836.8 L3960.6 1837.6 L3950 1838.3 L3939.5 1838.9 L3928.9 1839.5 L3918.4 1840.2 L3907.9 1841 L3897.4 1842 L3884.8 1843.1 L3872.1 1844.1 L3859.3 1845.1 L3846.6 1846 L3833.9 1846.9 L3821.2 1848 L3808.5 1849.1 L3795.8 1850.4 L3783.1 1851.9 L3770.5 1853.6 L3758 1855.7 L3745.5 1858.1 L3743.3 1859 L3741.7 1860.4 L3740.6 1862.1 L3739.8 1864 L3739.4 1866.2 L3739.1 1868.5 L3739.1 1871 L3739.1 1873.4 L3739.1 1875.9 L3739.1 1878.3 L3738.9 1880.6 L3738.6 1882.6 L3738.3 1886.2 L3738.1 1889.7 L3737.9 1893.2 L3737.6 1896.7 L3737.4 1900.2 L3737.2 1903.7 L3737 1907.2 L3736.7 1910.7 L3736.5 1914.2 L3736.3 1917.7 L3736 1921.2 L3735.8 1924.7 L3735.6 1927.9 L3735.4 1931 L3735.2 1934.2 L3735 1937.3 L3734.8 1940.4 L3734.6 1943.6 L3734.4 1946.7 L3734.2 1949.8 L3734 1953 L3733.8 1956.1 L3733.6 1959.3 L3733.4 1962.4 L3733.5 1964.6 L3733.4 1966.9 L3733.1 1969.4 L3732.8 1972 L3732.5 1974.5 L3732.4 1977 L3732.5 1979.3 L3732.9 1981.5 L3733.7 1983.3 L3735.1 1984.8 L3737 1985.9 L3739.6 1986.5 L3746.8 1987.8 L3754.1 1988.8 L3761.3 1989.7 L3768.6 1990.4 L3775.9 1991 L3783.2 1991.4 L3790.5 1991.9 L3797.8 1992.2 L3805.1 1992.6 L3812.4 1993 L3819.7 1993.5 L3827 1994 L3840.4 1994.8 L3853.8 1995.5 L3867.2 1996.2 L3880.6 1996.8 L3894 1997.4 L3907.4 1998.1 L3920.8 1998.8 L3934.2 1999.6 L3947.6 2000.6 L3960.9 2001.7 L3974.3 2003 L3987.6 2004.6 L3988 2004.7 L3988.4 2004.8 L3988.8 2004.9 L3989.2 2005.1 L3989.6 2005.2 L3990 2005.4 L3990.4 2005.6 L3990.7 2005.9 L3991.1 2006.1 L3991.4 2006.3 L3991.6 2006.6 L3991.9 2006.9 L3992.6 2010.2 L3991.7 2012.9 L3989.6 2014.9 L3986.3 2016.5 L3982.3 2017.7 L3977.7 2018.5 L3972.8 2019 L3967.8 2019.4 L3963 2019.7 L3958.6 2019.9 L3955 2020.2 L3952.2 2020.7 L3931.7 2022.2 L3911.2 2023.6 L3890.6 2024.9 L3870.1 2026.1 L3849.6 2027.3 L3829 2028.5 L3808.5 2029.7 L3787.9 2031 L3767.4 2032.3 L3746.9 2033.8 L3726.4 2035.4 L3705.9 2037.2 L3700 2037.8 L3695.1 2038.4 L3691.1 2039.1 L3687.9 2040 L3685.3 2041.1 L3683.4 2042.7 L3682.1 2044.7 L3681.3 2047.3 L3681 2050.5 L3681 2054.6 L3681.3 2059.5 L3681.8 2065.4 L3682.4 2070.5 L3682.8 2075.5 L3683 2080.6 L3683 2085.7 L3682.9 2090.8 L3682.7 2095.9 L3682.4 2101 L3682 2106.1 L3681.6 2111.2 L3681.3 2116.3 L3680.9 2121.4 L3680.6 2126.5 L3681 2129 L3682.5 2130.9 L3684.9 2132.4 L3688 2133.6 L3691.7 2134.4 L3695.8 2135 L3700.1 2135.4 L3704.4 2135.7 L3708.5 2135.9 L3712.2 2136.1 L3715.4 2136.4 L3717.9 2136.9 L3722.3 2137.3 L3726.7 2137.6 L3731.2 2138 L3735.6 2138.3 L3740 2138.7 L3744.5 2139 L3748.9 2139.3 L3753.3 2139.6 L3757.8 2139.9 L3762.2 2140.2 L3766.6 2140.5 L3771.1 2140.8 L3788.2 2142 L3805.4 2143 L3822.6 2144.1 L3839.8 2145.1 L3857 2146 L3874.2 2147.1 L3891.4 2148.1 L3908.5 2149.3 L3925.7 2150.6 L3942.9 2152 L3960 2153.6 L3977.1 2155.5 L3978.2 2155.8 L3979.5 2156.1 L3980.8 2156.3 L3982.2 2156.6 L3983.5 2156.9 L3984.9 2157.3 L3986.1 2157.8 L3987.2 2158.4 L3988.2 2159.1 L3988.9 2160.1 L3989.4 2161.2 L3989.6 2162.5 L3989.6 2163.8 L3989.5 2164.9 L3989.1 2165.8 L3988.5 2166.6 L3987.8 2167.3 L3987 2167.9 L3986 2168.4 L3985 2168.9 L3984 2169.2 L3982.9 2169.6 L3981.8 2169.9 L3980.8 2170.2 L3968 2172.4 L3955.2 2174.3 L3942.3 2175.8 L3929.4 2177.1 L3916.4 2178.2 L3903.5 2179.1 L3890.5 2179.9 L3877.5 2180.8 L3864.6 2181.8 L3851.6 2182.8 L3838.7 2184.1 L3825.8 2185.7 L3822.2 2186.4 L3819 2186.9 L3816.3 2187.5 L3813.9 2188.1 L3812 2188.9 L3810.3 2189.8 L3808.9 2191.1 L3807.7 2192.7 L3806.7 2194.8 L3805.8 2197.3 L3805 2200.5 L3804.2 2204.4 L3803.4 2210.5 L3802.7 2216.6 L3802 2222.8 L3801.3 2228.9 L3800.6 2235.1 L3799.9 2241.2 L3799.2 2247.3 L3798.6 2253.5 L3797.9 2259.6 L3797.3 2265.8 L3796.7 2271.9 L3796.1 2278.1 L3795.8 2282.5 L3795.3 2286.6 L3794.8 2290.4 L3794.4 2293.9 L3794.2 2297.1 L3794.4 2300.1 L3795.1 2302.7 L3796.5 2305 L3798.6 2307.1 L3801.6 2308.8 L3805.7 2310.2 L3811 2311.3 L3820.6 2312.8 L3830.1 2314.1 L3839.7 2315.2 L3849.2 2316.2 L3858.8 2317.2 L3868.4 2318 L3878 2318.8 L3887.6 2319.6 L3897.2 2320.3 L3906.8 2321 L3916.4 2321.7 L3926 2322.4 L3928.8 2322.9 L3933.4 2323.3 L3939.4 2323.7 L3946.3 2324.2 L3953.6 2324.8 L3960.8 2325.7 L3967.5 2326.8 L3973.2 2328.2 L3977.4 2330 L3979.7 2332.2 L3979.6 2334.9 L3976.6 2338.3 L3968.2 2340.8 L3959.8 2342.9 L3951.2 2344.6 L3942.6 2346.1 L3934 2347.2 L3925.2 2348.3 L3916.5 2349.2 L3907.8 2350 L3899 2350.9 L3890.3 2351.9 L3881.7 2353.1 L3873.1 2354.5 L3870.9 2355.1 L3868.4 2355.5 L3865.8 2355.9 L3863 2356.4 L3860.3 2356.9 L3857.6 2357.6 L3855.3 2358.5 L3853.2 2359.7 L3851.6 2361.2 L3850.5 2363.1 L3850.1 2365.4 L3850.4 2368.2 L3852.5 2380.5 L3854.7 2392.8 L3856.9 2405.2 L3859 2417.5 L3861.2 2429.8 L3863.4 2442.2 L3865.5 2454.5 L3867.6 2466.8 L3869.7 2479.2 L3871.8 2491.5 L3873.8 2503.8 L3875.8 2516.2 L3879.5 2537.6 L3875.7 2516.1 L3875.8 2516.2 L3851.8 2520.3 L3827.8 2524.4 L3803.9 2528.5 L3779.9 2532.7 L3755.9 2536.8 L3732 2541 L3708 2545.1 L3684 2549.3 L3660.1 2553.4 L3636.1 2557.5 L3612.1 2561.6 L3588.1 2565.6 L3588.9 2572 L3588.5 2572.4 L3588.1 2572.7 L3587.7 2573 L3587.3 2573.3 L3586.8 2573.5 L3586.4 2573.8 L3585.9 2574.1 L3585.5 2574.3 L3585.1 2574.7 L3584.7 2575 L3584.3 2575.5 L3584.1 2576 L3566.3 2569.1 L3587.5 2565.4 L3585 2550.6 L3582.5 2535.7 L3579.9 2520.9 L3577.4 2506 L3574.8 2491.2 L3572.3 2476.3 L3569.7 2461.5 L3567.1 2446.6 L3564.6 2431.8 L3562 2416.9 L3559.5 2402.1 L3556.9 2387.2 L3555.5 2380.1 L3554.4 2374.3 L3553.8 2369.7 L3553.7 2366 L3554.2 2363.1 L3555.4 2360.9 L3557.4 2359.3 L3560.2 2358 L3563.9 2356.9 L3568.7 2356 L3574.5 2355 L3581.5 2353.7 L3589.7 2352.6 L3597.9 2351.6 L3606 2350.6 L3614.2 2349.7 L3622.4 2348.8 L3630.6 2347.9 L3638.8 2346.9 L3647 2345.7 L3655.1 2344.5 L3663.2 2343 L3671.3 2341.4 L3679.3 2339.5 L3685.1 2336.2 L3687.2 2333.4 L3686.2 2331 L3682.7 2329.1 L3677.2 2327.6 L3670.3 2326.3 L3662.7 2325.3 L3654.8 2324.5 L3647.2 2323.9 L3640.5 2323.4 L3635.3 2323 L3632.1 2322.5 L3621.6 2321.4 L3611.1 2320.6 L3600.5 2319.9 L3589.9 2319.3 L3579.2 2318.6 L3568.6 2317.9 L3558 2317.1 L3547.5 2316 L3537 2314.6 L3526.6 2312.8 L3516.3 2310.6 L3506.1 2307.8 L3503.9 2306.6 L3502.3 2305.1 L3501.3 2303.3 L3500.6 2301.3 L3500.3 2299.1 L3500.3 2296.8 L3500.5 2294.4 L3500.8 2291.9 L3501.2 2289.5 L3501.5 2287.1 L3501.7 2284.8 L3501.8 2282.6 L3502.7 2275.5 L3503.4 2268.3 L3504.1 2261 L3504.8 2253.8 L3505.4 2246.6 L3506.1 2239.4 L3506.8 2232.2 L3507.6 2225 L3508.6 2217.8 L3509.6 2210.7 L3510.9 2203.5 L3512.4 2196.5 L3512.7 2194.3 L3513.5 2192.4 L3514.7 2191 L3516.2 2189.8 L3517.9 2188.8 L3519.9 2188.1 L3522 2187.6 L3524.2 2187.1 L3526.4 2186.7 L3528.5 2186.4 L3530.5 2186 L3532.4 2185.6 L3542.4 2184.4 L3552.5 2183.4 L3562.6 2182.5 L3572.7 2181.6 L3582.8 2180.8 L3593 2180 L3603.1 2179.3 L3613.2 2178.5 L3623.3 2177.8 L3633.4 2177 L3643.5 2176.1 L3653.6 2175.2 L3656.2 2174.7 L3659.8 2174.3 L3664 2173.9 L3668.7 2173.5 L3673.6 2173 L3678.6 2172.3 L3683.4 2171.4 L3687.7 2170.3 L3691.4 2169 L3694.3 2167.2 L3696 2165.1 L3696.5 2162.5 L3696.4 2161.5 L3696.1 2160.5 L3695.6 2159.7 L3694.9 2159.1 L3694.2 2158.5 L3693.3 2158 L3692.3 2157.6 L3691.3 2157.3 L3690.3 2157 L3689.2 2156.7 L3688.3 2156.5 L3687.4 2156.2 L3671.3 2154.3 L3655.2 2152.6 L3639.1 2151.2 L3623 2149.9 L3606.8 2148.8 L3590.7 2147.7 L3574.5 2146.8 L3558.3 2145.9 L3542.2 2145 L3526 2144 L3509.8 2143.1 L3493.7 2142 L3489 2141.4 L3481.2 2140.9 L3471.1 2140.3 L3459.3 2139.7 L3446.5 2138.9 L3433.4 2138.1 L3420.7 2137 L3409 2135.7 L3399.1 2134.1 L3391.6 2132.2 L3387.2 2129.9 L3386.6 2127.2 L3386.8 2123.5 L3387.1 2119.8 L3387.3 2116.1 L3387.6 2112.4 L3387.9 2108.7 L3388.2 2105 L3388.5 2101.3 L3388.8 2097.6 L3389 2093.9 L3389.1 2090.3 L3389.2 2086.6 L3389.3 2082.9 L3389.1 2079.7 L3388.9 2076.6 L3388.6 2073.5 L3388.4 2070.4 L3388.1 2067.2 L3387.8 2064.1 L3387.5 2061 L3387.3 2057.8 L3387.2 2054.7 L3387.2 2051.6 L3387.4 2048.4 L3387.6 2045.3 L3387.9 2044 L3388.5 2043 L3389.2 2042.1 L3390.1 2041.4 L3391.1 2040.9 L3392.2 2040.5 L3393.5 2040.1 L3394.7 2039.9 L3396 2039.6 L3397.2 2039.4 L3398.4 2039.2 L3399.5 2038.9 L3420.5 2036.6 L3441.6 2034.6 L3462.7 2032.9 L3483.9 2031.4 L3505 2030.1 L3526.2 2028.8 L3547.3 2027.7 L3568.5 2026.5 L3589.6 2025.4 L3610.8 2024.1 L3631.9 2022.7 L3653.1 2021.1 L3655.9 2020.6 L3659.8 2020.2 L3664.4 2020 L3669.5 2019.7 L3674.8 2019.4 L3680.2 2018.9 L3685.3 2018.3 L3690 2017.3 L3694 2016 L3697 2014.2 L3698.8 2011.9 L3699.2 2009.1 L3699.1 2008.5 L3699 2007.9 L3698.9 2007.5 L3698.7 2007 L3698.5 2006.7 L3698.2 2006.3 L3697.9 2006 L3697.5 2005.8 L3697 2005.5 L3696.5 2005.3 L3695.9 2005.1 L3695.2 2004.8 L3679.6 2003.1 L3663.9 2001.6 L3648.2 2000.4 L3632.5 1999.3 L3616.8 1998.3 L3601.1 1997.5 L3585.4 1996.7 L3569.7 1996 L3553.9 1995.2 L3538.2 1994.4 L3522.5 1993.5 L3506.8 1992.4 L3503.2 1991.9 L3498 1991.5 L3491.6 1991.1 L3484.3 1990.8 L3476.6 1990.4 L3468.8 1989.9 L3461.2 1989.1 L3454.2 1988.1 L3448.2 1986.8 L3443.5 1985 L3440.5 1982.8 L3439.7 1980 L3439.9 1974 L3440.2 1968 L3440.5 1962 L3440.9 1956 L3441.2 1950 L3441.6 1944 L3442 1937.9 L3442.3 1931.9 L3442.8 1925.9 L3443.2 1919.9 L3443.6 1913.9 L3444 1907.9 L3444.3 1904.3 L3444.5 1900.8 L3444.8 1897.2 L3445 1893.7 L3445.2 1890.1 L3445.5 1886.5 L3445.7 1883 L3445.9 1879.4 L3446.2 1875.9 L3446.4 1872.3 L3446.6 1868.7 L3446.8 1865.2 L3447.1 1863.3 L3447.7 1861.8 L3448.6 1860.5 L3449.7 1859.4 L3451.1 1858.6 L3452.6 1857.9 L3454.3 1857.3 L3456 1856.9 L3457.7 1856.5 L3459.5 1856.1 L3461.1 1855.8 L3462.7 1855.4 L3474.3 1853.9 L3485.9 1852.4 L3497.5 1851.1 L3509.1 1849.9 L3520.7 1848.8 L3532.3 1847.7 L3544 1846.7 L3555.6 1845.7 L3567.3 1844.8 L3578.9 1843.9 L3590.6 1843 L3602.2 1842 L3612.8 1841.1 L3623.4 1840.3 L3634.1 1839.6 L3644.8 1839 L3655.5 1838.3 L3666.1 1837.6 L3676.8 1836.8 L3687.4 1835.7 L3698 1834.4 L3708.5 1832.7 L3718.9 1830.6 L3729.3 1828.1 L3730.4 1827.7 L3731.4 1827 L3732.1 1826.1 L3732.6 1825.1 L3732.8 1824 L3732.9 1822.9 L3732.7 1821.8 L3732.3 1820.8 L3731.6 1819.8 L3730.8 1819 L3729.7 1818.5 L3728.4 1818.2 L3724 1817.4 L3719.5 1816.8 L3715.1 1816.2 L3710.6 1815.6 L3706.2 1815.2 L3701.7 1814.7 L3697.2 1814.4 L3692.7 1814 L3688.2 1813.7 L3683.7 1813.3 L3679.2 1813 L3674.8 1812.7 L3666.7 1812.2 L3658.6 1811.7 L3650.5 1811.1 L3642.5 1810.6 L3634.4 1810.1 L3626.3 1809.6 L3618.2 1809.1 L3610.1 1808.7 L3602 1808.2 L3594 1807.7 L3585.9 1807.2 L3577.8 1806.7 L3572.1 1806.1 L3566.4 1805.6 L3560.7 1805.3 L3554.9 1804.9 L3549.1 1804.5 L3543.3 1804.1 L3537.6 1803.5 L3531.9 1802.7 L3526.2 1801.8 L3520.7 1800.5 L3515.2 1798.9 L3509.8 1797 L3509.1 1796.5 L3508.4 1796 L3507.8 1795.5 L3507.3 1794.9 L3506.8 1794.3 L3506.4 1793.6 L3506 1792.9 L3505.8 1792.2 L3505.6 1791.4 L3505.4 1790.6 L3505.4 1789.8 L3505.4 1788.8 L3505.7 1783.6 L3505.9 1778.3 L3506.2 1773 L3506.4 1767.8 L3506.7 1762.5 L3506.9 1757.2 L3507.2 1752 L3507.5 1746.7 L3507.8 1741.4 L3508.1 1736.2 L3508.4 1730.9 L3508.8 1725.6 L3508.9 1725.7 L3507.1 1725.6 L3505.2 1725.5 L3503.4 1725.4 L3501.5 1725.3 L3499.7 1725.2 L3497.8 1725.1 L3496 1725 L3494.1 1724.9 L3492.2 1724.8 L3490.4 1724.7 L3488.5 1724.6 L3486.6 1724.5 Z" fill="rgba(0,120,255,0.2)" stroke="blue" stroke-width="1.5"/>
  <g opacity="0.5"><path d="M0 0c-1.18-15.78-1.705-31.598-2.563-47.397-.152-2.828 1.026-4.741 3.342-6.127 15.914-6.412 34.081-5.319 50.975-7.242 24.236-1.534 48.485-2.914 72.716-4.538 13.443-.981 26.967-1.732 40.246-4.083 4.171-.511 4.486-6.533.637-7.487-30.928-8.278-63.588-7.228-95.302-10.41C35.132-90.161.119-92.421-34.59-97.336c-4.43-1.165-11.714-1.298-11.912-7.306-.612-10.693-1.353-21.378-2.074-32.064-1.333-18.016-2.488-36.039-3.282-54.086-.845-9.162 42.239-7.415 50.377-9.291 47.052-3.423 94.427-3.657 141.272-9.321 2.24-.638 2.81-1.262 3.014-3.17 1.217-9.55-27.715-7.203-34.616-9.004-63.331-5.131-127.063-5.957-190.185-13.36-3.153-.969-8.343-.612-8.895-4.798-1.03-9.439.939-18.795 1.235-28.18.025-11.094-1.442-22.173-1.984-33.246-4.567-8.785 71.413-9.251 80.3-11.121 48.419-3.322 97.092-4.552 145.265-10.644 2.55-.769 6.954-1.251 6.824-4.75.807-8.385-25.811-7.992-32.155-9.486-30.277-2.919-60.707-4.18-90.92-7.776-5.181-1.471-14.763-.936-14.978-8.177-4.829-21.19-5.137-43.124-7.972-64.641.226-6.282-4.273-15.668 3.273-18.892 30.349-9.137 63.124-7.407 94.47-11.009 5.925-1.357 58.772-1.977 35.429-12.733-24.017-6.114-48.916-7.081-73.366-10.666-22.824-4.203-23.268-1.839-18.427-25.135 7.6-44.569 15.392-89.066 22.913-133.654l-15.899-2.743c-8.947 48.474-16.984 97.111-25.443 145.675-.108 3.451-3.277 8.973.903 11.011 7.973 3.872 17.188 4.113 25.802 5.711 22.325 3.234 45.088 4.007 66.988 9.707 24.203 11.37-34.193 12.171-39.995 13.335-27.211 2.077-54.508 3.592-81.487 7.885-15.361 2.756-13.201 7.834-11.782 21.043 1.874 19.408 3.789 38.813 6.175 58.166 1.33 3.696.671 9.561 4.391 11.694 7.969 3.676 16.938 3.591 25.488 4.817 34.742 4.067 70.294 3.058 104.559 10.38 10.27 2.73 5.025 10.102-3.095 10.696-73.149 9.084-147.544 7.071-220.501 17.309-2.72.962-3.459 1.94-3.276 4.821.653 11.483 2.483 22.92 2.047 34.446-.942 8.56-1.864 17.135-1.459 25.764.115 4.785 6.891 4.313 10.263 5.41 61.478 6.554 123.373 8.16 185.015 12.67 6.148 1.386 50.037.578 36.037 12.482-45.923 6.043-92.587 5.871-138.79 9.296-8.765 1.781-53.568.169-53.472 9.288 1.559 28.972 3.514 57.925 5.498 86.867 1.075 8.971 26.771 7.517 34.219 9.581 30.18 3.173 60.444 5.554 90.713 7.692 26.998 2.481 54.344 2.68 80.969 8.16 2.995 1.165 8.876 1.177 8.476 5.36-.092 2.61-.458 3.318-3.007 3.874-14.452 3.074-29.351 3.043-44.023 4.422-27.406 1.846-54.845 3.225-82.237 5.268C9.781-58.6-2.951-58.424-14.671-54.073c-3.229 1.241-4.763 3.611-4.539 7.292 1.021 15.904 1.437 31.745 2.562 47.658C-11.003.557-5.467.243.067-.069z" style="fill:#231f20;fill-opacity:1;fill-rule:nonzero;stroke:none" transform="matrix(1.33333 0 0 -1.33333 3508.806 1725.637)"/>
<path d="M0 0c-5.774 37.09-12.688 74.009-18.997 111.014-2.232 9.221 11.015 8.462 16.977 10.249 25.696 4.653 52.796 3.806 77.626 12.202 13.768 10.832-32.667 10.397-37.928 11.865-28.78 2.252-57.681 3.781-86.22 8.322-17.785 2.851-11.677 11.379-11.191 24.948 1.763 18.453 3.802 36.877 6.05 55.278 2.317 12.661 4.491 11.718 16.236 14.029 38.602 5.13 77.972 4.162 116.221 11.617 3.082.879 7.087 1.713 6.611 5.74-.11 4.376-6.237 4.287-9.37 5.284-51.321 5.867-103.035 7.286-154.532 11.037-13.308.805-26.609 1.733-39.891 2.897-6.138 1.629-28.648-.356-27.953 7.765.747 15.295 3.161 30.628.869 45.885-1.802 19.169-.859 19.155 18.065 21.115 61.478 5.688 123.234 7.631 184.783 12.374 6.524 1.687 34.485-.664 29.735 10.353-.649.909-2.064 1.454-3.236 1.761-39.875 4.976-80.305 5.32-120.408 7.9-21.835 1.788-43.984 1.517-65.548 5.628-8.991 1.048-3.932 11.98-4.652 18.097.562 9.413 1.184 18.823 1.795 28.234.682 10.527 1.379 21.053 2.071 31.58 1.507 5.893-2.102 16.173 5.181 18.42 37.374 7.753 76.002 8.484 113.968 12.049 31.266 3.457 63.655 1.839 94.046 10.603 3.206 1.452 2.812 7.208-1.201 7.301-14.544 3.004-29.521 2.964-44.272 4.348-38.617 3.516-77.956 2.449-116.06 9.947-3.715.962-7.535 3.561-7.08 7.969.684 12.048 1.204 24.106 1.783 36.161l-.069-.067 16.438-1.001c-.326-11.771-1.077-23.495-1.635-35.255-.402-6.802 7.655-8.232 12.78-9.318 42.452-6.061 85.575-5.949 128.276-9.703 9.098-.958 18.385-1.253 27.309-3.318 3.066-.351 3.342-5.962.561-6.903-31.271-8.696-64.51-7.562-96.663-10.784-31.527-2.348-63.032-5.111-94.453-8.605-6.636-1.978-20.228-.115-21.467-8.879-.632-11.251-1.503-22.487-2.211-33.733-1.08-17.148-2.106-34.3-3.135-51.451-1.53-7.238 12.018-6.308 16.749-7.603 57.195-5.301 114.758-5.51 171.924-11.169 2.295-.471 5.784-.42 6.124-3.442 3.045-10.757-40.996-8.695-48.77-10.377-58.528-4.197-117.309-5.633-175.618-12.413-3.167-.848-8.419-.856-8.684-5.1-.545-6.245-.266-12.488.636-18.637 1.888-13.811-.552-27.57-1.303-41.359-4.772-10.292 54.038-8.979 62.011-10.967 54.202-4.233 108.768-5.192 162.731-11.88 4.554-.082 10.017-5.173 4.9-8.842-14.472-5.373-30.377-5.021-45.564-6.763-23.805-1.819-47.64-3.317-71.379-5.91-12.906-1.805-18.671-1.689-20.228-16.335-2.892-22.102-4.816-44.324-7.174-66.489-2.498-9.373 8.261-11.48 15.241-12.645 34.299-5.115 69.038-6.179 103.519-9.661 5.889-.816 12.013-1.028 17.669-2.953 6.741-3.81-.493-8.168-5.17-8.903-21.411-5.213-43.655-5.921-65.405-9.154-22.738-5.113-27.19.901-21.326-25.101 5.22-31.41 11.068-62.718 16.156-94.139C10.677 2.103 5.351 1.333-.068.065Z" style="fill:#231f20;fill-opacity:1;fill-rule:nonzero;stroke:none" transform="matrix(1.33333 0 0 -1.33333 3875.756 2516.205)"/>
<path d="M0 0c-72.915 3.277-145.795 7.368-218.693 10.957l.07-.072c-.034 5.611.013 11.216.726 16.789L.715 16.653-.069-.067z" style="fill:#231f20;fill-opacity:1;fill-rule:nonzero;stroke:none" transform="matrix(1.33333 0 0 -1.33333 3800.393 1740.243)"/>
<path d="m0 0 2.853-16.114c-73.626-12.011-146.566-29.74-221.561-28.767.804 1.622 2.605 1.711 3.643 2.973l-.579 4.776C-143.695-25.025-71.838-12.268.069-.065z" style="fill:#231f20;fill-opacity:1;fill-rule:nonzero;stroke:none" transform="matrix(1.33333 0 0 -1.33333 3875.665 2516.12)"/></g>
  <path d="M3508.8 1725.6 L3533.1 1726.8 L3557.4 1728.1 L3581.7 1729.3 L3606 1730.6 L3630.3 1731.8 L3654.6 1733.1 L3678.9 1734.3 L3703.2 1735.6 L3727.5 1736.8 L3751.8 1738 L3776.1 1739.1 L3800.4 1740.2 L3800.3 1740.3 L3801.3 1718 L3800.4 1740.2 L3800.2 1744.3 L3800 1748.3 L3799.8 1752.3 L3799.6 1756.3 L3799.4 1760.3 L3799.3 1764.4 L3799.1 1768.4 L3798.9 1772.4 L3798.7 1776.4 L3798.5 1780.4 L3798.2 1784.4 L3798 1788.5 L3798 1789.9 L3798.2 1791.2 L3798.5 1792.4 L3799.1 1793.5 L3799.8 1794.6 L3800.7 1795.5 L3801.6 1796.3 L3802.7 1797.1 L3803.8 1797.7 L3805 1798.3 L3806.2 1798.7 L3807.5 1799.1 L3820.2 1801.4 L3833 1803.2 L3845.8 1804.7 L3858.7 1805.9 L3871.6 1806.9 L3884.6 1807.7 L3897.5 1808.4 L3910.5 1809 L3923.4 1809.7 L3936.4 1810.4 L3949.3 1811.3 L3962.2 1812.3 L3967.1 1812.8 L3972.1 1813.1 L3977 1813.5 L3981.9 1813.8 L3986.9 1814.1 L3991.8 1814.4 L3996.8 1814.8 L4001.7 1815.3 L4006.6 1815.8 L4011.5 1816.5 L4016.4 1817.2 L4021.2 1818.1 L4022.5 1818.3 L4023.5 1818.8 L4024.3 1819.4 L4025 1820.3 L4025.4 1821.3 L4025.6 1822.3 L4025.7 1823.4 L4025.5 1824.5 L4025.1 1825.6 L4024.6 1826.5 L4023.8 1827.3 L4022.8 1827.9 L4012.6 1830.5 L4002.4 1832.7 L3992 1834.4 L3981.6 1835.7 L3971.1 1836.8 L3960.6 1837.6 L3950 1838.3 L3939.5 1838.9 L3928.9 1839.5 L3918.4 1840.2 L3907.9 1841 L3897.4 1842 L3884.8 1843.1 L3872.1 1844.1 L3859.3 1845.1 L3846.6 1846 L3833.9 1846.9 L3821.2 1848 L3808.5 1849.1 L3795.8 1850.4 L3783.1 1851.9 L3770.5 1853.6 L3758 1855.7 L3745.5 1858.1 L3743.3 1859 L3741.7 1860.4 L3740.6 1862.1 L3739.8 1864 L3739.4 1866.2 L3739.1 1868.5 L3739.1 1871 L3739.1 1873.4 L3739.1 1875.9 L3739.1 1878.3 L3738.9 1880.6 L3738.6 1882.6 L3738.3 1886.2 L3738.1 1889.7 L3737.9 1893.2 L3737.6 1896.7 L3737.4 1900.2 L3737.2 1903.7 L3737 1907.2 L3736.7 1910.7 L3736.5 1914.2 L3736.3 1917.7 L3736 1921.2 L3735.8 1924.7 L3735.6 1927.9 L3735.4 1931 L3735.2 1934.2 L3735 1937.3 L3734.8 1940.4 L3734.6 1943.6 L3734.4 1946.7 L3734.2 1949.8 L3734 1953 L3733.8 1956.1 L3733.6 1959.3 L3733.4 1962.4 L3733.5 1964.6 L3733.4 1966.9 L3733.1 1969.4 L3732.8 1972 L3732.5 1974.5 L3732.4 1977 L3732.5 1979.3 L3732.9 1981.5 L3733.7 1983.3 L3735.1 1984.8 L3737 1985.9 L3739.6 1986.5 L3746.8 1987.8 L3754.1 1988.8 L3761.3 1989.7 L3768.6 1990.4 L3775.9 1991 L3783.2 1991.4 L3790.5 1991.9 L3797.8 1992.2 L3805.1 1992.6 L3812.4 1993 L3819.7 1993.5 L3827 1994 L3840.4 1994.8 L3853.8 1995.5 L3867.2 1996.2 L3880.6 1996.8 L3894 1997.4 L3907.4 1998.1 L3920.8 1998.8 L3934.2 1999.6 L3947.6 2000.6 L3960.9 2001.7 L3974.3 2003 L3987.6 2004.6 L3988 2004.7 L3988.4 2004.8 L3988.8 2004.9 L3989.2 2005.1 L3989.6 2005.2 L3990 2005.4 L3990.4 2005.6 L3990.7 2005.9 L3991.1 2006.1 L3991.4 2006.3 L3991.6 2006.6 L3991.9 2006.9 L3992.6 2010.2 L3991.7 2012.9 L3989.6 2014.9 L3986.3 2016.5 L3982.3 2017.7 L3977.7 2018.5 L3972.8 2019 L3967.8 2019.4 L3963 2019.7 L3958.6 2019.9 L3955 2020.2 L3952.2 2020.7 L3931.7 2022.2 L3911.2 2023.6 L3890.6 2024.9 L3870.1 2026.1 L3849.6 2027.3 L3829 2028.5 L3808.5 2029.7 L3787.9 2031 L3767.4 2032.3 L3746.9 2033.8 L3726.4 2035.4 L3705.9 2037.2 L3700 2037.8 L3695.1 2038.4 L3691.1 2039.1 L3687.9 2040 L3685.3 2041.1 L3683.4 2042.7 L3682.1 2044.7 L3681.3 2047.3 L3681 2050.5 L3681 2054.6 L3681.3 2059.5 L3681.8 2065.4 L3682.4 2070.5 L3682.8 2075.5 L3683 2080.6 L3683 2085.7 L3682.9 2090.8 L3682.7 2095.9 L3682.4 2101 L3682 2106.1 L3681.6 2111.2 L3681.3 2116.3 L3680.9 2121.4 L3680.6 2126.5 L3681 2129 L3682.5 2130.9 L3684.9 2132.4 L3688 2133.6 L3691.7 2134.4 L3695.8 2135 L3700.1 2135.4 L3704.4 2135.7 L3708.5 2135.9 L3712.2 2136.1 L3715.4 2136.4 L3717.9 2136.9 L3722.3 2137.3 L3726.7 2137.6 L3731.2 2138 L3735.6 2138.3 L3740 2138.7 L3744.5 2139 L3748.9 2139.3 L3753.3 2139.6 L3757.8 2139.9 L3762.2 2140.2 L3766.6 2140.5 L3771.1 2140.8 L3788.2 2142 L3805.4 2143 L3822.6 2144.1 L3839.8 2145.1 L3857 2146 L3874.2 2147.1 L3891.4 2148.1 L3908.5 2149.3 L3925.7 2150.6 L3942.9 2152 L3960 2153.6 L3977.1 2155.5 L3978.2 2155.8 L3979.5 2156.1 L3980.8 2156.3 L3982.2 2156.6 L3983.5 2156.9 L3984.9 2157.3 L3986.1 2157.8 L3987.2 2158.4 L3988.2 2159.1 L3988.9 2160.1 L3989.4 2161.2 L3989.6 2162.5 L3989.6 2163.8 L3989.5 2164.9 L3989.1 2165.8 L3988.5 2166.6 L3987.8 2167.3 L3987 2167.9 L3986 2168.4 L3985 2168.9 L3984 2169.2 L3982.9 2169.6 L3981.8 2169.9 L3980.8 2170.2 L3968 2172.4 L3955.2 2174.3 L3942.3 2175.8 L3929.4 2177.1 L3916.4 2178.2 L3903.5 2179.1 L3890.5 2179.9 L3877.5 2180.8 L3864.6 2181.8 L3851.6 2182.8 L3838.7 2184.1 L3825.8 2185.7 L3822.2 2186.4 L3819 2186.9 L3816.3 2187.5 L3813.9 2188.1 L3812 2188.9 L3810.3 2189.8 L3808.9 2191.1 L3807.7 2192.7 L3806.7 2194.8 L3805.8 2197.3 L3805 2200.5 L3804.2 2204.4 L3803.4 2210.5 L3802.7 2216.6 L3802 2222.8 L3801.3 2228.9 L3800.6 2235.1 L3799.9 2241.2 L3799.2 2247.3 L3798.6 2253.5 L3797.9 2259.6 L3797.3 2265.8 L3796.7 2271.9 L3796.1 2278.1 L3795.8 2282.5 L3795.3 2286.6 L3794.8 2290.4 L3794.4 2293.9 L3794.2 2297.1 L3794.4 2300.1 L3795.1 2302.7 L3796.5 2305 L3798.6 2307.1 L3801.6 2308.8 L3805.7 2310.2 L3811 2311.3 L3820.6 2312.8 L3830.1 2314.1 L3839.7 2315.2 L3849.2 2316.2 L3858.8 2317.2 L3868.4 2318 L3878 2318.8 L3887.6 2319.6 L3897.2 2320.3 L3906.8 2321 L3916.4 2321.7 L3926 2322.4 L3928.8 2322.9 L3933.4 2323.3 L3939.4 2323.7 L3946.3 2324.2 L3953.6 2324.8 L3960.8 2325.7 L3967.5 2326.8 L3973.2 2328.2 L3977.4 2330 L3979.7 2332.2 L3979.6 2334.9 L3976.6 2338.3 L3968.2 2340.8 L3959.8 2342.9 L3951.2 2344.6 L3942.6 2346.1 L3934 2347.2 L3925.2 2348.3 L3916.5 2349.2 L3907.8 2350 L3899 2350.9 L3890.3 2351.9 L3881.7 2353.1 L3873.1 2354.5 L3870.9 2355.1 L3868.4 2355.5 L3865.8 2355.9 L3863 2356.4 L3860.3 2356.9 L3857.6 2357.6 L3855.3 2358.5 L3853.2 2359.7 L3851.6 2361.2 L3850.5 2363.1 L3850.1 2365.4 L3850.4 2368.2 L3852.5 2380.5 L3854.7 2392.8 L3856.9 2405.2 L3859 2417.5 L3861.2 2429.8 L3863.4 2442.2 L3865.5 2454.5 L3867.6 2466.8 L3869.7 2479.2 L3871.8 2491.5 L3873.8 2503.8 L3875.8 2516.2 L3879.5 2537.6 L3875.7 2516.1 L3875.8 2516.2 L3851.8 2520.3 L3827.8 2524.4 L3803.9 2528.5 L3779.9 2532.7 L3755.9 2536.8 L3732 2541 L3708 2545.1 L3684 2549.3 L3660.1 2553.4 L3636.1 2557.5 L3612.1 2561.6 L3588.1 2565.6 L3588.9 2572 L3588.5 2572.4 L3588.1 2572.7 L3587.7 2573 L3587.3 2573.3 L3586.8 2573.5 L3586.4 2573.8 L3585.9 2574.1 L3585.5 2574.3 L3585.1 2574.7 L3584.7 2575 L3584.3 2575.5 L3584.1 2576 L3566.3 2569.1 L3587.5 2565.4 L3585 2550.6 L3582.5 2535.7 L3579.9 2520.9 L3577.4 2506 L3574.8 2491.2 L3572.3 2476.3 L3569.7 2461.5 L3567.1 2446.6 L3564.6 2431.8 L3562 2416.9 L3559.5 2402.1 L3556.9 2387.2 L3555.5 2380.1 L3554.4 2374.3 L3553.8 2369.7 L3553.7 2366 L3554.2 2363.1 L3555.4 2360.9 L3557.4 2359.3 L3560.2 2358 L3563.9 2356.9 L3568.7 2356 L3574.5 2355 L3581.5 2353.7 L3589.7 2352.6 L3597.9 2351.6 L3606 2350.6 L3614.2 2349.7 L3622.4 2348.8 L3630.6 2347.9 L3638.8 2346.9 L3647 2345.7 L3655.1 2344.5 L3663.2 2343 L3671.3 2341.4 L3679.3 2339.5 L3685.1 2336.2 L3687.2 2333.4 L3686.2 2331 L3682.7 2329.1 L3677.2 2327.6 L3670.3 2326.3 L3662.7 2325.3 L3654.8 2324.5 L3647.2 2323.9 L3640.5 2323.4 L3635.3 2323 L3632.1 2322.5 L3621.6 2321.4 L3611.1 2320.6 L3600.5 2319.9 L3589.9 2319.3 L3579.2 2318.6 L3568.6 2317.9 L3558 2317.1 L3547.5 2316 L3537 2314.6 L3526.6 2312.8 L3516.3 2310.6 L3506.1 2307.8 L3503.9 2306.6 L3502.3 2305.1 L3501.3 2303.3 L3500.6 2301.3 L3500.3 2299.1 L3500.3 2296.8 L3500.5 2294.4 L3500.8 2291.9 L3501.2 2289.5 L3501.5 2287.1 L3501.7 2284.8 L3501.8 2282.6 L3502.7 2275.5 L3503.4 2268.3 L3504.1 2261 L3504.8 2253.8 L3505.4 2246.6 L3506.1 2239.4 L3506.8 2232.2 L3507.6 2225 L3508.6 2217.8 L3509.6 2210.7 L3510.9 2203.5 L3512.4 2196.5 L3512.7 2194.3 L3513.5 2192.4 L3514.7 2191 L3516.2 2189.8 L3517.9 2188.8 L3519.9 2188.1 L3522 2187.6 L3524.2 2187.1 L3526.4 2186.7 L3528.5 2186.4 L3530.5 2186 L3532.4 2185.6 L3542.4 2184.4 L3552.5 2183.4 L3562.6 2182.5 L3572.7 2181.6 L3582.8 2180.8 L3593 2180 L3603.1 2179.3 L3613.2 2178.5 L3623.3 2177.8 L3633.4 2177 L3643.5 2176.1 L3653.6 2175.2 L3656.2 2174.7 L3659.8 2174.3 L3664 2173.9 L3668.7 2173.5 L3673.6 2173 L3678.6 2172.3 L3683.4 2171.4 L3687.7 2170.3 L3691.4 2169 L3694.3 2167.2 L3696 2165.1 L3696.5 2162.5 L3696.4 2161.5 L3696.1 2160.5 L3695.6 2159.7 L3694.9 2159.1 L3694.2 2158.5 L3693.3 2158 L3692.3 2157.6 L3691.3 2157.3 L3690.3 2157 L3689.2 2156.7 L3688.3 2156.5 L3687.4 2156.2 L3671.3 2154.3 L3655.2 2152.6 L3639.1 2151.2 L3623 2149.9 L3606.8 2148.8 L3590.7 2147.7 L3574.5 2146.8 L3558.3 2145.9 L3542.2 2145 L3526 2144 L3509.8 2143.1 L3493.7 2142 L3489 2141.4 L3481.2 2140.9 L3471.1 2140.3 L3459.3 2139.7 L3446.5 2138.9 L3433.4 2138.1 L3420.7 2137 L3409 2135.7 L3399.1 2134.1 L3391.6 2132.2 L3387.2 2129.9 L3386.6 2127.2 L3386.8 2123.5 L3387.1 2119.8 L3387.3 2116.1 L3387.6 2112.4 L3387.9 2108.7 L3388.2 2105 L3388.5 2101.3 L3388.8 2097.6 L3389 2093.9 L3389.1 2090.3 L3389.2 2086.6 L3389.3 2082.9 L3389.1 2079.7 L3388.9 2076.6 L3388.6 2073.5 L3388.4 2070.4 L3388.1 2067.2 L3387.8 2064.1 L3387.5 2061 L3387.3 2057.8 L3387.2 2054.7 L3387.2 2051.6 L3387.4 2048.4 L3387.6 2045.3 L3387.9 2044 L3388.5 2043 L3389.2 2042.1 L3390.1 2041.4 L3391.1 2040.9 L3392.2 2040.5 L3393.5 2040.1 L3394.7 2039.9 L3396 2039.6 L3397.2 2039.4 L3398.4 2039.2 L3399.5 2038.9 L3420.5 2036.6 L3441.6 2034.6 L3462.7 2032.9 L3483.9 2031.4 L3505 2030.1 L3526.2 2028.8 L3547.3 2027.7 L3568.5 2026.5 L3589.6 2025.4 L3610.8 2024.1 L3631.9 2022.7 L3653.1 2021.1 L3655.9 2020.6 L3659.8 2020.2 L3664.4 2020 L3669.5 2019.7 L3674.8 2019.4 L3680.2 2018.9 L3685.3 2018.3 L3690 2017.3 L3694 2016 L3697 2014.2 L3698.8 2011.9 L3699.2 2009.1 L3699.1 2008.5 L3699 2007.9 L3698.9 2007.5 L3698.7 2007 L3698.5 2006.7 L3698.2 2006.3 L3697.9 2006 L3697.5 2005.8 L3697 2005.5 L3696.5 2005.3 L3695.9 2005.1 L3695.2 2004.8 L3679.6 2003.1 L3663.9 2001.6 L3648.2 2000.4 L3632.5 1999.3 L3616.8 1998.3 L3601.1 1997.5 L3585.4 1996.7 L3569.7 1996 L3553.9 1995.2 L3538.2 1994.4 L3522.5 1993.5 L3506.8 1992.4 L3503.2 1991.9 L3498 1991.5 L3491.6 1991.1 L3484.3 1990.8 L3476.6 1990.4 L3468.8 1989.9 L3461.2 1989.1 L3454.2 1988.1 L3448.2 1986.8 L3443.5 1985 L3440.5 1982.8 L3439.7 1980 L3439.9 1974 L3440.2 1968 L3440.5 1962 L3440.9 1956 L3441.2 1950 L3441.6 1944 L3442 1937.9 L3442.3 1931.9 L3442.8 1925.9 L3443.2 1919.9 L3443.6 1913.9 L3444 1907.9 L3444.3 1904.3 L3444.5 1900.8 L3444.8 1897.2 L3445 1893.7 L3445.2 1890.1 L3445.5 1886.5 L3445.7 1883 L3445.9 1879.4 L3446.2 1875.9 L3446.4 1872.3 L3446.6 1868.7 L3446.8 1865.2 L3447.1 1863.3 L3447.7 1861.8 L3448.6 1860.5 L3449.7 1859.4 L3451.1 1858.6 L3452.6 1857.9 L3454.3 1857.3 L3456 1856.9 L3457.7 1856.5 L3459.5 1856.1 L3461.1 1855.8 L3462.7 1855.4 L3474.3 1853.9 L3485.9 1852.4 L3497.5 1851.1 L3509.1 1849.9 L3520.7 1848.8 L3532.3 1847.7 L3544 1846.7 L3555.6 1845.7 L3567.3 1844.8 L3578.9 1843.9 L3590.6 1843 L3602.2 1842 L3612.8 1841.1 L3623.4 1840.3 L3634.1 1839.6 L3644.8 1839 L3655.5 1838.3 L3666.1 1837.6 L3676.8 1836.8 L3687.4 1835.7 L3698 1834.4 L3708.5 1832.7 L3718.9 1830.6 L3729.3 1828.1 L3730.4 1827.7 L3731.4 1827 L3732.1 1826.1 L3732.6 1825.1 L3732.8 1824 L3732.9 1822.9 L3732.7 1821.8 L3732.3 1820.8 L3731.6 1819.8 L3730.8 1819 L3729.7 1818.5 L3728.4 1818.2 L3724 1817.4 L3719.5 1816.8 L3715.1 1816.2 L3710.6 1815.6 L3706.2 1815.2 L3701.7 1814.7 L3697.2 1814.4 L3692.7 1814 L3688.2 1813.7 L3683.7 1813.3 L3679.2 1813 L3674.8 1812.7 L3666.7 1812.2 L3658.6 1811.7 L3650.5 1811.1 L3642.5 1810.6 L3634.4 1810.1 L3626.3 1809.6 L3618.2 1809.1 L3610.1 1808.7 L3602 1808.2 L3594 1807.7 L3585.9 1807.2 L3577.8 1806.7 L3572.1 1806.1 L3566.4 1805.6 L3560.7 1805.3 L3554.9 1804.9 L3549.1 1804.5 L3543.3 1804.1 L3537.6 1803.5 L3531.9 1802.7 L3526.2 1801.8 L3520.7 1800.5 L3515.2 1798.9 L3509.8 1797 L3509.1 1796.5 L3508.4 1796 L3507.8 1795.5 L3507.3 1794.9 L3506.8 1794.3 L3506.4 1793.6 L3506 1792.9 L3505.8 1792.2 L3505.6 1791.4 L3505.4 1790.6 L3505.4 1789.8 L3505.4 1788.8 L3505.7 1783.6 L3505.9 1778.3 L3506.2 1773 L3506.4 1767.8 L3506.7 1762.5 L3506.9 1757.2 L3507.2 1752 L3507.5 1746.7 L3507.8 1741.4 L3508.1 1736.2 L3508.4 1730.9 L3508.8 1725.6 L3508.9 1725.7 L3507.1 1725.6 L3505.2 1725.5 L3503.4 1725.4 L3501.5 1725.3 L3499.7 1725.2 L3497.8 1725.1 L3496 1725 L3494.1 1724.9 L3492.2 1724.8 L3490.4 1724.7 L3488.5 1724.6 L3486.6 1724.5 Z" fill="none" stroke="red" stroke-width="0.5"/>
</svg>