<svg xmlns="http://www.w3.org/2000/svg" viewBox="2501.58 1581.36 739.652 1116.589" style="background:#f5f5f5">
  <path d="M2917.9 1600.3 L2917.9 1602.1 L2917.9 1603.9 L2917.9 1605.7 L2917.9 1607.5 L2918 1609.2 L2918.1 1611 L2918.1 1612.8 L2918.2 1614.6 L2918.3 1616.4 L2918.5 1618.2 L2942.7 1618 L2966.9 1617.7 L2991.2 1617.3 L3015.4 1616.9 L3039.6 1616.4 L3063.9 1616 L3088.1 1615.6 L3112.3 1615.1 L3136.6 1614.7 L3160.8 1614.4 L3185 1614.1 L3209.3 1613.8 L3227.5 1613.4 L3225.6 1613.4 L3223.8 1613.4 L3222 1613.5 L3220.2 1613.5 L3218.4 1613.6 L3216.5 1613.6 L3214.7 1613.7 L3212.9 1613.8 L3211.1 1613.8 L3209.2 1613.9 L3209.3 1613.8 L3209.5 1616.9 L3209.4 1619.9 L3209.1 1622.8 L3208.6 1625.8 L3208 1628.8 L3207.2 1631.7 L3206.4 1634.6 L3205.5 1637.5 L3204.6 1640.4 L3203.7 1643.3 L3202.9 1646.2 L3202.1 1649.2 L3199.8 1655.9 L3196.8 1662.4 L3193.4 1668.5 L3189.6 1674.4 L3185.4 1680 L3180.9 1685.5 L3176.2 1690.9 L3171.4 1696.1 L3166.5 1701.3 L3161.5 1706.4 L3156.7 1711.6 L3152 1716.8 L3148 1721.2 L3144.2 1725.8 L3140.4 1730.5 L3136.7 1735.1 L3133 1739.8 L3129.3 1744.5 L3125.5 1749.1 L3121.6 1753.6 L3117.5 1758 L3113.3 1762.2 L3108.9 1766.2 L3104.3 1769.9 L3100.6 1772.3 L3096.9 1774.7 L3093.2 1777.1 L3089.6 1779.5 L3085.9 1781.9 L3082.2 1784.3 L3078.5 1786.7 L3074.9 1789.1 L3071.2 1791.5 L3067.5 1793.9 L3063.8 1796.3 L3060.1 1798.7 L3058.4 1799.9 L3057.1 1801.5 L3056.1 1803.3 L3055.4 1805.2 L3055 1807.2 L3054.9 1809.3 L3055 1811.4 L3055.5 1813.4 L3056.2 1815.3 L3057.3 1817 L3058.6 1818.5 L3060.1 1819.7 L3065.4 1823.5 L3074.2 1827.4 L3085.6 1831.5 L3098.7 1835.8 L3112.6 1840.3 L3126.4 1845.1 L3139.1 1850.1 L3150 1855.3 L3158.1 1860.9 L3162.5 1866.7 L3162.3 1872.8 L3156.5 1879.2 L3150.1 1883 L3143.5 1886.5 L3136.7 1889.8 L3129.9 1892.8 L3122.9 1895.6 L3115.9 1898.3 L3108.9 1900.9 L3101.8 1903.4 L3094.7 1905.9 L3087.6 1908.5 L3080.6 1911 L3073.6 1913.8 L3065.3 1916.7 L3057.1 1920 L3049.1 1923.5 L3041.2 1927.4 L3033.4 1931.4 L3025.7 1935.5 L3018.1 1939.8 L3010.4 1944.1 L3002.8 1948.4 L2995.1 1952.7 L2987.3 1956.8 L2979.5 1960.8 L2973.5 1963.7 L2966.8 1966.9 L2959.9 1970.4 L2953.2 1974.1 L2947.2 1977.9 L2942.2 1981.8 L2938.8 1985.7 L2937.4 1989.6 L2938.5 1993.4 L2942.4 1997.1 L2949.6 2000.6 L2960.6 2003.8 L2968.5 2005.7 L2976.5 2007.6 L2984.4 2009.3 L2992.4 2011.1 L3000.4 2012.7 L3008.4 2014.4 L3016.4 2015.9 L3024.4 2017.4 L3032.5 2018.9 L3040.5 2020.3 L3048.5 2021.7 L3056.6 2023 L3059.9 2023.8 L3064.6 2024.7 L3070.5 2025.5 L3077.2 2026.5 L3084.3 2027.5 L3091.5 2028.8 L3098.4 2030.1 L3104.7 2031.8 L3110 2033.6 L3114 2035.8 L3116.3 2038.3 L3116.6 2041.1 L3116.2 2042.3 L3115.6 2043.3 L3114.9 2044.3 L3114 2045.1 L3113.1 2045.8 L3112 2046.5 L3110.9 2047.1 L3109.8 2047.6 L3108.6 2048.2 L3107.5 2048.7 L3106.4 2049.3 L3105.4 2049.9 L3099.5 2052.5 L3093.6 2055 L3087.6 2057.5 L3081.6 2060 L3075.6 2062.4 L3069.7 2064.9 L3063.7 2067.5 L3057.8 2070.2 L3052 2073 L3046.3 2075.9 L3040.6 2079 L3035.1 2082.4 L3025.4 2088.5 L3015.8 2094.8 L3006.4 2101.2 L2997 2107.8 L2987.6 2114.4 L2978.3 2121 L2969 2127.7 L2959.7 2134.4 L2950.4 2141.1 L2941.1 2147.7 L2931.7 2154.2 L2922.2 2160.7 L2921.1 2161.5 L2920.1 2162.3 L2919.1 2163.2 L2918.3 2164.2 L2917.6 2165.2 L2917.1 2166.2 L2916.6 2167.3 L2916.2 2168.5 L2916 2169.7 L2915.8 2171 L2915.8 2172.3 L2915.8 2173.7 L2916 2176.4 L2916.8 2178.7 L2918.1 2180.8 L2919.8 2182.5 L2921.9 2184 L2924.2 2185.3 L2926.8 2186.5 L2929.4 2187.5 L2932.1 2188.4 L2934.7 2189.3 L2937.1 2190.2 L2939.3 2191.1 L2942.3 2192 L2945.3 2192.8 L2948.3 2193.6 L2951.3 2194.5 L2954.3 2195.2 L2957.3 2196 L2960.3 2196.8 L2963.3 2197.6 L2966.3 2198.4 L2969.3 2199.2 L2972.3 2200 L2975.3 2200.9 L2978.6 2201.8 L2981.9 2202.8 L2985.2 2203.9 L2988.5 2205.2 L2991.6 2206.7 L2994.5 2208.4 L2997 2210.4 L2999.1 2212.6 L3000.8 2215.3 L3001.9 2218.3 L3002.3 2221.8 L3002 2225.7 L3001.7 2228.9 L3001.6 2232.7 L3001.7 2237 L3001.9 2241.7 L3002.1 2246.6 L3002.2 2251.5 L3002.2 2256.3 L3002 2260.8 L3001.4 2264.9 L3000.4 2268.4 L2998.9 2271.1 L2996.9 2272.9 L2985.8 2278.2 L2974.5 2283 L2963.1 2287.4 L2951.5 2291.7 L2939.9 2295.7 L2928.2 2299.8 L2916.6 2303.9 L2905 2308.2 L2893.6 2312.7 L2882.3 2317.7 L2871.3 2323.1 L2860.5 2329.1 L2856.1 2335.4 L2857.6 2341.3 L2863.9 2347 L2874.1 2352.3 L2887.1 2357.4 L2902.1 2362 L2918.1 2366.3 L2934 2370.2 L2948.8 2373.7 L2961.7 2376.8 L2971.6 2379.5 L2977.6 2381.6 L2978.7 2382 L2979.6 2382.4 L2980.3 2382.7 L2980.9 2383.1 L2981.4 2383.5 L2981.7 2384 L2982 2384.6 L2982.2 2385.2 L2982.3 2385.9 L2982.4 2386.8 L2982.4 2387.8 L2982.4 2388.9 L2981.7 2391.3 L2979.7 2393.3 L2976.7 2395.2 L2973 2396.8 L2968.7 2398.2 L2964 2399.5 L2959.1 2400.7 L2954.2 2401.7 L2949.6 2402.7 L2945.4 2403.7 L2941.9 2404.6 L2939.2 2405.5 L2931.1 2407.5 L2923 2409.9 L2915.1 2412.5 L2907.2 2415.4 L2899.4 2418.5 L2891.7 2421.7 L2884.1 2425.1 L2876.4 2428.5 L2868.8 2432 L2861.1 2435.4 L2853.4 2438.8 L2845.7 2442 L2844.6 2442.5 L2843.4 2442.9 L2842.3 2443.4 L2841.1 2443.9 L2840 2444.5 L2838.8 2445 L2837.7 2445.5 L2836.6 2446 L2835.4 2446.6 L2834.3 2447.1 L2833.2 2447.6 L2832 2448.2 L2830.1 2449.6 L2828.6 2451.1 L2827.6 2452.6 L2827 2454.2 L2826.9 2455.8 L2827.1 2457.3 L2827.7 2458.7 L2828.7 2460.1 L2830 2461.2 L2831.6 2462.2 L2833.6 2463 L2835.8 2463.6 L2841 2465.2 L2849.1 2467.2 L2859.5 2469.4 L2871.3 2471.9 L2883.7 2474.8 L2896.1 2478.1 L2907.6 2481.7 L2917.4 2485.7 L2924.8 2490.2 L2929.1 2495.1 L2929.4 2500.5 L2924.9 2506.4 L2924.3 2506.8 L2923.7 2507.2 L2922.9 2507.6 L2922.2 2508 L2921.5 2508.3 L2920.7 2508.7 L2920 2509.1 L2919.3 2509.5 L2918.7 2509.9 L2918.1 2510.4 L2917.6 2511 L2917.2 2511.6 L2917 2512.7 L2916.6 2513.7 L2916.2 2514.6 L2915.7 2515.5 L2915.2 2516.3 L2914.6 2517.1 L2913.9 2517.8 L2913.2 2518.5 L2912.4 2519.1 L2911.6 2519.8 L2910.8 2520.4 L2910 2521 L2908.3 2522.5 L2907.1 2524.2 L2906.2 2526.1 L2905.6 2528.1 L2905.3 2530.3 L2905.1 2532.5 L2905.1 2534.8 L2905.1 2537.1 L2905.1 2539.4 L2905.1 2541.7 L2905 2543.9 L2904.7 2545.9 L2904.2 2556 L2903.7 2566 L2903.1 2576.1 L2902.6 2586.2 L2902.1 2596.2 L2901.6 2606.3 L2901.1 2616.3 L2900.6 2626.4 L2900.1 2636.4 L2899.7 2646.5 L2899.2 2656.6 L2898.7 2666.6 L2898.6 2666.5 L2900.4 2666.5 L2902.2 2666.4 L2904.1 2666.5 L2905.9 2666.5 L2907.7 2666.6 L2909.5 2666.7 L2911.3 2666.9 L2913.1 2667 L2914.9 2667 L2916.7 2667.1 L2898.7 2666.6 L2874.3 2665.4 L2849.9 2664.2 L2825.6 2662.9 L2801.2 2661.7 L2776.8 2660.5 L2752.4 2659.2 L2728 2658 L2703.6 2656.8 L2679.2 2655.6 L2654.9 2654.3 L2630.5 2653.1 L2606.1 2651.9 L2606.2 2651.8 L2606.1 2653.6 L2606.1 2655.4 L2606 2657.2 L2605.9 2659 L2605.9 2660.9 L2605.8 2662.7 L2605.7 2664.5 L2605.7 2666.3 L2605.6 2668.1 L2605.6 2669.9 L2605.6 2671.7 L2605.6 2673.5 L2606.1 2651.9 L2606.5 2645.9 L2606.9 2639.9 L2607.3 2633.9 L2607.6 2627.9 L2608 2621.9 L2608.2 2615.9 L2608.5 2609.9 L2608.8 2603.8 L2609.1 2597.8 L2609.4 2591.8 L2609.7 2585.8 L2610.1 2579.8 L2610.3 2575.6 L2610.5 2571.4 L2610.7 2567.1 L2610.9 2562.9 L2611.1 2558.7 L2611.3 2554.4 L2611.6 2550.2 L2611.8 2546 L2612 2541.7 L2612.2 2537.5 L2612.4 2533.3 L2612.6 2529.1 L2612.7 2527.2 L2613.2 2525.6 L2614 2524.2 L2615.1 2522.9 L2616.3 2521.8 L2617.6 2520.7 L2619 2519.6 L2620.3 2518.5 L2621.6 2517.4 L2622.7 2516.1 L2623.5 2514.7 L2624 2513 L2624.9 2511.5 L2626.4 2510 L2628.4 2508.5 L2630.6 2507 L2632.8 2505.5 L2634.9 2503.8 L2636.6 2502.1 L2637.6 2500.1 L2637.9 2497.9 L2637.1 2495.4 L2635.1 2492.6 L2631.6 2489.5 L2624.7 2486 L2617.7 2482.9 L2610.5 2480.3 L2603.1 2478 L2595.6 2476 L2588.1 2474.2 L2580.5 2472.6 L2572.8 2471 L2565.2 2469.3 L2557.7 2467.6 L2550.2 2465.8 L2542.8 2463.7 L2541.9 2463.3 L2540.9 2463 L2539.9 2462.7 L2538.9 2462.4 L2537.9 2462 L2537 2461.6 L2536.1 2461.1 L2535.3 2460.6 L2534.7 2459.9 L2534.2 2459.1 L2533.9 2458.1 L2533.8 2457 L2534.1 2454.3 L2535 2452 L2536.3 2450.1 L2538.1 2448.5 L2540.2 2447.1 L2542.6 2445.9 L2545.1 2444.9 L2547.7 2444 L2550.4 2443 L2552.9 2442.1 L2555.3 2441.1 L2557.4 2440 L2559.6 2439 L2561.7 2438.1 L2563.9 2437.2 L2566 2436.2 L2568.2 2435.3 L2570.3 2434.4 L2572.5 2433.4 L2574.6 2432.5 L2576.8 2431.6 L2578.9 2430.6 L2581.1 2429.7 L2583.2 2428.8 L2589.6 2425.8 L2596.1 2422.9 L2602.6 2420.2 L2609.1 2417.6 L2615.7 2415.1 L2622.3 2412.8 L2629 2410.6 L2635.7 2408.5 L2642.5 2406.6 L2649.3 2404.7 L2656.2 2403.1 L2663.1 2401.5 L2664.9 2401.1 L2666.8 2400.6 L2668.6 2400.1 L2670.4 2399.5 L2672.3 2399 L2674.1 2398.4 L2675.9 2397.8 L2677.7 2397.2 L2679.6 2396.7 L2681.4 2396.1 L2683.2 2395.5 L2685 2394.9 L2685.9 2394.6 L2686.6 2394.2 L2687.3 2393.8 L2687.9 2393.4 L2688.4 2392.8 L2688.8 2392.3 L2689.2 2391.6 L2689.5 2390.9 L2689.7 2390.2 L2689.8 2389.4 L2689.9 2388.5 L2689.9 2387.6 L2689.8 2386.2 L2689.4 2385 L2688.8 2384 L2687.9 2383.2 L2686.9 2382.5 L2685.7 2381.9 L2684.5 2381.4 L2683.2 2381 L2681.9 2380.6 L2680.6 2380.2 L2679.4 2379.8 L2678.2 2379.4 L2638.1 2369.8 L2607.2 2361.3 L2585 2353.7 L2571 2346.7 L2564.6 2340.1 L2565.3 2333.5 L2572.5 2326.7 L2585.6 2319.5 L2604.2 2311.7 L2627.8 2302.8 L2655.6 2292.8 L2687.3 2281.3 L2690.5 2280.2 L2693.6 2279 L2696.6 2277.7 L2699.4 2276.3 L2702 2274.7 L2704.3 2272.9 L2706.3 2270.8 L2707.8 2268.5 L2709 2265.9 L2709.6 2262.9 L2709.8 2259.6 L2709.3 2255.8 L2709.3 2252.9 L2709.3 2250 L2709.3 2247.1 L2709.3 2244.2 L2709.3 2241.3 L2709.4 2238.4 L2709.4 2235.5 L2709.4 2232.6 L2709.4 2229.6 L2709.4 2226.7 L2709.4 2223.8 L2709.4 2220.9 L2709.3 2218.5 L2708.8 2216.3 L2708 2214.3 L2706.8 2212.5 L2705.4 2210.9 L2703.8 2209.5 L2702 2208.2 L2700 2207.1 L2698 2206.1 L2695.9 2205.2 L2693.7 2204.4 L2691.7 2203.6 L2686 2201.8 L2678.4 2199.8 L2669.5 2197.7 L2659.9 2195.3 L2650.3 2192.6 L2641.2 2189.5 L2633.2 2185.9 L2627.1 2181.8 L2623.4 2177 L2622.7 2171.6 L2625.7 2165.4 L2633 2158.3 L2643.2 2151.4 L2653.4 2144.4 L2663.5 2137.3 L2673.6 2130.2 L2683.6 2123.1 L2693.7 2116 L2703.8 2108.9 L2714 2101.9 L2724.2 2095 L2734.4 2088.2 L2744.8 2081.6 L2755.2 2075.1 L2758.3 2073.6 L2761.4 2072.2 L2764.6 2070.7 L2767.7 2069.3 L2770.8 2067.9 L2774 2066.6 L2777.1 2065.2 L2780.3 2063.8 L2783.4 2062.5 L2786.6 2061.1 L2789.7 2059.7 L2792.9 2058.4 L2795 2057.2 L2798.1 2055.8 L2801.9 2054.4 L2806 2052.8 L2810.3 2051.1 L2814.4 2049.3 L2818.1 2047.3 L2821.1 2045.2 L2823.2 2043 L2824.1 2040.6 L2823.5 2038 L2821.2 2035.3 L2808.4 2031.8 L2795.6 2028.8 L2782.6 2026.1 L2769.6 2023.6 L2756.5 2021.3 L2743.4 2019.1 L2730.3 2016.9 L2717.2 2014.7 L2704.1 2012.2 L2691.1 2009.6 L2678.2 2006.6 L2665.4 2003.2 L2654.9 1999.8 L2648.3 1996.1 L2645.1 1992.3 L2644.9 1988.4 L2647.1 1984.4 L2651.2 1980.4 L2656.7 1976.5 L2663.3 1972.7 L2670.3 1969 L2677.2 1965.6 L2683.6 1962.5 L2689.1 1959.7 L2693.6 1957.3 L2698.2 1954.9 L2702.7 1952.5 L2707.2 1950 L2711.7 1947.5 L2716.2 1945 L2720.7 1942.5 L2725.1 1940 L2729.6 1937.5 L2734.1 1935 L2738.6 1932.4 L2743 1929.9 L2751.2 1926 L2759.5 1922.3 L2767.8 1918.8 L2776.3 1915.4 L2784.7 1912.2 L2793.2 1909 L2801.7 1905.9 L2810.3 1902.7 L2818.8 1899.6 L2827.3 1896.4 L2835.7 1893.1 L2844.2 1889.8 L2862.8 1880 L2870.4 1871.5 L2869.1 1863.8 L2860.6 1856.9 L2846.8 1850.5 L2829.8 1844.4 L2811.4 1838.3 L2793.5 1832.1 L2778 1825.4 L2766.9 1818 L2762 1809.8 L2765.4 1800.6 L2770.1 1797 L2775 1793.5 L2780.1 1790.3 L2785.2 1787.1 L2790.3 1784 L2795.4 1780.9 L2800.5 1777.7 L2805.5 1774.4 L2810.4 1770.9 L2815.1 1767.3 L2819.6 1763.3 L2823.9 1759.1 L2826.2 1756.5 L2828.4 1753.8 L2830.7 1751.1 L2833 1748.4 L2835.3 1745.8 L2837.6 1743.1 L2839.8 1740.4 L2842.1 1737.7 L2844.4 1735 L2846.6 1732.3 L2848.9 1729.7 L2851.2 1727 L2854.5 1722.9 L2857.8 1719 L2861.2 1715 L2864.7 1711.2 L2868.2 1707.4 L2871.7 1703.5 L2875.2 1699.7 L2878.7 1695.9 L2882.2 1692.1 L2885.7 1688.2 L2889.1 1684.3 L2892.5 1680.3 L2895.7 1675.9 L2898.8 1671.3 L2901.7 1666.5 L2904.4 1661.6 L2906.9 1656.5 L2909.1 1651.3 L2911.1 1646.1 L2912.8 1640.7 L2914.2 1635.3 L2915.2 1629.9 L2916 1624.5 L2916.3 1619.1 L2914.9 1619.1 L2913.4 1619.1 L2912 1619.1 L2910.6 1619.1 L2909.2 1619.1 L2907.7 1619.1 L2906.3 1619 Z" fill="rgba(0,120,255,0.2)" stroke="blue" stroke-width="1.5"/>
  <g opacity="0.5"><path d="M0 0c5.621.226 10.795.471 16.518.376.326-28.848-18.455-53.023-38.234-72.313-12.058-13.305-22.45-28.145-35.254-40.783-10.76-9.368-23.757-15.919-35.577-23.855-6.548-2.768-9.276-11.831-4.053-16.759 13.018-14.267 117.427-28.025 62.797-51.693-22.658-9.326-45.665-17.764-68.517-26.57-18.942-7.98-35.599-20.403-54.288-28.966-18.768-9.043-51.895-23.308-11.351-32.419 16.539-3.551 33.067-7.176 49.675-10.383 7.28-3.182 76.653-7.387 63.976-19.351-19.778-12.304-43.635-17.222-62.944-30.603-29.036-18.127-56.336-39.032-84.098-59.03-2.714-2.131-1.81-5.741-2.179-8.752-.183-4.683 5.372-6.83 8.862-8.66 14.055-5.749 29.132-8.337 43.56-12.958 16.053-3.819 11.654-17.239 12.125-29.826.292-17.815 2.004-21.87-16.806-28.044-108.069-39.083-136.368-42.735-3.57-74.42 3.73-1.16 6.306-2.121 5.673-6.482-.987-5.786-9.174-5.59-13.636-7.349-23.492-5.464-46.689-12.344-68.241-23.321-7.532-4.542-52.157-16.693-27.476-25.224 22.254-7.453 47.184-9.099 67.62-20.888 7.694-7.644-2.739-10.861-7.17-15.084-.578-2.92-2.481-4.871-4.733-6.386-7.538-5.995-3.271-22.142-5.143-31.621-1.405-26.15-2.517-52.294-4.183-78.43-5.45-.317-10.84.654-16.288.338l.075-.069c1.403 30.177 2.881 60.35 4.496 90.516 1.149 6.039-1.701 14.564 3.952 18.72 2.541 1.753 4.802 3.698 5.41 6.997 1.117 2.052 4.048 2.508 5.8 3.941 21.178 18.419-56.61 27.512-66.844 32.122-7.113 1.186-9.361 7.526-2.82 11.543 3.4 1.581 6.771 3.244 10.252 4.627 23.278 9.478 45.377 21.92 70.138 27.343 6.561 2.905 32.121 5.014 32.388 12.456-.029 3.69-.1 4.332-3.632 5.473-10.943 5.815-110.68 20.248-87.808 39.397 31.893 19.006 69.436 25.59 102.284 42.136 7.029 3.909 2.437 27.12 3.821 35.383 2.11 12.585-10.461 15.939-19.996 18.64-8.973 2.556-18.064 4.705-27.016 7.329-6.149 2.821-18.096 4.38-17.58 13.076-.378 4.235 1.212 7.439 4.77 9.749 28.505 19.196 55.448 40.567 84.651 58.727 16.468 10.374 35.126 16.366 52.755 24.394 2.929 1.784 7.5 2.8 8.372 6.543 2.498 9.159-37.734 11.057-44.982 13.618-24.183 3.866-48.226 8.572-72.023 14.37-39.04 9.238-2.401 24.065 14.199 32.243 23.624 11.712 45.291 27.075 70.569 35.304 20.8 8.328 43.123 13.903 62.195 25.923 26.35 19.751-62.58 33.607-72.313 44.609-5.053 3.188-5.439 12.41-.011 15.786 11.104 7.087 22.098 14.362 33.142 21.546 14.341 10.802 23.712 26.751 35.792 39.844 13.833 15.781 31.396 29.903 37.592 50.73C-3.245-17.644 1.036-9.087.061.07z" style="fill:#231f20;fill-opacity:1;fill-rule:nonzero;stroke:none" transform="matrix(1.33333 0 0 -1.33333 3209.2 1613.918)"/>
<path d="m0 0-16.238.949c1.001 26.927 2.655 53.821 3.923 80.738.766 18.735-.191 9.728 8.872 21.882 1.679 5.584 16.417 7.132 8.048 16.463-19.975 13.657-45.939 14.073-68.624 21.081-2.64.936-6.944 1.456-6.933 5.022.092 9.497 17.307 11.005 24.072 15.254 20.396 9.344 40.754 18.903 62.778 23.771 6.492 2.765 29.729 4.456 30.252 11.998-.023 3.61-.135 4.3-3.689 5.449-18.229 7.481-83.789 15.833-90.603 32.155-2.724 14.163 81.759 37.564 96.011 44.544 4.868 2.581 12.839 4.599 12.902 11.271.11 9.99.104 19.983.172 29.973 1.563 10.266-8.547 14.646-16.824 16.713-12.191 4.782-64.598 10.048-43.314 30.894 26.886 18.85 53.89 37.495 80.964 56.048 18.968 14.537 43.661 18.696 63.615 31.353 8.632 10.306-22.917 11.413-28.51 13.571-31.848 5.548-64.133 9.988-95.153 19.259-26.054 9.466 9.711 23.462 19.753 28.681 9.845 4.634 19.402 9.782 28.699 15.391 26.834 16.737 57.501 25.183 86.629 36.93 88.702 33.962-86.857 39.015-51.74 70.867 9.756 6.534 19.82 12.602 29.67 18.98 14.649 10.159 24.468 25.613 36.087 38.85 17.736 19.71 39.151 38.302 43.589 65.85.209 3.231 3.503 5.337 3.295 8.524.093 1.869.262 2.066 2.118 2.083 4.227.038 8.455.012 12.788.012-.553-16.275-7.937-32.938-17.904-45.962-9.916-12.052-21.306-22.692-30.943-34.982-6.831-8.035-13.592-16.131-20.502-24.097-12.332-13.214-29.89-19.915-43.879-31.084-24.165-29.735 133.331-35.681 59.101-66.9-25.154-10.349-51.428-18.067-75.845-30.119-13.421-7.564-26.788-15.243-40.477-22.326-14.242-7.831-55.609-22.722-17.761-32.635 38.336-10.829 78.784-13.005 116.869-24.054 9.796-8.4-16.352-13.892-21.253-17.32-9.426-4.143-18.953-8.08-28.22-12.554-31.508-19.12-60.982-41.862-91.668-62.414-28.873-22.489 30.491-28.47 43.994-33.981 6.112-2.086 13.678-5.301 13.311-12.98-.054-8.711-.057-17.423-.077-26.134 2.297-11.967-6.849-15.816-16.496-19.126-100.244-37.004-141.604-42.861-6.814-73.562 3.205-1.407 8.878-1.594 8.765-6.193.05-2.809-1.06-4.63-3.669-5.453-5.475-1.726-10.909-3.648-16.482-4.983-20.758-4.408-40.753-11.284-59.892-20.432-6.44-2.796-12.872-5.613-19.322-8.387-5.974-3.69-17.805-3.958-17.744-12.813-.036-3.532 4.204-3.944 6.729-4.973 22.032-6.648 46.369-8.036 66.641-19.334 12.758-10.029-4.299-12.849-5.679-17.671-1.097-5.257-8.888-6.04-8.563-12.026-.638-12.69-1.269-25.381-1.92-38.071C1.808 35.983 1.377 17.902-.074-.066z" style="fill:#231f20;fill-opacity:1;fill-rule:nonzero;stroke:none" transform="matrix(1.33333 0 0 -1.33333 2606.178 2651.8)"/>
<path d="M0 0c-72.711-.639-145.392-2.618-218.11-3.317-.424 5.471-.476 10.692-.429 16.238C-145.813 14.5-73.303 15.395-.56 16.849c.172-5.797.337-11.356.5-16.917z" style="fill:#231f20;fill-opacity:1;fill-rule:nonzero;stroke:none" transform="matrix(1.33333 0 0 -1.33333 3209.28 1613.824)"/>
<path d="M0 0c-.401-5.446-.825-10.571-1.192-16.065-72.874 3.26-145.62 6.852-218.58 10.805-.021 5.483.307 10.844.444 16.307l-.077-.069C-146.245 7.338-73.089 3.582.072-.066z" style="fill:#231f20;fill-opacity:1;fill-rule:nonzero;stroke:none" transform="matrix(1.33333 0 0 -1.33333 2898.619 2666.525)"/></g>
  <path d="M2917.9 1600.3 L2917.9 1602.1 L2917.9 1603.9 L2917.9 1605.7 L2917.9 1607.5 L2918 1609.2 L2918.1 1611 L2918.1 1612.8 L2918.2 1614.6 L2918.3 1616.4 L2918.5 1618.2 L2942.7 1618 L2966.9 1617.7 L2991.2 1617.3 L3015.4 1616.9 L3039.6 1616.4 L3063.9 1616 L3088.1 1615.6 L3112.3 1615.1 L3136.6 1614.7 L3160.8 1614.4 L3185 1614.1 L3209.3 1613.8 L3227.5 1613.4 L3225.6 1613.4 L3223.8 1613.4 L3222 1613.5 L3220.2 1613.5 L3218.4 1613.6 L3216.5 1613.6 L3214.7 1613.7 L3212.9 1613.8 L3211.1 1613.8 L3209.2 1613.9 L3209.3 1613.8 L3209.5 1616.9 L3209.4 1619.9 L3209.1 1622.8 L3208.6 1625.8 L3208 1628.8 L3207.2 1631.7 L3206.4 1634.6 L3205.5 1637.5 L3204.6 1640.4 L3203.7 1643.3 L3202.9 1646.2 L3202.1 1649.2 L3199.8 1655.9 L3196.8 1662.4 L3193.4 1668.5 L3189.6 1674.4 L3185.4 1680 L3180.9 1685.5 L3176.2 1690.9 L3171.4 1696.1 L3166.5 1701.3 L3161.5 1706.4 L3156.7 1711.6 L3152 1716.8 L3148 1721.2 L3144.2 1725.8 L3140.4 1730.5 L3136.7 1735.1 L3133 1739.8 L3129.3 1744.5 L3125.5 1749.1 L3121.6 1753.6 L3117.5 1758 L3113.3 1762.2 L3108.9 1766.2 L3104.3 1769.9 L3100.6 1772.3 L3096.9 1774.7 L3093.2 1777.1 L3089.6 1779.5 L3085.9 1781.9 L3082.2 1784.3 L3078.5 1786.7 L3074.9 1789.1 L3071.2 1791.5 L3067.5 1793.9 L3063.8 1796.3 L3060.1 1798.7 L3058.4 1799.9 L3057.1 1801.5 L3056.1 1803.3 L3055.4 1805.2 L3055 1807.2 L3054.9 1809.3 L3055 1811.4 L3055.5 1813.4 L3056.2 1815.3 L3057.3 1817 L3058.6 1818.5 L3060.1 1819.7 L3065.4 1823.5 L3074.2 1827.4 L3085.6 1831.5 L3098.7 1835.8 L3112.6 1840.3 L3126.4 1845.1 L3139.1 1850.1 L3150 1855.3 L3158.1 1860.9 L3162.5 1866.7 L3162.3 1872.8 L3156.5 1879.2 L3150.1 1883 L3143.5 1886.5 L3136.7 1889.8 L3129.9 1892.8 L3122.9 1895.6 L3115.9 1898.3 L3108.9 1900.9 L3101.8 1903.4 L3094.7 1905.9 L3087.6 1908.5 L3080.6 1911 L3073.6 1913.8 L3065.3 1916.7 L3057.1 1920 L3049.1 1923.5 L3041.2 1927.4 L3033.4 1931.4 L3025.7 1935.5 L3018.1 1939.8 L3010.4 1944.1 L3002.8 1948.4 L2995.1 1952.7 L2987.3 1956.8 L2979.5 1960.8 L2973.5 1963.7 L2966.8 1966.9 L2959.9 1970.4 L2953.2 1974.1 L2947.2 1977.9 L2942.2 1981.8 L2938.8 1985.7 L2937.4 1989.6 L2938.5 1993.4 L2942.4 1997.1 L2949.6 2000.6 L2960.6 2003.8 L2968.5 2005.7 L2976.5 2007.6 L2984.4 2009.3 L2992.4 2011.1 L3000.4 2012.7 L3008.4 2014.4 L3016.4 2015.9 L3024.4 2017.4 L3032.5 2018.9 L3040.5 2020.3 L3048.5 2021.7 L3056.6 2023 L3059.9 2023.8 L3064.6 2024.7 L3070.5 2025.5 L3077.2 2026.5 L3084.3 2027.5 L3091.5 2028.8 L3098.4 2030.1 L3104.7 2031.8 L3110 2033.6 L3114 2035.8 L3116.3 2038.3 L3116.6 2041.1 L3116.2 2042.3 L3115.6 2043.3 L3114.9 2044.3 L3114 2045.1 L3113.1 2045.8 L3112 2046.5 L3110.9 2047.1 L3109.8 2047.6 L3108.6 2048.2 L3107.5 2048.7 L3106.4 2049.3 L3105.4 2049.9 L3099.5 2052.5 L3093.6 2055 L3087.6 2057.5 L3081.6 2060 L3075.6 2062.4 L3069.7 2064.9 L3063.7 2067.5 L3057.8 2070.2 L3052 2073 L3046.3 2075.9 L3040.6 2079 L3035.1 2082.4 L3025.4 2088.5 L3015.8 2094.8 L3006.4 2101.2 L2997 2107.8 L2987.6 2114.4 L2978.3 2121 L2969 2127.7 L2959.7 2134.4 L2950.4 2141.1 L2941.1 2147.7 L2931.7 2154.2 L2922.2 2160.7 L2921.1 2161.5 L2920.1 2162.3 L2919.1 2163.2 L2918.3 2164.2 L2917.6 2165.2 L2917.1 2166.2 L2916.6 2167.3 L2916.2 2168.5 L2916 2169.7 L2915.8 2171 L2915.8 2172.3 L2915.8 2173.7 L2916 2176.4 L2916.8 2178.7 L2918.1 2180.8 L2919.8 2182.5 L2921.9 2184 L2924.2 2185.3 L2926.8 2186.5 L2929.4 2187.5 L2932.1 2188.4 L2934.7 2189.3 L2937.1 2190.2 L2939.3 2191.1 L2942.3 2192 L2945.3 2192.8 L2948.3 2193.6 L2951.3 2194.5 L2954.3 2195.2 L2957.3 2196 L2960.3 2196.8 L2963.3 2197.6 L2966.3 2198.4 L2969.3 2199.2 L2972.3 2200 L2975.3 2200.9 L2978.6 2201.8 L2981.9 2202.8 L2985.2 2203.9 L2988.5 2205.2 L2991.6 2206.7 L2994.5 2208.4 L2997 2210.4 L2999.1 2212.6 L3000.8 2215.3 L3001.9 2218.3 L3002.3 2221.8 L3002 2225.7 L3001.7 2228.9 L3001.6 2232.7 L3001.7 2237 L3001.9 2241.7 L3002.1 2246.6 L3002.2 2251.5 L3002.2 2256.3 L3002 2260.8 L3001.4 2264.9 L3000.4 2268.4 L2998.9 2271.1 L2996.9 2272.9 L2985.8 2278.2 L2974.5 2283 L2963.1 2287.4 L2951.5 2291.7 L2939.9 2295.7 L2928.2 2299.8 L2916.6 2303.9 L2905 2308.2 L2893.6 2312.7 L2882.3 2317.7 L2871.3 2323.1 L2860.5 2329.1 L2856.1 2335.4 L2857.6 2341.3 L2863.9 2347 L2874.1 2352.3 L2887.1 2357.4 L2902.1 2362 L2918.1 2366.3 L2934 2370.2 L2948.8 2373.7 L2961.7 2376.8 L2971.6 2379.5 L2977.6 2381.6 L2978.7 2382 L2979.6 2382.4 L2980.3 2382.7 L2980.9 2383.1 L2981.4 2383.5 L2981.7 2384 L2982 2384.6 L2982.2 2385.2 L2982.3 2385.9 L2982.4 2386.8 L2982.4 2387.8 L2982.4 2388.9 L2981.7 2391.3 L2979.7 2393.3 L2976.7 2395.2 L2973 2396.8 L2968.7 2398.2 L2964 2399.5 L2959.1 2400.7 L2954.2 2401.7 L2949.6 2402.7 L2945.4 2403.7 L2941.9 2404.6 L2939.2 2405.5 L2931.1 2407.5 L2923 2409.9 L2915.1 2412.5 L2907.2 2415.4 L2899.4 2418.5 L2891.7 2421.7 L2884.1 2425.1 L2876.4 2428.5 L2868.8 2432 L2861.1 2435.4 L2853.4 2438.8 L2845.7 2442 L2844.6 2442.5 L2843.4 2442.9 L2842.3 2443.4 L2841.1 2443.9 L2840 2444.5 L2838.8 2445 L2837.7 2445.5 L2836.6 2446 L2835.4 2446.6 L2834.3 2447.1 L2833.2 2447.6 L2832 2448.2 L2830.1 2449.6 L2828.6 2451.1 L2827.6 2452.6 L2827 2454.2 L2826.9 2455.8 L2827.1 2457.3 L2827.7 2458.7 L2828.7 2460.1 L2830 2461.2 L2831.6 2462.2 L2833.6 2463 L2835.8 2463.6 L2841 2465.2 L2849.1 2467.2 L2859.5 2469.4 L2871.3 2471.9 L2883.7 2474.8 L2896.1 2478.1 L2907.6 2481.7 L2917.4 2485.7 L2924.8 2490.2 L2929.1 2495.1 L2929.4 2500.5 L2924.9 2506.4 L2924.3 2506.8 L2923.7 2507.2 L2922.9 2507.6 L2922.2 2508 L2921.5 2508.3 L2920.7 2508.7 L2920 2509.1 L2919.3 2509.5 L2918.7 2509.9 L2918.1 2510.4 L2917.6 2511 L2917.2 2511.6 L2917 2512.7 L2916.6 2513.7 L2916.2 2514.6 L2915.7 2515.5 L2915.2 2516.3 L2914.6 2517.1 L2913.9 2517.8 L2913.2 2518.5 L2912.4 2519.1 L2911.6 2519.8 L2910.8 2520.4 L2910 2521 L2908.3 2522.5 L2907.1 2524.2 L2906.2 2526.1 L2905.6 2528.1 L2905.3 2530.3 L2905.1 2532.5 L2905.1 2534.8 L2905.1 2537.1 L2905.1 2539.4 L2905.1 2541.7 L2905 2543.9 L2904.7 2545.9 L2904.2 2556 L2903.7 2566 L2903.1 2576.1 L2902.6 2586.2 L2902.1 2596.2 L2901.6 2606.3 L2901.1 2616.3 L2900.6 2626.4 L2900.1 2636.4 L2899.7 2646.5 L2899.2 2656.6 L2898.7 2666.6 L2898.6 2666.5 L2900.4 2666.5 L2902.2 2666.4 L2904.1 2666.5 L2905.9 2666.5 L2907.7 2666.6 L2909.5 2666.7 L2911.3 2666.9 L2913.1 2667 L2914.9 2667 L2916.7 2667.1 L2898.7 2666.6 L2874.3 2665.4 L2849.9 2664.2 L2825.6 2662.9 L2801.2 2661.7 L2776.8 2660.5 L2752.4 2659.2 L2728 2658 L2703.6 2656.8 L2679.2 2655.6 L2654.9 2654.3 L2630.5 2653.1 L2606.1 2651.9 L2606.2 2651.8 L2606.1 2653.6 L2606.1 2655.4 L2606 2657.2 L2605.9 2659 L2605.9 2660.9 L2605.8 2662.7 L2605.7 2664.5 L2605.7 2666.3 L2605.6 2668.1 L2605.6 2669.9 L2605.6 2671.7 L2605.6 2673.5 L2606.1 2651.9 L2606.5 2645.9 L2606.9 2639.9 L2607.3 2633.9 L2607.6 2627.9 L2608 2621.9 L2608.2 2615.9 L2608.5 2609.9 L2608.8 2603.8 L2609.1 2597.8 L2609.4 2591.8 L2609.7 2585.8 L2610.1 2579.8 L2610.3 2575.6 L2610.5 2571.4 L2610.7 2567.1 L2610.9 2562.9 L2611.1 2558.7 L2611.3 2554.4 L2611.6 2550.2 L2611.8 2546 L2612 2541.7 L2612.2 2537.5 L2612.4 2533.3 L2612.6 2529.1 L2612.7 2527.2 L2613.2 2525.6 L2614 2524.2 L2615.1 2522.9 L2616.3 2521.8 L2617.6 2520.7 L2619 2519.6 L2620.3 2518.5 L2621.6 2517.4 L2622.7 2516.1 L2623.5 2514.7 L2624 2513 L2624.9 2511.5 L2626.4 2510 L2628.4 2508.5 L2630.6 2507 L2632.8 2505.5 L2634.9 2503.8 L2636.6 2502.1 L2637.6 2500.1 L2637.9 2497.9 L2637.1 2495.4 L2635.1 2492.6 L2631.6 2489.5 L2624.7 2486 L2617.7 2482.9 L2610.5 2480.3 L2603.1 2478 L2595.6 2476 L2588.1 2474.2 L2580.5 2472.6 L2572.8 2471 L2565.2 2469.3 L2557.7 2467.6 L2550.2 2465.8 L2542.8 2463.7 L2541.9 2463.3 L2540.9 2463 L2539.9 2462.7 L2538.9 2462.4 L2537.9 2462 L2537 2461.6 L2536.1 2461.1 L2535.3 2460.6 L2534.7 2459.9 L2534.2 2459.1 L2533.9 2458.1 L2533.8 2457 L2534.1 2454.3 L2535 2452 L2536.3 2450.1 L2538.1 2448.5 L2540.2 2447.1 L2542.6 2445.9 L2545.1 2444.9 L2547.7 2444 L2550.4 2443 L2552.9 2442.1 L2555.3 2441.1 L2557.4 2440 L2559.6 2439 L2561.7 2438.1 L2563.9 2437.2 L2566 2436.2 L2568.2 2435.3 L2570.3 2434.4 L2572.5 2433.4 L2574.6 2432.5 L2576.8 2431.6 L2578.9 2430.6 L2581.1 2429.7 L2583.2 2428.8 L2589.6 2425.8 L2596.1 2422.9 L2602.6 2420.2 L2609.1 2417.6 L2615.7 2415.1 L2622.3 2412.8 L2629 2410.6 L2635.7 2408.5 L2642.5 2406.6 L2649.3 2404.7 L2656.2 2403.1 L2663.1 2401.5 L2664.9 2401.1 L2666.8 2400.6 L2668.6 2400.1 L2670.4 2399.5 L2672.3 2399 L2674.1 2398.4 L2675.9 2397.8 L2677.7 2397.2 L2679.6 2396.7 L2681.4 2396.1 L2683.2 2395.5 L2685 2394.9 L2685.9 2394.6 L2686.6 2394.2 L2687.3 2393.8 L2687.9 2393.4 L2688.4 2392.8 L2688.8 2392.3 L2689.2 2391.6 L2689.5 2390.9 L2689.7 2390.2 L2689.8 2389.4 L2689.9 2388.5 L2689.9 2387.6 L2689.8 2386.2 L2689.4 2385 L2688.8 2384 L2687.9 2383.2 L2686.9 2382.5 L2685.7 2381.9 L2684.5 2381.4 L2683.2 2381 L2681.9 2380.6 L2680.6 2380.2 L2679.4 2379.8 L2678.2 2379.4 L2638.1 2369.8 L2607.2 2361.3 L2585 2353.7 L2571 2346.7 L2564.6 2340.1 L2565.3 2333.5 L2572.5 2326.7 L2585.6 2319.5 L2604.2 2311.7 L2627.8 2302.8 L2655.6 2292.8 L2687.3 2281.3 L2690.5 2280.2 L2693.6 2279 L2696.6 2277.7 L2699.4 2276.3 L2702 2274.7 L2704.3 2272.9 L2706.3 2270.8 L2707.8 2268.5 L2709 2265.9 L2709.6 2262.9 L2709.8 2259.6 L2709.3 2255.8 L2709.3 2252.9 L2709.3 2250 L2709.3 2247.1 L2709.3 2244.2 L2709.3 2241.3 L2709.4 2238.4 L2709.4 2235.5 L2709.4 2232.6 L2709.4 2229.6 L2709.4 2226.7 L2709.4 2223.8 L2709.4 2220.9 L2709.3 2218.5 L2708.8 2216.3 L2708 2214.3 L2706.8 2212.5 L2705.4 2210.9 L2703.8 2209.5 L2702 2208.2 L2700 2207.1 L2698 2206.1 L2695.9 2205.2 L2693.7 2204.4 L2691.7 2203.6 L2686 2201.8 L2678.4 2199.8 L2669.5 2197.7 L2659.9 2195.3 L2650.3 2192.6 L2641.2 2189.5 L2633.2 2185.9 L2627.1 2181.8 L2623.4 2177 L2622.7 2171.6 L2625.7 2165.4 L2633 2158.3 L2643.2 2151.4 L2653.4 2144.4 L2663.5 2137.3 L2673.6 2130.2 L2683.6 2123.1 L2693.7 2116 L2703.8 2108.9 L2714 2101.9 L2724.2 2095 L2734.4 2088.2 L2744.8 2081.6 L2755.2 2075.1 L2758.3 2073.6 L2761.4 2072.2 L2764.6 2070.7 L2767.7 2069.3 L2770.8 2067.9 L2774 2066.6 L2777.1 2065.2 L2780.3 2063.8 L2783.4 2062.5 L2786.6 2061.1 L2789.7 2059.7 L2792.9 2058.4 L2795 2057.2 L2798.1 2055.8 L2801.9 2054.4 L2806 2052.8 L2810.3 2051.1 L2814.4 2049.3 L2818.1 2047.3 L2821.1 2045.2 L2823.2 2043 L2824.1 2040.6 L2823.5 2038 L2821.2 2035.3 L2808.4 2031.8 L2795.6 2028.8 L2782.6 2026.1 L2769.6 2023.6 L2756.5 2021.3 L2743.4 2019.1 L2730.3 2016.9 L2717.2 2014.7 L2704.1 2012.2 L2691.1 2009.6 L2678.2 2006.6 L2665.4 2003.2 L2654.9 1999.8 L2648.3 1996.1 L2645.1 1992.3 L2644.9 1988.4 L2647.1 1984.4 L2651.2 1980.4 L2656.7 1976.5 L2663.3 1972.7 L2670.3 1969 L2677.2 1965.6 L2683.6 1962.5 L2689.1 1959.7 L2693.6 1957.3 L2698.2 1954.9 L2702.7 1952.5 L2707.2 1950 L2711.7 1947.5 L2716.2 1945 L2720.7 1942.5 L2725.1 1940 L2729.6 1937.5 L2734.1 1935 L2738.6 1932.4 L2743 1929.9 L2751.2 1926 L2759.5 1922.3 L2767.8 1918.8 L2776.3 1915.4 L2784.7 1912.2 L2793.2 1909 L2801.7 1905.9 L2810.3 1902.7 L2818.8 1899.6 L2827.3 1896.4 L2835.7 1893.1 L2844.2 1889.8 L2862.8 1880 L2870.4 1871.5 L2869.1 1863.8 L2860.6 1856.9 L2846.8 1850.5 L2829.8 1844.4 L2811.4 1838.3 L2793.5 1832.1 L2778 1825.4 L2766.9 1818 L2762 1809.8 L2765.4 1800.6 L2770.1 1797 L2775 1793.5 L2780.1 1790.3 L2785.2 1787.1 L2790.3 1784 L2795.4 1780.9 L2800.5 1777.7 L2805.5 1774.4 L2810.4 1770.9 L2815.1 1767.3 L2819.6 1763.3 L2823.9 1759.1 L2826.2 1756.5 L2828.4 1753.8 L2830.7 1751.1 L2833 1748.4 L2835.3 1745.8 L2837.6 1743.1 L2839.8 1740.4 L2842.1 1737.7 L2844.4 1735 L2846.6 1732.3 L2848.9 1729.7 L2851.2 1727 L2854.5 1722.9 L2857.8 1719 L2861.2 1715 L2864.7 1711.2 L2868.2 1707.4 L2871.7 1703.5 L2875.2 1699.7 L2878.7 1695.9 L2882.2 1692.1 L2885.7 1688.2 L2889.1 1684.3 L2892.5 1680.3 L2895.7 1675.9 L2898.8 1671.3 L2901.7 1666.5 L2904.4 1661.6 L2906.9 1656.5 L2909.1 1651.3 L2911.1 1646.1 L2912.8 1640.7 L2914.2 1635.3 L2915.2 1629.9 L2916 1624.5 L2916.3 1619.1 L2914.9 1619.1 L2913.4 1619.1 L2912 1619.1 L2910.6 1619.1 L2909.2 1619.1 L2907.7 1619.1 L2906.3 1619 Z" fill="none" stroke="red" stroke-width="0.5"/>
</svg>