<svg xmlns="http://www.w3.org/2000/svg" viewBox="2953.62 6355.41 992.972 702.63" style="background:#f5f5f5">
  <path d="M2985.5 6368.3 L2985.5 6389.5 L3045.5 6389.2 L3105.6 6388.9 L3165.6 6388.7 L3225.7 6388.5 L3285.7 6388.3 L3345.8 6388.1 L3405.8 6387.9 L3465.9 6387.7 L3526 6387.6 L3586 6387.4 L3646.1 6387.2 L3706.1 6387 L3706.1 6387.1 L3706.2 6396.3 L3706.3 6405.5 L3706.4 6414.7 L3706.5 6424 L3706.6 6433.2 L3706.7 6442.5 L3706.8 6451.8 L3706.9 6461.2 L3707 6470.5 L3707.1 6479.8 L3707.1 6489 L3707.2 6498.3 L3708.2 6502.7 L3711.6 6506.3 L3716.9 6509.2 L3723.7 6511.6 L3731.7 6513.4 L3740.5 6514.7 L3749.6 6515.8 L3758.7 6516.6 L3767.2 6517.2 L3775 6517.8 L3781.4 6518.5 L3786.2 6519.3 L3796.7 6520.3 L3807.1 6521.2 L3817.6 6522.1 L3828.1 6522.8 L3838.6 6523.6 L3849.1 6524.4 L3859.6 6525.2 L3870.1 6526.2 L3880.5 6527.4 L3890.9 6528.7 L3901.3 6530.3 L3911.6 6532.2 L3912.3 6532.4 L3913 6532.6 L3913.5 6532.9 L3913.9 6533.2 L3914.2 6533.6 L3914.5 6534 L3914.6 6534.5 L3914.7 6535 L3914.6 6535.5 L3914.5 6536.1 L3914.3 6536.8 L3914 6537.5 L3913.3 6542 L3912.8 6546.6 L3912.5 6551.2 L3912.4 6555.9 L3912.4 6560.5 L3912.5 6565.2 L3912.6 6569.9 L3912.7 6574.6 L3912.7 6579.3 L3912.6 6583.9 L3912.3 6588.6 L3911.8 6593.2 L3912.7 6604.6 L3913.4 6616 L3913.9 6627.4 L3914.2 6638.9 L3914.5 6650.3 L3914.5 6661.7 L3914.5 6673.1 L3914.4 6684.5 L3914.2 6696 L3914 6707.4 L3913.7 6718.8 L3913.4 6730.3 L3913.2 6733.1 L3913.2 6736.3 L3913.4 6739.9 L3913.7 6743.8 L3914 6747.8 L3914.2 6751.7 L3914.2 6755.6 L3913.9 6759.2 L3913.3 6762.5 L3912.3 6765.4 L3910.6 6767.7 L3908.3 6769.2 L3904.7 6770.5 L3901 6771.5 L3897.3 6772.5 L3893.6 6773.3 L3889.8 6774 L3886 6774.6 L3882.2 6775.1 L3878.4 6775.6 L3874.6 6776 L3870.8 6776.4 L3867 6776.9 L3863.2 6777.3 L3853.2 6778.3 L3843.3 6779.2 L3833.3 6780.1 L3823.3 6781 L3813.3 6781.9 L3803.4 6782.7 L3793.4 6783.6 L3783.4 6784.5 L3773.4 6785.4 L3763.5 6786.3 L3753.5 6787.3 L3743.6 6788.3 L3742.2 6788.6 L3740.5 6788.9 L3738.6 6789.2 L3736.7 6789.5 L3734.7 6789.8 L3732.7 6790.3 L3730.9 6790.8 L3729.3 6791.5 L3728 6792.4 L3727 6793.6 L3726.5 6794.9 L3726.5 6796.6 L3726.6 6799.1 L3726.7 6801.7 L3726.8 6804.2 L3726.9 6806.7 L3727 6809.3 L3727.1 6811.8 L3727.2 6814.3 L3727.3 6816.8 L3727.4 6819.4 L3727.5 6821.9 L3727.6 6824.4 L3727.7 6827 L3728.2 6842.5 L3728.8 6858 L3729.5 6873.5 L3730.1 6889 L3730.8 6904.6 L3731.5 6920.1 L3732.2 6935.6 L3732.9 6951.1 L3733.6 6966.6 L3734.3 6982.2 L3734.9 6997.7 L3735.5 7013.2 L3738 7035.8 L3735.4 7013.4 L3735.7 7013.5 L3675.6 7014.7 L3615.6 7015.9 L3555.6 7017 L3495.6 7018 L3435.5 7019.1 L3375.5 7020.1 L3315.5 7021.1 L3255.4 7022.1 L3195.4 7023.2 L3135.4 7024.3 L3075.3 7025.4 L3015.3 7026.5 L2994 7027.4 L3015.2 7026.5 L3014.8 7012.6 L3014.3 6998.6 L3013.7 6984.6 L3013.1 6970.7 L3012.5 6956.7 L3011.9 6942.7 L3011.2 6928.8 L3010.6 6914.8 L3009.9 6900.8 L3009.3 6886.9 L3008.7 6872.9 L3008.2 6858.9 L3008 6853.7 L3007.7 6848.6 L3007.5 6843.4 L3007.3 6838.2 L3007.1 6833 L3006.9 6827.8 L3006.7 6822.6 L3006.5 6817.4 L3006.3 6812.2 L3006.1 6807 L3005.9 6801.8 L3005.7 6796.6 L3005.7 6795 L3006 6793.7 L3006.7 6792.7 L3007.7 6791.8 L3008.9 6791.2 L3010.3 6790.7 L3011.8 6790.3 L3013.4 6790 L3015 6789.7 L3016.5 6789.4 L3017.9 6789.2 L3019.2 6788.8 L3029.3 6787.4 L3039.5 6786.2 L3049.7 6785.2 L3059.9 6784.3 L3070.1 6783.4 L3080.3 6782.6 L3090.5 6781.8 L3100.8 6781.1 L3111 6780.2 L3121.2 6779.3 L3131.4 6778.3 L3141.6 6777.2 L3145 6776.6 L3149.2 6776 L3154 6775.5 L3159.3 6775.1 L3164.8 6774.5 L3170.3 6773.8 L3175.6 6772.9 L3180.6 6771.7 L3185 6770.2 L3188.6 6768.3 L3191.2 6766 L3192.6 6763.1 L3192.6 6749.9 L3192.8 6736.7 L3193 6723.5 L3193.3 6710.3 L3193.6 6697.1 L3193.8 6683.9 L3193.9 6670.7 L3194 6657.5 L3193.8 6644.2 L3193.5 6631 L3192.9 6617.8 L3192 6604.7 L3192 6604.7 L3191.9 6602.8 L3191.7 6601 L3191.6 6599.2 L3191.5 6597.3 L3191.5 6595.5 L3191.4 6593.7 L3191.4 6591.8 L3191.4 6590 L3191.5 6588.2 L3191.6 6586.3 L3191.7 6584.5 L3191.8 6582.7 L3192 6578.9 L3192.1 6575.1 L3192 6571.3 L3192 6567.4 L3191.9 6563.6 L3191.8 6559.8 L3191.7 6556 L3191.8 6552.2 L3191.9 6548.4 L3192.3 6544.6 L3192.8 6540.9 L3193.5 6537.2 L3193.7 6534.8 L3191.2 6532.7 L3186.5 6531 L3180 6529.6 L3172.3 6528.5 L3163.8 6527.5 L3155 6526.7 L3146.4 6526.1 L3138.4 6525.6 L3131.6 6525.1 L3126.3 6524.6 L3123.1 6524.1 L3113.5 6523.4 L3103.8 6522.6 L3094.2 6521.9 L3084.6 6521.1 L3075 6520.2 L3065.3 6519.3 L3055.7 6518.4 L3046.1 6517.4 L3036.5 6516.3 L3026.9 6515.1 L3017.4 6513.8 L3007.8 6512.4 L3005.6 6512.1 L3003.3 6511.6 L3001 6511.1 L2998.6 6510.5 L2996.3 6509.7 L2994.1 6508.8 L2992.1 6507.7 L2990.3 6506.4 L2988.8 6504.8 L2987.6 6502.9 L2986.9 6500.7 L2986.6 6498.2 L2986.6 6489.2 L2986.5 6480.1 L2986.5 6471.1 L2986.4 6462.1 L2986.3 6453 L2986.2 6444 L2986.1 6435 L2986 6425.9 L2985.9 6416.9 L2985.9 6407.9 L2985.9 6398.9 L2985.9 6389.8 L2984.1 6389.7 L2982.2 6389.6 L2980.4 6389.5 L2978.5 6389.5 Z" fill="rgba(0,120,255,0.2)" stroke="blue" stroke-width="1.5"/>
  <g opacity="0.5"><path d="M0 0c-.468 5.497-.634 10.998-.146 16.487.784 11.315-1.295 23.079 1.26 34.123 5.021 7.794-46.748 8.247-52.788 9.806-28.9 2.156-57.812 4.453-86.488 8.746-6.243 1.092-15.894 2.581-15.882 10.695-.033 27.09-.727 54.191-.52 81.269-5.535.544-11.17-.109-16.729.013.199-27.139.642-54.21.743-81.342-.175-4.951 3.864-7.508 8.034-8.719 29.028-6.807 59.126-7.168 88.7-10.113 18.533-2.094 37.384-2.425 55.658-6.267 5.256-.768 1.812-4.966 1.75-8.369-.144-10.546-.15-21.102-.331-31.651-.612-16.786 2.182-33.627 1.582-50.493 1.061-22.382-1.705-44.704-.516-67.104 1.817-25.386-4.076-20.943-25.677-25.09-33.946-4.106-68.126-5.911-102.101-9.768-4.048-1.294-13.589-.381-12.909-6.348 1.088-17.711 1.469-35.454 2.206-53.181 1.797-39.94 3.58-79.861 5.673-119.783l15.888.677c-1.206 41.934-3.729 83.779-5.291 125.703-.648 15.572-1.252 31.146-1.861 46.719-.758 5.279 6.641 4.673 10.125 5.89 30.425 4.404 61.26 5.058 91.787 8.694 8.762 2.174 35.929 1.13 38.303 10.583C.27-79.253 3.127-39.566 0 0" style="fill:#231f20;fill-opacity:1;fill-rule:nonzero;stroke:none" transform="matrix(1.33333 0 0 -1.33333 3192.012 6604.658)"/>
<path d="M0 0c-1.689 46.568-4.274 93.102-5.841 139.677-.298 7.587-.592 15.174-.89 22.761-.896 5.49 9.074 5.166 12.79 6.221 29.87 3.171 59.841 5.285 89.727 8.274 11.362 1.349 23.02 2.099 33.862 6.033 7.916 3.648 2.467 21.629 3.831 29.245.896 34.281 1.711 68.57-1.21 102.782 1.801 13.84-1.065 28.21 1.646 41.792.981 2.186.502 3.404-1.812 3.986-30.895 6.128-62.759 6.248-94.044 9.679-11.45 2.619-60.246 1.195-59.245 15.742-.261 27.697-.448 55.991-.878 83.384h16.508c.698-28.149.417-56.364.741-84.535 1.163-12.783 42.823-11.747 53.756-14.209 33.134-3.557 66.812-3.827 99.574-10.024 2.084-.706 2.822-1.663 1.978-3.573-2.577-11.339-.597-23.271-1.333-34.856.877-36.858 2.373-73.763.707-110.661-1.53-21.864 8.481-28.968-18.448-32.242-32.122-4.403-64.519-6.249-96.78-9.28-35.661-4.741-22.8 1.03-23.516-47.998C12.819 81.735 15.028 41.284 16.422.812 10.951.194 5.428.035-.067.076Z" style="fill:#231f20;fill-opacity:1;fill-rule:nonzero;stroke:none" transform="matrix(1.33333 0 0 -1.33333 3735.474 7013.2)"/>
<path d="m0 0 1.906-16.746-540.225-9.204-1.79 16.122C-359.998-6.216-179.927-3.764.17-.079z" style="fill:#231f20;fill-opacity:1;fill-rule:nonzero;stroke:none" transform="matrix(1.33333 0 0 -1.33333 3735.449 7013.442)"/>
<path d="M0 0v-15.921c180.023 1.04 360.353 1.221 540.456 1.885l-.142 16.107C531.406 2.618 4.618.597 0 0" style="fill:#231f20;fill-opacity:1;fill-rule:nonzero;stroke:none" transform="matrix(1.33333 0 0 -1.33333 2985.52 6368.297)"/></g>
  <path d="M2985.5 6368.3 L2985.5 6389.5 L3045.5 6389.2 L3105.6 6388.9 L3165.6 6388.7 L3225.7 6388.5 L3285.7 6388.3 L3345.8 6388.1 L3405.8 6387.9 L3465.9 6387.7 L3526 6387.6 L3586 6387.4 L3646.1 6387.2 L3706.1 6387 L3706.1 6387.1 L3706.2 6396.3 L3706.3 6405.5 L3706.4 6414.7 L3706.5 6424 L3706.6 6433.2 L3706.7 6442.5 L3706.8 6451.8 L3706.9 6461.2 L3707 6470.5 L3707.1 6479.8 L3707.1 6489 L3707.2 6498.3 L3708.2 6502.7 L3711.6 6506.3 L3716.9 6509.2 L3723.7 6511.6 L3731.7 6513.4 L3740.5 6514.7 L3749.6 6515.8 L3758.7 6516.6 L3767.2 6517.2 L3775 6517.8 L3781.4 6518.5 L3786.2 6519.3 L3796.7 6520.3 L3807.1 6521.2 L3817.6 6522.1 L3828.1 6522.8 L3838.6 6523.6 L3849.1 6524.4 L3859.6 6525.2 L3870.1 6526.2 L3880.5 6527.4 L3890.9 6528.7 L3901.3 6530.3 L3911.6 6532.2 L3912.3 6532.4 L3913 6532.6 L3913.5 6532.9 L3913.9 6533.2 L3914.2 6533.6 L3914.5 6534 L3914.6 6534.5 L3914.7 6535 L3914.6 6535.5 L3914.5 6536.1 L3914.3 6536.8 L3914 6537.5 L3913.3 6542 L3912.8 6546.6 L3912.5 6551.2 L3912.4 6555.9 L3912.4 6560.5 L3912.5 6565.2 L3912.6 6569.9 L3912.7 6574.6 L3912.7 6579.3 L3912.6 6583.9 L3912.3 6588.6 L3911.8 6593.2 L3912.7 6604.6 L3913.4 6616 L3913.9 6627.4 L3914.2 6638.9 L3914.5 6650.3 L3914.5 6661.7 L3914.5 6673.1 L3914.4 6684.5 L3914.2 6696 L3914 6707.4 L3913.7 6718.8 L3913.4 6730.3 L3913.2 6733.1 L3913.2 6736.3 L3913.4 6739.9 L3913.7 6743.8 L3914 6747.8 L3914.2 6751.7 L3914.2 6755.6 L3913.9 6759.2 L3913.3 6762.5 L3912.3 6765.4 L3910.6 6767.7 L3908.3 6769.2 L3904.7 6770.5 L3901 6771.5 L3897.3 6772.5 L3893.6 6773.3 L3889.8 6774 L3886 6774.6 L3882.2 6775.1 L3878.4 6775.6 L3874.6 6776 L3870.8 6776.4 L3867 6776.9 L3863.2 6777.3 L3853.2 6778.3 L3843.3 6779.2 L3833.3 6780.1 L3823.3 6781 L3813.3 6781.9 L3803.4 6782.7 L3793.4 6783.6 L3783.4 6784.5 L3773.4 6785.4 L3763.5 6786.3 L3753.5 6787.3 L3743.6 6788.3 L3742.2 6788.6 L3740.5 6788.9 L3738.6 6789.2 L3736.7 6789.5 L3734.7 6789.8 L3732.7 6790.3 L3730.9 6790.8 L3729.3 6791.5 L3728 6792.4 L3727 6793.6 L3726.5 6794.9 L3726.5 6796.6 L3726.6 6799.1 L3726.7 6801.7 L3726.8 6804.2 L3726.9 6806.7 L3727 6809.3 L3727.1 6811.8 L3727.2 6814.3 L3727.3 6816.8 L3727.4 6819.4 L3727.5 6821.9 L3727.6 6824.4 L3727.7 6827 L3728.2 6842.5 L3728.8 6858 L3729.5 6873.5 L3730.1 6889 L3730.8 6904.6 L3731.5 6920.1 L3732.2 6935.6 L3732.9 6951.1 L3733.6 6966.6 L3734.3 6982.2 L3734.9 6997.7 L3735.5 7013.2 L3738 7035.8 L3735.4 7013.4 L3735.7 7013.5 L3675.6 7014.7 L3615.6 7015.9 L3555.6 7017 L3495.6 7018 L3435.5 7019.1 L3375.5 7020.1 L3315.5 7021.1 L3255.4 7022.1 L3195.4 7023.2 L3135.4 7024.3 L3075.3 7025.4 L3015.3 7026.5 L2994 7027.4 L3015.2 7026.5 L3014.8 7012.6 L3014.3 6998.6 L3013.7 6984.6 L3013.1 6970.7 L3012.5 6956.7 L3011.9 6942.7 L3011.2 6928.8 L3010.6 6914.8 L3009.9 6900.8 L3009.3 6886.9 L3008.7 6872.9 L3008.2 6858.9 L3008 6853.7 L3007.7 6848.6 L3007.5 6843.4 L3007.3 6838.2 L3007.1 6833 L3006.9 6827.8 L3006.7 6822.6 L3006.5 6817.4 L3006.3 6812.2 L3006.1 6807 L3005.9 6801.8 L3005.7 6796.6 L3005.7 6795 L3006 6793.7 L3006.7 6792.7 L3007.7 6791.8 L3008.9 6791.2 L3010.3 6790.7 L3011.8 6790.3 L3013.4 6790 L3015 6789.7 L3016.5 6789.4 L3017.9 6789.2 L3019.2 6788.8 L3029.3 6787.4 L3039.5 6786.2 L3049.7 6785.2 L3059.9 6784.3 L3070.1 6783.4 L3080.3 6782.6 L3090.5 6781.8 L3100.8 6781.1 L3111 6780.2 L3121.2 6779.3 L3131.4 6778.3 L3141.6 6777.2 L3145 6776.6 L3149.2 6776 L3154 6775.5 L3159.3 6775.1 L3164.8 6774.5 L3170.3 6773.8 L3175.6 6772.9 L3180.6 6771.7 L3185 6770.2 L3188.6 6768.3 L3191.2 6766 L3192.6 6763.1 L3192.6 6749.9 L3192.8 6736.7 L3193 6723.5 L3193.3 6710.3 L3193.6 6697.1 L3193.8 6683.9 L3193.9 6670.7 L3194 6657.5 L3193.8 6644.2 L3193.5 6631 L3192.9 6617.8 L3192 6604.7 L3192 6604.7 L3191.9 6602.8 L3191.7 6601 L3191.6 6599.2 L3191.5 6597.3 L3191.5 6595.5 L3191.4 6593.7 L3191.4 6591.8 L3191.4 6590 L3191.5 6588.2 L3191.6 6586.3 L3191.7 6584.5 L3191.8 6582.7 L3192 6578.9 L3192.1 6575.1 L3192 6571.3 L3192 6567.4 L3191.9 6563.6 L3191.8 6559.8 L3191.7 6556 L3191.8 6552.2 L3191.9 6548.4 L3192.3 6544.6 L3192.8 6540.9 L3193.5 6537.2 L3193.7 6534.8 L3191.2 6532.7 L3186.5 6531 L3180 6529.6 L3172.3 6528.5 L3163.8 6527.5 L3155 6526.7 L3146.4 6526.1 L3138.4 6525.6 L3131.6 6525.1 L3126.3 6524.6 L3123.1 6524.1 L3113.5 6523.4 L3103.8 6522.6 L3094.2 6521.9 L3084.6 6521.1 L3075 6520.2 L3065.3 6519.3 L3055.7 6518.4 L3046.1 6517.4 L3036.5 6516.3 L3026.9 6515.1 L3017.4 6513.8 L3007.8 6512.4 L3005.6 6512.1 L3003.3 6511.6 L3001 6511.1 L2998.6 6510.5 L2996.3 6509.7 L2994.1 6508.8 L2992.1 6507.7 L2990.3 6506.4 L2988.8 6504.8 L2987.6 6502.9 L2986.9 6500.7 L2986.6 6498.2 L2986.6 6489.2 L2986.5 6480.1 L2986.5 6471.1 L2986.4 6462.1 L2986.3 6453 L2986.2 6444 L2986.1 6435 L2986 6425.9 L2985.9 6416.9 L2985.9 6407.9 L2985.9 6398.9 L2985.9 6389.8 L2984.1 6389.7 L2982.2 6389.6 L2980.4 6389.5 L2978.5 6389.5 Z" fill="none" stroke="red" stroke-width="0.5"/>
</svg>