<svg xmlns="http://www.w3.org/2000/svg" viewBox="3188.4 5644.11 757.747 518.429" style="background:#f5f5f5">
  <path d="M3329.5 5661 L3329.5 5662.8 L3329.6 5664.6 L3329.8 5666.5 L3329.9 5668.2 L3330.1 5670 L3330.3 5671.8 L3330.4 5673.5 L3330.5 5675.3 L3330.5 5677 L3330.4 5678.7 L3330.2 5680.5 L3329.9 5682.2 L3329.9 5682.2 L3330 5682.2 L3330 5682.3 L3330.1 5682.3 L3330.1 5682.4 L3330.2 5682.4 L3330.2 5682.5 L3330.3 5682.5 L3330.3 5682.6 L3330.3 5682.6 L3330.4 5682.7 L3330.4 5682.7 L3330.5 5682.8 L3375.4 5682.1 L3420.4 5681.5 L3465.3 5680.9 L3510.3 5680.4 L3555.2 5679.8 L3600.2 5679.3 L3645.1 5678.7 L3690 5678.2 L3735 5677.6 L3779.9 5677 L3824.9 5676.4 L3869.8 5675.7 L3892.1 5675.8 L3871.2 5675.8 L3871.3 5680.1 L3871.4 5684.4 L3871.5 5688.7 L3871.6 5693 L3871.7 5697.3 L3871.8 5701.6 L3871.9 5705.9 L3872.1 5710.2 L3872.2 5714.6 L3872.3 5718.9 L3872.4 5723.2 L3872.6 5727.5 L3872.6 5728.9 L3872.5 5730.2 L3872.3 5731.5 L3871.9 5732.7 L3871.5 5733.8 L3871 5734.9 L3870.4 5735.9 L3869.6 5736.9 L3868.8 5737.8 L3867.8 5738.6 L3866.8 5739.4 L3865.6 5740.2 L3856.6 5744.7 L3844 5748.8 L3829.1 5752.5 L3813.2 5756.2 L3797.5 5759.7 L3783.2 5763.4 L3771.8 5767.2 L3764.4 5771.3 L3762.4 5775.8 L3767 5780.9 L3779.5 5786.7 L3801.1 5793.2 L3809.5 5795.5 L3818 5797.6 L3826.5 5799.5 L3835.1 5801.3 L3843.7 5803.1 L3852.3 5805 L3860.9 5806.9 L3869.3 5809.1 L3877.7 5811.4 L3886 5814.1 L3894.2 5817.1 L3902.2 5820.5 L3904.9 5823.6 L3905.6 5826.5 L3904.6 5829.3 L3902.2 5832 L3898.7 5834.5 L3894.4 5836.9 L3889.6 5839 L3884.7 5841 L3879.8 5842.8 L3875.4 5844.3 L3871.8 5845.7 L3869.2 5846.7 L3864.7 5848.5 L3858.1 5850.7 L3850 5853.3 L3841.1 5856.2 L3832.1 5859.4 L3823.6 5862.8 L3816.2 5866.5 L3810.5 5870.3 L3807.4 5874.3 L3807.3 5878.4 L3811 5882.6 L3819.2 5886.8 L3825.6 5889.3 L3832.1 5891.6 L3838.7 5893.9 L3845.2 5896 L3851.8 5898.1 L3858.5 5900.1 L3865.1 5902.1 L3871.7 5904.1 L3878.4 5906 L3885 5908 L3891.6 5910 L3898.2 5912.1 L3906.5 5915.1 L3912 5918.1 L3915 5921 L3915.8 5923.8 L3914.8 5926.6 L3912.2 5929.2 L3908.4 5931.7 L3903.8 5934 L3898.6 5936.2 L3893.1 5938.3 L3887.8 5940.2 L3882.8 5941.9 L3878 5943.5 L3873.1 5945 L3868.2 5946.4 L3863.3 5947.8 L3858.4 5949.1 L3853.5 5950.5 L3848.6 5952 L3843.7 5953.5 L3838.9 5955.2 L3834.2 5957.1 L3829.6 5959.1 L3825 5961.4 L3821.7 5963.2 L3819.6 5965.1 L3818.4 5967.1 L3818 5969 L3818.4 5971 L3819.5 5973 L3821 5975 L3822.8 5977 L3825 5978.9 L3827.2 5980.7 L3829.4 5982.4 L3831.5 5984.1 L3832.5 5984.9 L3833.3 5985.7 L3834.1 5986.6 L3834.7 5987.5 L3835.3 5988.4 L3835.9 5989.4 L3836.3 5990.4 L3836.7 5991.5 L3837 5992.6 L3837.2 5993.8 L3837.4 5994.9 L3837.5 5996.2 L3837.9 6006.1 L3838.4 6016 L3838.9 6025.9 L3839.4 6035.7 L3840 6045.6 L3840.6 6055.5 L3841.1 6065.4 L3841.6 6075.3 L3842.1 6085.2 L3842.6 6095 L3843 6104.9 L3843.3 6114.8 L3844.2 6115.4 L3843.6 6136.9 L3843.6 6135 L3843.5 6133.2 L3843.3 6131.4 L3843.1 6129.6 L3842.9 6127.8 L3842.7 6126 L3842.5 6124.3 L3842.4 6122.5 L3842.3 6120.8 L3842.3 6119 L3842.5 6117.2 L3842.7 6115.5 L3842.7 6115.5 L3842.6 6115.4 L3842.5 6115.4 L3842.3 6115.3 L3842.2 6115.3 L3842.1 6115.3 L3841.9 6115.2 L3841.8 6115.2 L3841.7 6115.1 L3841.5 6115.1 L3841.4 6115 L3841.3 6115 L3841.2 6114.9 L3796.2 6116.4 L3751.2 6117.8 L3706.3 6119.2 L3661.3 6120.6 L3616.3 6121.9 L3571.4 6123.2 L3526.4 6124.5 L3481.4 6125.8 L3436.5 6127 L3391.5 6128.3 L3346.5 6129.5 L3301.6 6130.7 L3281.2 6131.8 L3301.5 6130.6 L3301.2 6122.7 L3300.9 6114.8 L3300.6 6106.8 L3300.2 6098.9 L3299.7 6091 L3299.3 6083.1 L3298.8 6075.2 L3298.4 6067.3 L3297.9 6059.4 L3297.5 6051.5 L3297.1 6043.6 L3296.7 6035.6 L3296.2 6031.8 L3295.9 6027.6 L3295.8 6023 L3295.8 6018.1 L3295.8 6013.1 L3295.8 6008.1 L3295.6 6003.2 L3295.1 5998.5 L3294.3 5994.2 L3293 5990.3 L3291.3 5987 L3289 5984.3 L3281.9 5979.2 L3277.7 5974.7 L3275.9 5970.8 L3276.2 5967.3 L3278.3 5964.2 L3281.8 5961.5 L3286.5 5959.1 L3291.9 5956.9 L3297.7 5954.9 L3303.6 5953 L3309.2 5951.2 L3314.2 5949.4 L3317.5 5948.1 L3322.7 5946.6 L3329.2 5944.7 L3336.7 5942.7 L3344.5 5940.3 L3352.3 5937.8 L3359.4 5935 L3365.5 5932.1 L3370.1 5928.9 L3372.5 5925.6 L3372.4 5922.2 L3369.3 5918.6 L3369.3 5918.6 L3362.2 5915.3 L3354.9 5912.4 L3347.6 5909.7 L3340.1 5907.3 L3332.6 5905 L3325.1 5902.8 L3317.5 5900.6 L3310 5898.4 L3302.4 5896.2 L3294.9 5893.8 L3287.5 5891.3 L3280.2 5888.5 L3275.6 5886.7 L3271.8 5884.8 L3268.7 5882.9 L3266.4 5881 L3264.8 5879 L3264.1 5877 L3264.3 5875 L3265.3 5872.9 L3267.2 5870.8 L3270 5868.7 L3273.8 5866.5 L3278.5 5864.3 L3285.2 5861.2 L3292 5858.4 L3298.9 5855.9 L3306 5853.5 L3313 5851.3 L3320.1 5849 L3327.1 5846.7 L3334.1 5844.2 L3340.9 5841.5 L3347.6 5838.4 L3354 5835 L3360.2 5831 L3362.7 5827.3 L3362.4 5823.9 L3359.8 5820.8 L3355.2 5818.1 L3349.3 5815.7 L3342.4 5813.5 L3335 5811.6 L3327.5 5809.9 L3320.4 5808.4 L3314.1 5807 L3309.1 5805.8 L3305.8 5804.7 L3299.3 5803 L3292.7 5801.4 L3286.1 5799.8 L3279.6 5798.3 L3273 5796.8 L3266.4 5795.2 L3259.8 5793.5 L3253.3 5791.8 L3246.8 5789.9 L3240.4 5787.8 L3234 5785.6 L3227.7 5783.1 L3222.1 5779.9 L3219.4 5776.9 L3219.2 5774.1 L3220.9 5771.6 L3224.4 5769.2 L3229 5767.1 L3234.4 5765.2 L3240.3 5763.5 L3246.1 5762.1 L3251.4 5760.8 L3256 5759.7 L3259.2 5758.8 L3264.6 5757.4 L3270 5756.1 L3275.5 5754.9 L3281 5753.7 L3286.4 5752.4 L3291.9 5751.2 L3297.3 5749.8 L3302.7 5748.2 L3308 5746.5 L3313.2 5744.6 L3318.4 5742.4 L3323.4 5740 L3324.6 5739.3 L3325.7 5738.6 L3326.7 5737.8 L3327.5 5736.9 L3328.3 5735.9 L3328.9 5734.9 L3329.4 5733.8 L3329.8 5732.7 L3330.1 5731.4 L3330.3 5730.1 L3330.4 5728.8 L3330.4 5727.4 L3330.3 5723.6 L3330.2 5719.9 L3330.1 5716.2 L3330 5712.5 L3329.9 5708.8 L3329.8 5705.1 L3329.7 5701.4 L3329.6 5697.7 L3329.6 5694 L3329.5 5690.3 L3329.5 5686.6 L3329.5 5682.9 L3327.6 5682.9 L3325.7 5682.9 L3323.9 5682.9 L3322.1 5682.8 L3320.3 5682.8 L3318.6 5682.7 L3316.9 5682.7 Z" fill="rgba(0,120,255,0.2)" stroke="blue" stroke-width="1.5"/>
  <g opacity="0.5"><path d="M0 0c.075-5.572 1.47-10.745.321-15.898.169-.051.282-.275.421-.424l.031-.031c134.86 2.079 269.654 3.139 404.499 5.326l-.72 16.175z" style="fill:#231f20;fill-opacity:1;fill-rule:nonzero;stroke:none" transform="matrix(1.33333 0 0 -1.33333 3329.45 5660.977)"/>
<path d="M0 0c-21.155 10.234-44.997 13.843-66.843 22.533-14.72 5.47-16.938 11.489-1.26 18.118 19.684 9.959 43.075 12.367 61.298 25.005C5.233 77.459-40.912 82.301-47.599 85.359c-19.559 5.287-39.804 8.439-58.578 16.207-21.505 10.034 16.172 15.887 23.602 18.242 16.145 4.39 33.197 6.205 48.148 14.127 3.803 1.853 5.42 5.108 5.257 9.464-.36 11.164-.65 22.154-.717 33.352a1.4 1.4 0 0 0-.229.494c-5.456-.594-10.574-.004-15.433-.76-.085-11.733.272-22.748.532-34.365.335-4.907-3.901-7.831-7.829-9.673-15.376-10.907-119.876-18.216-53.426-36.369 27.354-7.744 56.301-11.334 82.598-22.18 19.686-12.274-59.861-28.767-67.199-37.07C-111.25 24.654-46.854 12.93-39.736 9.099c73.055-19.656-27.589-28.166-44.827-43.761-6.197-6.098 5.301-11.13 8.934-15.068 7.052-5.803 3.891-32.712 5.805-43.208 1.324-22.417 2.099-44.585 3.758-67.023l15.197.929c-.661 23.757-2.494 47.474-3.606 71.216-2.02 10.583 2.169 31.632-5.752 38.508-25.781 16.143 5.14 20.702 18.939 26.171C-34.778-19.757 14.463-11.018 0 0" style="fill:#231f20;fill-opacity:1;fill-rule:nonzero;stroke:none" transform="matrix(1.33333 0 0 -1.33333 3369.3 5918.55)"/>
<path d="M0 0c-7.277 8.414-95.434 23.08-77.112 36.199 19.074 11.581 41.67 16.34 62.135 25.067 28.108 13.337-12.591 18.739-23.548 22.372-22.591 6.116-46.015 9.515-67.801 18.252-32.677 14.096 63.662 23.249 70.385 31.902 4.339 2.388 6.315 5.67 6.092 10.786-.745 12.63-.24 25.295-1.201 37.9h-15.722c.341-12.928.62-25.858 1.058-38.783.147-4.331-1.577-7.336-5.244-9.518-20.227-14.211-128.363-18.933-48.347-39.749 25.018-7.329 52.069-9.48 75.786-20.506C-11.966 64.61-42.366 57.1-48.276 54.255c-9.617-4.722-69.105-17.424-37.511-30.052 19.338-7.584 39.509-12.717 59.3-18.943 29.372-9.243 2.454-17.505-11.575-22.397-14.386-4.98-29.816-7.386-43.346-14.596-11.58-5.348-1.111-12.274 4.904-17.027 2.926-2.329 4.273-5.282 4.451-9.075 1.221-29.69 3.51-59.283 4.389-88.987l.668-.425c5.044 1.03 10.094.156 15.021 1.365-1.067 28.847-3.493 57.659-4.599 86.52-.211 5.013-1.742 8.769-5.776 11.639-15.038 9.804-8.608 15.085 5.076 20.071C-49.799-23.51 13.834-11.911 0 0" style="fill:#231f20;fill-opacity:1;fill-rule:nonzero;stroke:none" transform="matrix(1.33333 0 0 -1.33333 3933.535 5919.076)"/>
<path d="M0 0c-.396.132-.797.261-1.188.396-134.864-4.433-269.793-8.149-404.686-11.832 1.058-5.551 1.955-10.655 2.792-16.36L.642-16.044C.705-10.494-1.042-5.308 0 0" style="fill:#231f20;fill-opacity:1;fill-rule:nonzero;stroke:none" transform="matrix(1.33333 0 0 -1.33333 3842.74 6115.475)"/></g>
  <path d="M3329.5 5661 L3329.5 5662.8 L3329.6 5664.6 L3329.8 5666.5 L3329.9 5668.2 L3330.1 5670 L3330.3 5671.8 L3330.4 5673.5 L3330.5 5675.3 L3330.5 5677 L3330.4 5678.7 L3330.2 5680.5 L3329.9 5682.2 L3329.9 5682.2 L3330 5682.2 L3330 5682.3 L3330.1 5682.3 L3330.1 5682.4 L3330.2 5682.4 L3330.2 5682.5 L3330.3 5682.5 L3330.3 5682.6 L3330.3 5682.6 L3330.4 5682.7 L3330.4 5682.7 L3330.5 5682.8 L3375.4 5682.1 L3420.4 5681.5 L3465.3 5680.9 L3510.3 5680.4 L3555.2 5679.8 L3600.2 5679.3 L3645.1 5678.7 L3690 5678.2 L3735 5677.6 L3779.9 5677 L3824.9 5676.4 L3869.8 5675.7 L3892.1 5675.8 L3871.2 5675.8 L3871.3 5680.1 L3871.4 5684.4 L3871.5 5688.7 L3871.6 5693 L3871.7 5697.3 L3871.8 5701.6 L3871.9 5705.9 L3872.1 5710.2 L3872.2 5714.6 L3872.3 5718.9 L3872.4 5723.2 L3872.6 5727.5 L3872.6 5728.9 L3872.5 5730.2 L3872.3 5731.5 L3871.9 5732.7 L3871.5 5733.8 L3871 5734.9 L3870.4 5735.9 L3869.6 5736.9 L3868.8 5737.8 L3867.8 5738.6 L3866.8 5739.4 L3865.6 5740.2 L3856.6 5744.7 L3844 5748.8 L3829.1 5752.5 L3813.2 5756.2 L3797.5 5759.7 L3783.2 5763.4 L3771.8 5767.2 L3764.4 5771.3 L3762.4 5775.8 L3767 5780.9 L3779.5 5786.7 L3801.1 5793.2 L3809.5 5795.5 L3818 5797.6 L3826.5 5799.5 L3835.1 5801.3 L3843.7 5803.1 L3852.3 5805 L3860.9 5806.9 L3869.3 5809.1 L3877.7 5811.4 L3886 5814.1 L3894.2 5817.1 L3902.2 5820.5 L3904.9 5823.6 L3905.6 5826.5 L3904.6 5829.3 L3902.2 5832 L3898.7 5834.5 L3894.4 5836.9 L3889.6 5839 L3884.7 5841 L3879.8 5842.8 L3875.4 5844.3 L3871.8 5845.7 L3869.2 5846.7 L3864.7 5848.5 L3858.1 5850.7 L3850 5853.3 L3841.1 5856.2 L3832.1 5859.4 L3823.6 5862.8 L3816.2 5866.5 L3810.5 5870.3 L3807.4 5874.3 L3807.3 5878.4 L3811 5882.6 L3819.2 5886.8 L3825.6 5889.3 L3832.1 5891.6 L3838.7 5893.9 L3845.2 5896 L3851.8 5898.1 L3858.5 5900.1 L3865.1 5902.1 L3871.7 5904.1 L3878.4 5906 L3885 5908 L3891.6 5910 L3898.2 5912.1 L3906.5 5915.1 L3912 5918.1 L3915 5921 L3915.8 5923.8 L3914.8 5926.6 L3912.2 5929.2 L3908.4 5931.7 L3903.8 5934 L3898.6 5936.2 L3893.1 5938.3 L3887.8 5940.2 L3882.8 5941.9 L3878 5943.5 L3873.1 5945 L3868.2 5946.4 L3863.3 5947.8 L3858.4 5949.1 L3853.5 5950.5 L3848.6 5952 L3843.7 5953.5 L3838.9 5955.2 L3834.2 5957.1 L3829.6 5959.1 L3825 5961.4 L3821.7 5963.2 L3819.6 5965.1 L3818.4 5967.1 L3818 5969 L3818.4 5971 L3819.5 5973 L3821 5975 L3822.8 5977 L3825 5978.9 L3827.2 5980.7 L3829.4 5982.4 L3831.5 5984.1 L3832.5 5984.9 L3833.3 5985.7 L3834.1 5986.6 L3834.7 5987.5 L3835.3 5988.4 L3835.9 5989.4 L3836.3 5990.4 L3836.7 5991.5 L3837 5992.6 L3837.2 5993.8 L3837.4 5994.9 L3837.5 5996.2 L3837.9 6006.1 L3838.4 6016 L3838.9 6025.9 L3839.4 6035.7 L3840 6045.6 L3840.6 6055.5 L3841.1 6065.4 L3841.6 6075.3 L3842.1 6085.2 L3842.6 6095 L3843 6104.9 L3843.3 6114.8 L3844.2 6115.4 L3843.6 6136.9 L3843.6 6135 L3843.5 6133.2 L3843.3 6131.4 L3843.1 6129.6 L3842.9 6127.8 L3842.7 6126 L3842.5 6124.3 L3842.4 6122.5 L3842.3 6120.8 L3842.3 6119 L3842.5 6117.2 L3842.7 6115.5 L3842.7 6115.5 L3842.6 6115.4 L3842.5 6115.4 L3842.3 6115.3 L3842.2 6115.3 L3842.1 6115.3 L3841.9 6115.2 L3841.8 6115.2 L3841.7 6115.1 L3841.5 6115.1 L3841.4 6115 L3841.3 6115 L3841.2 6114.9 L3796.2 6116.4 L3751.2 6117.8 L3706.3 6119.2 L3661.3 6120.6 L3616.3 6121.9 L3571.4 6123.2 L3526.4 6124.5 L3481.4 6125.8 L3436.5 6127 L3391.5 6128.3 L3346.5 6129.5 L3301.6 6130.7 L3281.2 6131.8 L3301.5 6130.6 L3301.2 6122.7 L3300.9 6114.8 L3300.6 6106.8 L3300.2 6098.9 L3299.7 6091 L3299.3 6083.1 L3298.8 6075.2 L3298.4 6067.3 L3297.9 6059.4 L3297.5 6051.5 L3297.1 6043.6 L3296.7 6035.6 L3296.2 6031.8 L3295.9 6027.6 L3295.8 6023 L3295.8 6018.1 L3295.8 6013.1 L3295.8 6008.1 L3295.6 6003.2 L3295.1 5998.5 L3294.3 5994.2 L3293 5990.3 L3291.3 5987 L3289 5984.3 L3281.9 5979.2 L3277.7 5974.7 L3275.9 5970.8 L3276.2 5967.3 L3278.3 5964.2 L3281.8 5961.5 L3286.5 5959.1 L3291.9 5956.9 L3297.7 5954.9 L3303.6 5953 L3309.2 5951.2 L3314.2 5949.4 L3317.5 5948.1 L3322.7 5946.6 L3329.2 5944.7 L3336.7 5942.7 L3344.5 5940.3 L3352.3 5937.8 L3359.4 5935 L3365.5 5932.1 L3370.1 5928.9 L3372.5 5925.6 L3372.4 5922.2 L3369.3 5918.6 L3369.3 5918.6 L3362.2 5915.3 L3354.9 5912.4 L3347.6 5909.7 L3340.1 5907.3 L3332.6 5905 L3325.1 5902.8 L3317.5 5900.6 L3310 5898.4 L3302.4 5896.2 L3294.9 5893.8 L3287.5 5891.3 L3280.2 5888.5 L3275.6 5886.7 L3271.8 5884.8 L3268.7 5882.9 L3266.4 5881 L3264.8 5879 L3264.1 5877 L3264.3 5875 L3265.3 5872.9 L3267.2 5870.8 L3270 5868.7 L3273.8 5866.5 L3278.5 5864.3 L3285.2 5861.2 L3292 5858.4 L3298.9 5855.9 L3306 5853.5 L3313 5851.3 L3320.1 5849 L3327.1 5846.7 L3334.1 5844.2 L3340.9 5841.5 L3347.6 5838.4 L3354 5835 L3360.2 5831 L3362.7 5827.3 L3362.4 5823.9 L3359.8 5820.8 L3355.2 5818.1 L3349.3 5815.7 L3342.4 5813.5 L3335 5811.6 L3327.5 5809.9 L3320.4 5808.4 L3314.1 5807 L3309.1 5805.8 L3305.8 5804.7 L3299.3 5803 L3292.7 5801.4 L3286.1 5799.8 L3279.6 5798.3 L3273 5796.8 L3266.4 5795.2 L3259.8 5793.5 L3253.3 5791.8 L3246.8 5789.9 L3240.4 5787.8 L3234 5785.6 L3227.7 5783.1 L3222.1 5779.9 L3219.4 5776.9 L3219.2 5774.1 L3220.9 5771.6 L3224.4 5769.2 L3229 5767.1 L3234.4 5765.2 L3240.3 5763.5 L3246.1 5762.1 L3251.4 5760.8 L3256 5759.7 L3259.2 5758.8 L3264.6 5757.4 L3270 5756.1 L3275.5 5754.9 L3281 5753.7 L3286.4 5752.4 L3291.9 5751.2 L3297.3 5749.8 L3302.7 5748.2 L3308 5746.5 L3313.2 5744.6 L3318.4 5742.4 L3323.4 5740 L3324.6 5739.3 L3325.7 5738.6 L3326.7 5737.8 L3327.5 5736.9 L3328.3 5735.9 L3328.9 5734.9 L3329.4 5733.8 L3329.8 5732.7 L3330.1 5731.4 L3330.3 5730.1 L3330.4 5728.8 L3330.4 5727.4 L3330.3 5723.6 L3330.2 5719.9 L3330.1 5716.2 L3330 5712.5 L3329.9 5708.8 L3329.8 5705.1 L3329.7 5701.4 L3329.6 5697.7 L3329.6 5694 L3329.5 5690.3 L3329.5 5686.6 L3329.5 5682.9 L3327.6 5682.9 L3325.7 5682.9 L3323.9 5682.9 L3322.1 5682.8 L3320.3 5682.8 L3318.6 5682.7 L3316.9 5682.7 Z" fill="none" stroke="red" stroke-width="0.5"/>
</svg>