<svg xmlns="http://www.w3.org/2000/svg" viewBox="4835.01 2228.23 748.131 597.455" style="background:#f5f5f5">
  <path d="M5471.9 2527 L5471 2529.2 L5470.1 2531.5 L5469.2 2533.8 L5468.3 2536 L5467.3 2538.2 L5466.4 2540.4 L5465.4 2542.6 L5464.5 2544.8 L5463.5 2547 L5462.5 2549.1 L5461.4 2551.3 L5460.3 2553.4 L5459.2 2555.5 L5458.1 2557.5 L5457 2559.6 L5455.9 2561.6 L5454.8 2563.7 L5453.7 2565.7 L5452.6 2567.7 L5451.5 2569.7 L5450.3 2571.7 L5449.2 2573.6 L5448.1 2575.6 L5447 2577.5 L5445.8 2579.4 L5444.7 2581.4 L5443.6 2583.3 L5442.6 2585.2 L5441.5 2587.1 L5440.5 2589 L5439.4 2590.8 L5438.4 2592.7 L5437.4 2594.6 L5436.5 2596.5 L5435.5 2598.4 L5434.6 2600.2 L5433.7 2602.1 L5432.9 2604 L5432 2605.9 L5431.2 2607.8 L5430.5 2609.7 L5429.7 2611.7 L5429 2613.6 L5428.4 2615.6 L5427.8 2617.5 L5427.2 2619.5 L5426.6 2621.5 L5426.1 2623.6 L5425.7 2625.7 L5425.1 2627.7 L5424.5 2629.7 L5423.8 2631.7 L5423 2633.6 L5422.2 2635.5 L5421.3 2637.5 L5420.3 2639.3 L5419.2 2641.1 L5418.1 2642.8 L5416.9 2644.6 L5415.7 2646.3 L5414.4 2647.9 L5413 2649.5 L5411.6 2651.1 L5410.1 2652.5 L5408.5 2654 L5407 2655.5 L5405.3 2656.8 L5403.7 2658.2 L5401.9 2659.5 L5400.2 2660.8 L5398.4 2662 L5396.6 2663.2 L5394.8 2664.4 L5392.9 2665.5 L5391 2666.6 L5389.2 2667.7 L5387.2 2668.7 L5385.3 2669.7 L5383.4 2670.6 L5381.4 2671.6 L5379.5 2672.5 L5377.5 2673.4 L5375.6 2674.3 L5373.7 2675.2 L5371.8 2676.1 L5369.9 2677 L5368 2677.8 L5366 2678.5 L5364.1 2679.3 L5362.1 2680 L5360.1 2680.7 L5358.2 2681.4 L5356.3 2682.1 L5354.4 2682.8 L5352.4 2683.4 L5350.5 2684 L5348.5 2684.6 L5346.6 2685.2 L5344.7 2685.8 L5342.8 2686.4 L5341 2687 L5339.1 2687.5 L5337.3 2688.1 L5335.4 2688.7 L5333.6 2689.2 L5331.7 2689.8 L5329.9 2690.3 L5328.1 2690.8 L5326.3 2691.4 L5324.6 2691.9 L5322.8 2692.4 L5321 2692.9 L5319.3 2693.4 L5317.5 2694 L5315.8 2694.5 L5314.1 2695 L5312.4 2695.5 L5310.7 2696 L5309 2696.5 L5307.3 2697 L5305.6 2697.5 L5303.9 2698 L5302.2 2698.5 L5300.6 2699 L5298.9 2699.5 L5297.3 2700.1 L5295.6 2700.6 L5294 2701.1 L5292.4 2701.6 L5290.8 2702.1 L5289.1 2702.6 L5287.5 2703.1 L5285.9 2703.7 L5284.3 2704.2 L5282.7 2704.7 L5281.1 2705.2 L5279.5 2705.8 L5277.9 2706.3 L5276.3 2706.9 L5274.8 2707.4 L5273.2 2708 L5271.6 2708.6 L5270 2709.1 L5268.4 2709.7 L5266.9 2710.2 L5265.3 2710.8 L5263.7 2711.4 L5262.1 2712 L5260.6 2712.6 L5259 2713.3 L5257.4 2713.9 L5255.9 2714.6 L5254.3 2715.2 L5252.7 2715.9 L5251.1 2716.6 L5249.5 2717.2 L5247.9 2717.9 L5246.3 2718.6 L5244.7 2719.4 L5243.1 2720.2 L5241.6 2721 L5239.9 2721.9 L5238.3 2722.7 L5236.7 2723.6 L5235.1 2724.5 L5233.4 2725.3 L5231.8 2726.2 L5230.1 2727.3 L5228.5 2728.5 L5226.8 2729.7 L5225.1 2731 L5223.4 2732.2 L5221.7 2733.5 L5220 2734.7 L5218.2 2736.7 L5216.5 2738.8 L5214.7 2741 L5212.9 2743.2 L5211 2747.4 L5209.1 2754 L5207 2763.2 L5204.9 2768.3 L5202.7 2771.9 L5200.4 2775 L5198.1 2777.8 L5195.8 2780.2 L5193.4 2782.6 L5191.1 2784.7 L5188.6 2786.9 L5186.2 2788.9 L5183.7 2790.9 L5181.1 2793 L5178.5 2795.1 L5175.9 2797.4 L5173.1 2799.9 L5170.3 2802.9 L5166.3 2813.2 L5164.3 2809.4 L5161.8 2809.3 L5159.3 2809.3 L5156.8 2809.2 L5154.2 2809.1 L5151.7 2809 L5149.1 2808.9 L5146.6 2808.9 L5144 2808.8 L5141.4 2808.7 L5138.8 2808.6 L5136.2 2808.6 L5133.6 2808.5 L5131 2808.4 L5128.4 2808.3 L5125.8 2808.2 L5123.1 2808.2 L5120.4 2808.1 L5117.8 2808 L5115.1 2807.9 L5112.4 2807.8 L5109.6 2807.7 L5106.9 2807.7 L5104.2 2807.6 L5101.4 2807.5 L5098.6 2807.4 L5095.8 2807.3 L5093 2807.2 L5090.1 2807.1 L5087.3 2807.1 L5084.4 2807 L5081.5 2806.9 L5078.6 2806.8 L5075.6 2806.7 L5072.7 2806.6 L5069.7 2806.5 L5066.7 2806.4 L5063.6 2806.3 L5060.6 2806.2 L5057.5 2806.1 L5054.4 2806.1 L5051.2 2806 L5048.1 2805.9 L5044.8 2805.8 L5041.6 2805.7 L5038.3 2805.6 L5035 2805.5 L5031.7 2805.4 L5028.3 2805.3 L5024.9 2805.2 L5021.5 2805 L5018 2804.9 L5014.5 2804.8 L5010.9 2804.7 L5007.3 2804.6 L5003.7 2804.5 L5000 2804.4 L4996.3 2804.3 L4992.5 2804.2 L4988.7 2804 L4984.8 2803.9 L5115.9 2640 L5119.1 2634.2 L5120.6 2630.6 L5121.9 2627.3 L5122.6 2624.7 L5123.2 2622.4 L5123.7 2620.1 L5124.3 2617.9 L5124.9 2615.6 L5125.6 2613.4 L5126.3 2611.1 L5127.2 2608.9 L5128 2606.6 L5129 2604.3 L5130 2602 L5131.1 2599.7 L5132.2 2597.4 L5133.3 2595.1 L5134.5 2592.9 L5135.7 2590.8 L5136.9 2588.6 L5138 2586.6 L5139.2 2584.6 L5140.3 2582.6 L5141.4 2580.8 L5142.5 2579 L5143.5 2577.3 L5144.4 2575.7 L5145.4 2574.1 L5146.2 2572.6 L5147.1 2571.2 L5147.9 2569.8 L5148.6 2568.5 L5149.3 2567.3 L5150 2566 L5150.6 2564.9 L5151.2 2563.8 L5151.8 2562.7 L5152.4 2561.7 L5152.9 2560.7 L5153.4 2559.8 L5153.9 2558.8 L5154.3 2557.9 L5154.8 2557.1 L5155.2 2556.2 L5155.6 2555.4 L5156.1 2554.5 L5156.5 2553.7 L5157 2552.9 L5157.4 2552.2 L5157.8 2551.4 L5158.2 2550.7 L5158.5 2550 L5158.8 2549.3 L5159.2 2548.7 L5159.5 2548 L5159.8 2547.4 L5160.1 2546.7 L5160.4 2546.1 L5160.7 2545.5 L5161 2544.9 L5161.2 2544.4 L5161.5 2543.8 L5161.7 2543.3 L5162 2542.7 L5162.2 2542.2 L5162.5 2541.7 L5162.7 2541.1 L5162.9 2540.6 L5163.1 2540.1 L5163.3 2539.6 L5163.5 2539.2 L5163.7 2538.7 L5163.9 2538.2 L5164.1 2537.7 L5164.3 2537.3 L5164.5 2536.8 L5164.7 2536.4 L5164.9 2535.9 L5165.1 2535.5 L5165.3 2535.1 L5165.4 2534.7 L5165.6 2534.2 L5165.8 2533.8 L5165.9 2533.4 L5166.1 2533 L5166.3 2532.6 L5166.4 2532.2 L5166.6 2531.8 L5166.8 2531.4 L5166.9 2531 L5167.1 2530.6 L5167.2 2530.3 L5167.4 2529.9 L5167.5 2529.5 L5167.7 2529.1 L5167.8 2528.8 L5168 2528.4 L5168.1 2528 L5168.3 2527.7 L5168.4 2527.3 L5168.6 2527 L5168.7 2526.6 L5168.8 2526.3 L5169 2525.9 L5169.1 2525.6 L5169.3 2525.2 L5169.4 2524.9 L5169.5 2524.5 L5169.7 2524.2 L5169.8 2523.9 L5169.9 2523.5 L5170.1 2523.2 L5170.2 2522.9 L5170.4 2522.5 L5170.5 2522.2 L5170.6 2521.9 L5170.7 2521.6 L5170.9 2521.2 L5171 2520.9 L5171.1 2520.6 L5171.3 2520.3 L5171.4 2520 L5171.5 2519.7 L5171.7 2519.3 L5171.8 2519 L5171.9 2518.7 L5172.1 2518.4 L5172.2 2518.1 L5172.3 2517.8 L5172.5 2517.5 L5172.6 2517.2 L5172.7 2516.9 L5172.8 2516.6 L5173 2516.3 L5173.1 2516 L5173.2 2515.7 L5173.4 2515.4 L5173.5 2515.1 L5173.6 2514.8 L5173.8 2514.5 L5173.9 2514.2 L5174 2513.9 L5174.2 2513.6 L5174.3 2513.3 L5174.4 2513 L5174.6 2512.7 L5174.7 2512.4 L5174.8 2512.1 L5174.9 2511.8 L5175.1 2511.5 L5175.2 2511.2 L5175.3 2510.9 L5175.5 2510.6 L5175.6 2510.3 L5175.8 2510 L5175.9 2509.7 L5176 2509.4 L5176.2 2509.1 L5176.3 2508.8 L5176.5 2508.5 L5176.6 2508.2 L5176.8 2507.9 L5176.9 2507.6 L5177 2507.3 L5177.2 2507 L5177.3 2506.7 L5177.5 2506.4 L5177.6 2506.1 L5177.8 2505.8 L5177.9 2505.5 L5178.1 2505.2 L5178.2 2504.9 L5178.4 2504.7 L5178.5 2504.4 L5178.7 2504.1 L5178.8 2503.8 L5179 2503.5 L5179.2 2503.2 L5179.3 2502.9 L5179.5 2502.6 L5179.6 2502.3 L5179.8 2501.9 L5180 2501.6 L5180.1 2501.3 L5180.3 2501 L5180.4 2500.7 L5180.6 2500.4 L5180.8 2500.1 L5181 2499.8 L5181.2 2499.5 L5181.3 2499.2 L5181.5 2498.9 L5181.7 2498.6 L5181.9 2498.3 L5182.1 2498 L5182.2 2497.7 L5182.4 2497.4 L5182.6 2497 L5182.8 2496.7 L5183 2496.4 L5183.2 2496.1 L5183.4 2495.8 L5183.6 2495.4 L5183.8 2495.1 L5183.9 2494.8 L5184.1 2494.5 L5184.3 2494.1 L5184.5 2493.8 L5184.8 2493.5 L5185 2493.1 L5185.2 2492.8 L5185.4 2492.5 L5185.6 2492.1 L5185.8 2491.8 L5186 2491.4 L5186.2 2491.1 L5186.4 2490.7 L5186.7 2490.4 L5186.9 2490 L5187.1 2489.6 L5187.3 2489.3 L5187.5 2488.9 L5187.8 2488.5 L5188 2488.2 L5188.2 2487.8 L5188.5 2487.4 L5188.7 2487 L5189 2486.6 L5189.2 2486.2 L5189.4 2485.8 L5189.7 2485.4 L5189.9 2485 L5190.2 2484.6 L5190.5 2484.1 L5190.7 2483.7 L5191 2483.3 L5191.2 2482.8 L5191.5 2482.4 L5191.8 2481.9 L5192.1 2481.4 L5192.3 2480.9 L5192.6 2480.5 L5192.9 2480 L5193.2 2479.5 L5193.5 2478.9 L5193.8 2478.4 L5194.1 2477.9 L5194.4 2477.3 L5194.7 2476.8 L5195 2476.2 L5195.3 2475.6 L5195.6 2475 L5196 2474.4 L5196.3 2473.8 L5196.6 2473.1 L5197 2472.4 L5197.3 2471.7 L5197.7 2471 L5198.1 2470.3 L5198.4 2469.6 L5198.8 2468.9 L5199.2 2468.2 L5199.7 2467.5 L5200.1 2466.8 L5200.5 2466 L5201 2465.3 L5201.4 2464.6 L5201.9 2463.9 L5202.4 2463.2 L5202.9 2462.5 L5203.4 2461.7 L5203.9 2461 L5204.4 2460.3 L5205 2459.5 L5205.5 2458.8 L5206.1 2458 L5206.6 2457.3 L5207.2 2456.5 L5207.8 2455.8 L5208.4 2455 L5209.1 2454.2 L5209.7 2453.4 L5210.4 2452.6 L5211 2451.8 L5211.7 2451 L5212.4 2450.1 L5213.1 2449.3 L5213.9 2448.4 L5214.6 2447.5 L5215.4 2446.6 L5216.2 2445.7 L5217 2444.7 L5217.8 2443.7 L5218.7 2442.7 L5219.5 2441.7 L5220.4 2440.6 L5221.4 2439.4 L5222.3 2438.2 L5223.3 2437 L5224.4 2435.7 L5225.4 2434.2 L5226.6 2432.6 L5227.8 2430.6 L5229.1 2428.4 L5230.5 2426.2 L5232.1 2423.3 L5233.9 2419.3 L5236.2 2413.9 L5275.4 2261 L5277.9 2261 L5280.3 2261 L5282.8 2261 L5285.3 2261 L5287.9 2261 L5290.4 2261 L5292.9 2261 L5295.5 2261 L5298.1 2261 L5300.7 2261 L5303.3 2261 L5305.9 2261 L5308.5 2261 L5311.2 2261 L5313.8 2261 L5316.5 2261 L5319.2 2261 L5322 2261 L5324.7 2261 L5327.5 2261 L5330.3 2261 L5333.1 2261 L5335.9 2261 L5338.8 2261 L5341.7 2261 L5344.6 2261 L5347.5 2261 L5350.5 2261 L5353.5 2261 L5356.5 2261 L5359.6 2261 L5362.6 2261 L5365.7 2261 L5368.9 2261 L5372.1 2261 L5375.3 2261 L5378.5 2261 L5381.8 2261 L5385.1 2261 L5388.5 2261 L5391.8 2261 L5395.3 2261 L5398.8 2261 L5402.3 2261 L5405.8 2261 L5409.4 2261.1 L5413.1 2261.1 L5416.8 2261.1 L5420.6 2261.1 L5424.4 2261.1 L5428.2 2261.1 L5432.1 2261.1 L5436.1 2261.1 L5440.1 2261.1 L5444.2 2261.2 L5448.4 2261.2 L5452.6 2261.2 L5456.9 2261.2 L5461.2 2261.2 L5465.7 2261.2 L5470.2 2261.3 L5474.7 2261.3 L5479.4 2261.3 L5484.1 2261.4 L5488.9 2261.4 L5493.8 2261.4 L5498.8 2261.4 L5503.9 2261.5 L5509.1 2261.5 L5514.4 2261.6 L5519.8 2261.6 L5525.3 2261.7 L5530.9 2261.7 L5536.6 2261.8 L5542.4 2261.8 L5548.4 2261.9 L5550.7 2264.8 L5550.3 2269.8 L5550.2 2274.5 L5550.2 2279.1 L5550.2 2283.6 L5550.3 2288.1 L5550.3 2292.5 L5550.2 2296.9 L5549.9 2301.4 L5549.3 2306 L5548.5 2310.7 L5547.8 2315.3 L5547.4 2319.6 L5547.3 2323.7 L5547.5 2327.6 L5547.5 2331.6 L5547.5 2335.5 L5547.6 2339.3 L5547.6 2343.1 L5547.7 2346.9 L5547.8 2350.7 L5547.8 2354.4 L5547.8 2358.1 L5547.8 2361.7 L5547.8 2365.4 L5547.7 2369.1 L5547.6 2372.7 L5547.3 2376.4 L5547 2380 L5546.7 2383.7 L5546.2 2387.3 L5545.7 2390.9 L5545.2 2394.5 L5544.5 2398.2 L5543.7 2401.9 L5542.5 2405.6 L5541.3 2409.3 L5539.7 2413.1 L5538.1 2416.9 L5536.1 2420.7 L5534 2424.5 L5531.8 2428.3 L5529.3 2432.1 L5526.8 2435.9 L5524.1 2439.6 L5521.4 2443.3 L5518.6 2446.9 L5515.9 2450.5 L5513.2 2454 L5510.5 2457.4 L5508 2460.7 L5505.5 2463.9 L5503.4 2467.1 L5501.6 2470.1 L5499.8 2473.1 L5498.1 2476 L5496.4 2478.9 L5494.7 2481.7 L5493.1 2484.5 L5491.5 2487.3 L5490 2490 L5488.5 2492.7 L5487 2495.3 L5485.5 2497.9 L5484.1 2500.5 L5482.7 2503 L5481.4 2505.5 L5480.2 2508 L5479 2510.4 L5477.9 2512.9 L5476.8 2515.3 L5475.8 2517.6 L5474.8 2520 L5473.8 2522.3 L5472.9 2524.7 Z" fill="rgba(0,120,255,0.2)" stroke="blue" stroke-width="1.5"/>
  <g opacity="0.5"><path d="M0 0c.199-15.232.171-30.404-2.031-45.453-.475-28.464 3.621-59.026-13.617-83.794-7.448-10.149-16.883-18.64-22.324-30.253-3.001-5.797-6.573-11.301-9.939-16.907-8.717-14.03-12.541-30.38-20.783-44.708-7.6-15.785-19.221-29.884-23.48-47.096-4.249-24.66-27.403-38.607-49.506-45.597-24.649-10.729-112.887-26.975-115.28-54.53-.628-17.232-16.616-25.094-26.883-36.182l222.334-6.795 1.646-4.691-228.33 7.887 2.121 2.956c-4.939 1.684-9.84.317-15.397 1.269 10.837 9.432 24.769 17.893 26.765 33.359-.607 29.55 94.319 46.87 119.245 58.038 21.48 6.868 42.185 21.378 46.083 45.007 4.741 17.213 16.457 31.308 23.964 47.304 7.871 14.472 12.001 30.621 20.833 44.676 7.498 12.572 13.637 26.339 24.069 36.827 7.251 7.44 12.314 16.262 15.852 25.877 7.999 20.888 4.864 43.56 5.388 65.403 2.035 15.707 2.094 31.469 2.198 47.315H.084Z" style="fill:#231f20;fill-opacity:1;fill-rule:nonzero;stroke:none" transform="matrix(1.33333 0 0 -1.33333 5246.972 2261.012)"/>
<path d="M0 0h16.37c.621-9.212.02-18.531.14-27.778-.656-6.886-2.678-13.537-2.038-20.554.408-29.612 2.85-61.662-17.751-85.782-23.348-25.576-35.624-58.368-50.346-89.163-4.709-9.166-10.021-18.022-15.079-27.009-6.957-11.409-6.896-25.551-14.731-36.58-12.153-17.082-33.415-23.573-52.351-30.122-22.882-9.544-104.74-25.184-103.555-52.679-1.205-19.892-24.272-25.938-32.336-41.621l-16.37.715c1.614 10.59 30.16 19.769 31.521 41.122 1.18 32.217 101.217 46.292 127.732 61.489 15.409 6.986 30.123 17.164 34.643 34.366 3.713 18.986 15.467 34.379 24.148 51.259 7.654 13.322 11.729 28.323 18.972 41.845 5.208 9.474 10.606 18.855 16.26 28.068 13.329 18.072 29.227 34.109 31.123 57.773 2.3 15.226.902 30.625 1.056 45.951-.771 7.386 1.615 14.398 2.026 21.688.33 9.015-.54 18.135.633 27.079C.065.067 0 0 0 0" style="fill:#231f20;fill-opacity:1;fill-rule:nonzero;stroke:none" transform="matrix(1.33333 0 0 -1.33333 5550.932 2261.994)"/>
<path d="M0 0v17.174h226.932c.912-6.087-.506-11.867.953-17.824l.068.068C151.948.246 75.924.115-.086.089z" style="fill:#231f20;fill-opacity:1;fill-rule:nonzero;stroke:none" transform="matrix(1.33333 0 0 -1.33333 5247.084 2261.128)"/></g>
  <path d="M5471.9 2527 L5471 2529.2 L5470.1 2531.5 L5469.2 2533.8 L5468.3 2536 L5467.3 2538.2 L5466.4 2540.4 L5465.4 2542.6 L5464.5 2544.8 L5463.5 2547 L5462.5 2549.1 L5461.4 2551.3 L5460.3 2553.4 L5459.2 2555.5 L5458.1 2557.5 L5457 2559.6 L5455.9 2561.6 L5454.8 2563.7 L5453.7 2565.7 L5452.6 2567.7 L5451.5 2569.7 L5450.3 2571.7 L5449.2 2573.6 L5448.1 2575.6 L5447 2577.5 L5445.8 2579.4 L5444.7 2581.4 L5443.6 2583.3 L5442.6 2585.2 L5441.5 2587.1 L5440.5 2589 L5439.4 2590.8 L5438.4 2592.7 L5437.4 2594.6 L5436.5 2596.5 L5435.5 2598.4 L5434.6 2600.2 L5433.7 2602.1 L5432.9 2604 L5432 2605.9 L5431.2 2607.8 L5430.5 2609.7 L5429.7 2611.7 L5429 2613.6 L5428.4 2615.6 L5427.8 2617.5 L5427.2 2619.5 L5426.6 2621.5 L5426.1 2623.6 L5425.7 2625.7 L5425.1 2627.7 L5424.5 2629.7 L5423.8 2631.7 L5423 2633.6 L5422.2 2635.5 L5421.3 2637.5 L5420.3 2639.3 L5419.2 2641.1 L5418.1 2642.8 L5416.9 2644.6 L5415.7 2646.3 L5414.4 2647.9 L5413 2649.5 L5411.6 2651.1 L5410.1 2652.5 L5408.5 2654 L5407 2655.5 L5405.3 2656.8 L5403.7 2658.2 L5401.9 2659.5 L5400.2 2660.8 L5398.4 2662 L5396.6 2663.2 L5394.8 2664.4 L5392.9 2665.5 L5391 2666.6 L5389.2 2667.7 L5387.2 2668.7 L5385.3 2669.7 L5383.4 2670.6 L5381.4 2671.6 L5379.5 2672.5 L5377.5 2673.4 L5375.6 2674.3 L5373.7 2675.2 L5371.8 2676.1 L5369.9 2677 L5368 2677.8 L5366 2678.5 L5364.1 2679.3 L5362.1 2680 L5360.1 2680.7 L5358.2 2681.4 L5356.3 2682.1 L5354.4 2682.8 L5352.4 2683.4 L5350.5 2684 L5348.5 2684.6 L5346.6 2685.2 L5344.7 2685.8 L5342.8 2686.4 L5341 2687 L5339.1 2687.5 L5337.3 2688.1 L5335.4 2688.7 L5333.6 2689.2 L5331.7 2689.8 L5329.9 2690.3 L5328.1 2690.8 L5326.3 2691.4 L5324.6 2691.9 L5322.8 2692.4 L5321 2692.9 L5319.3 2693.4 L5317.5 2694 L5315.8 2694.5 L5314.1 2695 L5312.4 2695.5 L5310.7 2696 L5309 2696.5 L5307.3 2697 L5305.6 2697.5 L5303.9 2698 L5302.2 2698.5 L5300.6 2699 L5298.9 2699.5 L5297.3 2700.1 L5295.6 2700.6 L5294 2701.1 L5292.4 2701.6 L5290.8 2702.1 L5289.1 2702.6 L5287.5 2703.1 L5285.9 2703.7 L5284.3 2704.2 L5282.7 2704.7 L5281.1 2705.2 L5279.5 2705.8 L5277.9 2706.3 L5276.3 2706.9 L5274.8 2707.4 L5273.2 2708 L5271.6 2708.6 L5270 2709.1 L5268.4 2709.7 L5266.9 2710.2 L5265.3 2710.8 L5263.7 2711.4 L5262.1 2712 L5260.6 2712.6 L5259 2713.3 L5257.4 2713.9 L5255.9 2714.6 L5254.3 2715.2 L5252.7 2715.9 L5251.1 2716.6 L5249.5 2717.2 L5247.9 2717.9 L5246.3 2718.6 L5244.7 2719.4 L5243.1 2720.2 L5241.6 2721 L5239.9 2721.9 L5238.3 2722.7 L5236.7 2723.6 L5235.1 2724.5 L5233.4 2725.3 L5231.8 2726.2 L5230.1 2727.3 L5228.5 2728.5 L5226.8 2729.7 L5225.1 2731 L5223.4 2732.2 L5221.7 2733.5 L5220 2734.7 L5218.2 2736.7 L5216.5 2738.8 L5214.7 2741 L5212.9 2743.2 L5211 2747.4 L5209.1 2754 L5207 2763.2 L5204.9 2768.3 L5202.7 2771.9 L5200.4 2775 L5198.1 2777.8 L5195.8 2780.2 L5193.4 2782.6 L5191.1 2784.7 L5188.6 2786.9 L5186.2 2788.9 L5183.7 2790.9 L5181.1 2793 L5178.5 2795.1 L5175.9 2797.4 L5173.1 2799.9 L5170.3 2802.9 L5166.3 2813.2 L5164.3 2809.4 L5161.8 2809.3 L5159.3 2809.3 L5156.8 2809.2 L5154.2 2809.1 L5151.7 2809 L5149.1 2808.9 L5146.6 2808.9 L5144 2808.8 L5141.4 2808.7 L5138.8 2808.6 L5136.2 2808.6 L5133.6 2808.5 L5131 2808.4 L5128.4 2808.3 L5125.8 2808.2 L5123.1 2808.2 L5120.4 2808.1 L5117.8 2808 L5115.1 2807.9 L5112.4 2807.8 L5109.6 2807.7 L5106.9 2807.7 L5104.2 2807.6 L5101.4 2807.5 L5098.6 2807.4 L5095.8 2807.3 L5093 2807.2 L5090.1 2807.1 L5087.3 2807.1 L5084.4 2807 L5081.5 2806.9 L5078.6 2806.8 L5075.6 2806.7 L5072.7 2806.6 L5069.7 2806.5 L5066.7 2806.4 L5063.6 2806.3 L5060.6 2806.2 L5057.5 2806.1 L5054.4 2806.1 L5051.2 2806 L5048.1 2805.9 L5044.8 2805.8 L5041.6 2805.7 L5038.3 2805.6 L5035 2805.5 L5031.7 2805.4 L5028.3 2805.3 L5024.9 2805.2 L5021.5 2805 L5018 2804.9 L5014.5 2804.8 L5010.9 2804.7 L5007.3 2804.6 L5003.7 2804.5 L5000 2804.4 L4996.3 2804.3 L4992.5 2804.2 L4988.7 2804 L4984.8 2803.9 L5115.9 2640 L5119.1 2634.2 L5120.6 2630.6 L5121.9 2627.3 L5122.6 2624.7 L5123.2 2622.4 L5123.7 2620.1 L5124.3 2617.9 L5124.9 2615.6 L5125.6 2613.4 L5126.3 2611.1 L5127.2 2608.9 L5128 2606.6 L5129 2604.3 L5130 2602 L5131.1 2599.7 L5132.2 2597.4 L5133.3 2595.1 L5134.5 2592.9 L5135.7 2590.8 L5136.9 2588.6 L5138 2586.6 L5139.2 2584.6 L5140.3 2582.6 L5141.4 2580.8 L5142.5 2579 L5143.5 2577.3 L5144.4 2575.7 L5145.4 2574.1 L5146.2 2572.6 L5147.1 2571.2 L5147.9 2569.8 L5148.6 2568.5 L5149.3 2567.3 L5150 2566 L5150.6 2564.9 L5151.2 2563.8 L5151.8 2562.7 L5152.4 2561.7 L5152.9 2560.7 L5153.4 2559.8 L5153.9 2558.8 L5154.3 2557.9 L5154.8 2557.1 L5155.2 2556.2 L5155.6 2555.4 L5156.1 2554.5 L5156.5 2553.7 L5157 2552.9 L5157.4 2552.2 L5157.8 2551.4 L5158.2 2550.7 L5158.5 2550 L5158.8 2549.3 L5159.2 2548.7 L5159.5 2548 L5159.8 2547.4 L5160.1 2546.7 L5160.4 2546.1 L5160.7 2545.5 L5161 2544.9 L5161.2 2544.4 L5161.5 2543.8 L5161.7 2543.3 L5162 2542.7 L5162.2 2542.2 L5162.5 2541.7 L5162.7 2541.1 L5162.9 2540.6 L5163.1 2540.1 L5163.3 2539.6 L5163.5 2539.2 L5163.7 2538.7 L5163.9 2538.2 L5164.1 2537.7 L5164.3 2537.3 L5164.5 2536.8 L5164.7 2536.4 L5164.9 2535.9 L5165.1 2535.5 L5165.3 2535.1 L5165.4 2534.7 L5165.6 2534.2 L5165.8 2533.8 L5165.9 2533.4 L5166.1 2533 L5166.3 2532.6 L5166.4 2532.2 L5166.6 2531.8 L5166.8 2531.4 L5166.9 2531 L5167.1 2530.6 L5167.2 2530.3 L5167.4 2529.9 L5167.5 2529.5 L5167.7 2529.1 L5167.8 2528.8 L5168 2528.4 L5168.1 2528 L5168.3 2527.7 L5168.4 2527.3 L5168.6 2527 L5168.7 2526.6 L5168.8 2526.3 L5169 2525.9 L5169.1 2525.6 L5169.3 2525.2 L5169.4 2524.9 L5169.5 2524.5 L5169.7 2524.2 L5169.8 2523.9 L5169.9 2523.5 L5170.1 2523.2 L5170.2 2522.9 L5170.4 2522.5 L5170.5 2522.2 L5170.6 2521.9 L5170.7 2521.6 L5170.9 2521.2 L5171 2520.9 L5171.1 2520.6 L5171.3 2520.3 L5171.4 2520 L5171.5 2519.7 L5171.7 2519.3 L5171.8 2519 L5171.9 2518.7 L5172.1 2518.4 L5172.2 2518.1 L5172.3 2517.8 L5172.5 2517.5 L5172.6 2517.2 L5172.7 2516.9 L5172.8 2516.6 L5173 2516.3 L5173.1 2516 L5173.2 2515.7 L5173.4 2515.4 L5173.5 2515.1 L5173.6 2514.8 L5173.8 2514.5 L5173.9 2514.2 L5174 2513.9 L5174.2 2513.6 L5174.3 2513.3 L5174.4 2513 L5174.6 2512.7 L5174.7 2512.4 L5174.8 2512.1 L5174.9 2511.8 L5175.1 2511.5 L5175.2 2511.2 L5175.3 2510.9 L5175.5 2510.6 L5175.6 2510.3 L5175.8 2510 L5175.9 2509.7 L5176 2509.4 L5176.2 2509.1 L5176.3 2508.8 L5176.5 2508.5 L5176.6 2508.2 L5176.8 2507.9 L5176.9 2507.6 L5177 2507.3 L5177.2 2507 L5177.3 2506.7 L5177.5 2506.4 L5177.6 2506.1 L5177.8 2505.8 L5177.9 2505.5 L5178.1 2505.2 L5178.2 2504.9 L5178.4 2504.7 L5178.5 2504.4 L5178.7 2504.1 L5178.8 2503.8 L5179 2503.5 L5179.2 2503.2 L5179.3 2502.9 L5179.5 2502.6 L5179.6 2502.3 L5179.8 2501.9 L5180 2501.6 L5180.1 2501.3 L5180.3 2501 L5180.4 2500.7 L5180.6 2500.4 L5180.8 2500.1 L5181 2499.8 L5181.2 2499.5 L5181.3 2499.2 L5181.5 2498.9 L5181.7 2498.6 L5181.9 2498.3 L5182.1 2498 L5182.2 2497.7 L5182.4 2497.4 L5182.6 2497 L5182.8 2496.7 L5183 2496.4 L5183.2 2496.1 L5183.4 2495.8 L5183.6 2495.4 L5183.8 2495.1 L5183.9 2494.8 L5184.1 2494.5 L5184.3 2494.1 L5184.5 2493.8 L5184.8 2493.5 L5185 2493.1 L5185.2 2492.8 L5185.4 2492.5 L5185.6 2492.1 L5185.8 2491.8 L5186 2491.4 L5186.2 2491.1 L5186.4 2490.7 L5186.7 2490.4 L5186.9 2490 L5187.1 2489.6 L5187.3 2489.3 L5187.5 2488.9 L5187.8 2488.5 L5188 2488.2 L5188.2 2487.8 L5188.5 2487.4 L5188.7 2487 L5189 2486.6 L5189.2 2486.2 L5189.4 2485.8 L5189.7 2485.4 L5189.9 2485 L5190.2 2484.6 L5190.5 2484.1 L5190.7 2483.7 L5191 2483.3 L5191.2 2482.8 L5191.5 2482.4 L5191.8 2481.9 L5192.1 2481.4 L5192.3 2480.9 L5192.6 2480.5 L5192.9 2480 L5193.2 2479.5 L5193.5 2478.9 L5193.8 2478.4 L5194.1 2477.9 L5194.4 2477.3 L5194.7 2476.8 L5195 2476.2 L5195.3 2475.6 L5195.6 2475 L5196 2474.4 L5196.3 2473.8 L5196.6 2473.1 L5197 2472.4 L5197.3 2471.7 L5197.7 2471 L5198.1 2470.3 L5198.4 2469.6 L5198.8 2468.9 L5199.2 2468.2 L5199.7 2467.5 L5200.1 2466.8 L5200.5 2466 L5201 2465.3 L5201.4 2464.6 L5201.9 2463.9 L5202.4 2463.2 L5202.9 2462.5 L5203.4 2461.7 L5203.9 2461 L5204.4 2460.3 L5205 2459.5 L5205.5 2458.8 L5206.1 2458 L5206.6 2457.3 L5207.2 2456.5 L5207.8 2455.8 L5208.4 2455 L5209.1 2454.2 L5209.7 2453.4 L5210.4 2452.6 L5211 2451.8 L5211.7 2451 L5212.4 2450.1 L5213.1 2449.3 L5213.9 2448.4 L5214.6 2447.5 L5215.4 2446.6 L5216.2 2445.7 L5217 2444.7 L5217.8 2443.7 L5218.7 2442.7 L5219.5 2441.7 L5220.4 2440.6 L5221.4 2439.4 L5222.3 2438.2 L5223.3 2437 L5224.4 2435.7 L5225.4 2434.2 L5226.6 2432.6 L5227.8 2430.6 L5229.1 2428.4 L5230.5 2426.2 L5232.1 2423.3 L5233.9 2419.3 L5236.2 2413.9 L5275.4 2261 L5277.9 2261 L5280.3 2261 L5282.8 2261 L5285.3 2261 L5287.9 2261 L5290.4 2261 L5292.9 2261 L5295.5 2261 L5298.1 2261 L5300.7 2261 L5303.3 2261 L5305.9 2261 L5308.5 2261 L5311.2 2261 L5313.8 2261 L5316.5 2261 L5319.2 2261 L5322 2261 L5324.7 2261 L5327.5 2261 L5330.3 2261 L5333.1 2261 L5335.9 2261 L5338.8 2261 L5341.7 2261 L5344.6 2261 L5347.5 2261 L5350.5 2261 L5353.5 2261 L5356.5 2261 L5359.6 2261 L5362.6 2261 L5365.7 2261 L5368.9 2261 L5372.1 2261 L5375.3 2261 L5378.5 2261 L5381.8 2261 L5385.1 2261 L5388.5 2261 L5391.8 2261 L5395.3 2261 L5398.8 2261 L5402.3 2261 L5405.8 2261 L5409.4 2261.1 L5413.1 2261.1 L5416.8 2261.1 L5420.6 2261.1 L5424.4 2261.1 L5428.2 2261.1 L5432.1 2261.1 L5436.1 2261.1 L5440.1 2261.1 L5444.2 2261.2 L5448.4 2261.2 L5452.6 2261.2 L5456.9 2261.2 L5461.2 2261.2 L5465.7 2261.2 L5470.2 2261.3 L5474.7 2261.3 L5479.4 2261.3 L5484.1 2261.4 L5488.9 2261.4 L5493.8 2261.4 L5498.8 2261.4 L5503.9 2261.5 L5509.1 2261.5 L5514.4 2261.6 L5519.8 2261.6 L5525.3 2261.7 L5530.9 2261.7 L5536.6 2261.8 L5542.4 2261.8 L5548.4 2261.9 L5550.7 2264.8 L5550.3 2269.8 L5550.2 2274.5 L5550.2 2279.1 L5550.2 2283.6 L5550.3 2288.1 L5550.3 2292.5 L5550.2 2296.9 L5549.9 2301.4 L5549.3 2306 L5548.5 2310.7 L5547.8 2315.3 L5547.4 2319.6 L5547.3 2323.7 L5547.5 2327.6 L5547.5 2331.6 L5547.5 2335.5 L5547.6 2339.3 L5547.6 2343.1 L5547.7 2346.9 L5547.8 2350.7 L5547.8 2354.4 L5547.8 2358.1 L5547.8 2361.7 L5547.8 2365.4 L5547.7 2369.1 L5547.6 2372.7 L5547.3 2376.4 L5547 2380 L5546.7 2383.7 L5546.2 2387.3 L5545.7 2390.9 L5545.2 2394.5 L5544.5 2398.2 L5543.7 2401.9 L5542.5 2405.6 L5541.3 2409.3 L5539.7 2413.1 L5538.1 2416.9 L5536.1 2420.7 L5534 2424.5 L5531.8 2428.3 L5529.3 2432.1 L5526.8 2435.9 L5524.1 2439.6 L5521.4 2443.3 L5518.6 2446.9 L5515.9 2450.5 L5513.2 2454 L5510.5 2457.4 L5508 2460.7 L5505.5 2463.9 L5503.4 2467.1 L5501.6 2470.1 L5499.8 2473.1 L5498.1 2476 L5496.4 2478.9 L5494.7 2481.7 L5493.1 2484.5 L5491.5 2487.3 L5490 2490 L5488.5 2492.7 L5487 2495.3 L5485.5 2497.9 L5484.1 2500.5 L5482.7 2503 L5481.4 2505.5 L5480.2 2508 L5479 2510.4 L5477.9 2512.9 L5476.8 2515.3 L5475.8 2517.6 L5474.8 2520 L5473.8 2522.3 L5472.9 2524.7 Z" fill="none" stroke="red" stroke-width="0.5"/>
</svg>