<svg xmlns="http://www.w3.org/2000/svg" viewBox="440.635 5441.49 1818.338 1616.515" style="background:#f5f5f5">
  <path d="M475 6126.2 L475.9 6150.5 L476 6150.5 L476.1 6150.6 L476.1 6150.7 L476.2 6150.8 L476.3 6150.8 L476.3 6150.9 L476.4 6151 L476.5 6151 L476.5 6151.1 L476.6 6151.1 L476.7 6151.2 L476.7 6151.2 L488.5 6150.1 L500.4 6149.3 L512.4 6148.6 L524.4 6148.2 L536.4 6147.7 L548.4 6147.1 L560.4 6146.4 L572.3 6145.4 L584.1 6144 L595.8 6142 L607.4 6139.5 L618.9 6136.3 L622.8 6134.7 L626.6 6133 L630.3 6131.1 L634 6129.2 L637.6 6127.1 L641.2 6125 L644.8 6122.8 L648.4 6120.6 L651.9 6118.4 L655.5 6116.2 L659.1 6114 L662.7 6111.9 L666.9 6109.2 L671.3 6106.5 L675.6 6103.9 L680 6101.2 L684.3 6098.4 L688.5 6095.6 L692.6 6092.6 L696.5 6089.5 L700.2 6086.1 L703.7 6082.4 L706.8 6078.5 L709.6 6074.2 L716.5 6065 L723.6 6056 L730.9 6047.1 L738.2 6038.3 L745.7 6029.6 L753.2 6021 L760.9 6012.4 L768.6 6003.9 L776.4 5995.5 L784.3 5987.2 L792.2 5978.9 L800.1 5970.7 L809.8 5960.6 L819.5 5950.6 L829.3 5940.7 L839.1 5930.9 L848.9 5921 L858.7 5911.1 L868.4 5901.1 L878 5891.1 L887.5 5880.9 L896.7 5870.5 L905.7 5859.9 L914.5 5849.1 L923.4 5838.5 L932.6 5828.1 L942.1 5818.1 L951.7 5808.2 L961.6 5798.6 L971.7 5789.2 L982 5780 L992.5 5770.9 L1003.1 5762.1 L1013.8 5753.4 L1024.6 5744.8 L1035.6 5736.3 L1042.5 5730.7 L1049.5 5725.1 L1056.5 5719.5 L1063.5 5713.9 L1070.5 5708.4 L1077.4 5702.8 L1084.4 5697.2 L1091.4 5691.7 L1098.4 5686.1 L1105.4 5680.5 L1112.3 5674.8 L1119.2 5669.2 L1129.7 5659.1 L1140.2 5648.9 L1150.6 5638.6 L1160.9 5628.3 L1171.3 5618 L1181.7 5607.8 L1192.2 5597.6 L1202.8 5587.5 L1213.5 5577.6 L1224.4 5567.9 L1235.5 5558.5 L1246.9 5549.3 L1252.6 5544.8 L1257.8 5539.9 L1262.6 5534.6 L1267 5529.1 L1271.3 5523.3 L1275.3 5517.3 L1279.3 5511.3 L1283.3 5505.3 L1287.4 5499.4 L1291.7 5493.7 L1296.3 5488.2 L1301.2 5482.9 L1302.1 5482.1 L1302.9 5481.3 L1303.8 5480.6 L1304.8 5480 L1305.8 5479.4 L1306.8 5478.9 L1307.8 5478.5 L1308.9 5478.2 L1310 5477.9 L1311.2 5477.8 L1312.3 5477.6 L1313.5 5477.6 L1322.5 5477.5 L1331.6 5477.3 L1340.6 5477.1 L1349.7 5476.9 L1358.7 5477 L1367.7 5477.3 L1376.6 5478.1 L1385.4 5479.3 L1394.1 5481.3 L1402.6 5484 L1410.9 5487.6 L1419 5492.1 L1432.4 5500.6 L1445.6 5509.3 L1458.6 5518.4 L1471.4 5527.8 L1484 5537.5 L1496.3 5547.5 L1508.4 5557.9 L1520.1 5568.6 L1531.5 5579.6 L1542.6 5591 L1553.4 5602.6 L1563.7 5614.7 L1571.3 5623.2 L1579.4 5631.3 L1587.8 5638.9 L1596.5 5646.3 L1605.5 5653.4 L1614.5 5660.4 L1623.6 5667.4 L1632.6 5674.4 L1641.4 5681.6 L1650.1 5689.1 L1658.5 5696.9 L1666.4 5705.1 L1674.1 5711.9 L1681.6 5718.9 L1689 5725.9 L1696.4 5733 L1703.7 5740.1 L1711 5747.3 L1718.3 5754.5 L1725.6 5761.6 L1733 5768.7 L1740.4 5775.8 L1747.8 5782.8 L1755.4 5789.6 L1764.9 5798.8 L1774.1 5808.2 L1783.1 5817.8 L1791.9 5827.5 L1800.6 5837.4 L1809.3 5847.4 L1817.9 5857.3 L1826.5 5867.3 L1835.1 5877.3 L1843.8 5887.2 L1852.7 5897 L1861.7 5906.6 L1869 5914.1 L1876.4 5921.6 L1883.8 5929 L1891.3 5936.3 L1898.9 5943.6 L1906.4 5950.9 L1914 5958.2 L1921.6 5965.4 L1929.2 5972.7 L1936.8 5980 L1944.4 5987.2 L1951.9 5994.5 L1958.7 6000.6 L1965.1 6007 L1971.4 6013.6 L1977.4 6020.3 L1983.4 6027.2 L1989.4 6034 L1995.4 6040.8 L2001.4 6047.5 L2007.7 6054.1 L2014.2 6060.4 L2021 6066.4 L2028.1 6072.1 L2031.6 6074.8 L2034.9 6077.7 L2038 6080.8 L2040.9 6084.1 L2043.6 6087.5 L2046.2 6091 L2048.7 6094.6 L2051 6098.3 L2053.2 6102.1 L2055.4 6105.9 L2057.5 6109.7 L2059.5 6113.6 L2060.4 6115.1 L2061.3 6116.5 L2062.3 6117.7 L2063.3 6118.8 L2064.5 6119.7 L2065.7 6120.5 L2067 6121.1 L2068.4 6121.7 L2069.9 6122 L2071.5 6122.3 L2073.2 6122.5 L2075.1 6122.5 L2087.4 6122.4 L2099.7 6122.4 L2111.9 6122.3 L2124.2 6122.3 L2136.5 6122.2 L2148.8 6122.2 L2161.1 6122.2 L2173.4 6122.2 L2185.7 6122.2 L2198 6122.2 L2210.3 6122.3 L2222.6 6122.3 L2222.7 6122.1 L2222.9 6194.8 L2223.1 6267.4 L2223.3 6340 L2223.5 6412.7 L2223.7 6485.3 L2223.9 6558 L2224.2 6630.6 L2224.3 6703.3 L2224.5 6775.9 L2224.7 6848.6 L2224.8 6921.2 L2224.9 6993.9 L2224.8 6993.5 L2226.8 6993.2 L2228.8 6993.2 L2230.8 6993.4 L2232.8 6993.8 L2234.8 6994.3 L2236.8 6994.7 L2238.8 6995.2 L2240.8 6995.5 L2242.9 6995.6 L2224.9 6993.8 L2212.6 6993.9 L2200.2 6994 L2187.8 6994.1 L2175.4 6994.2 L2163 6994.3 L2150.6 6994.4 L2138.2 6994.5 L2125.8 6994.6 L2113.4 6994.7 L2101 6994.8 L2088.6 6995 L2076.2 6995.2 L2074.1 6995.2 L2072.1 6995 L2070.3 6994.7 L2068.6 6994.2 L2067.1 6993.6 L2065.6 6992.9 L2064.2 6992 L2063 6990.9 L2061.8 6989.7 L2060.6 6988.3 L2059.6 6986.7 L2058.6 6985 L2055 6977.4 L2050.7 6970.3 L2045.9 6963.7 L2040.5 6957.6 L2034.9 6951.7 L2028.9 6946 L2022.8 6940.5 L2016.7 6935 L2010.5 6929.5 L2004.6 6923.8 L1998.8 6917.9 L1993.4 6911.7 L1983.6 6900.4 L1973.4 6889.4 L1963.1 6878.6 L1952.6 6868 L1941.9 6857.5 L1931.1 6847.1 L1920.3 6836.8 L1909.4 6826.5 L1898.6 6816.1 L1887.8 6805.8 L1877 6795.3 L1866.4 6784.8 L1857.7 6775.6 L1849.1 6766.3 L1840.6 6756.9 L1832.3 6747.4 L1823.9 6737.8 L1815.7 6728.2 L1807.4 6718.6 L1799.1 6709.1 L1790.7 6699.6 L1782.3 6690.1 L1773.7 6680.8 L1765 6671.6 L1751 6658.7 L1737.1 6645.5 L1723.3 6632.3 L1709.6 6619 L1695.8 6605.6 L1682.1 6592.4 L1668.2 6579.2 L1654.1 6566.3 L1639.8 6553.6 L1625.3 6541.2 L1610.4 6529.3 L1595.1 6517.7 L1588.4 6512.3 L1582.1 6506.6 L1576 6500.6 L1570.1 6494.3 L1564.4 6488 L1558.8 6481.5 L1553.2 6475 L1547.6 6468.5 L1541.8 6462.2 L1535.9 6456 L1529.8 6450 L1523.4 6444.3 L1516.2 6438 L1509 6431.8 L1501.8 6425.6 L1494.5 6419.4 L1487.2 6413.3 L1479.9 6407.3 L1472.4 6401.3 L1464.9 6395.4 L1457.4 6389.7 L1449.7 6384 L1442 6378.5 L1434.1 6373.1 L1428.1 6369.4 L1421.9 6365.9 L1415.6 6362.6 L1409.2 6359.6 L1402.6 6356.9 L1395.9 6354.5 L1389.2 6352.6 L1382.3 6351 L1375.3 6349.9 L1368.3 6349.3 L1361.2 6349.2 L1354.1 6349.6 L1349.7 6350.1 L1345 6350.2 L1340 6350 L1334.8 6349.8 L1329.5 6349.6 L1324.3 6349.5 L1319.2 6349.7 L1314.3 6350.2 L1309.7 6351.2 L1305.5 6352.8 L1301.8 6355.1 L1298.7 6358.2 L1294 6363.9 L1289.6 6369.7 L1285.3 6375.7 L1281.2 6381.7 L1277 6387.8 L1272.9 6393.8 L1268.6 6399.8 L1264.1 6405.5 L1259.4 6411 L1254.3 6416.2 L1248.8 6421 L1242.8 6425.3 L1232.4 6433.8 L1222.2 6442.5 L1212.3 6451.4 L1202.5 6460.6 L1192.8 6469.9 L1183.3 6479.3 L1173.8 6488.8 L1164.4 6498.4 L1154.9 6507.9 L1145.4 6517.4 L1135.9 6526.8 L1126.2 6536 L1115.1 6545.7 L1103.8 6555.2 L1092.5 6564.6 L1081 6573.8 L1069.4 6582.9 L1057.8 6592 L1046.2 6601.1 L1034.5 6610.2 L1023 6619.3 L1011.4 6628.5 L1000 6637.8 L988.7 6647.3 L976.3 6657.8 L964.3 6668.8 L952.9 6680.2 L941.8 6692 L930.9 6704 L920.3 6716.2 L909.7 6728.5 L899.1 6740.8 L888.4 6753 L877.6 6765 L866.5 6776.8 L855 6788.3 L841.9 6801.5 L828.8 6814.7 L815.7 6828 L802.7 6841.3 L789.8 6854.8 L777.1 6868.3 L764.5 6882 L752.1 6895.9 L739.9 6909.9 L727.9 6924.2 L716.3 6938.7 L705 6953.4 L700.2 6958.7 L695.1 6963.5 L689.7 6968 L684.1 6972.3 L678.2 6976.3 L672.2 6980.1 L666.1 6983.8 L659.9 6987.4 L653.7 6990.9 L647.6 6994.5 L641.5 6998.1 L635.5 7001.9 L624.7 7007.3 L613.5 7011.5 L601.9 7014.6 L590.2 7016.9 L578.2 7018.4 L566 7019.5 L553.8 7020.1 L541.6 7020.6 L529.3 7021 L517.1 7021.5 L505.1 7022.4 L493.2 7023.7 L468.1 7024.1 L493.2 7022.6 L492.8 6998.1 L492.4 6973.7 L492 6949.2 L491.5 6924.7 L491.1 6900.2 L490.6 6875.7 L490.1 6851.2 L489.6 6826.8 L489.1 6802.3 L488.6 6777.8 L488.1 6753.3 L487.6 6728.8 L487.6 6728.8 L486.7 6680.9 L485.7 6632.9 L484.7 6585 L483.7 6537 L482.7 6489.1 L481.7 6441.1 L480.8 6393.2 L479.8 6345.3 L478.9 6297.3 L478 6249.4 L477.2 6201.4 L476.4 6153.4 L476.4 6153.4 L476.4 6153.4 L476.4 6153.4 L476.4 6153.4 L476.4 6153.4 L476.4 6153.4 L476.4 6153.4 L476.4 6153.4 L476.3 6153.4 L476.3 6153.3 L476.3 6153.3 L476.3 6153.3 L476.3 6153.2 L476.3 6153 L476.3 6152.9 L476.2 6152.8 L476.2 6152.6 L476.2 6152.5 L476.1 6152.3 L476 6152.2 L476 6152 L475.9 6151.9 L475.9 6151.7 L475.8 6151.6 Z" fill="rgba(0,120,255,0.2)" stroke="blue" stroke-width="1.5"/>
  <g opacity="0.5"><path d="M0 0v-18.767c-37.438-1.14-74.991-.474-112.47-1.263-5.504-.075-8.918 1.89-11.332 6.49-6.375 12.522-13.946 24.281-25.381 32.811-5.325 4.142-10.345 8.77-14.997 13.659-24.35 27.715-50.964 53.35-77.457 79.01-34.382 30.623-63.598 66.571-93.701 101.287-39.796 37.581-78.046 77.303-120.336 112.186-17.872 12.305-33.645 26.924-47.185 43.879-20.802 23.164-44.645 43.917-69.817 62.166-21.234 16.981-46.576 33.983-74.858 32.764-12.011-1.918-39.316 3.826-46.102-5.579-5.326-6.698-10.57-13.467-15.64-20.358-6.697-8.843-11.441-19.676-20.999-25.929-34.058-25.347-62.378-57.525-92.963-86.815-38.221-34.954-82.167-63.268-119.919-98.845-30.316-26.351-52.007-60.551-81.123-88.089-27.699-27.617-55.377-55.303-80.856-85.007-9.61-10.512-19.417-20.827-27.594-32.533-6.028-8.052-11.617-16.767-20.514-21.96-64.302-43.554-68.811-34.172-143.785-39.857l-1.574 18.357-.095-.135c35.354 4.868 74.775-1.838 106.765 16.387 17.589 11.41 38.389 19.996 52.072 36.315 33.435 44.711 73.273 84.27 112.485 123.869 35.141 33.759 62.007 75.18 100.347 105.735 33.633 28.646 70.116 54.071 103.057 83.473 29.291 27.46 55.845 58.231 87.49 83.001 18.721 12.37 27.424 33.858 41.889 50.328 8.345 10.758 29.082 4.527 41.581 6.443 21.487 2.166 42.174-6.091 59.993-17.618 23.742-15.934 45.457-34.536 66.946-53.374 19.778-16.612 33.177-39.407 53.821-55.067 46.453-33.874 84.942-76.967 127.436-115.415 26.284-27.361 49.617-57.592 76.057-84.896 31.611-31.831 66.022-61.036 95.256-95.166 15.533-19.202 39.131-31.161 48.872-54.975 2.884-5.478 6.687-7.756 13.186-7.652C-74.26-.54-37.067-.405.124-.112z" style="fill:#231f20;fill-opacity:1;fill-rule:nonzero;stroke:none" transform="matrix(1.33333 0 0 -1.33333 2224.783 6993.676)"/>
<path d="M0 0c-35.533-.047-71.066-.036-106.599-.219-8.395-.545-10.672 7.735-14.152 13.589-4.895 9.28-11.007 17.622-19.449 23.954-22.819 16.825-37.471 41.629-59.065 59.77a5591 5591 0 0 0-66.689 65.192 3248 3248 0 0 0-56.064 63.351c-17.333 20.331-38.534 36.812-56.683 56.388-26.488 23.647-50.832 49.81-79.788 70.543-12.806 9.068-23.87 20.031-33.833 32.221-21.865 25.305-47.162 48.173-74.65 67.243-7.812 5.011-13.556 12.718-22.546 15.965-13.774 8.065-28.218 15.833-44.668 16-13.822-.31-27.651-.39-41.478-.446-9.131.258-13.961-8.764-19.209-14.812-9.697-12.412-16.199-27.933-29.152-37.425-10.024-6.97-19.219-14.9-27.954-23.397-28.891-26.728-55.164-56.458-85.67-81.332-11.839-8.402-22.889-17.845-34.167-26.965-39.442-30.114-78.126-61.591-108.982-100.834-15.188-20.138-33.719-37.284-51.454-55.13-24.52-24.937-49.345-49.639-71.508-76.715-9.128-10.008-18.427-19.822-25.909-31.219-3.483-5.305-7.6-10.311-12.923-13.917-10.061-6.802-20.499-13.091-30.895-19.328-21.283-16.337-45.964-19.553-71.993-20.718-19.914-1.635-39.995-1.786-59.843-3.831l.69-18.174c.167-.202.402-.435.587-.574 35.323 4.067 72.493.398 106.615 11.187 11.837 4.496 21.942 12.143 32.89 18.307 12.478 8.335 27.323 14.854 35.152 28.32 20.631 27.491 43.987 52.984 67.913 77.629 28.613 30.365 59.939 58.331 85.728 91.191 26.408 32.194 57.877 59.378 90.853 84.554 20.778 16.927 42.044 33.324 62.7 50.365 31.778 30.008 61.32 62.865 95.787 89.896 17.957 12.688 25.266 34.663 40.736 49.772 2.445 2.735 5.612 3.976 9.235 4.012 26.844-.186 55.194 4.412 79.096-10.903 40.431-24.813 78.05-55.352 108.566-91.892 22.031-26.495 53.774-42.402 77.011-67.841 23.068-20.281 43.85-42.954 66.734-63.385 28.74-27.076 52.436-59.143 79.705-87.71 21.831-22.68 45.087-44.035 67.686-65.961 20.718-17.85 35.102-41.759 57.145-58.192 10.783-7.845 17.527-19.486 23.549-31.134 2.473-4.756 6.014-6.721 11.658-6.674 36.88.263 73.764.261 110.645.171V0C3.273 0 1.637.002 0 0" style="fill:#231f20;fill-opacity:1;fill-rule:nonzero;stroke:none" transform="matrix(1.33333 0 0 -1.33333 2215.446 6096.815)"/>
<path d="M0 0c-2.791 143.91-6.194 287.624-8.375 431.567.026.006-.11.053-.083.06.014.457-.258.849-.367 1.324-6.599-2.23-12.832-.344-18.907-4.125l13.108-650.272 18.799 1.111C3.075-146.88 1.494-73.442 0 0" style="fill:#231f20;fill-opacity:1;fill-rule:nonzero;stroke:none" transform="matrix(1.33333 0 0 -1.33333 487.611 6728.841)"/>
<path d="M0 0h18.886l.901-653.903c-6.156-2.9-12.152 1.973-18.143.689l.124-.294C1.475-435.57.61-217.632.099.305Z" style="fill:#231f20;fill-opacity:1;fill-rule:nonzero;stroke:none" transform="matrix(1.33333 0 0 -1.33333 2222.59 6122.515)"/></g>
  <path d="M475 6126.2 L475.9 6150.5 L476 6150.5 L476.1 6150.6 L476.1 6150.7 L476.2 6150.8 L476.3 6150.8 L476.3 6150.9 L476.4 6151 L476.5 6151 L476.5 6151.1 L476.6 6151.1 L476.7 6151.2 L476.7 6151.2 L488.5 6150.1 L500.4 6149.3 L512.4 6148.6 L524.4 6148.2 L536.4 6147.7 L548.4 6147.1 L560.4 6146.4 L572.3 6145.4 L584.1 6144 L595.8 6142 L607.4 6139.5 L618.9 6136.3 L622.8 6134.7 L626.6 6133 L630.3 6131.1 L634 6129.2 L637.6 6127.1 L641.2 6125 L644.8 6122.8 L648.4 6120.6 L651.9 6118.4 L655.5 6116.2 L659.1 6114 L662.7 6111.9 L666.9 6109.2 L671.3 6106.5 L675.6 6103.9 L680 6101.2 L684.3 6098.4 L688.5 6095.6 L692.6 6092.6 L696.5 6089.5 L700.2 6086.1 L703.7 6082.4 L706.8 6078.5 L709.6 6074.2 L716.5 6065 L723.6 6056 L730.9 6047.1 L738.2 6038.3 L745.7 6029.6 L753.2 6021 L760.9 6012.4 L768.6 6003.9 L776.4 5995.5 L784.3 5987.2 L792.2 5978.9 L800.1 5970.7 L809.8 5960.6 L819.5 5950.6 L829.3 5940.7 L839.1 5930.9 L848.9 5921 L858.7 5911.1 L868.4 5901.1 L878 5891.1 L887.5 5880.9 L896.7 5870.5 L905.7 5859.9 L914.5 5849.1 L923.4 5838.5 L932.6 5828.1 L942.1 5818.1 L951.7 5808.2 L961.6 5798.6 L971.7 5789.2 L982 5780 L992.5 5770.9 L1003.1 5762.1 L1013.8 5753.4 L1024.6 5744.8 L1035.6 5736.3 L1042.5 5730.7 L1049.5 5725.1 L1056.5 5719.5 L1063.5 5713.9 L1070.5 5708.4 L1077.4 5702.8 L1084.4 5697.2 L1091.4 5691.7 L1098.4 5686.1 L1105.4 5680.5 L1112.3 5674.8 L1119.2 5669.2 L1129.7 5659.1 L1140.2 5648.9 L1150.6 5638.6 L1160.9 5628.3 L1171.3 5618 L1181.7 5607.8 L1192.2 5597.6 L1202.8 5587.5 L1213.5 5577.6 L1224.4 5567.9 L1235.5 5558.5 L1246.9 5549.3 L1252.6 5544.8 L1257.8 5539.9 L1262.6 5534.6 L1267 5529.1 L1271.3 5523.3 L1275.3 5517.3 L1279.3 5511.3 L1283.3 5505.3 L1287.4 5499.4 L1291.7 5493.7 L1296.3 5488.2 L1301.2 5482.9 L1302.1 5482.1 L1302.9 5481.3 L1303.8 5480.6 L1304.8 5480 L1305.8 5479.4 L1306.8 5478.9 L1307.8 5478.5 L1308.9 5478.2 L1310 5477.9 L1311.2 5477.8 L1312.3 5477.6 L1313.5 5477.6 L1322.5 5477.5 L1331.6 5477.3 L1340.6 5477.1 L1349.7 5476.9 L1358.7 5477 L1367.7 5477.3 L1376.6 5478.1 L1385.4 5479.3 L1394.1 5481.3 L1402.6 5484 L1410.9 5487.6 L1419 5492.1 L1432.4 5500.6 L1445.6 5509.3 L1458.6 5518.4 L1471.4 5527.8 L1484 5537.5 L1496.3 5547.5 L1508.4 5557.9 L1520.1 5568.6 L1531.5 5579.6 L1542.6 5591 L1553.4 5602.6 L1563.7 5614.7 L1571.3 5623.2 L1579.4 5631.3 L1587.8 5638.9 L1596.5 5646.3 L1605.5 5653.4 L1614.5 5660.4 L1623.6 5667.4 L1632.6 5674.4 L1641.4 5681.6 L1650.1 5689.1 L1658.5 5696.9 L1666.4 5705.1 L1674.1 5711.9 L1681.6 5718.9 L1689 5725.9 L1696.4 5733 L1703.7 5740.1 L1711 5747.3 L1718.3 5754.5 L1725.6 5761.6 L1733 5768.7 L1740.4 5775.8 L1747.8 5782.8 L1755.4 5789.6 L1764.9 5798.8 L1774.1 5808.2 L1783.1 5817.8 L1791.9 5827.5 L1800.6 5837.4 L1809.3 5847.4 L1817.9 5857.3 L1826.5 5867.3 L1835.1 5877.3 L1843.8 5887.2 L1852.7 5897 L1861.7 5906.6 L1869 5914.1 L1876.4 5921.6 L1883.8 5929 L1891.3 5936.3 L1898.9 5943.6 L1906.4 5950.9 L1914 5958.2 L1921.6 5965.4 L1929.2 5972.7 L1936.8 5980 L1944.4 5987.2 L1951.9 5994.5 L1958.7 6000.6 L1965.1 6007 L1971.4 6013.6 L1977.4 6020.3 L1983.4 6027.2 L1989.4 6034 L1995.4 6040.8 L2001.4 6047.5 L2007.7 6054.1 L2014.2 6060.4 L2021 6066.4 L2028.1 6072.1 L2031.6 6074.8 L2034.9 6077.7 L2038 6080.8 L2040.9 6084.1 L2043.6 6087.5 L2046.2 6091 L2048.7 6094.6 L2051 6098.3 L2053.2 6102.1 L2055.4 6105.9 L2057.5 6109.7 L2059.5 6113.6 L2060.4 6115.1 L2061.3 6116.5 L2062.3 6117.7 L2063.3 6118.8 L2064.5 6119.7 L2065.7 6120.5 L2067 6121.1 L2068.4 6121.7 L2069.9 6122 L2071.5 6122.3 L2073.2 6122.5 L2075.1 6122.5 L2087.4 6122.4 L2099.7 6122.4 L2111.9 6122.3 L2124.2 6122.3 L2136.5 6122.2 L2148.8 6122.2 L2161.1 6122.2 L2173.4 6122.2 L2185.7 6122.2 L2198 6122.2 L2210.3 6122.3 L2222.6 6122.3 L2222.7 6122.1 L2222.9 6194.8 L2223.1 6267.4 L2223.3 6340 L2223.5 6412.7 L2223.7 6485.3 L2223.9 6558 L2224.2 6630.6 L2224.3 6703.3 L2224.5 6775.9 L2224.7 6848.6 L2224.8 6921.2 L2224.9 6993.9 L2224.8 6993.5 L2226.8 6993.2 L2228.8 6993.2 L2230.8 6993.4 L2232.8 6993.8 L2234.8 6994.3 L2236.8 6994.7 L2238.8 6995.2 L2240.8 6995.5 L2242.9 6995.6 L2224.9 6993.8 L2212.6 6993.9 L2200.2 6994 L2187.8 6994.1 L2175.4 6994.2 L2163 6994.3 L2150.6 6994.4 L2138.2 6994.5 L2125.8 6994.6 L2113.4 6994.7 L2101 6994.8 L2088.6 6995 L2076.2 6995.2 L2074.1 6995.2 L2072.1 6995 L2070.3 6994.7 L2068.6 6994.2 L2067.1 6993.6 L2065.6 6992.9 L2064.2 6992 L2063 6990.9 L2061.8 6989.7 L2060.6 6988.3 L2059.6 6986.7 L2058.6 6985 L2055 6977.4 L2050.7 6970.3 L2045.9 6963.7 L2040.5 6957.6 L2034.9 6951.7 L2028.9 6946 L2022.8 6940.5 L2016.7 6935 L2010.5 6929.5 L2004.6 6923.8 L1998.8 6917.9 L1993.4 6911.7 L1983.6 6900.4 L1973.4 6889.4 L1963.1 6878.6 L1952.6 6868 L1941.9 6857.5 L1931.1 6847.1 L1920.3 6836.8 L1909.4 6826.5 L1898.6 6816.1 L1887.8 6805.8 L1877 6795.3 L1866.4 6784.8 L1857.7 6775.6 L1849.1 6766.3 L1840.6 6756.9 L1832.3 6747.4 L1823.9 6737.8 L1815.7 6728.2 L1807.4 6718.6 L1799.1 6709.1 L1790.7 6699.6 L1782.3 6690.1 L1773.7 6680.8 L1765 6671.6 L1751 6658.7 L1737.1 6645.5 L1723.3 6632.3 L1709.6 6619 L1695.8 6605.6 L1682.1 6592.4 L1668.2 6579.2 L1654.1 6566.3 L1639.8 6553.6 L1625.3 6541.2 L1610.4 6529.3 L1595.1 6517.7 L1588.4 6512.3 L1582.1 6506.6 L1576 6500.6 L1570.1 6494.3 L1564.4 6488 L1558.8 6481.5 L1553.2 6475 L1547.6 6468.5 L1541.8 6462.2 L1535.9 6456 L1529.8 6450 L1523.4 6444.3 L1516.2 6438 L1509 6431.8 L1501.8 6425.6 L1494.5 6419.4 L1487.2 6413.3 L1479.9 6407.3 L1472.4 6401.3 L1464.9 6395.4 L1457.4 6389.7 L1449.7 6384 L1442 6378.5 L1434.1 6373.1 L1428.1 6369.4 L1421.9 6365.9 L1415.6 6362.6 L1409.2 6359.6 L1402.6 6356.9 L1395.9 6354.5 L1389.2 6352.6 L1382.3 6351 L1375.3 6349.9 L1368.3 6349.3 L1361.2 6349.2 L1354.1 6349.6 L1349.7 6350.1 L1345 6350.2 L1340 6350 L1334.8 6349.8 L1329.5 6349.6 L1324.3 6349.5 L1319.2 6349.7 L1314.3 6350.2 L1309.7 6351.2 L1305.5 6352.8 L1301.8 6355.1 L1298.7 6358.2 L1294 6363.9 L1289.6 6369.7 L1285.3 6375.7 L1281.2 6381.7 L1277 6387.8 L1272.9 6393.8 L1268.6 6399.8 L1264.1 6405.5 L1259.4 6411 L1254.3 6416.2 L1248.8 6421 L1242.8 6425.3 L1232.4 6433.8 L1222.2 6442.5 L1212.3 6451.4 L1202.5 6460.6 L1192.8 6469.9 L1183.3 6479.3 L1173.8 6488.8 L1164.4 6498.4 L1154.9 6507.9 L1145.4 6517.4 L1135.9 6526.8 L1126.2 6536 L1115.1 6545.7 L1103.8 6555.2 L1092.5 6564.6 L1081 6573.8 L1069.4 6582.9 L1057.8 6592 L1046.2 6601.1 L1034.5 6610.2 L1023 6619.3 L1011.4 6628.5 L1000 6637.8 L988.7 6647.3 L976.3 6657.8 L964.3 6668.8 L952.9 6680.2 L941.8 6692 L930.9 6704 L920.3 6716.2 L909.7 6728.5 L899.1 6740.8 L888.4 6753 L877.6 6765 L866.5 6776.8 L855 6788.3 L841.9 6801.5 L828.8 6814.7 L815.7 6828 L802.7 6841.3 L789.8 6854.8 L777.1 6868.3 L764.5 6882 L752.1 6895.9 L739.9 6909.9 L727.9 6924.2 L716.3 6938.7 L705 6953.4 L700.2 6958.7 L695.1 6963.5 L689.7 6968 L684.1 6972.3 L678.2 6976.3 L672.2 6980.1 L666.1 6983.8 L659.9 6987.4 L653.7 6990.9 L647.6 6994.5 L641.5 6998.1 L635.5 7001.9 L624.7 7007.3 L613.5 7011.5 L601.9 7014.6 L590.2 7016.9 L578.2 7018.4 L566 7019.5 L553.8 7020.1 L541.6 7020.6 L529.3 7021 L517.1 7021.5 L505.1 7022.4 L493.2 7023.7 L468.1 7024.1 L493.2 7022.6 L492.8 6998.1 L492.4 6973.7 L492 6949.2 L491.5 6924.7 L491.1 6900.2 L490.6 6875.7 L490.1 6851.2 L489.6 6826.8 L489.1 6802.3 L488.6 6777.8 L488.1 6753.3 L487.6 6728.8 L487.6 6728.8 L486.7 6680.9 L485.7 6632.9 L484.7 6585 L483.7 6537 L482.7 6489.1 L481.7 6441.1 L480.8 6393.2 L479.8 6345.3 L478.9 6297.3 L478 6249.4 L477.2 6201.4 L476.4 6153.4 L476.4 6153.4 L476.4 6153.4 L476.4 6153.4 L476.4 6153.4 L476.4 6153.4 L476.4 6153.4 L476.4 6153.4 L476.4 6153.4 L476.3 6153.4 L476.3 6153.3 L476.3 6153.3 L476.3 6153.3 L476.3 6153.2 L476.3 6153 L476.3 6152.9 L476.2 6152.8 L476.2 6152.6 L476.2 6152.5 L476.1 6152.3 L476 6152.2 L476 6152 L475.9 6151.9 L475.9 6151.7 L475.8 6151.6 Z" fill="none" stroke="red" stroke-width="0.5"/>
</svg>