<svg xmlns="http://www.w3.org/2000/svg" viewBox="991.34 1432.19 552.222 441.203" style="background:#f5f5f5">
  <path d="M1207.6 1466.2 L1510.6 1464.3 L1510.8 1463.4 L1511.1 1462 L1511.2 1460.2 L1511.4 1458 L1511.5 1455.7 L1511.6 1453.2 L1511.6 1450.8 L1511.6 1448.4 L1518.5 1464.3 L1515.7 1464.4 L1513.7 1464.9 L1512.3 1465.7 L1511.2 1467 L1510.3 1468.9 L1509.3 1471.5 L1507.9 1474.9 L1506.1 1479.1 L1503.5 1484.4 L1500.2 1489.3 L1496.7 1494.1 L1493.2 1498.9 L1489.6 1503.7 L1486.1 1508.5 L1482.5 1513.3 L1479 1518.1 L1475.5 1523 L1472.1 1527.9 L1468.9 1532.8 L1465.7 1537.9 L1462.7 1543 L1461.1 1547.1 L1459.4 1551.1 L1457.7 1555.1 L1455.9 1559.2 L1454.1 1563.2 L1452.3 1567.1 L1450.4 1571.1 L1448.4 1575 L1446.4 1578.9 L1444.4 1582.8 L1442.2 1586.6 L1440.1 1590.4 L1437.8 1594.8 L1435.3 1599 L1432.6 1603.1 L1429.9 1607.1 L1427.1 1611.1 L1424.2 1615.1 L1421.3 1619.1 L1418.5 1623.1 L1415.8 1627.1 L1413.1 1631.2 L1410.7 1635.4 L1408.4 1639.8 L1405.3 1645.6 L1402.2 1651.5 L1399.1 1657.4 L1396 1663.2 L1392.9 1669.1 L1389.8 1674.9 L1386.8 1680.8 L1383.8 1686.7 L1380.9 1692.7 L1378.1 1698.7 L1375.3 1704.7 L1372.7 1710.8 L1369.1 1718.2 L1365.6 1725.6 L1362.1 1733 L1358.6 1740.5 L1355.2 1747.9 L1351.9 1755.4 L1348.6 1762.9 L1345.4 1770.4 L1342.2 1777.9 L1339.2 1785.5 L1336.2 1793.1 L1333.3 1800.8 L1331.9 1803.8 L1330.8 1806.9 L1330 1810.1 L1329.4 1813.3 L1329 1816.6 L1328.8 1819.9 L1328.6 1823.2 L1328.4 1826.5 L1328.3 1829.8 L1328.1 1833.1 L1327.7 1836.4 L1327.2 1839.6 L1327.2 1839.6 L1302 1839.7 L1276.7 1839.7 L1251.5 1839.8 L1226.2 1839.8 L1201 1839.9 L1175.7 1840 L1150.5 1840 L1125.2 1840.1 L1100 1840.1 L1074.7 1840.2 L1049.5 1840.2 L1024.2 1840.2 L1024.2 1863.4 L1023.8 1840 L1024.1 1836.9 L1024.4 1833.8 L1024.5 1830.6 L1024.7 1827.5 L1024.8 1824.3 L1024.9 1821.2 L1025.1 1818 L1025.5 1814.9 L1025.9 1811.9 L1026.6 1808.8 L1027.5 1805.8 L1028.6 1802.9 L1030.3 1799.6 L1031.9 1796.2 L1033.3 1792.7 L1034.6 1789.2 L1035.8 1785.6 L1037 1782.1 L1038.2 1778.5 L1039.3 1775 L1040.6 1771.4 L1041.9 1767.9 L1043.3 1764.5 L1044.8 1761.1 L1046.3 1758.5 L1047.6 1755.9 L1049 1753.3 L1050.3 1750.7 L1051.5 1748 L1052.8 1745.4 L1054 1742.7 L1055.2 1740 L1056.4 1737.3 L1057.6 1734.7 L1058.8 1732 L1060.1 1729.3 L1064.2 1720.4 L1068.4 1711.5 L1072.6 1702.6 L1076.8 1693.7 L1081 1684.9 L1085.4 1676.1 L1089.8 1667.3 L1094.3 1658.6 L1099 1649.9 L1103.7 1641.3 L1108.6 1632.8 L1113.7 1624.4 L1117.8 1618.7 L1121.9 1612.8 L1125.8 1606.9 L1129.7 1601 L1133.4 1594.9 L1137 1588.8 L1140.5 1582.6 L1143.8 1576.4 L1147 1570 L1150 1563.6 L1152.8 1557.1 L1155.5 1550.5 L1156.4 1548.3 L1157.3 1546.1 L1158.3 1544 L1159.3 1541.9 L1160.3 1539.8 L1161.5 1537.8 L1162.6 1535.7 L1163.9 1533.7 L1165.1 1531.8 L1166.5 1529.8 L1167.9 1527.9 L1169.3 1526 L1171.5 1523.5 L1173.5 1520.8 L1175.5 1518.1 L1177.3 1515.4 L1179.2 1512.6 L1181 1509.8 L1182.9 1507 L1184.7 1504.2 L1186.6 1501.5 L1188.5 1498.8 L1190.5 1496.1 L1192.6 1493.6 L1194.3 1491.6 L1195.9 1489.5 L1197.4 1487.5 L1198.7 1485.3 L1200 1483.1 L1201.2 1480.9 L1202.3 1478.6 L1203.3 1476.3 L1204.3 1473.9 L1205.2 1471.6 L1206.1 1469.2 L1207 1466.8 L1207 1466.8 L1205.3 1466.8 L1203.7 1466.8 L1202 1466.7 L1200.4 1466.7 L1198.8 1466.7 L1197.2 1466.7 L1195.6 1466.7 Z" fill="rgba(0,120,255,0.2)" stroke="blue" stroke-width="1.5"/>
  <g opacity="0.5"><path d="M0 0c-2.518-7.284-5.491-14.274-10.758-20.102-6.473-7.613-10.884-16.779-17.477-24.358-4.419-5.601-7.83-11.721-10.367-18.366-7.776-19.856-18.766-38.273-31.348-55.414-15.451-25.108-27.772-51.999-40.227-78.685-3.752-7.973-6.993-16.192-11.447-23.805-4.84-10.155-6.712-21.458-12.151-31.393-3.833-8.675-2.32-18.579-3.611-27.797h-16.833c.497 9.953-.134 20.537 4.373 29.688 2.619 5.656 4.952 11.418 6.606 17.415 4.835 14.467 13.021 27.547 18.745 41.703 9.946 22.194 21.098 43.758 32.617 65.107 10.492 15.791 21.597 31.309 29.73 48.526 5.661 11.439 9.07 24.256 17.668 33.998 4.191 5.006 7.673 10.465 11.139 15.967 5.688 8.017 12.714 15.195 15.328 24.96.831 2.507.806 2.54 3.417 2.551C-9.771.013-4.946 0 0 0" style="fill:#231f20;fill-opacity:1;fill-rule:nonzero;stroke:none" transform="matrix(1.33333 0 0 -1.33333 1206.965 1466.752)"/>
<path d="M0 0c1.786 9.602-.217 20.192 4.568 29.093C13.1 52.197 23.346 74.389 34.129 96.585c7.662 18.415 17.608 35.622 26.742 53.294 6.514 13.199 17.212 23.785 23.76 37.012 6.639 11.396 12.108 23.343 17.009 35.576 8.702 15.535 20.664 29.203 30.586 43.958 9.021 17.24 1.068 15.229 22.532 14.701-4.989-17.743-18.566-31.368-28.714-46.39-8.809-11.101-12.27-25.125-18.979-37.427-5.816-11.208-12.058-22.254-19.74-32.311-17.77-26.614-30.559-56.231-44.12-85.144-8.088-16.267-15.059-32.772-21.353-49.785-4.635-9.355-3.62-19.558-4.744-29.74C11.429.2 5.623.593-.036.034Z" style="fill:#231f20;fill-opacity:1;fill-rule:nonzero;stroke:none" transform="matrix(1.33333 0 0 -1.33333 1327.217 1839.608)"/>
<path d="M0 0v-17.339l-227.21-.536V-.51c75.756.066 151.491.343 227.245.477z" style="fill:#231f20;fill-opacity:1;fill-rule:nonzero;stroke:none" transform="matrix(1.33333 0 0 -1.33333 1327.17 1839.563)"/>
<path d="M0 0c1.62 5.569.648 11.305.988 17.097l226.661.923c.662-1.687.328-14.859-.407-16.549z" style="fill:#231f20;fill-opacity:1;fill-rule:nonzero;stroke:none" transform="matrix(1.33333 0 0 -1.33333 1207.626 1466.214)"/></g>
  <path d="M1207.6 1466.2 L1510.6 1464.3 L1510.8 1463.4 L1511.1 1462 L1511.2 1460.2 L1511.4 1458 L1511.5 1455.7 L1511.6 1453.2 L1511.6 1450.8 L1511.6 1448.4 L1518.5 1464.3 L1515.7 1464.4 L1513.7 1464.9 L1512.3 1465.7 L1511.2 1467 L1510.3 1468.9 L1509.3 1471.5 L1507.9 1474.9 L1506.1 1479.1 L1503.5 1484.4 L1500.2 1489.3 L1496.7 1494.1 L1493.2 1498.9 L1489.6 1503.7 L1486.1 1508.5 L1482.5 1513.3 L1479 1518.1 L1475.5 1523 L1472.1 1527.9 L1468.9 1532.8 L1465.7 1537.9 L1462.7 1543 L1461.1 1547.1 L1459.4 1551.1 L1457.7 1555.1 L1455.9 1559.2 L1454.1 1563.2 L1452.3 1567.1 L1450.4 1571.1 L1448.4 1575 L1446.4 1578.9 L1444.4 1582.8 L1442.2 1586.6 L1440.1 1590.4 L1437.8 1594.8 L1435.3 1599 L1432.6 1603.1 L1429.9 1607.1 L1427.1 1611.1 L1424.2 1615.1 L1421.3 1619.1 L1418.5 1623.1 L1415.8 1627.1 L1413.1 1631.2 L1410.7 1635.4 L1408.4 1639.8 L1405.3 1645.6 L1402.2 1651.5 L1399.1 1657.4 L1396 1663.2 L1392.9 1669.1 L1389.8 1674.9 L1386.8 1680.8 L1383.8 1686.7 L1380.9 1692.7 L1378.1 1698.7 L1375.3 1704.7 L1372.7 1710.8 L1369.1 1718.2 L1365.6 1725.6 L1362.1 1733 L1358.6 1740.5 L1355.2 1747.9 L1351.9 1755.4 L1348.6 1762.9 L1345.4 1770.4 L1342.2 1777.9 L1339.2 1785.5 L1336.2 1793.1 L1333.3 1800.8 L1331.9 1803.8 L1330.8 1806.9 L1330 1810.1 L1329.4 1813.3 L1329 1816.6 L1328.8 1819.9 L1328.6 1823.2 L1328.4 1826.5 L1328.3 1829.8 L1328.1 1833.1 L1327.7 1836.4 L1327.2 1839.6 L1327.2 1839.6 L1302 1839.7 L1276.7 1839.7 L1251.5 1839.8 L1226.2 1839.8 L1201 1839.9 L1175.7 1840 L1150.5 1840 L1125.2 1840.1 L1100 1840.1 L1074.7 1840.2 L1049.5 1840.2 L1024.2 1840.2 L1024.2 1863.4 L1023.8 1840 L1024.1 1836.9 L1024.4 1833.8 L1024.5 1830.6 L1024.7 1827.5 L1024.8 1824.3 L1024.9 1821.2 L1025.1 1818 L1025.5 1814.9 L1025.9 1811.9 L1026.6 1808.8 L1027.5 1805.8 L1028.6 1802.9 L1030.3 1799.6 L1031.9 1796.2 L1033.3 1792.7 L1034.6 1789.2 L1035.8 1785.6 L1037 1782.1 L1038.2 1778.5 L1039.3 1775 L1040.6 1771.4 L1041.9 1767.9 L1043.3 1764.5 L1044.8 1761.1 L1046.3 1758.5 L1047.6 1755.9 L1049 1753.3 L1050.3 1750.7 L1051.5 1748 L1052.8 1745.4 L1054 1742.7 L1055.2 1740 L1056.4 1737.3 L1057.6 1734.7 L1058.8 1732 L1060.1 1729.3 L1064.2 1720.4 L1068.4 1711.5 L1072.6 1702.6 L1076.8 1693.7 L1081 1684.9 L1085.4 1676.1 L1089.8 1667.3 L1094.3 1658.6 L1099 1649.9 L1103.7 1641.3 L1108.6 1632.8 L1113.7 1624.4 L1117.8 1618.7 L1121.9 1612.8 L1125.8 1606.9 L1129.7 1601 L1133.4 1594.9 L1137 1588.8 L1140.5 1582.6 L1143.8 1576.4 L1147 1570 L1150 1563.6 L1152.8 1557.1 L1155.5 1550.5 L1156.4 1548.3 L1157.3 1546.1 L1158.3 1544 L1159.3 1541.9 L1160.3 1539.8 L1161.5 1537.8 L1162.6 1535.7 L1163.9 1533.7 L1165.1 1531.8 L1166.5 1529.8 L1167.9 1527.9 L1169.3 1526 L1171.5 1523.5 L1173.5 1520.8 L1175.5 1518.1 L1177.3 1515.4 L1179.2 1512.6 L1181 1509.8 L1182.9 1507 L1184.7 1504.2 L1186.6 1501.5 L1188.5 1498.8 L1190.5 1496.1 L1192.6 1493.6 L1194.3 1491.6 L1195.9 1489.5 L1197.4 1487.5 L1198.7 1485.3 L1200 1483.1 L1201.2 1480.9 L1202.3 1478.6 L1203.3 1476.3 L1204.3 1473.9 L1205.2 1471.6 L1206.1 1469.2 L1207 1466.8 L1207 1466.8 L1205.3 1466.8 L1203.7 1466.8 L1202 1466.7 L1200.4 1466.7 L1198.8 1466.7 L1197.2 1466.7 L1195.6 1466.7 Z" fill="none" stroke="red" stroke-width="0.5"/>
</svg>