<svg xmlns="http://www.w3.org/2000/svg" viewBox="2793.86 4807.03 1152.829 644.206" style="background:#f5f5f5">
  <path d="M3352.3 4819.7 L3352.3 4841.3 L3382 4841.3 L3411.8 4841.4 L3441.5 4841.3 L3471.2 4841.3 L3501 4841.2 L3530.7 4841.2 L3560.5 4841.1 L3590.2 4841 L3620 4840.9 L3649.7 4840.8 L3679.4 4840.7 L3709.2 4840.7 L3709.2 4840.7 L3726.1 4840.6 L3743.1 4840.6 L3760 4840.5 L3777 4840.5 L3793.9 4840.5 L3810.8 4840.4 L3827.8 4840.4 L3844.7 4840.3 L3861.6 4840.3 L3878.6 4840.3 L3895.5 4840.3 L3912.5 4840.2 L3912.5 4840.2 L3912.7 4839.7 L3912.9 4838.5 L3913 4836.7 L3913 4834.3 L3913.1 4831.7 L3577.3 5095.1 L3574.1 5098 L3570.7 5100.7 L3566.7 5104.2 L3562.6 5107.7 L3558.6 5111.2 L3554.5 5114.7 L3550.4 5118.2 L3546.3 5121.7 L3542.3 5125.3 L3538.4 5129 L3534.5 5132.7 L3530.8 5136.5 L3527.1 5140.5 L3523.6 5144.5 L3520.9 5147.9 L3518 5151.2 L3515.1 5154.4 L3512.1 5157.6 L3509.1 5160.7 L3506 5163.8 L3502.8 5166.7 L3499.6 5169.7 L3496.4 5172.5 L3493.1 5175.4 L3489.7 5178.1 L3486.3 5180.9 L3480 5186.1 L3473.9 5191.6 L3468.1 5197.3 L3462.4 5203.2 L3457 5209.3 L3451.7 5215.6 L3446.6 5221.9 L3441.5 5228.4 L3436.6 5234.9 L3431.7 5241.5 L3426.9 5248.1 L3422 5254.7 L3420.1 5257.5 L3418.4 5260.4 L3416.8 5263.3 L3415.5 5266.3 L3414.3 5269.3 L3413.3 5272.4 L3412.5 5275.5 L3411.8 5278.7 L3411.3 5282 L3411 5285.3 L3410.8 5288.7 L3410.8 5292.1 L3411 5302.3 L3411.2 5312.5 L3411.4 5322.7 L3411.5 5332.9 L3388.3 5414.8 L3341.6 5415 L3294.9 5415.3 L3248.2 5415.5 L3201.5 5415.6 L3154.8 5415.8 L3108.1 5416 L3061.4 5416.2 L3014.7 5416.4 L2968 5416.6 L2921.3 5417 L2874.6 5417.4 L2827.9 5417.8 L2828.1 5417.7 L2827.9 5419.7 L2827.7 5421.6 L2827.6 5423.5 L2827.6 5425.5 L2954.4 5128.3 L2959 5124 L2963.8 5119.8 L2968.6 5115.6 L2973.4 5111.5 L2978.2 5107.4 L2983.1 5103.3 L2987.9 5099.2 L2992.7 5095 L2995.3 5092.4 L2997.7 5089.7 L3000.1 5086.9 L3002.4 5084 L3004.7 5081.2 L3007 5078.3 L3009.3 5075.5 L3011.8 5072.8 L3014.3 5070.2 L3017 5067.7 L3019.8 5065.4 L3022.9 5063.3 L3027.8 5060 L3032.8 5056.8 L3037.9 5053.6 L3043 5050.5 L3048.1 5047.4 L3053.3 5044.4 L3058.4 5041.4 L3063.6 5038.5 L3068.8 5035.5 L3074 5032.6 L3079.2 5029.6 L3084.3 5026.6 L3099.6 5018.1 L3114.9 5009.6 L3130.3 5001.3 L3145.9 4993.2 L3161.5 4985.3 L3177.3 4977.6 L3193.2 4970.2 L3209.2 4963 L3225.3 4956.2 L3241.5 4949.7 L3257.9 4943.6 L3274.5 4937.9 L3295.7 4932 L3312.7 4927.9 L3326 4924.8 L3336 4922.2 L3343.1 4919.4 L3347.9 4915.8 L3350.7 4910.8 L3352 4903.6 L3352.4 4893.7 L3352.1 4880.5 L3351.8 4863.2 L3351.7 4841.3 L3351.9 4841.4 L3328.9 4841.8 L3328.8 4862.3 L3329.1 4878.6 L3329.4 4891.4 L3329.3 4901.2 L3328.2 4908.6 L3325.8 4914 L3321.6 4918 L3315 4921.2 L3305.7 4924.2 L3293.2 4927.3 L3277.1 4931.3 L3256.8 4936.6 L3239.9 4942.1 L3223.2 4948.1 L3206.7 4954.6 L3190.3 4961.4 L3174 4968.6 L3157.9 4976.1 L3141.9 4983.8 L3126 4991.8 L3110.2 5000 L3094.5 5008.4 L3079 5017 L3063.5 5025.6 L3055.6 5030.3 L3047.5 5034.8 L3039.3 5039.2 L3031.2 5043.7 L3023.1 5048.3 L3015.2 5053.1 L3007.5 5058.2 L3000 5063.6 L2993 5069.4 L2986.4 5075.7 L2980.3 5082.6 L2974.8 5090.2 L2969.8 5094.7 L2964.7 5099.2 L2959.6 5103.5 Z" fill="rgba(0,120,255,0.2)" stroke="blue" stroke-width="1.5"/>
  <g opacity="0.5"><path d="M0 0c-.003.713-.299 1.425-.523 2.425h-16.99C-19.301-63.937-.715-51.808-68.439-69.328c-47.141-13.927-91.437-36.736-134.551-60.08-22.079-14.012-61.519-29.797-75.448-50.786-9.717-13.006-24.276-21.555-35.763-32.93-13.283-12.568-23.791-27.94-38.671-38.82-20.433-16.326-35.98-37.379-50.906-58.586-5.179-7.33-7.391-15.574-7.287-24.59.387-31.178.42-62.358.792-93.536l17.364.247c-.288 30.575-.647 61.049-1.251 91.607-.22 10.409 2.307 19.754 8.404 28.096 14.502 19.765 28.774 40.014 48.199 55.368 10.243 8.103 19.754 17.021 27.999 27.244 10.281 12.434 23.306 22.235 35.317 32.91 10.647 7.489 15.517 20.468 26.646 27.31 69.73 43.214 142.982 84.444 223.341 103.545 8.075 3.754 24.57 3.248 24.477 14.75C-.03-31.721.065-15.86 0 0" style="fill:#231f20;fill-opacity:1;fill-rule:nonzero;stroke:none" transform="matrix(1.33333 0 0 -1.33333 3936.39 4843.079)"/>
<path d="M0 0h-17.499c-.579 34.691-1.647 69.466-.591 104.141 9.23 29.967 37.689 57.217 60.94 77.804 8.314 6.641 15.702 14.254 22.443 22.518 12.726 15.884 29.571 27.428 44.382 41.167 15.516 23.781 43.03 34.217 66.508 48.454 46.324 26.013 94.168 50.822 144.958 66.764 67.574 18.437 52.511 3.048 54.098 71.05l17.249.338-.117.086c-.9-73.387 12.513-51.569-57.956-72.482-49.807-16.501-97.002-40.679-142.597-66.515-15.476-9.003-31.299-17.401-46.092-27.546-9.557-5.924-14.659-16.143-22.628-23.737-14.24-12.633-29.771-23.945-41.67-39.011-6.002-7.369-12.739-14.005-20.01-20.09-11.191-9.366-22.296-18.782-31.383-30.346-12.959-17.682-32.574-34.56-31.431-58.314.599-31.451.161-62.932 1.284-94.375Z" style="fill:#231f20;fill-opacity:1;fill-rule:nonzero;stroke:none" transform="matrix(1.33333 0 0 -1.33333 2828.576 5417.711)"/>
<path d="M0 0v-17.752l-420.104-2.21c.076 6.024-.727 11.822.147 17.645l-.204-.094C-280.06-.84-139.94-1.021.168-.106z" style="fill:#231f20;fill-opacity:1;fill-rule:nonzero;stroke:none" transform="matrix(1.33333 0 0 -1.33333 3388.076 5414.622)"/>
<path d="M0 0c50.885.112 101.574.255 152.482.322l-.001.001c.875.132.068 16.734.362 17.097-11.924.962-413.767-.616-420.526-1.681V-.471C-178.456-.72-89.228-.116 0 0" style="fill:#231f20;fill-opacity:1;fill-rule:nonzero;stroke:none" transform="matrix(1.33333 0 0 -1.33333 3709.184 4840.655)"/></g>
  <path d="M3352.3 4819.7 L3352.3 4841.3 L3382 4841.3 L3411.8 4841.4 L3441.5 4841.3 L3471.2 4841.3 L3501 4841.2 L3530.7 4841.2 L3560.5 4841.1 L3590.2 4841 L3620 4840.9 L3649.7 4840.8 L3679.4 4840.7 L3709.2 4840.7 L3709.2 4840.7 L3726.1 4840.6 L3743.1 4840.6 L3760 4840.5 L3777 4840.5 L3793.9 4840.5 L3810.8 4840.4 L3827.8 4840.4 L3844.7 4840.3 L3861.6 4840.3 L3878.6 4840.3 L3895.5 4840.3 L3912.5 4840.2 L3912.5 4840.2 L3912.7 4839.7 L3912.9 4838.5 L3913 4836.7 L3913 4834.3 L3913.1 4831.7 L3577.3 5095.1 L3574.1 5098 L3570.7 5100.7 L3566.7 5104.2 L3562.6 5107.7 L3558.6 5111.2 L3554.5 5114.7 L3550.4 5118.2 L3546.3 5121.7 L3542.3 5125.3 L3538.4 5129 L3534.5 5132.7 L3530.8 5136.5 L3527.1 5140.5 L3523.6 5144.5 L3520.9 5147.9 L3518 5151.2 L3515.1 5154.4 L3512.1 5157.6 L3509.1 5160.7 L3506 5163.8 L3502.8 5166.7 L3499.6 5169.7 L3496.4 5172.5 L3493.1 5175.4 L3489.7 5178.1 L3486.3 5180.9 L3480 5186.1 L3473.9 5191.6 L3468.1 5197.3 L3462.4 5203.2 L3457 5209.3 L3451.7 5215.6 L3446.6 5221.9 L3441.5 5228.4 L3436.6 5234.9 L3431.7 5241.5 L3426.9 5248.1 L3422 5254.7 L3420.1 5257.5 L3418.4 5260.4 L3416.8 5263.3 L3415.5 5266.3 L3414.3 5269.3 L3413.3 5272.4 L3412.5 5275.5 L3411.8 5278.7 L3411.3 5282 L3411 5285.3 L3410.8 5288.7 L3410.8 5292.1 L3411 5302.3 L3411.2 5312.5 L3411.4 5322.7 L3411.5 5332.9 L3388.3 5414.8 L3341.6 5415 L3294.9 5415.3 L3248.2 5415.5 L3201.5 5415.6 L3154.8 5415.8 L3108.1 5416 L3061.4 5416.2 L3014.7 5416.4 L2968 5416.6 L2921.3 5417 L2874.6 5417.4 L2827.9 5417.8 L2828.1 5417.7 L2827.9 5419.7 L2827.7 5421.6 L2827.6 5423.5 L2827.6 5425.5 L2954.4 5128.3 L2959 5124 L2963.8 5119.8 L2968.6 5115.6 L2973.4 5111.5 L2978.2 5107.4 L2983.1 5103.3 L2987.9 5099.2 L2992.7 5095 L2995.3 5092.4 L2997.7 5089.7 L3000.1 5086.9 L3002.4 5084 L3004.7 5081.2 L3007 5078.3 L3009.3 5075.5 L3011.8 5072.8 L3014.3 5070.2 L3017 5067.7 L3019.8 5065.4 L3022.9 5063.3 L3027.8 5060 L3032.8 5056.8 L3037.9 5053.6 L3043 5050.5 L3048.1 5047.4 L3053.3 5044.4 L3058.4 5041.4 L3063.6 5038.5 L3068.8 5035.5 L3074 5032.6 L3079.2 5029.6 L3084.3 5026.6 L3099.6 5018.1 L3114.9 5009.6 L3130.3 5001.3 L3145.9 4993.2 L3161.5 4985.3 L3177.3 4977.6 L3193.2 4970.2 L3209.2 4963 L3225.3 4956.2 L3241.5 4949.7 L3257.9 4943.6 L3274.5 4937.9 L3295.7 4932 L3312.7 4927.9 L3326 4924.8 L3336 4922.2 L3343.1 4919.4 L3347.9 4915.8 L3350.7 4910.8 L3352 4903.6 L3352.4 4893.7 L3352.1 4880.5 L3351.8 4863.2 L3351.7 4841.3 L3351.9 4841.4 L3328.9 4841.8 L3328.8 4862.3 L3329.1 4878.6 L3329.4 4891.4 L3329.3 4901.2 L3328.2 4908.6 L3325.8 4914 L3321.6 4918 L3315 4921.2 L3305.7 4924.2 L3293.2 4927.3 L3277.1 4931.3 L3256.8 4936.6 L3239.9 4942.1 L3223.2 4948.1 L3206.7 4954.6 L3190.3 4961.4 L3174 4968.6 L3157.9 4976.1 L3141.9 4983.8 L3126 4991.8 L3110.2 5000 L3094.5 5008.4 L3079 5017 L3063.5 5025.6 L3055.6 5030.3 L3047.5 5034.8 L3039.3 5039.2 L3031.2 5043.7 L3023.1 5048.3 L3015.2 5053.1 L3007.5 5058.2 L3000 5063.6 L2993 5069.4 L2986.4 5075.7 L2980.3 5082.6 L2974.8 5090.2 L2969.8 5094.7 L2964.7 5099.2 L2959.6 5103.5 Z" fill="none" stroke="red" stroke-width="0.5"/>
</svg>