<svg xmlns="http://www.w3.org/2000/svg" viewBox="398.516 2057.76 1818.337 1077.035" style="background:#f5f5f5">
  <path d="M408.5 2768.9 L426 3100.9 L451.2 3100.3 L451.1 3100.5 L449.8 3072.7 L448.5 3045 L447.1 3017.2 L445.6 2989.5 L444.1 2961.8 L442.6 2934 L441.1 2906.3 L439.6 2878.5 L438.2 2850.8 L436.8 2823.1 L435.5 2795.3 L434.3 2767.5 L446.2 2766.4 L458.1 2765.5 L470.1 2764.9 L482.1 2764.4 L494.1 2764 L506.1 2763.4 L518.1 2762.7 L530 2761.7 L541.9 2760.3 L553.6 2758.3 L565.3 2755.8 L576.8 2752.6 L583.2 2749.6 L589.6 2746.4 L595.9 2743.1 L602.1 2739.6 L608.2 2736 L614.3 2732.2 L620.4 2728.4 L626.4 2724.6 L632.4 2720.7 L638.4 2716.8 L644.3 2712.9 L650.3 2709.1 L652.1 2707.8 L653.8 2706.5 L655.4 2705.1 L656.9 2703.7 L658.4 2702.2 L659.8 2700.6 L661.2 2699 L662.6 2697.4 L663.9 2695.7 L665.1 2693.9 L666.3 2692.2 L667.5 2690.4 L669.9 2686.7 L672.5 2683.1 L675.2 2679.6 L677.9 2676.1 L680.7 2672.7 L683.5 2669.3 L686.4 2665.9 L689.3 2662.6 L692.3 2659.4 L695.2 2656.1 L698.2 2652.8 L701.2 2649.5 L710.6 2638.5 L720.1 2627.5 L729.8 2616.7 L739.6 2606.1 L749.6 2595.5 L759.6 2585 L769.7 2574.6 L779.9 2564.2 L790.1 2553.9 L800.3 2543.6 L810.6 2533.3 L820.8 2523.1 L832.2 2511.2 L843.3 2499 L854.2 2486.7 L865.1 2474.3 L875.9 2461.9 L886.7 2449.6 L897.7 2437.4 L908.9 2425.4 L920.4 2413.7 L932.3 2402.4 L944.6 2391.4 L957.4 2381 L969.7 2371 L982.1 2361.2 L994.5 2351.5 L1007 2341.8 L1019.5 2332.1 L1032 2322.3 L1044.3 2312.5 L1056.5 2302.4 L1068.5 2292.2 L1080.3 2281.7 L1091.8 2270.9 L1103 2259.8 L1109.2 2253.8 L1115.5 2247.8 L1121.7 2241.7 L1127.9 2235.7 L1134.1 2229.7 L1140.4 2223.7 L1146.6 2217.6 L1152.8 2211.6 L1159.1 2205.6 L1165.4 2199.6 L1171.6 2193.7 L1177.9 2187.7 L1182 2184 L1186.2 2180.4 L1190.5 2176.9 L1194.8 2173.5 L1199.2 2170.1 L1203.6 2166.7 L1207.9 2163.2 L1212 2159.6 L1216 2155.8 L1219.8 2151.9 L1223.4 2147.7 L1226.6 2143.1 L1228.3 2140.6 L1230 2138 L1231.7 2135.4 L1233.4 2132.9 L1235.2 2130.3 L1236.9 2127.8 L1238.7 2125.2 L1240.4 2122.7 L1242.2 2120.1 L1244 2117.6 L1245.7 2115.1 L1247.5 2112.6 L1249.2 2110.7 L1250.8 2108.6 L1252.5 2106.5 L1254.2 2104.4 L1255.9 2102.4 L1257.7 2100.4 L1259.7 2098.6 L1261.7 2097 L1263.9 2095.7 L1266.2 2094.7 L1268.7 2094.1 L1271.4 2093.9 L1276.6 2093.8 L1281.7 2093.8 L1286.9 2093.7 L1292.1 2093.7 L1297.2 2093.6 L1302.4 2093.6 L1307.5 2093.5 L1312.7 2093.5 L1317.9 2093.5 L1323 2093.5 L1328.2 2093.5 L1333.3 2093.5 L1348.7 2096.9 L1365 2103.2 L1382.2 2111.8 L1399.8 2122.4 L1417.6 2134.6 L1435.2 2148 L1452.4 2162.1 L1468.9 2176.7 L1484.3 2191.3 L1498.5 2205.4 L1511 2218.8 L1521.6 2230.9 L1529.2 2239.5 L1537.3 2247.5 L1545.7 2255.2 L1554.4 2262.5 L1563.3 2269.7 L1572.4 2276.7 L1581.4 2283.7 L1590.4 2290.7 L1599.3 2297.9 L1608 2305.4 L1616.3 2313.2 L1624.3 2321.4 L1631.9 2328.2 L1639.5 2335.1 L1646.9 2342.2 L1654.3 2349.3 L1661.6 2356.4 L1668.9 2363.6 L1676.2 2370.7 L1683.5 2377.9 L1690.8 2385 L1698.2 2392.1 L1705.7 2399 L1713.3 2405.9 L1722.7 2415.1 L1731.9 2424.5 L1740.9 2434.1 L1749.8 2443.8 L1758.5 2453.7 L1767.2 2463.6 L1775.8 2473.6 L1784.4 2483.6 L1793 2493.6 L1801.7 2503.5 L1810.6 2513.2 L1819.6 2522.9 L1826.9 2530.4 L1834.3 2537.8 L1841.7 2545.2 L1849.2 2552.6 L1856.7 2559.9 L1864.3 2567.2 L1871.9 2574.5 L1879.5 2581.7 L1887.1 2589 L1894.7 2596.2 L1902.3 2603.5 L1909.8 2610.8 L1916.5 2616.9 L1923 2623.3 L1929.2 2629.9 L1935.3 2636.6 L1941.3 2643.5 L1947.2 2650.3 L1953.2 2657.1 L1959.3 2663.8 L1965.6 2670.4 L1972.1 2676.7 L1978.9 2682.7 L1986 2688.4 L1989.5 2691.1 L1992.8 2694 L1995.8 2697.1 L1998.7 2700.4 L2001.5 2703.7 L2004.1 2707.2 L2006.5 2710.9 L2008.9 2714.6 L2011.1 2718.3 L2013.3 2722.2 L2015.4 2726 L2017.4 2729.9 L2018.3 2731.4 L2019.2 2732.8 L2020.2 2734 L2021.2 2735 L2022.4 2736 L2023.6 2736.8 L2024.9 2737.4 L2026.3 2737.9 L2027.8 2738.3 L2029.4 2738.6 L2031.1 2738.8 L2032.9 2738.8 L2045.2 2738.7 L2057.5 2738.7 L2069.9 2738.6 L2082.2 2738.6 L2094.5 2738.5 L2106.8 2738.5 L2119.1 2738.5 L2131.4 2738.5 L2143.7 2738.5 L2156 2738.5 L2168.3 2738.5 L2180.6 2738.6 L2180.6 2738.6 L2180.8 2766.2 L2181 2793.9 L2181.2 2821.6 L2181.4 2849.3 L2181.6 2876.9 L2181.8 2904.6 L2182 2932.3 L2182.2 2959.9 L2182.4 2987.6 L2182.6 3015.3 L2182.7 3042.9 L2182.8 3070.6 L2182.7 3070.5 L2184.7 3070.4 L2186.7 3070.4 L2188.7 3070.4 L2190.7 3070.6 L2192.7 3070.8 L2194.7 3070.9 L2196.7 3071.1 L2198.7 3071.2 L2200.7 3071.3 L2182.8 3070.6 L2170.4 3070.7 L2158 3070.8 L2145.6 3070.9 L2133.2 3071 L2120.8 3071 L2108.4 3071.1 L2096 3071.2 L2083.7 3071.4 L2071.3 3071.5 L2058.9 3071.6 L2046.5 3071.8 L2034.1 3072 L2032 3071.9 L2030 3071.8 L2028.2 3071.5 L2026.5 3071 L2024.9 3070.4 L2023.5 3069.7 L2022.1 3068.8 L2020.8 3067.7 L2019.6 3066.5 L2018.5 3065.1 L2017.5 3063.5 L2016.5 3061.8 L2012.9 3054.2 L2008.6 3047.1 L2003.7 3040.5 L1998.4 3034.4 L1992.7 3028.5 L1986.8 3022.8 L1980.7 3017.3 L1974.5 3011.8 L1968.4 3006.3 L1962.4 3000.6 L1956.7 2994.7 L1951.3 2988.5 L1941.4 2977.2 L1931.3 2966.2 L1921 2955.4 L1910.4 2944.8 L1899.8 2934.3 L1889 2923.9 L1878.2 2913.5 L1867.3 2903.2 L1856.5 2892.9 L1845.7 2882.6 L1834.9 2872.1 L1824.3 2861.6 L1815.6 2852.4 L1807 2843.1 L1798.5 2833.7 L1790.1 2824.2 L1781.8 2814.6 L1773.5 2805 L1765.3 2795.4 L1756.9 2785.9 L1748.6 2776.4 L1740.1 2766.9 L1731.6 2757.6 L1722.9 2748.4 L1708.8 2735.5 L1695 2722.3 L1681.2 2709.1 L1667.4 2695.8 L1653.7 2682.4 L1639.9 2669.2 L1626 2656 L1612 2643.1 L1597.7 2630.4 L1583.2 2618 L1568.3 2606 L1553 2594.5 L1546.3 2589.1 L1540 2583.4 L1533.9 2577.3 L1528 2571.1 L1522.3 2564.7 L1516.7 2558.3 L1511.1 2551.8 L1505.4 2545.3 L1499.7 2539 L1493.8 2532.8 L1487.7 2526.8 L1481.2 2521.1 L1474.1 2514.8 L1466.9 2508.6 L1459.7 2502.4 L1452.4 2496.2 L1445.1 2490.1 L1437.7 2484.1 L1430.3 2478.1 L1422.8 2472.2 L1415.2 2466.5 L1407.6 2460.8 L1399.8 2455.3 L1392 2449.9 L1386 2446.2 L1379.8 2442.6 L1373.5 2439.4 L1367 2436.4 L1360.5 2433.7 L1353.8 2431.3 L1347 2429.4 L1340.2 2427.8 L1333.2 2426.7 L1326.2 2426.1 L1319.1 2426 L1312 2426.4 L1307.6 2426.9 L1302.9 2427 L1297.9 2426.8 L1292.7 2426.6 L1287.4 2426.4 L1282.2 2426.3 L1277.1 2426.5 L1272.2 2427 L1267.6 2428 L1263.4 2429.6 L1259.7 2431.9 L1256.5 2435 L1251.9 2440.6 L1247.4 2446.5 L1243.2 2452.5 L1239 2458.5 L1234.9 2464.6 L1230.7 2470.6 L1226.5 2476.5 L1222 2482.3 L1217.2 2487.8 L1212.2 2493 L1206.7 2497.8 L1200.7 2502.1 L1190.3 2510.5 L1180.1 2519.2 L1170.2 2528.2 L1160.4 2537.4 L1150.7 2546.7 L1141.2 2556.1 L1131.7 2565.6 L1122.3 2575.2 L1112.8 2584.7 L1103.3 2594.2 L1093.7 2603.6 L1084 2612.8 L1073 2622.5 L1061.7 2632 L1050.3 2641.4 L1038.9 2650.6 L1027.3 2659.7 L1015.7 2668.8 L1004 2677.9 L992.4 2687 L980.8 2696.1 L969.3 2705.3 L957.9 2714.6 L946.6 2724.1 L934.2 2734.6 L922.2 2745.6 L910.7 2757 L899.6 2768.7 L888.8 2780.8 L878.1 2793 L867.6 2805.3 L857 2817.6 L846.3 2829.8 L835.5 2841.8 L824.3 2853.6 L812.8 2865.1 L799.7 2878.3 L786.7 2891.5 L773.6 2904.8 L760.6 2918.1 L747.7 2931.5 L735 2945.1 L722.3 2958.8 L709.9 2972.6 L697.7 2986.7 L685.8 3001 L674.2 3015.5 L662.9 3030.2 L658.1 3035.5 L653 3040.3 L647.6 3044.8 L642 3049.1 L636.1 3053.1 L630.1 3056.9 L624 3060.6 L617.8 3064.2 L611.6 3067.7 L605.4 3071.3 L599.4 3074.9 L593.4 3078.6 L582.6 3084.1 L571.3 3088.3 L559.8 3091.4 L548 3093.7 L536.1 3095.2 L523.9 3096.3 L511.7 3096.9 L499.4 3097.3 L487.2 3097.8 L475 3098.3 L463 3099.2 L451.1 3100.5 L451.1 3100.5 L408.5 2768.9 Z" fill="rgba(0,120,255,0.2)" stroke="blue" stroke-width="1.5"/>
  <g opacity="0.5"><path d="m0 0-18.899-.427-13.108 248.955c6.096 1.452 12.351.718 18.977 1.586l-.692 18.231c31.157 2.757 62.586 3.03 93.671 7.084 13.86 2.689 26.515 9.672 38.165 17.465 10.398 6.237 20.834 12.526 30.895 19.328 5.323 3.606 9.44 8.612 12.923 13.917 7.482 11.398 16.781 21.211 25.908 31.22 22.166 27.076 46.987 51.777 71.51 76.713 17.736 17.848 36.261 34.993 51.452 55.133 30.859 39.242 69.539 70.718 108.983 100.832 11.279 9.121 22.328 18.563 34.166 26.966 30.505 24.875 56.782 54.603 85.672 81.33 8.734 8.498 17.929 16.428 27.952 23.398 12.953 9.499 19.457 25.004 29.154 37.425 5.243 6.089 10.08 15.035 19.208 14.813 13.827.055 27.656.136 41.478.446 16.449-.188 30.894-7.924 44.668-16.001 8.987-3.258 14.736-10.946 22.545-15.966 27.493-19.062 52.781-41.943 74.652-67.24 9.962-12.192 21.026-23.155 33.831-32.223 28.958-20.732 53.3-46.896 79.788-70.543 18.151-19.577 39.348-36.057 56.685-56.386a3242 3242 0 0 1 56.063-63.352 5599 5599 0 0 1 66.688-65.194c21.596-18.14 36.248-42.944 59.066-59.768 11.236-8.114 17.579-20.4 24.08-32.284 2.097-3.682 5.089-5.283 9.521-5.26 37.352.189 74.585.181 111.957.22v-19.225l.099.116c-36.914.091-73.831.092-110.744-.171-5.644-.046-9.185 1.918-11.658 6.675-6.032 11.651-12.756 23.285-23.549 31.133-22.044 16.434-36.428 40.342-57.143 58.194-22.6 21.924-45.859 43.279-67.69 65.957-27.265 28.57-50.965 60.635-79.7 87.714-22.887 20.429-43.669 43.103-66.736 63.385-23.251 25.445-54.988 41.349-77.015 67.836-28.679 34.276-97.118 97.299-141.204 103.101-15.485.088-30.971-.153-46.456-.303-8.412.108-12.943-8.495-17.897-14.041-5.415-7.506-10.61-15.176-15.717-22.897-9.177-14.073-24.696-21.848-36.481-33.457-18.955-17.768-37.457-36.051-56.212-54.04-33.054-33.958-72.628-60.827-109.185-90.882-39.309-30.525-67.915-71.238-102.436-106.575-30.771-30.771-61.815-61.426-89.744-94.853-8.912-9.825-18.023-19.45-25.279-30.674-3.444-5.328-7.533-10.364-12.844-13.99-18.038-11.403-35.629-24.006-55.198-32.636-34.209-10.814-71.402-7.103-106.82-11.208C-9.28 166.295-3.605 83.144-.095-.135Z" style="fill:#231f20;fill-opacity:1;fill-rule:nonzero;stroke:none" transform="matrix(1.33333 0 0 -1.33333 451.192 3100.317)"/>
<path d="M0 0v-18.767c-37.438-1.14-74.991-.474-112.47-1.263-5.504-.075-8.918 1.89-11.332 6.49-6.375 12.522-13.946 24.281-25.381 32.811-5.325 4.142-10.345 8.77-14.997 13.659-24.35 27.715-50.964 53.35-77.457 79.01-34.382 30.623-63.598 66.571-93.701 101.287-39.796 37.581-78.046 77.303-120.336 112.186-17.872 12.305-33.645 26.924-47.185 43.879-20.802 23.164-44.645 43.917-69.817 62.166-21.233 16.981-46.576 33.983-74.858 32.764-12.011-1.918-39.316 3.826-46.102-5.579-5.326-6.698-10.57-13.467-15.64-20.358-6.697-8.844-11.441-19.676-20.999-25.93-34.058-25.346-62.378-57.524-92.963-86.814-38.221-34.954-82.167-63.268-119.919-98.845-30.316-26.351-52.007-60.551-81.123-88.089-27.699-27.617-55.377-55.303-80.856-85.007-9.61-10.512-19.417-20.827-27.594-32.534-6.028-8.051-11.616-16.766-20.514-21.96-64.302-43.553-68.811-34.172-143.785-39.856l-1.574 18.357-.095-.135c35.354 4.868 74.775-1.838 106.765 16.387 17.589 11.41 38.389 19.996 52.072 36.315 33.435 44.711 73.273 84.27 112.485 123.869 35.141 33.759 62.007 75.18 100.347 105.735 33.633 28.646 70.116 54.071 103.057 83.473 29.291 27.46 55.845 58.231 87.49 83.001 18.722 12.37 27.424 33.858 41.889 50.328 8.345 10.758 29.082 4.527 41.581 6.443 21.487 2.166 42.174-6.091 59.993-17.618 23.742-15.934 45.457-34.536 66.946-53.374 19.779-16.613 33.177-39.407 53.821-55.067 46.453-33.874 84.942-76.967 127.436-115.415 26.284-27.361 49.617-57.592 76.057-84.896 31.611-31.831 66.022-61.036 95.256-95.166 15.533-19.202 39.131-31.161 48.872-54.975 2.884-5.478 6.687-7.756 13.186-7.652C-74.26-.54-37.067-.405.124-.112z" style="fill:#231f20;fill-opacity:1;fill-rule:nonzero;stroke:none" transform="matrix(1.33333 0 0 -1.33333 2182.663 3070.46)"/>
<path d="M0 0h18.886l.901-249.062c-6.156-1.105-12.152.751-18.143.262l.124-.112C1.475-165.903.61-82.893.099.116Z" style="fill:#231f20;fill-opacity:1;fill-rule:nonzero;stroke:none" transform="matrix(1.33333 0 0 -1.33333 2180.47 2738.727)"/></g>
  <path d="M408.5 2768.9 L426 3100.9 L451.2 3100.3 L451.1 3100.5 L449.8 3072.7 L448.5 3045 L447.1 3017.2 L445.6 2989.5 L444.1 2961.8 L442.6 2934 L441.1 2906.3 L439.6 2878.5 L438.2 2850.8 L436.8 2823.1 L435.5 2795.3 L434.3 2767.5 L446.2 2766.4 L458.1 2765.5 L470.1 2764.9 L482.1 2764.4 L494.1 2764 L506.1 2763.4 L518.1 2762.7 L530 2761.7 L541.9 2760.3 L553.6 2758.3 L565.3 2755.8 L576.8 2752.6 L583.2 2749.6 L589.6 2746.4 L595.9 2743.1 L602.1 2739.6 L608.2 2736 L614.3 2732.2 L620.4 2728.4 L626.4 2724.6 L632.4 2720.7 L638.4 2716.8 L644.3 2712.9 L650.3 2709.1 L652.1 2707.8 L653.8 2706.5 L655.4 2705.1 L656.9 2703.7 L658.4 2702.2 L659.8 2700.6 L661.2 2699 L662.6 2697.4 L663.9 2695.7 L665.1 2693.9 L666.3 2692.2 L667.5 2690.4 L669.9 2686.7 L672.5 2683.1 L675.2 2679.6 L677.9 2676.1 L680.7 2672.7 L683.5 2669.3 L686.4 2665.9 L689.3 2662.6 L692.3 2659.4 L695.2 2656.1 L698.2 2652.8 L701.2 2649.5 L710.6 2638.5 L720.1 2627.5 L729.8 2616.7 L739.6 2606.1 L749.6 2595.5 L759.6 2585 L769.7 2574.6 L779.9 2564.2 L790.1 2553.9 L800.3 2543.6 L810.6 2533.3 L820.8 2523.1 L832.2 2511.2 L843.3 2499 L854.2 2486.7 L865.1 2474.3 L875.9 2461.9 L886.7 2449.6 L897.7 2437.4 L908.9 2425.4 L920.4 2413.7 L932.3 2402.4 L944.6 2391.4 L957.4 2381 L969.7 2371 L982.1 2361.2 L994.5 2351.5 L1007 2341.8 L1019.5 2332.1 L1032 2322.3 L1044.3 2312.5 L1056.5 2302.4 L1068.5 2292.2 L1080.3 2281.7 L1091.8 2270.9 L1103 2259.8 L1109.2 2253.8 L1115.5 2247.8 L1121.7 2241.7 L1127.9 2235.7 L1134.1 2229.7 L1140.4 2223.7 L1146.6 2217.6 L1152.8 2211.6 L1159.1 2205.6 L1165.4 2199.6 L1171.6 2193.7 L1177.9 2187.7 L1182 2184 L1186.2 2180.4 L1190.5 2176.9 L1194.8 2173.5 L1199.2 2170.1 L1203.6 2166.7 L1207.9 2163.2 L1212 2159.6 L1216 2155.8 L1219.8 2151.9 L1223.4 2147.7 L1226.6 2143.1 L1228.3 2140.6 L1230 2138 L1231.7 2135.4 L1233.4 2132.9 L1235.2 2130.3 L1236.9 2127.8 L1238.7 2125.2 L1240.4 2122.7 L1242.2 2120.1 L1244 2117.6 L1245.7 2115.1 L1247.5 2112.6 L1249.2 2110.7 L1250.8 2108.6 L1252.5 2106.5 L1254.2 2104.4 L1255.9 2102.4 L1257.7 2100.4 L1259.7 2098.6 L1261.7 2097 L1263.9 2095.7 L1266.2 2094.7 L1268.7 2094.1 L1271.4 2093.9 L1276.6 2093.8 L1281.7 2093.8 L1286.9 2093.7 L1292.1 2093.7 L1297.2 2093.6 L1302.4 2093.6 L1307.5 2093.5 L1312.7 2093.5 L1317.9 2093.5 L1323 2093.5 L1328.2 2093.5 L1333.3 2093.5 L1348.7 2096.9 L1365 2103.2 L1382.2 2111.8 L1399.8 2122.4 L1417.6 2134.6 L1435.2 2148 L1452.4 2162.1 L1468.9 2176.7 L1484.3 2191.3 L1498.5 2205.4 L1511 2218.8 L1521.6 2230.9 L1529.2 2239.5 L1537.3 2247.5 L1545.7 2255.2 L1554.4 2262.5 L1563.3 2269.7 L1572.4 2276.7 L1581.4 2283.7 L1590.4 2290.7 L1599.3 2297.9 L1608 2305.4 L1616.3 2313.2 L1624.3 2321.4 L1631.9 2328.2 L1639.5 2335.1 L1646.9 2342.2 L1654.3 2349.3 L1661.6 2356.4 L1668.9 2363.6 L1676.2 2370.7 L1683.5 2377.9 L1690.8 2385 L1698.2 2392.1 L1705.7 2399 L1713.3 2405.9 L1722.7 2415.1 L1731.9 2424.5 L1740.9 2434.1 L1749.8 2443.8 L1758.5 2453.7 L1767.2 2463.6 L1775.8 2473.6 L1784.4 2483.6 L1793 2493.6 L1801.7 2503.5 L1810.6 2513.2 L1819.6 2522.9 L1826.9 2530.4 L1834.3 2537.8 L1841.7 2545.2 L1849.2 2552.6 L1856.7 2559.9 L1864.3 2567.2 L1871.9 2574.5 L1879.5 2581.7 L1887.1 2589 L1894.7 2596.2 L1902.3 2603.5 L1909.8 2610.8 L1916.5 2616.9 L1923 2623.3 L1929.2 2629.9 L1935.3 2636.6 L1941.3 2643.5 L1947.2 2650.3 L1953.2 2657.1 L1959.3 2663.8 L1965.6 2670.4 L1972.1 2676.7 L1978.9 2682.7 L1986 2688.4 L1989.5 2691.1 L1992.8 2694 L1995.8 2697.1 L1998.7 2700.4 L2001.5 2703.7 L2004.1 2707.2 L2006.5 2710.9 L2008.9 2714.6 L2011.1 2718.3 L2013.3 2722.2 L2015.4 2726 L2017.4 2729.9 L2018.3 2731.4 L2019.2 2732.8 L2020.2 2734 L2021.2 2735 L2022.4 2736 L2023.6 2736.8 L2024.9 2737.4 L2026.3 2737.9 L2027.8 2738.3 L2029.4 2738.6 L2031.1 2738.8 L2032.9 2738.8 L2045.2 2738.7 L2057.5 2738.7 L2069.9 2738.6 L2082.2 2738.6 L2094.5 2738.5 L2106.8 2738.5 L2119.1 2738.5 L2131.4 2738.5 L2143.7 2738.5 L2156 2738.5 L2168.3 2738.5 L2180.6 2738.6 L2180.6 2738.6 L2180.8 2766.2 L2181 2793.9 L2181.2 2821.6 L2181.4 2849.3 L2181.6 2876.9 L2181.8 2904.6 L2182 2932.3 L2182.2 2959.9 L2182.4 2987.6 L2182.6 3015.3 L2182.7 3042.9 L2182.8 3070.6 L2182.7 3070.5 L2184.7 3070.4 L2186.7 3070.4 L2188.7 3070.4 L2190.7 3070.6 L2192.7 3070.8 L2194.7 3070.9 L2196.7 3071.1 L2198.7 3071.2 L2200.7 3071.3 L2182.8 3070.6 L2170.4 3070.7 L2158 3070.8 L2145.6 3070.9 L2133.2 3071 L2120.8 3071 L2108.4 3071.1 L2096 3071.2 L2083.7 3071.4 L2071.3 3071.5 L2058.9 3071.6 L2046.5 3071.8 L2034.1 3072 L2032 3071.9 L2030 3071.8 L2028.2 3071.5 L2026.5 3071 L2024.9 3070.4 L2023.5 3069.7 L2022.1 3068.8 L2020.8 3067.7 L2019.6 3066.5 L2018.5 3065.1 L2017.5 3063.5 L2016.5 3061.8 L2012.9 3054.2 L2008.6 3047.1 L2003.7 3040.5 L1998.4 3034.4 L1992.7 3028.5 L1986.8 3022.8 L1980.7 3017.3 L1974.5 3011.8 L1968.4 3006.3 L1962.4 3000.6 L1956.7 2994.7 L1951.3 2988.5 L1941.4 2977.2 L1931.3 2966.2 L1921 2955.4 L1910.4 2944.8 L1899.8 2934.3 L1889 2923.9 L1878.2 2913.5 L1867.3 2903.2 L1856.5 2892.9 L1845.7 2882.6 L1834.9 2872.1 L1824.3 2861.6 L1815.6 2852.4 L1807 2843.1 L1798.5 2833.7 L1790.1 2824.2 L1781.8 2814.6 L1773.5 2805 L1765.3 2795.4 L1756.9 2785.9 L1748.6 2776.4 L1740.1 2766.9 L1731.6 2757.6 L1722.9 2748.4 L1708.8 2735.5 L1695 2722.3 L1681.2 2709.1 L1667.4 2695.8 L1653.7 2682.4 L1639.9 2669.2 L1626 2656 L1612 2643.1 L1597.7 2630.4 L1583.2 2618 L1568.3 2606 L1553 2594.5 L1546.3 2589.1 L1540 2583.4 L1533.9 2577.3 L1528 2571.1 L1522.3 2564.7 L1516.7 2558.3 L1511.1 2551.8 L1505.4 2545.3 L1499.7 2539 L1493.8 2532.8 L1487.7 2526.8 L1481.2 2521.1 L1474.1 2514.8 L1466.9 2508.6 L1459.7 2502.4 L1452.4 2496.2 L1445.1 2490.1 L1437.7 2484.1 L1430.3 2478.1 L1422.8 2472.2 L1415.2 2466.5 L1407.6 2460.8 L1399.8 2455.3 L1392 2449.9 L1386 2446.2 L1379.8 2442.6 L1373.5 2439.4 L1367 2436.4 L1360.5 2433.7 L1353.8 2431.3 L1347 2429.4 L1340.2 2427.8 L1333.2 2426.7 L1326.2 2426.1 L1319.1 2426 L1312 2426.4 L1307.6 2426.9 L1302.9 2427 L1297.9 2426.8 L1292.7 2426.6 L1287.4 2426.4 L1282.2 2426.3 L1277.1 2426.5 L1272.2 2427 L1267.6 2428 L1263.4 2429.6 L1259.7 2431.9 L1256.5 2435 L1251.9 2440.6 L1247.4 2446.5 L1243.2 2452.5 L1239 2458.5 L1234.9 2464.6 L1230.7 2470.6 L1226.5 2476.5 L1222 2482.3 L1217.2 2487.8 L1212.2 2493 L1206.7 2497.8 L1200.7 2502.1 L1190.3 2510.5 L1180.1 2519.2 L1170.2 2528.2 L1160.4 2537.4 L1150.7 2546.7 L1141.2 2556.1 L1131.7 2565.6 L1122.3 2575.2 L1112.8 2584.7 L1103.3 2594.2 L1093.7 2603.6 L1084 2612.8 L1073 2622.5 L1061.7 2632 L1050.3 2641.4 L1038.9 2650.6 L1027.3 2659.7 L1015.7 2668.8 L1004 2677.9 L992.4 2687 L980.8 2696.1 L969.3 2705.3 L957.9 2714.6 L946.6 2724.1 L934.2 2734.6 L922.2 2745.6 L910.7 2757 L899.6 2768.7 L888.8 2780.8 L878.1 2793 L867.6 2805.3 L857 2817.6 L846.3 2829.8 L835.5 2841.8 L824.3 2853.6 L812.8 2865.1 L799.7 2878.3 L786.7 2891.5 L773.6 2904.8 L760.6 2918.1 L747.7 2931.5 L735 2945.1 L722.3 2958.8 L709.9 2972.6 L697.7 2986.7 L685.8 3001 L674.2 3015.5 L662.9 3030.2 L658.1 3035.5 L653 3040.3 L647.6 3044.8 L642 3049.1 L636.1 3053.1 L630.1 3056.9 L624 3060.6 L617.8 3064.2 L611.6 3067.7 L605.4 3071.3 L599.4 3074.9 L593.4 3078.6 L582.6 3084.1 L571.3 3088.3 L559.8 3091.4 L548 3093.7 L536.1 3095.2 L523.9 3096.3 L511.7 3096.9 L499.4 3097.3 L487.2 3097.8 L475 3098.3 L463 3099.2 L451.1 3100.5 L451.1 3100.5 L408.5 2768.9 Z" fill="none" stroke="red" stroke-width="0.5"/>
</svg>