<svg xmlns="http://www.w3.org/2000/svg" viewBox="4835.01 2228.23 748.131 597.455" style="background:#f5f5f5">
  <path d="M5247 2261 L5272.3 2261 L5297.6 2261 L5323 2261 L5348.3 2261 L5373.7 2261 L5399 2261 L5424.3 2261.1 L5449.7 2261.2 L5475 2261.3 L5500.3 2261.5 L5525.7 2261.7 L5551 2261.9 L5484.3 2549.4 L5479.4 2559.7 L5477.8 2562.7 L5476.2 2565.8 L5474.6 2568.8 L5472.9 2571.8 L5471.2 2574.8 L5469.6 2577.8 L5467.9 2580.8 L5466.1 2583.8 L5464.4 2586.7 L5462.7 2589.7 L5461 2592.7 L5459.3 2595.7 L5457.2 2599.6 L5455.4 2603.6 L5453.8 2607.7 L5452.4 2611.8 L5451.2 2616.1 L5449.9 2620.3 L5448.7 2624.5 L5447.4 2628.7 L5445.9 2632.8 L5444.1 2636.8 L5442.1 2640.7 L5439.7 2644.5 L5435.4 2649.9 L5430.6 2654.8 L5425.5 2659.1 L5420 2663.1 L5414.2 2666.6 L5408.2 2669.8 L5402 2672.7 L5395.6 2675.4 L5389.2 2677.9 L5382.7 2680.2 L5376.3 2682.5 L5369.9 2684.6 L5360.7 2688 L5349 2691.7 L5335.2 2695.8 L5320.2 2700.4 L5304.5 2705.3 L5288.8 2710.8 L5273.8 2716.7 L5260.1 2723.2 L5248.4 2730.2 L5239.4 2737.8 L5233.6 2746 L5231.8 2754.9 L5230.8 2761.1 L5228.8 2766.7 L5225.9 2771.8 L5222.3 2776.4 L5218.2 2780.7 L5213.7 2784.7 L5209 2788.7 L5204.3 2792.6 L5199.7 2796.6 L5195.5 2800.8 L5191.8 2805.4 L5191.8 2805.4 L5111 2646.9 L5111 2646.9 L5115.5 2640.7 L5119.3 2633.9 L5122.1 2626.6 L5124.1 2618.6 L5125.7 2613 L5127.7 2607.5 L5129.9 2602.1 L5132.5 2596.8 L5135.2 2591.6 L5138.1 2586.5 L5141 2581.4 L5144 2576.4 L5147 2571.3 L5149.9 2566.2 L5152.7 2561 L5155.4 2555.8 L5158 2551 L5160.4 2546.1 L5162.7 2541.1 L5164.9 2536 L5166.9 2531 L5169 2525.9 L5171.1 2520.8 L5173.2 2515.7 L5175.4 2510.7 L5177.8 2505.8 L5180.3 2501 L5183.1 2496.2 L5184.2 2494.4 L5185.4 2492.5 L5186.5 2490.6 L5187.6 2488.8 L5188.8 2486.9 L5189.9 2485 L5191 2483.2 L5192.1 2481.3 L5193.2 2479.4 L5194.3 2477.5 L5195.3 2475.6 L5196.3 2473.7 L5198.3 2469.9 L5200.4 2466.3 L5202.7 2462.7 L5205.1 2459.3 L5207.6 2456 L5210.2 2452.8 L5212.9 2449.6 L5215.6 2446.4 L5218.3 2443.2 L5221 2440 L5223.6 2436.7 L5226.1 2433.3 L5231.3 2424.9 L5235.4 2416.2 L5238.6 2407.3 L5240.9 2398.1 L5242.5 2388.8 L5243.6 2379.3 L5244.1 2369.8 Z" fill="rgba(0,120,255,0.2)" stroke="blue" stroke-width="1.5"/>
  <g opacity="0.5"><path d="M0 0c.199-15.232.171-30.404-2.031-45.453-.475-28.464 3.621-59.026-13.617-83.794-7.448-10.149-16.883-18.64-22.324-30.253-3.001-5.797-6.573-11.301-9.939-16.907-8.717-14.03-12.541-30.38-20.783-44.708-7.6-15.785-19.221-29.884-23.48-47.096-4.249-24.66-27.403-38.607-49.506-45.597-24.649-10.729-112.887-26.975-115.28-54.53-.628-17.232-16.616-25.094-26.883-36.182l222.334-6.795 1.646-4.691-228.33 7.887 2.121 2.956c-4.939 1.684-9.84.317-15.397 1.269 10.837 9.432 24.769 17.893 26.765 33.359-.607 29.55 94.319 46.87 119.245 58.038 21.48 6.868 42.185 21.378 46.083 45.007 4.741 17.213 16.457 31.308 23.964 47.304 7.871 14.472 12.001 30.621 20.833 44.676 7.498 12.572 13.637 26.339 24.069 36.827 7.251 7.44 12.314 16.262 15.852 25.877 7.999 20.888 4.864 43.56 5.388 65.403 2.035 15.707 2.094 31.469 2.198 47.315H.084Z" style="fill:#231f20;fill-opacity:1;fill-rule:nonzero;stroke:none" transform="matrix(1.33333 0 0 -1.33333 5246.972 2261.012)"/>
<path d="M0 0h16.37c.621-9.212.02-18.531.14-27.778-.656-6.886-2.678-13.537-2.038-20.554.408-29.612 2.85-61.662-17.751-85.782-23.348-25.576-35.624-58.368-50.346-89.163-4.709-9.166-10.021-18.022-15.079-27.009-6.957-11.409-6.896-25.551-14.731-36.58-12.153-17.082-33.415-23.573-52.351-30.122-22.882-9.544-104.74-25.184-103.555-52.679-1.205-19.892-24.272-25.938-32.336-41.621l-16.37.715c1.614 10.59 30.16 19.769 31.521 41.122 1.18 32.217 101.217 46.292 127.732 61.489 15.409 6.986 30.123 17.164 34.643 34.366 3.713 18.986 15.467 34.379 24.148 51.259 7.654 13.322 11.729 28.323 18.972 41.845 5.208 9.474 10.606 18.855 16.26 28.068 13.329 18.072 29.227 34.109 31.123 57.773 2.3 15.226.902 30.625 1.056 45.951-.771 7.386 1.615 14.398 2.026 21.688.33 9.015-.54 18.135.633 27.079C.065.067 0 0 0 0" style="fill:#231f20;fill-opacity:1;fill-rule:nonzero;stroke:none" transform="matrix(1.33333 0 0 -1.33333 5550.932 2261.994)"/>
<path d="M0 0v17.174h226.932c.912-6.087-.506-11.867.953-17.824l.068.068C151.948.246 75.924.115-.086.089z" style="fill:#231f20;fill-opacity:1;fill-rule:nonzero;stroke:none" transform="matrix(1.33333 0 0 -1.33333 5247.084 2261.128)"/></g>
  <path d="M5247 2261 L5272.3 2261 L5297.6 2261 L5323 2261 L5348.3 2261 L5373.7 2261 L5399 2261 L5424.3 2261.1 L5449.7 2261.2 L5475 2261.3 L5500.3 2261.5 L5525.7 2261.7 L5551 2261.9 L5484.3 2549.4 L5479.4 2559.7 L5477.8 2562.7 L5476.2 2565.8 L5474.6 2568.8 L5472.9 2571.8 L5471.2 2574.8 L5469.6 2577.8 L5467.9 2580.8 L5466.1 2583.8 L5464.4 2586.7 L5462.7 2589.7 L5461 2592.7 L5459.3 2595.7 L5457.2 2599.6 L5455.4 2603.6 L5453.8 2607.7 L5452.4 2611.8 L5451.2 2616.1 L5449.9 2620.3 L5448.7 2624.5 L5447.4 2628.7 L5445.9 2632.8 L5444.1 2636.8 L5442.1 2640.7 L5439.7 2644.5 L5435.4 2649.9 L5430.6 2654.8 L5425.5 2659.1 L5420 2663.1 L5414.2 2666.6 L5408.2 2669.8 L5402 2672.7 L5395.6 2675.4 L5389.2 2677.9 L5382.7 2680.2 L5376.3 2682.5 L5369.9 2684.6 L5360.7 2688 L5349 2691.7 L5335.2 2695.8 L5320.2 2700.4 L5304.5 2705.3 L5288.8 2710.8 L5273.8 2716.7 L5260.1 2723.2 L5248.4 2730.2 L5239.4 2737.8 L5233.6 2746 L5231.8 2754.9 L5230.8 2761.1 L5228.8 2766.7 L5225.9 2771.8 L5222.3 2776.4 L5218.2 2780.7 L5213.7 2784.7 L5209 2788.7 L5204.3 2792.6 L5199.7 2796.6 L5195.5 2800.8 L5191.8 2805.4 L5191.8 2805.4 L5111 2646.9 L5111 2646.9 L5115.5 2640.7 L5119.3 2633.9 L5122.1 2626.6 L5124.1 2618.6 L5125.7 2613 L5127.7 2607.5 L5129.9 2602.1 L5132.5 2596.8 L5135.2 2591.6 L5138.1 2586.5 L5141 2581.4 L5144 2576.4 L5147 2571.3 L5149.9 2566.2 L5152.7 2561 L5155.4 2555.8 L5158 2551 L5160.4 2546.1 L5162.7 2541.1 L5164.9 2536 L5166.9 2531 L5169 2525.9 L5171.1 2520.8 L5173.2 2515.7 L5175.4 2510.7 L5177.8 2505.8 L5180.3 2501 L5183.1 2496.2 L5184.2 2494.4 L5185.4 2492.5 L5186.5 2490.6 L5187.6 2488.8 L5188.8 2486.9 L5189.9 2485 L5191 2483.2 L5192.1 2481.3 L5193.2 2479.4 L5194.3 2477.5 L5195.3 2475.6 L5196.3 2473.7 L5198.3 2469.9 L5200.4 2466.3 L5202.7 2462.7 L5205.1 2459.3 L5207.6 2456 L5210.2 2452.8 L5212.9 2449.6 L5215.6 2446.4 L5218.3 2443.2 L5221 2440 L5223.6 2436.7 L5226.1 2433.3 L5231.3 2424.9 L5235.4 2416.2 L5238.6 2407.3 L5240.9 2398.1 L5242.5 2388.8 L5243.6 2379.3 L5244.1 2369.8 Z" fill="none" stroke="red" stroke-width="0.5"/>
</svg>