<svg xmlns="http://www.w3.org/2000/svg" viewBox="440.645 4094.36 1151.987 1116.589" style="background:#f5f5f5">
  <path d="M856.9 4113.3 L857 4115.1 L857 4116.9 L857 4118.7 L857 4120.5 L857.1 4122.3 L857.1 4124 L857.2 4125.8 L857.3 4127.6 L857.4 4129.4 L857.5 4131.3 L901.8 4130.7 L953.9 4130.2 L1012.4 4129.9 L1075.5 4129.6 L1141.9 4129.5 L1209.8 4129.3 L1277.6 4129.1 L1343.9 4128.9 L1407 4128.6 L1465.2 4128.2 L1517.1 4127.6 L1561 4126.8 L1578.9 4126.4 L1577 4126.4 L1575.2 4126.4 L1573.4 4126.5 L1571.6 4126.5 L1569.8 4126.6 L1568 4126.6 L1566.1 4126.7 L1564.3 4126.8 L1562.5 4126.8 L1560.6 4126.9 L1560.7 4126.8 L1560.9 4129.9 L1560.8 4132.9 L1560.5 4135.9 L1560 4138.8 L1559.4 4141.8 L1558.6 4144.7 L1557.8 4147.6 L1556.9 4150.5 L1556 4153.4 L1555.1 4156.3 L1554.3 4159.3 L1553.5 4162.2 L1551.2 4168.9 L1548.2 4175.4 L1544.8 4181.5 L1541 4187.4 L1536.8 4193 L1532.3 4198.5 L1527.6 4203.9 L1522.8 4209.1 L1517.9 4214.3 L1513 4219.4 L1508.1 4224.6 L1503.4 4229.8 L1499.5 4234.3 L1495.6 4238.8 L1491.8 4243.5 L1488.1 4248.1 L1484.4 4252.9 L1480.7 4257.5 L1476.9 4262.1 L1473 4266.6 L1468.9 4271 L1464.7 4275.2 L1460.3 4279.2 L1455.7 4282.9 L1452 4285.3 L1448.3 4287.7 L1444.7 4290.1 L1441 4292.5 L1437.3 4295 L1433.6 4297.4 L1429.9 4299.8 L1426.3 4302.2 L1422.6 4304.5 L1418.9 4306.9 L1415.2 4309.3 L1411.5 4311.7 L1409.8 4312.9 L1408.5 4314.5 L1407.5 4316.3 L1406.8 4318.2 L1406.4 4320.2 L1406.3 4322.3 L1406.4 4324.4 L1406.9 4326.4 L1407.6 4328.3 L1408.7 4330 L1410 4331.5 L1411.5 4332.7 L1416.8 4336.5 L1425.6 4340.4 L1437 4344.5 L1450.1 4348.8 L1464 4353.3 L1477.8 4358.1 L1490.5 4363.1 L1501.4 4368.3 L1509.5 4373.9 L1513.9 4379.7 L1513.7 4385.8 L1507.9 4392.2 L1501.5 4396 L1494.9 4399.6 L1488.1 4402.8 L1481.3 4405.8 L1474.3 4408.6 L1467.3 4411.3 L1460.3 4413.9 L1453.2 4416.4 L1446.1 4418.9 L1439 4421.5 L1432 4424.1 L1425 4426.8 L1416.7 4429.7 L1408.5 4433 L1400.5 4436.5 L1392.6 4440.4 L1384.8 4444.4 L1377.1 4448.6 L1369.5 4452.8 L1361.8 4457.1 L1354.2 4461.4 L1346.5 4465.7 L1338.7 4469.8 L1330.9 4473.8 L1324.9 4476.7 L1318.2 4479.9 L1311.3 4483.4 L1304.6 4487.1 L1298.6 4490.9 L1293.6 4494.8 L1290.2 4498.7 L1288.8 4502.6 L1289.9 4506.4 L1293.8 4510.1 L1301 4513.6 L1312 4516.8 L1319.9 4518.7 L1327.9 4520.6 L1335.8 4522.4 L1343.8 4524.1 L1351.8 4525.8 L1359.8 4527.4 L1367.8 4528.9 L1375.8 4530.4 L1383.9 4531.9 L1391.9 4533.3 L1400 4534.7 L1408 4536 L1411.3 4536.8 L1416 4537.7 L1421.9 4538.5 L1428.6 4539.5 L1435.7 4540.6 L1442.9 4541.8 L1449.8 4543.2 L1456.1 4544.8 L1461.4 4546.6 L1465.4 4548.8 L1467.7 4551.3 L1468 4554.1 L1467.6 4555.3 L1467 4556.4 L1466.3 4557.3 L1465.4 4558.1 L1464.5 4558.8 L1463.4 4559.5 L1462.3 4560.1 L1461.2 4560.7 L1460.1 4561.2 L1458.9 4561.7 L1457.8 4562.3 L1456.8 4562.9 L1450.9 4565.5 L1445 4568 L1439 4570.5 L1433 4573 L1427 4575.4 L1421.1 4578 L1415.1 4580.5 L1409.3 4583.2 L1403.4 4586 L1397.7 4588.9 L1392 4592 L1386.5 4595.4 L1376.8 4601.5 L1367.2 4607.8 L1357.8 4614.2 L1348.4 4620.8 L1339 4627.4 L1329.7 4634 L1320.4 4640.7 L1311.1 4647.4 L1301.8 4654.1 L1292.5 4660.7 L1283.1 4667.2 L1273.6 4673.7 L1272.5 4674.5 L1271.5 4675.3 L1270.5 4676.2 L1269.7 4677.2 L1269.1 4678.2 L1268.5 4679.2 L1268 4680.3 L1267.6 4681.5 L1267.4 4682.7 L1267.2 4684 L1267.2 4685.3 L1267.3 4686.7 L1267.4 4689.4 L1268.2 4691.7 L1269.5 4693.8 L1271.2 4695.5 L1273.3 4697 L1275.6 4698.3 L1278.2 4699.5 L1280.8 4700.5 L1283.5 4701.4 L1286.1 4702.3 L1288.5 4703.2 L1290.7 4704.1 L1293.7 4705 L1296.7 4705.8 L1299.7 4706.6 L1302.7 4707.5 L1305.7 4708.3 L1308.7 4709 L1311.7 4709.8 L1314.7 4710.6 L1317.7 4711.4 L1320.7 4712.2 L1323.7 4713.1 L1326.7 4713.9 L1330 4714.8 L1333.3 4715.8 L1336.6 4716.9 L1339.9 4718.2 L1343 4719.7 L1345.9 4721.4 L1348.4 4723.4 L1350.5 4725.6 L1352.2 4728.3 L1353.3 4731.3 L1353.7 4734.8 L1353.4 4738.8 L1353.1 4741.9 L1353 4745.7 L1353.1 4750 L1353.3 4754.7 L1353.5 4759.6 L1353.7 4764.5 L1353.6 4769.3 L1353.4 4773.8 L1352.8 4777.9 L1351.8 4781.4 L1350.3 4784.1 L1348.3 4785.9 L1337.2 4791.2 L1325.9 4796 L1314.5 4800.4 L1302.9 4804.7 L1291.3 4808.7 L1279.6 4812.8 L1268 4816.9 L1256.4 4821.2 L1245 4825.7 L1233.7 4830.7 L1222.7 4836.1 L1211.9 4842.1 L1207.5 4848.4 L1209 4854.3 L1215.3 4860 L1225.5 4865.4 L1238.5 4870.4 L1253.5 4875 L1269.5 4879.3 L1285.4 4883.2 L1300.2 4886.7 L1313.1 4889.8 L1323 4892.5 L1329 4894.6 L1330.1 4895 L1331 4895.4 L1331.7 4895.7 L1332.3 4896.1 L1332.8 4896.5 L1333.2 4897 L1333.4 4897.6 L1333.6 4898.2 L1333.7 4898.9 L1333.8 4899.8 L1333.8 4900.8 L1333.8 4901.9 L1333.1 4904.3 L1331.1 4906.3 L1328.2 4908.2 L1324.4 4909.8 L1320.1 4911.2 L1315.4 4912.5 L1310.5 4913.7 L1305.6 4914.7 L1301 4915.7 L1296.9 4916.7 L1293.3 4917.6 L1290.6 4918.5 L1282.5 4920.5 L1274.4 4922.9 L1266.5 4925.5 L1258.6 4928.4 L1250.8 4931.5 L1243.1 4934.7 L1235.5 4938.1 L1227.8 4941.5 L1220.2 4945 L1212.5 4948.4 L1204.9 4951.8 L1197.1 4955 L1196 4955.5 L1194.8 4956 L1193.7 4956.4 L1192.5 4957 L1191.4 4957.5 L1190.2 4958 L1189.1 4958.5 L1188 4959 L1186.8 4959.6 L1185.7 4960.1 L1184.6 4960.6 L1183.5 4961.2 L1181.5 4962.6 L1180 4964.1 L1179 4965.6 L1178.4 4967.2 L1178.3 4968.8 L1178.5 4970.3 L1179.1 4971.7 L1180.1 4973.1 L1181.4 4974.2 L1183 4975.2 L1185 4976 L1187.2 4976.6 L1192.4 4978.2 L1200.5 4980.2 L1210.9 4982.4 L1222.7 4984.9 L1235.1 4987.8 L1247.5 4991.1 L1259 4994.7 L1268.8 4998.7 L1276.2 5003.2 L1280.5 5008.1 L1280.8 5013.5 L1276.3 5019.4 L1275.7 5019.8 L1275.1 5020.3 L1274.4 5020.6 L1273.6 5021 L1272.9 5021.3 L1272.2 5021.7 L1271.4 5022.1 L1270.8 5022.5 L1270.1 5022.9 L1269.5 5023.4 L1269 5024 L1268.6 5024.6 L1268.4 5025.7 L1268 5026.7 L1267.6 5027.6 L1267.1 5028.5 L1266.6 5029.3 L1266 5030.1 L1265.3 5030.8 L1264.6 5031.5 L1263.8 5032.1 L1263 5032.8 L1262.2 5033.4 L1261.4 5034 L1259.7 5035.5 L1258.5 5037.2 L1257.6 5039.1 L1257 5041.1 L1256.7 5043.3 L1256.5 5045.5 L1256.5 5047.8 L1256.5 5050.1 L1256.5 5052.4 L1256.5 5054.7 L1256.4 5056.9 L1256.1 5058.9 L1255.6 5069 L1255.1 5079 L1254.5 5089.1 L1254 5099.2 L1253.5 5109.2 L1253 5119.3 L1252.5 5129.3 L1252 5139.4 L1251.6 5149.4 L1251.1 5159.5 L1250.6 5169.6 L1250.1 5179.6 L1250 5179.5 L1251.8 5179.5 L1253.7 5179.4 L1255.5 5179.5 L1257.3 5179.6 L1259.1 5179.6 L1260.9 5179.8 L1262.7 5179.9 L1264.5 5180 L1266.3 5180 L1268.1 5180.1 L1250.5 5179.6 L1203.5 5177 L1150 5175.2 L1091.4 5174 L1028.9 5173.4 L963.9 5173 L897.6 5172.8 L831.3 5172.6 L766.3 5172.2 L703.9 5171.4 L645.4 5170 L592 5167.9 L545.2 5164.9 L545.3 5164.8 L545.2 5166.6 L545.1 5168.4 L545.1 5170.2 L545 5172.1 L544.9 5173.9 L544.9 5175.7 L544.8 5177.5 L544.8 5179.3 L544.7 5181.1 L544.7 5182.9 L544.7 5184.7 L544.7 5186.5 L545.1 5164.9 L545.6 5158.9 L546 5152.9 L546.4 5146.9 L546.7 5140.9 L547 5134.9 L547.3 5128.9 L547.6 5122.9 L547.9 5116.9 L548.2 5110.8 L548.5 5104.8 L548.8 5098.8 L549.1 5092.8 L549.3 5088.6 L549.6 5084.4 L549.8 5080.1 L550 5075.9 L550.2 5071.7 L550.4 5067.4 L550.6 5063.2 L550.8 5059 L551 5054.7 L551.3 5050.5 L551.5 5046.3 L551.7 5042.1 L551.8 5040.2 L552.3 5038.6 L553.1 5037.2 L554.1 5035.9 L555.4 5034.8 L556.7 5033.7 L558.1 5032.6 L559.4 5031.5 L560.6 5030.4 L561.7 5029.1 L562.6 5027.7 L563.1 5026 L564 5024.5 L565.5 5023 L567.5 5021.5 L569.7 5020 L571.9 5018.5 L574 5016.8 L575.6 5015.1 L576.7 5013.1 L576.9 5010.9 L576.1 5008.4 L574.1 5005.6 L570.7 5002.5 L563.8 4999 L556.7 4995.9 L549.5 4993.3 L542.2 4991.1 L534.7 4989 L527.1 4987.2 L519.5 4985.6 L511.9 4984 L504.3 4982.3 L496.7 4980.6 L489.2 4978.8 L481.8 4976.7 L480.9 4976.4 L480 4976 L479 4975.7 L478 4975.4 L477 4975 L476.1 4974.6 L475.2 4974.1 L474.4 4973.6 L473.8 4972.9 L473.3 4972.1 L473 4971.1 L472.8 4970.1 L473.1 4967.3 L474 4965 L475.4 4963.1 L477.2 4961.5 L479.3 4960.1 L481.7 4958.9 L484.2 4957.9 L486.8 4957 L489.4 4956.1 L492 4955.1 L494.4 4954.1 L496.5 4953 L498.7 4952 L500.8 4951.1 L503 4950.2 L505.1 4949.3 L507.2 4948.3 L509.4 4947.4 L511.5 4946.5 L513.7 4945.5 L515.8 4944.6 L518 4943.7 L520.1 4942.7 L522.3 4941.8 L528.7 4938.8 L535.1 4935.9 L541.6 4933.2 L548.2 4930.6 L554.8 4928.1 L561.4 4925.8 L568.1 4923.6 L574.8 4921.5 L581.6 4919.6 L588.4 4917.8 L595.2 4916.1 L602.1 4914.5 L604 4914.1 L605.8 4913.6 L607.7 4913.1 L609.5 4912.5 L611.3 4912 L613.2 4911.4 L615 4910.8 L616.8 4910.2 L618.6 4909.7 L620.5 4909.1 L622.3 4908.5 L624.1 4907.9 L624.9 4907.6 L625.7 4907.2 L626.3 4906.8 L626.9 4906.4 L627.4 4905.8 L627.9 4905.3 L628.2 4904.6 L628.5 4903.9 L628.7 4903.2 L628.9 4902.4 L629 4901.5 L629 4900.6 L628.9 4899.2 L628.5 4898 L627.8 4897 L627 4896.2 L626 4895.5 L624.8 4894.9 L623.6 4894.4 L622.3 4894 L621 4893.6 L619.7 4893.2 L618.4 4892.8 L617.3 4892.4 L577.2 4882.8 L546.3 4874.3 L524.1 4866.7 L510.1 4859.7 L503.7 4853.1 L504.3 4846.5 L511.5 4839.7 L524.7 4832.5 L543.3 4824.7 L566.8 4815.8 L594.7 4805.8 L626.4 4794.3 L629.6 4793.2 L632.7 4792 L635.7 4790.7 L638.5 4789.3 L641.1 4787.7 L643.4 4785.9 L645.3 4783.8 L646.9 4781.5 L648.1 4778.9 L648.7 4775.9 L648.8 4772.6 L648.4 4768.8 L648.4 4765.9 L648.4 4763 L648.4 4760.1 L648.4 4757.2 L648.4 4754.3 L648.4 4751.4 L648.4 4748.5 L648.4 4745.6 L648.4 4742.7 L648.5 4739.7 L648.5 4736.8 L648.5 4733.9 L648.4 4731.5 L647.9 4729.3 L647.1 4727.3 L645.9 4725.5 L644.5 4723.9 L642.9 4722.5 L641 4721.2 L639.1 4720.1 L637 4719.1 L634.9 4718.2 L632.8 4717.4 L630.7 4716.6 L625.1 4714.8 L617.5 4712.8 L608.6 4710.7 L599 4708.3 L589.3 4705.6 L580.2 4702.5 L572.3 4698.9 L566.2 4694.8 L562.5 4690 L561.8 4684.6 L564.8 4678.4 L572.1 4671.3 L582.3 4664.4 L592.4 4657.4 L602.5 4650.3 L612.6 4643.2 L622.7 4636.1 L632.8 4629 L642.9 4621.9 L653 4614.9 L663.2 4608 L673.5 4601.2 L683.9 4594.6 L694.3 4588.1 L697.4 4586.6 L700.5 4585.2 L703.6 4583.8 L706.8 4582.3 L709.9 4581 L713 4579.6 L716.2 4578.2 L719.3 4576.8 L722.5 4575.5 L725.6 4574.1 L728.8 4572.7 L731.9 4571.4 L734.1 4570.2 L737.2 4568.9 L741 4567.4 L745.1 4565.8 L749.3 4564.1 L753.5 4562.3 L757.2 4560.3 L760.2 4558.2 L762.3 4556 L763.2 4553.6 L762.6 4551 L760.3 4548.3 L747.5 4544.8 L734.6 4541.8 L721.7 4539.1 L708.7 4536.6 L695.6 4534.3 L682.5 4532.1 L669.4 4529.9 L656.3 4527.7 L643.2 4525.2 L630.2 4522.6 L617.3 4519.6 L604.4 4516.2 L593.9 4512.8 L587.4 4509.1 L584.2 4505.3 L583.9 4501.4 L586.1 4497.4 L590.2 4493.4 L595.8 4489.5 L602.3 4485.7 L609.3 4482 L616.3 4478.6 L622.7 4475.5 L628.1 4472.7 L632.7 4470.3 L637.2 4467.9 L641.7 4465.5 L646.3 4463 L650.8 4460.5 L655.2 4458 L659.7 4455.5 L664.2 4453 L668.7 4450.5 L673.2 4448 L677.6 4445.4 L682.1 4442.9 L690.3 4439 L698.6 4435.3 L706.9 4431.8 L715.3 4428.4 L723.8 4425.2 L732.3 4422 L740.8 4418.9 L749.3 4415.7 L757.9 4412.6 L766.3 4409.4 L774.8 4406.1 L783.2 4402.8 L801.8 4393 L809.5 4384.5 L808.1 4376.8 L799.6 4369.9 L785.9 4363.6 L768.9 4357.4 L750.4 4351.3 L732.5 4345.1 L717.1 4338.4 L705.9 4331 L701.1 4322.9 L704.4 4313.6 L709.2 4310 L714.1 4306.5 L719.1 4303.3 L724.2 4300.1 L729.4 4297 L734.5 4293.9 L739.6 4290.7 L744.6 4287.4 L749.5 4283.9 L754.2 4280.3 L758.7 4276.4 L762.9 4272.1 L765.2 4269.5 L767.5 4266.8 L769.8 4264.1 L772.1 4261.5 L774.4 4258.8 L776.6 4256.1 L778.9 4253.4 L781.2 4250.7 L783.4 4248 L785.7 4245.4 L788 4242.7 L790.3 4240 L793.5 4235.9 L796.9 4232 L800.3 4228.1 L803.7 4224.2 L807.2 4220.4 L810.8 4216.6 L814.3 4212.8 L817.8 4208.9 L821.3 4205.1 L824.8 4201.2 L828.2 4197.3 L831.5 4193.3 L834.8 4188.9 L837.9 4184.3 L840.8 4179.5 L843.5 4174.6 L845.9 4169.5 L848.2 4164.3 L850.1 4159.1 L851.8 4153.7 L853.2 4148.4 L854.3 4142.9 L855 4137.5 L855.4 4132.1 L854 4132.1 L852.5 4132.1 L851.1 4132.1 L849.7 4132.1 L848.2 4132.1 L846.8 4132.1 L845.4 4132.1 Z" fill="rgba(0,120,255,0.2)" stroke="blue" stroke-width="1.5"/>
  <g opacity="0.5"><path d="m0 0-16.238.95c1.001 26.926 2.655 53.82 3.923 80.737.766 18.735-.191 9.728 8.872 21.882 1.679 5.584 16.417 7.132 8.048 16.463-19.975 13.658-45.939 14.073-68.624 21.081-2.641.936-6.944 1.456-6.933 5.022.092 9.497 17.307 11.005 24.071 15.254 20.397 9.345 40.755 18.904 62.779 23.771 6.492 2.765 29.729 4.456 30.252 11.998-.023 3.61-.135 4.3-3.689 5.449-18.229 7.482-83.789 15.833-90.603 32.155-2.724 14.163 81.759 37.564 96.011 44.544 4.868 2.582 12.839 4.599 12.902 11.271.11 9.99.104 19.983.172 29.973 1.563 10.266-8.547 14.646-16.824 16.713-12.191 4.782-64.598 10.048-43.314 30.895 26.886 18.849 53.89 37.494 80.964 56.047 18.968 14.537 43.661 18.696 63.615 31.354 8.632 10.305-22.917 11.412-28.51 13.57-31.848 5.548-64.133 9.988-95.153 19.259-26.054 9.466 9.711 23.462 19.753 28.681 9.845 4.634 19.402 9.782 28.699 15.391 26.834 16.737 57.501 25.183 86.629 36.93 88.701 33.962-86.857 39.015-51.74 70.867 9.756 6.534 19.82 12.602 29.67 18.98 14.649 10.16 24.467 25.613 36.087 38.85 17.736 19.71 39.151 38.303 43.589 65.85.209 3.231 3.503 5.337 3.295 8.525.093 1.867.262 2.065 2.118 2.082 4.227.038 8.455.012 12.788.012-.553-16.274-7.936-32.938-17.904-45.962-9.916-12.052-21.306-22.692-30.944-34.982-6.83-8.035-13.591-16.131-20.501-24.097-12.332-13.214-29.89-19.915-43.879-31.084-24.165-29.735 133.33-35.681 59.101-66.899-25.154-10.35-51.428-18.068-75.845-30.12-13.421-7.564-26.788-15.242-40.477-22.326-14.242-7.831-55.609-22.722-17.761-32.635 38.336-10.829 78.784-13.005 116.869-24.053 9.796-8.401-16.352-13.893-21.253-17.321-9.427-4.143-18.953-8.08-28.22-12.554-31.508-19.12-60.982-41.861-91.668-62.414-28.873-22.489 30.491-28.47 43.994-33.981 6.112-2.086 13.678-5.301 13.31-12.98-.053-8.711-.056-17.423-.076-26.134 2.297-11.967-6.849-15.816-16.496-19.126-100.244-37.004-141.604-42.861-6.814-73.562 3.205-1.407 8.878-1.594 8.765-6.193.05-2.808-1.06-4.63-3.669-5.453-5.475-1.726-10.909-3.648-16.482-4.983-20.758-4.408-40.753-11.284-59.892-20.432-6.44-2.796-12.872-5.613-19.322-8.387-5.975-3.69-17.805-3.958-17.744-12.813-.036-3.531 4.204-3.944 6.728-4.973 22.033-6.648 46.37-8.035 66.642-19.334 12.758-10.029-4.299-12.848-5.679-17.671-1.097-5.257-8.888-6.04-8.563-12.026-.638-12.69-1.269-25.381-1.92-38.071C1.808 35.983 1.377 17.902-.075-.066z" style="fill:#231f20;fill-opacity:1;fill-rule:nonzero;stroke:none" transform="matrix(1.33333 0 0 -1.33333 545.248 5164.805)"/>
<path d="M0 0c-118.268-2.595-408.387-1.247-527.631-3.317-.424 5.472-.476 10.692-.429 16.239 72.726 1.578 454.757 2.473 527.5 3.927.172-5.797.337-11.356.5-16.917z" style="fill:#231f20;fill-opacity:1;fill-rule:nonzero;stroke:none" transform="matrix(1.33333 0 0 -1.33333 1561.045 4126.83)"/>
<path d="M0 0c-.401-5.446-.825-10.571-1.192-16.065-72.874 3.26-455.142 6.851-528.101 10.805-.021 5.483.307 10.844.444 16.307l-.077-.069C-399.295.429-130.046 9.301.072-.066z" style="fill:#231f20;fill-opacity:1;fill-rule:nonzero;stroke:none" transform="matrix(1.33333 0 0 -1.33333 1250.383 5179.53)"/>
<path d="M0 0c5.621.226 10.795.471 16.518.376.326-28.848-18.455-53.023-38.234-72.313-12.058-13.305-22.45-28.145-35.254-40.783-10.76-9.368-23.757-15.919-35.577-23.855-6.549-2.768-9.276-11.831-4.053-16.759 13.018-14.267 117.427-28.025 62.797-51.693-22.658-9.326-45.665-17.764-68.517-26.57-18.942-7.98-35.599-20.403-54.288-28.966-18.768-9.043-51.895-23.308-11.352-32.419 16.54-3.551 33.068-7.176 49.676-10.383 7.28-3.182 76.653-7.387 63.976-19.351-19.778-12.303-43.635-17.222-62.944-30.603-29.036-18.126-56.336-39.032-84.098-59.03-2.714-2.131-1.81-5.74-2.179-8.752-.183-4.683 5.372-6.83 8.862-8.66 14.055-5.749 29.132-8.337 43.56-12.958 16.053-3.819 11.654-17.239 12.125-29.826.292-17.815 2.004-21.87-16.806-28.044-108.069-39.083-136.368-42.735-3.57-74.42 3.73-1.16 6.305-2.121 5.673-6.482-.987-5.786-9.174-5.589-13.636-7.349-23.492-5.464-46.689-12.344-68.242-23.321-7.531-4.542-52.157-16.693-27.475-25.224 22.254-7.453 47.184-9.099 67.619-20.888 7.695-7.644-2.738-10.861-7.169-15.084-.578-2.919-2.481-4.871-4.733-6.386-7.538-5.995-3.271-22.142-5.143-31.621-1.405-26.15-2.518-52.295-4.183-78.43-5.45-.316-10.84.654-16.288.339l.075-.07c1.403 30.177 2.881 60.35 4.496 90.516 1.149 6.039-1.701 14.564 3.952 18.72 2.541 1.753 4.802 3.698 5.41 6.998 1.117 2.051 4.048 2.506 5.8 3.941 21.178 18.418-56.609 27.511-66.844 32.121-7.113 1.186-9.361 7.526-2.82 11.543 3.4 1.581 6.771 3.244 10.252 4.627 23.278 9.478 45.377 21.92 70.138 27.343 6.561 2.905 32.121 5.014 32.388 12.456-.03 3.69-.1 4.332-3.632 5.473-10.943 5.815-110.68 20.248-87.808 39.397 31.893 19.006 69.436 25.59 102.284 42.136 7.029 3.909 2.437 27.12 3.821 35.383 2.11 12.585-10.461 15.939-19.996 18.64-8.973 2.556-18.064 4.705-27.016 7.329-6.149 2.822-18.096 4.38-17.581 13.076-.377 4.235 1.213 7.439 4.771 9.749 28.506 19.196 55.448 40.567 84.651 58.727 16.468 10.374 35.126 16.366 52.755 24.394 2.929 1.784 7.5 2.8 8.372 6.543 2.498 9.159-37.734 11.057-44.982 13.618-24.183 3.866-48.226 8.572-72.023 14.37-39.04 9.238-2.401 24.065 14.199 32.243 23.624 11.712 45.291 27.075 70.569 35.304 20.8 8.328 43.123 13.903 62.195 25.923 26.35 19.751-62.58 33.607-72.313 44.609-5.053 3.188-5.439 12.41-.011 15.786 11.104 7.088 22.098 14.362 33.142 21.546 14.341 10.801 23.712 26.751 35.792 39.844 13.833 15.781 31.396 29.903 37.592 50.73C-3.245-17.644 1.036-9.088.061.07z" style="fill:#231f20;fill-opacity:1;fill-rule:nonzero;stroke:none" transform="matrix(1.33333 0 0 -1.33333 1560.607 4126.924)"/></g>
  <path d="M856.9 4113.3 L857 4115.1 L857 4116.9 L857 4118.7 L857 4120.5 L857.1 4122.3 L857.1 4124 L857.2 4125.8 L857.3 4127.6 L857.4 4129.4 L857.5 4131.3 L901.8 4130.7 L953.9 4130.2 L1012.4 4129.9 L1075.5 4129.6 L1141.9 4129.5 L1209.8 4129.3 L1277.6 4129.1 L1343.9 4128.9 L1407 4128.6 L1465.2 4128.2 L1517.1 4127.6 L1561 4126.8 L1578.9 4126.4 L1577 4126.4 L1575.2 4126.4 L1573.4 4126.5 L1571.6 4126.5 L1569.8 4126.6 L1568 4126.6 L1566.1 4126.7 L1564.3 4126.8 L1562.5 4126.8 L1560.6 4126.9 L1560.7 4126.8 L1560.9 4129.9 L1560.8 4132.9 L1560.5 4135.9 L1560 4138.8 L1559.4 4141.8 L1558.6 4144.7 L1557.8 4147.6 L1556.9 4150.5 L1556 4153.4 L1555.1 4156.3 L1554.3 4159.3 L1553.5 4162.2 L1551.2 4168.9 L1548.2 4175.4 L1544.8 4181.5 L1541 4187.4 L1536.8 4193 L1532.3 4198.5 L1527.6 4203.9 L1522.8 4209.1 L1517.9 4214.3 L1513 4219.4 L1508.1 4224.6 L1503.4 4229.8 L1499.5 4234.3 L1495.6 4238.8 L1491.8 4243.5 L1488.1 4248.1 L1484.4 4252.9 L1480.7 4257.5 L1476.9 4262.1 L1473 4266.6 L1468.9 4271 L1464.7 4275.2 L1460.3 4279.2 L1455.7 4282.9 L1452 4285.3 L1448.3 4287.7 L1444.7 4290.1 L1441 4292.5 L1437.3 4295 L1433.6 4297.4 L1429.9 4299.8 L1426.3 4302.2 L1422.6 4304.5 L1418.9 4306.9 L1415.2 4309.3 L1411.5 4311.7 L1409.8 4312.9 L1408.5 4314.5 L1407.5 4316.3 L1406.8 4318.2 L1406.4 4320.2 L1406.3 4322.3 L1406.4 4324.4 L1406.9 4326.4 L1407.6 4328.3 L1408.7 4330 L1410 4331.5 L1411.5 4332.7 L1416.8 4336.5 L1425.6 4340.4 L1437 4344.5 L1450.1 4348.8 L1464 4353.3 L1477.8 4358.1 L1490.5 4363.1 L1501.4 4368.3 L1509.5 4373.9 L1513.9 4379.7 L1513.7 4385.8 L1507.9 4392.2 L1501.5 4396 L1494.9 4399.6 L1488.1 4402.8 L1481.3 4405.8 L1474.3 4408.6 L1467.3 4411.3 L1460.3 4413.9 L1453.2 4416.4 L1446.1 4418.9 L1439 4421.5 L1432 4424.1 L1425 4426.8 L1416.7 4429.7 L1408.5 4433 L1400.5 4436.5 L1392.6 4440.4 L1384.8 4444.4 L1377.1 4448.6 L1369.5 4452.8 L1361.8 4457.1 L1354.2 4461.4 L1346.5 4465.7 L1338.7 4469.8 L1330.9 4473.8 L1324.9 4476.7 L1318.2 4479.9 L1311.3 4483.4 L1304.6 4487.1 L1298.6 4490.9 L1293.6 4494.8 L1290.2 4498.7 L1288.8 4502.6 L1289.9 4506.4 L1293.8 4510.1 L1301 4513.6 L1312 4516.8 L1319.9 4518.7 L1327.9 4520.6 L1335.8 4522.4 L1343.8 4524.1 L1351.8 4525.8 L1359.8 4527.4 L1367.8 4528.9 L1375.8 4530.4 L1383.9 4531.9 L1391.9 4533.3 L1400 4534.7 L1408 4536 L1411.3 4536.8 L1416 4537.7 L1421.9 4538.5 L1428.6 4539.5 L1435.7 4540.6 L1442.9 4541.8 L1449.8 4543.2 L1456.1 4544.8 L1461.4 4546.6 L1465.4 4548.8 L1467.7 4551.3 L1468 4554.1 L1467.6 4555.3 L1467 4556.4 L1466.3 4557.3 L1465.4 4558.1 L1464.5 4558.8 L1463.4 4559.5 L1462.3 4560.1 L1461.2 4560.7 L1460.1 4561.2 L1458.9 4561.7 L1457.8 4562.3 L1456.8 4562.9 L1450.9 4565.5 L1445 4568 L1439 4570.5 L1433 4573 L1427 4575.4 L1421.1 4578 L1415.1 4580.5 L1409.3 4583.2 L1403.4 4586 L1397.7 4588.9 L1392 4592 L1386.5 4595.4 L1376.8 4601.5 L1367.2 4607.8 L1357.8 4614.2 L1348.4 4620.8 L1339 4627.4 L1329.7 4634 L1320.4 4640.7 L1311.1 4647.4 L1301.8 4654.1 L1292.5 4660.7 L1283.1 4667.2 L1273.6 4673.7 L1272.5 4674.5 L1271.5 4675.3 L1270.5 4676.2 L1269.7 4677.2 L1269.1 4678.2 L1268.5 4679.2 L1268 4680.3 L1267.6 4681.5 L1267.4 4682.7 L1267.2 4684 L1267.2 4685.3 L1267.3 4686.7 L1267.4 4689.4 L1268.2 4691.7 L1269.5 4693.8 L1271.2 4695.5 L1273.3 4697 L1275.6 4698.3 L1278.2 4699.5 L1280.8 4700.5 L1283.5 4701.4 L1286.1 4702.3 L1288.5 4703.2 L1290.7 4704.1 L1293.7 4705 L1296.7 4705.8 L1299.7 4706.6 L1302.7 4707.5 L1305.7 4708.3 L1308.7 4709 L1311.7 4709.8 L1314.7 4710.6 L1317.7 4711.4 L1320.7 4712.2 L1323.7 4713.1 L1326.7 4713.9 L1330 4714.8 L1333.3 4715.8 L1336.6 4716.9 L1339.9 4718.2 L1343 4719.7 L1345.9 4721.4 L1348.4 4723.4 L1350.5 4725.6 L1352.2 4728.3 L1353.3 4731.3 L1353.7 4734.8 L1353.4 4738.8 L1353.1 4741.9 L1353 4745.7 L1353.1 4750 L1353.3 4754.7 L1353.5 4759.6 L1353.7 4764.5 L1353.6 4769.3 L1353.4 4773.8 L1352.8 4777.9 L1351.8 4781.4 L1350.3 4784.1 L1348.3 4785.9 L1337.2 4791.2 L1325.9 4796 L1314.5 4800.4 L1302.9 4804.7 L1291.3 4808.7 L1279.6 4812.8 L1268 4816.9 L1256.4 4821.2 L1245 4825.7 L1233.7 4830.7 L1222.7 4836.1 L1211.9 4842.1 L1207.5 4848.4 L1209 4854.3 L1215.3 4860 L1225.5 4865.4 L1238.5 4870.4 L1253.5 4875 L1269.5 4879.3 L1285.4 4883.2 L1300.2 4886.7 L1313.1 4889.8 L1323 4892.5 L1329 4894.6 L1330.1 4895 L1331 4895.4 L1331.7 4895.7 L1332.3 4896.1 L1332.8 4896.5 L1333.2 4897 L1333.4 4897.6 L1333.6 4898.2 L1333.7 4898.9 L1333.8 4899.8 L1333.8 4900.8 L1333.8 4901.9 L1333.1 4904.3 L1331.1 4906.3 L1328.2 4908.2 L1324.4 4909.8 L1320.1 4911.2 L1315.4 4912.5 L1310.5 4913.7 L1305.6 4914.7 L1301 4915.7 L1296.9 4916.7 L1293.3 4917.6 L1290.6 4918.5 L1282.5 4920.5 L1274.4 4922.9 L1266.5 4925.5 L1258.6 4928.4 L1250.8 4931.5 L1243.1 4934.7 L1235.5 4938.1 L1227.8 4941.5 L1220.2 4945 L1212.5 4948.4 L1204.9 4951.8 L1197.1 4955 L1196 4955.5 L1194.8 4956 L1193.7 4956.4 L1192.5 4957 L1191.4 4957.5 L1190.2 4958 L1189.1 4958.5 L1188 4959 L1186.8 4959.6 L1185.7 4960.1 L1184.6 4960.6 L1183.5 4961.2 L1181.5 4962.6 L1180 4964.1 L1179 4965.6 L1178.4 4967.2 L1178.3 4968.8 L1178.5 4970.3 L1179.1 4971.7 L1180.1 4973.1 L1181.4 4974.2 L1183 4975.2 L1185 4976 L1187.2 4976.6 L1192.4 4978.2 L1200.5 4980.2 L1210.9 4982.4 L1222.7 4984.9 L1235.1 4987.8 L1247.5 4991.1 L1259 4994.7 L1268.8 4998.7 L1276.2 5003.2 L1280.5 5008.1 L1280.8 5013.5 L1276.3 5019.4 L1275.7 5019.8 L1275.1 5020.3 L1274.4 5020.6 L1273.6 5021 L1272.9 5021.3 L1272.2 5021.7 L1271.4 5022.1 L1270.8 5022.5 L1270.1 5022.9 L1269.5 5023.4 L1269 5024 L1268.6 5024.6 L1268.4 5025.7 L1268 5026.7 L1267.6 5027.6 L1267.1 5028.5 L1266.6 5029.3 L1266 5030.1 L1265.3 5030.8 L1264.6 5031.5 L1263.8 5032.1 L1263 5032.8 L1262.2 5033.4 L1261.4 5034 L1259.7 5035.5 L1258.5 5037.2 L1257.6 5039.1 L1257 5041.1 L1256.7 5043.3 L1256.5 5045.5 L1256.5 5047.8 L1256.5 5050.1 L1256.5 5052.4 L1256.5 5054.7 L1256.4 5056.9 L1256.1 5058.9 L1255.6 5069 L1255.1 5079 L1254.5 5089.1 L1254 5099.2 L1253.5 5109.2 L1253 5119.3 L1252.5 5129.3 L1252 5139.4 L1251.6 5149.4 L1251.1 5159.5 L1250.6 5169.6 L1250.1 5179.6 L1250 5179.5 L1251.8 5179.5 L1253.7 5179.4 L1255.5 5179.5 L1257.3 5179.6 L1259.1 5179.6 L1260.9 5179.8 L1262.7 5179.9 L1264.5 5180 L1266.3 5180 L1268.1 5180.1 L1250.5 5179.6 L1203.5 5177 L1150 5175.2 L1091.4 5174 L1028.9 5173.4 L963.9 5173 L897.6 5172.8 L831.3 5172.6 L766.3 5172.2 L703.9 5171.4 L645.4 5170 L592 5167.9 L545.2 5164.9 L545.3 5164.8 L545.2 5166.6 L545.1 5168.4 L545.1 5170.2 L545 5172.1 L544.9 5173.9 L544.9 5175.7 L544.8 5177.5 L544.8 5179.3 L544.7 5181.1 L544.7 5182.9 L544.7 5184.7 L544.7 5186.5 L545.1 5164.9 L545.6 5158.9 L546 5152.9 L546.4 5146.9 L546.7 5140.9 L547 5134.9 L547.3 5128.9 L547.6 5122.9 L547.9 5116.9 L548.2 5110.8 L548.5 5104.8 L548.8 5098.8 L549.1 5092.8 L549.3 5088.6 L549.6 5084.4 L549.8 5080.1 L550 5075.9 L550.2 5071.7 L550.4 5067.4 L550.6 5063.2 L550.8 5059 L551 5054.7 L551.3 5050.5 L551.5 5046.3 L551.7 5042.1 L551.8 5040.2 L552.3 5038.6 L553.1 5037.2 L554.1 5035.9 L555.4 5034.8 L556.7 5033.7 L558.1 5032.6 L559.4 5031.5 L560.6 5030.4 L561.7 5029.1 L562.6 5027.7 L563.1 5026 L564 5024.5 L565.5 5023 L567.5 5021.5 L569.7 5020 L571.9 5018.5 L574 5016.8 L575.6 5015.1 L576.7 5013.1 L576.9 5010.9 L576.1 5008.4 L574.1 5005.6 L570.7 5002.5 L563.8 4999 L556.7 4995.9 L549.5 4993.3 L542.2 4991.1 L534.7 4989 L527.1 4987.2 L519.5 4985.6 L511.9 4984 L504.3 4982.3 L496.7 4980.6 L489.2 4978.8 L481.8 4976.7 L480.9 4976.4 L480 4976 L479 4975.7 L478 4975.4 L477 4975 L476.1 4974.6 L475.2 4974.1 L474.4 4973.6 L473.8 4972.9 L473.3 4972.1 L473 4971.1 L472.8 4970.1 L473.1 4967.3 L474 4965 L475.4 4963.1 L477.2 4961.5 L479.3 4960.1 L481.7 4958.9 L484.2 4957.9 L486.8 4957 L489.4 4956.1 L492 4955.1 L494.4 4954.1 L496.5 4953 L498.7 4952 L500.8 4951.1 L503 4950.2 L505.1 4949.3 L507.2 4948.3 L509.4 4947.4 L511.5 4946.5 L513.7 4945.5 L515.8 4944.6 L518 4943.7 L520.1 4942.7 L522.3 4941.8 L528.7 4938.8 L535.1 4935.9 L541.6 4933.2 L548.2 4930.6 L554.8 4928.1 L561.4 4925.8 L568.1 4923.6 L574.8 4921.5 L581.6 4919.6 L588.4 4917.8 L595.2 4916.1 L602.1 4914.5 L604 4914.1 L605.8 4913.6 L607.7 4913.1 L609.5 4912.5 L611.3 4912 L613.2 4911.4 L615 4910.8 L616.8 4910.2 L618.6 4909.7 L620.5 4909.1 L622.3 4908.5 L624.1 4907.9 L624.9 4907.6 L625.7 4907.2 L626.3 4906.8 L626.9 4906.4 L627.4 4905.8 L627.9 4905.3 L628.2 4904.6 L628.5 4903.9 L628.7 4903.2 L628.9 4902.4 L629 4901.5 L629 4900.6 L628.9 4899.2 L628.5 4898 L627.8 4897 L627 4896.2 L626 4895.5 L624.8 4894.9 L623.6 4894.4 L622.3 4894 L621 4893.6 L619.7 4893.2 L618.4 4892.8 L617.3 4892.4 L577.2 4882.8 L546.3 4874.3 L524.1 4866.7 L510.1 4859.7 L503.7 4853.1 L504.3 4846.5 L511.5 4839.7 L524.7 4832.5 L543.3 4824.7 L566.8 4815.8 L594.7 4805.8 L626.4 4794.3 L629.6 4793.2 L632.7 4792 L635.7 4790.7 L638.5 4789.3 L641.1 4787.7 L643.4 4785.9 L645.3 4783.8 L646.9 4781.5 L648.1 4778.9 L648.7 4775.9 L648.8 4772.6 L648.4 4768.8 L648.4 4765.9 L648.4 4763 L648.4 4760.1 L648.4 4757.2 L648.4 4754.3 L648.4 4751.4 L648.4 4748.5 L648.4 4745.6 L648.4 4742.7 L648.5 4739.7 L648.5 4736.8 L648.5 4733.9 L648.4 4731.5 L647.9 4729.3 L647.1 4727.3 L645.9 4725.5 L644.5 4723.9 L642.9 4722.5 L641 4721.2 L639.1 4720.1 L637 4719.1 L634.9 4718.2 L632.8 4717.4 L630.7 4716.6 L625.1 4714.8 L617.5 4712.8 L608.6 4710.7 L599 4708.3 L589.3 4705.6 L580.2 4702.5 L572.3 4698.9 L566.2 4694.8 L562.5 4690 L561.8 4684.6 L564.8 4678.4 L572.1 4671.3 L582.3 4664.4 L592.4 4657.4 L602.5 4650.3 L612.6 4643.2 L622.7 4636.1 L632.8 4629 L642.9 4621.9 L653 4614.9 L663.2 4608 L673.5 4601.2 L683.9 4594.6 L694.3 4588.1 L697.4 4586.6 L700.5 4585.2 L703.6 4583.8 L706.8 4582.3 L709.9 4581 L713 4579.6 L716.2 4578.2 L719.3 4576.8 L722.5 4575.5 L725.6 4574.1 L728.8 4572.7 L731.9 4571.4 L734.1 4570.2 L737.2 4568.9 L741 4567.4 L745.1 4565.8 L749.3 4564.1 L753.5 4562.3 L757.2 4560.3 L760.2 4558.2 L762.3 4556 L763.2 4553.6 L762.6 4551 L760.3 4548.3 L747.5 4544.8 L734.6 4541.8 L721.7 4539.1 L708.7 4536.6 L695.6 4534.3 L682.5 4532.1 L669.4 4529.9 L656.3 4527.7 L643.2 4525.2 L630.2 4522.6 L617.3 4519.6 L604.4 4516.2 L593.9 4512.8 L587.4 4509.1 L584.2 4505.3 L583.9 4501.4 L586.1 4497.4 L590.2 4493.4 L595.8 4489.5 L602.3 4485.7 L609.3 4482 L616.3 4478.6 L622.7 4475.5 L628.1 4472.7 L632.7 4470.3 L637.2 4467.9 L641.7 4465.5 L646.3 4463 L650.8 4460.5 L655.2 4458 L659.7 4455.5 L664.2 4453 L668.7 4450.5 L673.2 4448 L677.6 4445.4 L682.1 4442.9 L690.3 4439 L698.6 4435.3 L706.9 4431.8 L715.3 4428.4 L723.8 4425.2 L732.3 4422 L740.8 4418.9 L749.3 4415.7 L757.9 4412.6 L766.3 4409.4 L774.8 4406.1 L783.2 4402.8 L801.8 4393 L809.5 4384.5 L808.1 4376.8 L799.6 4369.9 L785.9 4363.6 L768.9 4357.4 L750.4 4351.3 L732.5 4345.1 L717.1 4338.4 L705.9 4331 L701.1 4322.9 L704.4 4313.6 L709.2 4310 L714.1 4306.5 L719.1 4303.3 L724.2 4300.1 L729.4 4297 L734.5 4293.9 L739.6 4290.7 L744.6 4287.4 L749.5 4283.9 L754.2 4280.3 L758.7 4276.4 L762.9 4272.1 L765.2 4269.5 L767.5 4266.8 L769.8 4264.1 L772.1 4261.5 L774.4 4258.8 L776.6 4256.1 L778.9 4253.4 L781.2 4250.7 L783.4 4248 L785.7 4245.4 L788 4242.7 L790.3 4240 L793.5 4235.9 L796.9 4232 L800.3 4228.1 L803.7 4224.2 L807.2 4220.4 L810.8 4216.6 L814.3 4212.8 L817.8 4208.9 L821.3 4205.1 L824.8 4201.2 L828.2 4197.3 L831.5 4193.3 L834.8 4188.9 L837.9 4184.3 L840.8 4179.5 L843.5 4174.6 L845.9 4169.5 L848.2 4164.3 L850.1 4159.1 L851.8 4153.7 L853.2 4148.4 L854.3 4142.9 L855 4137.5 L855.4 4132.1 L854 4132.1 L852.5 4132.1 L851.1 4132.1 L849.7 4132.1 L848.2 4132.1 L846.8 4132.1 L845.4 4132.1 Z" fill="none" stroke="red" stroke-width="0.5"/>
</svg>