<svg xmlns="http://www.w3.org/2000/svg" viewBox="4002.19 773.762 986.8 996.34" style="background:#f5f5f5">
  <path d="M4633.5 1271.9 L4635.1 1273.1 L4636.7 1274.4 L4638.4 1275.7 L4640.2 1277 L4641.9 1278.3 L4643.7 1279.7 L4645.5 1281.1 L4647.3 1282.5 L4649.2 1284 L4651.1 1285.5 L4653 1287.1 L4655 1288.7 L4657 1290.3 L4659.1 1292 L4661.2 1293.7 L4663.3 1295.5 L4665.5 1297.3 L4667.8 1299.2 L4670.1 1301.1 L4672.5 1303.1 L4675 1305.2 L4677.5 1307.3 L4680.1 1309.5 L4682.9 1311.7 L4685.7 1314.1 L4688.6 1316.5 L4691.6 1319 L4694.8 1321.6 L4698.2 1324.3 L4701.7 1327.1 L4705.4 1330.1 L4709.3 1333.2 L4713.1 1336.4 L4716.9 1339.6 L4720.7 1342.9 L4724.5 1346.3 L4728.4 1349.8 L4732.3 1353.4 L4736.2 1357.1 L4740.3 1361 L4744.4 1365 L4748.7 1369.1 L4753.1 1373.4 L4757.7 1377.8 L4762.7 1382.6 L4768 1387.5 L4773.7 1392.8 L4780.1 1398.6 L4787.5 1404.9 L4796.4 1412.2 L4808.5 1421.2 L4821 1430.6 L4831.8 1439.6 L4842.1 1448.5 L4852.2 1457.6 L4862.8 1467.2 L4875.2 1478.1 L4888.1 1489.5 L4900.5 1501 L4911.6 1512.1 L4921.4 1522.7 L4929.6 1532.7 L4936.6 1542.2 L4941.7 1550.7 L4943.5 1557.3 L4944.1 1563.2 L4944.2 1568.9 L4944.2 1574.5 L4944.1 1580.2 L4944.1 1586 L4944.2 1591.9 L4944.4 1598 L4944.7 1604.3 L4945.1 1610.7 L4945.7 1617.3 L4946.2 1624 L4946.4 1630.5 L4946.8 1637.3 L4947.4 1644.4 L4948.3 1651.8 L4949.3 1659.5 L4950.6 1667.4 L4951.9 1675.7 L4953.3 1684.1 L4954.7 1692.6 L4956 1701.2 L4957.1 1709.9 L4957.9 1718.4 L4958.5 1726.8 L4951.3 1735.6 L4943.4 1735.7 L4935.7 1735.7 L4928.2 1735.8 L4920.7 1735.9 L4913.4 1735.9 L4906.2 1736 L4899 1736 L4892 1736.1 L4885.1 1736.1 L4878.3 1736.2 L4871.6 1736.2 L4864.9 1736.3 L4858.4 1736.3 L4851.9 1736.3 L4845.6 1736.4 L4839.3 1736.4 L4833.1 1736.4 L4826.9 1736.5 L4820.9 1736.5 L4814.9 1736.5 L4809 1736.6 L4803.1 1736.6 L4797.4 1736.6 L4791.7 1736.7 L4786 1736.7 L4780.4 1736.7 L4774.9 1736.8 L4769.4 1736.8 L4764 1736.8 L4758.6 1736.9 L4644 1539.6 L4634.1 1527 L4627.4 1519.8 L4621.3 1513.4 L4615.7 1507.6 L4610.5 1502.4 L4605.7 1497.6 L4601.1 1493.2 L4596.9 1489.2 L4592.8 1485.3 L4589 1481.7 L4585.4 1478.4 L4581.9 1475.2 L4578.5 1472.2 L4575.4 1469.4 L4572.3 1466.6 L4569.3 1464 L4566.5 1461.5 L4563.7 1459.1 L4561.1 1456.9 L4558.5 1454.6 L4556 1452.5 L4553.6 1450.4 L4551.3 1448.5 L4549 1446.6 L4546.8 1444.7 L4544.6 1442.9 L4542.5 1441.2 L4540.5 1439.5 L4538.5 1437.8 L4536.6 1436.3 L4534.7 1434.7 L4532.8 1433.2 L4531 1431.7 L4529.2 1430.3 L4527.5 1428.9 L4525.8 1427.5 L4524.2 1426.2 L4522.6 1424.9 L4521 1423.6 L4519.4 1422.3 L4517.9 1421.1 L4516.4 1419.9 L4514.9 1418.7 L4513.5 1417.6 L4512.1 1416.5 L4510.7 1415.4 L4509.3 1414.3 L4508 1413.2 L4506.6 1412.2 L4505.3 1411.1 L4504 1410.1 L4502.8 1409.1 L4501.5 1408.2 L4500.3 1407.2 L4499.1 1406.2 L4497.9 1405.3 L4496.7 1404.4 L4495.6 1403.5 L4494.4 1402.6 L4493.3 1401.7 L4492.2 1400.8 L4491.1 1400 L4490 1399 L4489 1398.1 L4487.9 1397.2 L4486.9 1396.3 L4485.9 1395.4 L4484.9 1394.5 L4483.9 1393.6 L4482.9 1392.7 L4481.9 1391.8 L4481 1391 L4480 1390.1 L4479.1 1389.3 L4478.2 1388.5 L4477.3 1387.6 L4476.4 1386.8 L4475.5 1386 L4474.6 1385.2 L4473.7 1384.4 L4472.9 1383.6 L4472 1382.8 L4471.2 1382 L4470.4 1381.2 L4469.5 1380.5 L4468.7 1379.7 L4467.9 1378.9 L4467.1 1378.2 L4466.3 1377.5 L4465.5 1376.7 L4464.8 1376 L4464 1375.3 L4463.2 1374.6 L4462.5 1373.8 L4461.7 1373.1 L4461 1372.4 L4460.3 1371.7 L4459.5 1371 L4458.8 1370.3 L4458.1 1369.7 L4457.4 1369 L4456.7 1368.3 L4455.9 1367.6 L4455.2 1367 L4454.6 1366.3 L4453.9 1365.7 L4453.2 1365 L4452.5 1364.4 L4451.8 1363.7 L4451.1 1363.1 L4450.5 1362.4 L4449.8 1361.8 L4449.1 1361.2 L4448.5 1360.5 L4447.8 1359.9 L4447.2 1359.3 L4446.5 1358.7 L4445.9 1358.1 L4445.2 1357.5 L4444.6 1356.9 L4443.9 1356.2 L4443.3 1355.6 L4442.6 1355 L4442 1354.4 L4441.4 1353.9 L4440.7 1353.3 L4440.1 1352.7 L4439.5 1352.1 L4438.8 1351.5 L4438.2 1350.9 L4437.6 1350.3 L4437 1349.7 L4436.3 1349.2 L4435.7 1348.6 L4435.1 1348 L4434.5 1347.4 L4433.8 1346.9 L4433.2 1346.3 L4432.6 1345.7 L4432 1345.1 L4431.3 1344.6 L4430.7 1344 L4430.1 1343.4 L4429.5 1342.9 L4428.8 1342.3 L4428.2 1341.7 L4427.6 1341.2 L4426.9 1340.6 L4426.3 1340 L4425.7 1339.5 L4425 1338.9 L4424.4 1338.3 L4423.8 1337.8 L4423.1 1337.2 L4422.5 1336.6 L4421.8 1336.1 L4421.2 1335.5 L4420.5 1334.9 L4419.9 1334.4 L4419.2 1333.8 L4418.5 1333.2 L4417.9 1332.6 L4417.2 1332.1 L4416.5 1331.5 L4415.9 1330.9 L4415.2 1330.3 L4414.5 1329.8 L4413.8 1329.2 L4413.1 1328.6 L4412.4 1328 L4411.7 1327.4 L4411 1326.9 L4410.3 1326.3 L4409.6 1325.7 L4408.9 1325.1 L4408.1 1324.5 L4407.4 1323.9 L4406.6 1323.3 L4405.8 1322.7 L4405.1 1322.1 L4404.3 1321.5 L4403.5 1320.9 L4402.7 1320.3 L4401.9 1319.7 L4401.1 1319 L4400.3 1318.4 L4399.5 1317.7 L4398.7 1317.1 L4397.9 1316.4 L4397.1 1315.8 L4396.3 1315.1 L4395.5 1314.4 L4394.6 1313.8 L4393.8 1313.1 L4392.9 1312.4 L4392.1 1311.7 L4391.2 1311 L4390.4 1310.2 L4389.5 1309.5 L4388.6 1308.8 L4387.7 1308 L4386.8 1307.3 L4385.9 1306.5 L4385 1305.7 L4384.1 1305 L4383.1 1304.2 L4382.2 1303.4 L4381.2 1302.6 L4380.3 1301.8 L4379.3 1300.9 L4378.3 1300.1 L4377.3 1299.2 L4376.3 1298.4 L4375.2 1297.5 L4374.2 1296.6 L4373.1 1295.7 L4372 1294.8 L4370.9 1293.9 L4369.8 1293 L4368.7 1292 L4367.5 1291.1 L4366.3 1290.1 L4365.1 1289.1 L4363.9 1288.1 L4362.6 1287.1 L4361.3 1286 L4360 1285 L4358.6 1283.9 L4357.2 1282.8 L4355.8 1281.7 L4354.3 1280.6 L4352.8 1279.4 L4351.2 1278.2 L4349.6 1277 L4347.9 1275.8 L4346.1 1274.5 L4344.3 1273.3 L4342.4 1271.9 L4340.5 1270.6 L4338.5 1269.2 L4336.6 1267.8 L4334.6 1266.3 L4332.7 1264.8 L4330.8 1263.3 L4328.9 1261.7 L4327 1260.1 L4325.1 1258.5 L4323.3 1256.9 L4321.4 1255.2 L4319.6 1253.4 L4317.8 1251.7 L4316 1249.9 L4314.2 1248 L4312.4 1246.2 L4310.6 1244.3 L4308.9 1242.4 L4307.2 1240.4 L4305.5 1238.4 L4303.7 1236.4 L4302.1 1234.3 L4300.4 1232.2 L4298.7 1230.1 L4297 1227.9 L4295.5 1225.7 L4293.9 1223.5 L4292.1 1221.2 L4290.1 1218.8 L4288 1216.3 L4285.7 1213.7 L4283.2 1211 L4280.5 1208.2 L4277.6 1205.3 L4274.5 1202.2 L4271.2 1199 L4267.9 1195.7 L4264.5 1192.3 L4261.1 1188.9 L4257.7 1185.4 L4254.6 1181.8 L4251.7 1178.3 L4249 1174.8 L4246.5 1171.3 L4244.3 1167.8 L4242.1 1164.3 L4239.5 1160.6 L4236.7 1156.7 L4233.6 1152.5 L4230 1148.1 L4226 1143.3 L4221.3 1138.2 L4216 1132.5 L4209.8 1126.3 L4202.7 1119.5 L4194.5 1111.8 L4183.9 1102.7 L4171.7 1092.4 L4158.5 1081.2 L4142.6 1068.1 L4107.6 1043.4 L4060.3 1010.4 L4051.2 999.6 L4046.6 991.4 L4043.4 983.8 L4039.3 975.6 L4035.4 967.3 L4033 959.9 L4031.7 953.1 L4031.3 946.8 L4031.7 941 L4032.7 935.6 L4034.4 930.7 L4036.7 926.2 L4039.7 922.1 L4042.1 917.6 L4044.5 913.1 L4048.3 909.7 L4052 906.3 L4055.9 903 L4059.8 899.7 L4063.7 896.5 L4067.8 893.4 L4071.9 890.4 L4076 887.5 L4080.3 884.6 L4084.6 881.9 L4088.9 879.2 L4093.3 876.6 L4097.7 874 L4101.1 870.5 L4103.7 866.1 L4105.9 861.3 L4107.5 855.8 L4108.7 849.7 L4109.4 843 L4109.7 835.8 L4109.8 828.1 L4109.8 820.2 L4110.1 812.5 L4112.1 806.7 L4118.9 806.7 L4125.6 806.8 L4132.2 806.8 L4138.7 806.9 L4145.2 806.9 L4151.6 807 L4157.8 807 L4164 807.1 L4170.2 807.2 L4176.2 807.2 L4182.2 807.3 L4188.1 807.3 L4193.9 807.4 L4199.7 807.5 L4205.4 807.5 L4211 807.6 L4216.6 807.7 L4222.1 807.7 L4227.6 807.8 L4233 807.8 L4350.3 1009.8 L4355.6 1014.1 L4360.3 1017.4 L4364.7 1020.6 L4369.1 1023.6 L4373.2 1026.5 L4377.2 1029.2 L4381.1 1031.8 L4384.8 1034.3 L4388.4 1036.8 L4391.9 1039.2 L4395.4 1041.5 L4398.7 1043.7 L4402 1045.9 L4405.1 1048 L4408.2 1050.1 L4411.2 1052.2 L4414.2 1054.2 L4417.1 1056.1 L4419.9 1058.1 L4422.6 1060 L4425.3 1061.9 L4428 1063.8 L4430.5 1065.6 L4433.2 1067.9 L4435.8 1070.2 L4438.4 1072.4 L4440.8 1074.5 L4443.2 1076.5 L4445.6 1078.5 L4447.8 1080.4 L4450 1082.2 L4452.2 1084 L4454.3 1085.8 L4456.4 1087.5 L4458.4 1089.1 L4460.4 1090.8 L4462.3 1092.3 L4464.2 1093.9 L4466.1 1095.4 L4467.9 1096.9 L4469.7 1098.4 L4471.4 1099.9 L4473.1 1101.3 L4474.8 1102.8 L4476.5 1104.1 L4478.1 1105.5 L4479.7 1106.9 L4481.3 1108.3 L4482.8 1109.6 L4484.3 1110.9 L4485.8 1112.2 L4487.3 1113.5 L4488.7 1114.8 L4490.1 1116.1 L4491.5 1117.4 L4492.9 1118.6 L4494.3 1119.8 L4495.6 1121.1 L4496.9 1122.3 L4498.2 1123.6 L4499.4 1124.8 L4500.7 1126 L4501.9 1127.1 L4503.1 1128.3 L4504.3 1129.5 L4505.5 1130.7 L4506.6 1131.9 L4507.7 1133.1 L4508.8 1134.2 L4509.9 1135.4 L4511 1136.5 L4512.1 1137.7 L4513.1 1138.8 L4514.1 1140 L4515.1 1141.1 L4516.1 1142.3 L4517.1 1143.4 L4518.1 1144.5 L4519 1145.6 L4519.9 1146.7 L4520.8 1147.9 L4521.7 1149 L4522.6 1150.1 L4523.5 1151.2 L4524.3 1152.3 L4525.2 1153.4 L4526 1154.4 L4526.8 1155.5 L4527.6 1156.6 L4528.3 1157.7 L4529.1 1158.8 L4529.8 1159.9 L4530.6 1161 L4531.3 1162 L4532 1163.1 L4532.7 1164.1 L4533.4 1165.1 L4534.1 1166.2 L4534.7 1167.2 L4535.4 1168.2 L4536.1 1169.2 L4536.7 1170.2 L4537.3 1171.2 L4538 1172.1 L4538.6 1172.9 L4539.3 1173.8 L4539.9 1174.7 L4540.5 1175.5 L4541.2 1176.4 L4541.8 1177.2 L4542.4 1178 L4543.1 1178.7 L4543.7 1179.5 L4544.3 1180.2 L4545 1181 L4545.6 1181.7 L4546.2 1182.5 L4546.8 1183.2 L4547.4 1183.9 L4548.1 1184.6 L4548.7 1185.3 L4549.3 1186 L4549.9 1186.6 L4550.5 1187.3 L4551.1 1188 L4551.8 1188.7 L4552.4 1189.3 L4553 1189.9 L4553.6 1190.6 L4554.2 1191.2 L4554.8 1191.9 L4555.4 1192.5 L4556 1193.1 L4556.7 1193.8 L4557.3 1194.4 L4557.9 1195 L4558.5 1195.6 L4559.1 1196.2 L4559.7 1196.9 L4560.3 1197.5 L4560.9 1198.1 L4561.5 1198.7 L4562.1 1199.3 L4562.7 1199.9 L4563.3 1200.5 L4564 1201.1 L4564.6 1201.7 L4565.2 1202.4 L4565.8 1203 L4566.4 1203.6 L4567 1204.2 L4567.6 1204.8 L4568.2 1205.4 L4568.8 1206 L4569.4 1206.6 L4570 1207.2 L4570.6 1207.9 L4571.2 1208.5 L4571.8 1209.1 L4572.4 1209.7 L4573 1210.4 L4573.6 1211 L4574.2 1211.6 L4574.8 1212.2 L4575.4 1212.9 L4576 1213.5 L4576.6 1214.2 L4577.2 1214.8 L4577.8 1215.5 L4578.4 1216.1 L4578.9 1216.8 L4579.5 1217.4 L4580.1 1218.1 L4580.7 1218.8 L4581.3 1219.4 L4581.9 1220.1 L4582.4 1220.8 L4583 1221.5 L4583.6 1222.2 L4584.1 1222.9 L4584.7 1223.6 L4585.3 1224.3 L4585.8 1225 L4586.4 1225.7 L4586.9 1226.4 L4587.5 1227.1 L4588 1227.9 L4588.5 1228.6 L4589.1 1229.3 L4589.6 1230.1 L4590.2 1230.8 L4590.7 1231.6 L4591.3 1232.3 L4591.9 1233 L4592.4 1233.8 L4593 1234.5 L4593.6 1235.3 L4594.2 1236 L4594.9 1236.8 L4595.5 1237.5 L4596.1 1238.3 L4596.7 1239.1 L4597.4 1239.8 L4598.1 1240.6 L4598.7 1241.4 L4599.4 1242.2 L4600.1 1242.9 L4600.8 1243.7 L4601.5 1244.5 L4602.3 1245.3 L4603 1246.1 L4603.8 1247 L4604.5 1247.8 L4605.3 1248.6 L4606.1 1249.4 L4607 1250.3 L4607.8 1251.1 L4608.7 1252 L4609.6 1252.9 L4610.5 1253.7 L4611.5 1254.6 L4612.4 1255.5 L4613.4 1256.4 L4614.5 1257.3 L4615.5 1258.3 L4616.6 1259.2 L4617.8 1260.2 L4618.9 1261.1 L4620.2 1262.1 L4621.4 1263.1 L4622.8 1264.2 L4624.2 1265.2 L4625.6 1266.3 L4627.1 1267.3 L4628.7 1268.4 L4630.2 1269.6 L4631.8 1270.7 Z" fill="rgba(0,120,255,0.2)" stroke="blue" stroke-width="1.5"/>
  <g opacity="0.5"><path d="m0 0-.916-16.692c-5.727-.463-10.996.196-16.365-.298-.914-16.411 2.786-36.274-8.011-49.866-13.597-7.852-26.795-16.115-38.064-27.156-3.791-2.71-5.396-6.276-6.461-10.804-9.8-17.343-2.83-31.89 4.381-48.588 11.029-28.81 61.75-44.537 84.097-69.425 17.063-14.803 35.507-28.18 50.173-45.558 11.541-12.279 18.254-28.544 31.292-39.454 19.51-17.351 31.716-41.463 53.918-55.948 30.026-22.2 59.071-46.116 86.254-71.722 20.496-23.146 46.359-40.446 70.171-59.895 25.108-23.511 53.212-44.527 73.525-72.643 8.823-10.815 5.092-25.211 5.574-38.003.651-12.01 1.463-24.011 2.218-36.015 3.276-24.388 9.151-48.352 9.383-73.03 5.152.425 10.138-.021 15.383.46.779 30.883-9.514 59.937-9.523 90.658-1.336 13.317-1.603 26.619-1.135 39.991.176 10.195-7.484 18.144-13.255 25.77-32.379 35.773-69.987 66.445-107.931 96.092-21.234 18.272-40.348 38.84-62.151 56.546-16.667 12.659-31.773 27.319-49 39.247-13.554 9.095-24.815 20.463-34.626 33.44-10.707 16.032-27.474 26.76-38.124 42.769-10.768 18.216-26.261 32.883-41.767 47.015-21.038 17.195-40.759 36.097-64.36 49.914-15.629 11.74-36.495 19.695-44.133 38.986-1.608 3.626-2.911 7.469-5.046 10.763-6.647 11.829-9.02 28.951.404 39.693 2.096 2.392 1.815 6.039 4.762 7.797 11.946 11.558 25.349 20.872 39.79 29.024C1.944-53.725-2.973-33.356-.83-17.011c72.488-.476 144.936-1.723 217.421-1.816l.675 16.664C212.69-1.289 2.982.766 0 0" style="fill:#231f20;fill-opacity:1;fill-rule:nonzero;stroke:none" transform="matrix(1.33333 0 0 -1.33333 4111.732 783.986)"/>
<path d="M0 0c-3.129 23.024-8.563 45.631-8.805 68.954-.57 12.258-.839 24.528-.575 36.791-.1 10.135-8.123 17.874-13.697 25.617-32.483 35.935-70.565 66.639-108.682 96.376-15.594 12.487-28.366 28.134-43.676 40.965-24.94 20.422-49.073 41.895-75.318 60.658-18.161 13.737-28.861 34.416-45.708 49.495-12.39 10.113-19.791 24.385-29.454 36.796-15.294 18.937-34.679 33.661-53.158 49.188-21.587 20.369-48.029 33.966-71.66 51.628-6.153 4.366-9.959 10.656-13.282 17.29-3.422 7.467-8.257 14.529-11.079 22.172a24 24 0 0 1-2.646 9.663c-1.134 2.212-.994 4.396.443 6.486 2.923 5.336 6.639 10.369 9.823 15.43.224 2.385 1.676 3.928 3.278 5.42 6.274 5.939 12.833 11.714 19.859 16.71 6.462 4.385 13.348 8.141 19.946 12.334 10.69 12.4 7.14 31.792 8.293 47.165-5.199 1.354-10.985.298-16.424.76-.74-15.639 2.662-35.45-8.232-48.154-15.238-9.034-31.143-18.651-42.443-32.34-2.156-6.487-8.413-11.03-7.228-18.641.431-4.108-1.79-8.603.459-12.408 4.394-7.888 6.237-16.835 10.372-24.877 2.9-6.436 6.563-12.418 12.406-16.587 18.762-13.66 38.535-25.944 57.346-39.489 26.465-23.522 57.332-43.936 76.744-74.188 11.458-19.238 30.699-31.754 43.226-50.214 7.472-9.659 15.817-18.466 25.753-25.65 22.062-15.528 41.862-33.912 63.142-50.472 25.338-20.632 46.155-46.033 72.984-64.969 14.963-10.591 28.365-23.031 41.927-35.333 20.531-18.023 41.878-35.878 57.21-58.791 4.782-6.81 3.905-15.2 4.028-23.061-.447-11.816.438-23.548 1.457-35.29.153-28.165 9.303-55.489 9.431-83.678H1.005C1.767-16.221.62-8.029 0 0" style="fill:#231f20;fill-opacity:1;fill-rule:nonzero;stroke:none" transform="matrix(1.33333 0 0 -1.33333 4977.315 1702.395)"/>
<path d="M0 0c-69.551-.742-139.162-.554-208.691-1.694v-16.659L7.71-16.571V.002C4.998.002 2.499.018 0 0" style="fill:#231f20;fill-opacity:1;fill-rule:nonzero;stroke:none" transform="matrix(1.33333 0 0 -1.33333 4946.717 1735.634)"/></g>
  <path d="M4633.5 1271.9 L4635.1 1273.1 L4636.7 1274.4 L4638.4 1275.7 L4640.2 1277 L4641.9 1278.3 L4643.7 1279.7 L4645.5 1281.1 L4647.3 1282.5 L4649.2 1284 L4651.1 1285.5 L4653 1287.1 L4655 1288.7 L4657 1290.3 L4659.1 1292 L4661.2 1293.7 L4663.3 1295.5 L4665.5 1297.3 L4667.8 1299.2 L4670.1 1301.1 L4672.5 1303.1 L4675 1305.2 L4677.5 1307.3 L4680.1 1309.5 L4682.9 1311.7 L4685.7 1314.1 L4688.6 1316.5 L4691.6 1319 L4694.8 1321.6 L4698.2 1324.3 L4701.7 1327.1 L4705.4 1330.1 L4709.3 1333.2 L4713.1 1336.4 L4716.9 1339.6 L4720.7 1342.9 L4724.5 1346.3 L4728.4 1349.8 L4732.3 1353.4 L4736.2 1357.1 L4740.3 1361 L4744.4 1365 L4748.7 1369.1 L4753.1 1373.4 L4757.7 1377.8 L4762.7 1382.6 L4768 1387.5 L4773.7 1392.8 L4780.1 1398.6 L4787.5 1404.9 L4796.4 1412.2 L4808.5 1421.2 L4821 1430.6 L4831.8 1439.6 L4842.1 1448.5 L4852.2 1457.6 L4862.8 1467.2 L4875.2 1478.1 L4888.1 1489.5 L4900.5 1501 L4911.6 1512.1 L4921.4 1522.7 L4929.6 1532.7 L4936.6 1542.2 L4941.7 1550.7 L4943.5 1557.3 L4944.1 1563.2 L4944.2 1568.9 L4944.2 1574.5 L4944.1 1580.2 L4944.1 1586 L4944.2 1591.9 L4944.4 1598 L4944.7 1604.3 L4945.1 1610.7 L4945.7 1617.3 L4946.2 1624 L4946.4 1630.5 L4946.8 1637.3 L4947.4 1644.4 L4948.3 1651.8 L4949.3 1659.5 L4950.6 1667.4 L4951.9 1675.7 L4953.3 1684.1 L4954.7 1692.6 L4956 1701.2 L4957.1 1709.9 L4957.9 1718.4 L4958.5 1726.8 L4951.3 1735.6 L4943.4 1735.7 L4935.7 1735.7 L4928.2 1735.8 L4920.7 1735.9 L4913.4 1735.9 L4906.2 1736 L4899 1736 L4892 1736.1 L4885.1 1736.1 L4878.3 1736.2 L4871.6 1736.2 L4864.9 1736.3 L4858.4 1736.3 L4851.9 1736.3 L4845.6 1736.4 L4839.3 1736.4 L4833.1 1736.4 L4826.9 1736.5 L4820.9 1736.5 L4814.9 1736.5 L4809 1736.6 L4803.1 1736.6 L4797.4 1736.6 L4791.7 1736.7 L4786 1736.7 L4780.4 1736.7 L4774.9 1736.8 L4769.4 1736.8 L4764 1736.8 L4758.6 1736.9 L4644 1539.6 L4634.1 1527 L4627.4 1519.8 L4621.3 1513.4 L4615.7 1507.6 L4610.5 1502.4 L4605.7 1497.6 L4601.1 1493.2 L4596.9 1489.2 L4592.8 1485.3 L4589 1481.7 L4585.4 1478.4 L4581.9 1475.2 L4578.5 1472.2 L4575.4 1469.4 L4572.3 1466.6 L4569.3 1464 L4566.5 1461.5 L4563.7 1459.1 L4561.1 1456.9 L4558.5 1454.6 L4556 1452.5 L4553.6 1450.4 L4551.3 1448.5 L4549 1446.6 L4546.8 1444.7 L4544.6 1442.9 L4542.5 1441.2 L4540.5 1439.5 L4538.5 1437.8 L4536.6 1436.3 L4534.7 1434.7 L4532.8 1433.2 L4531 1431.7 L4529.2 1430.3 L4527.5 1428.9 L4525.8 1427.5 L4524.2 1426.2 L4522.6 1424.9 L4521 1423.6 L4519.4 1422.3 L4517.9 1421.1 L4516.4 1419.9 L4514.9 1418.7 L4513.5 1417.6 L4512.1 1416.5 L4510.7 1415.4 L4509.3 1414.3 L4508 1413.2 L4506.6 1412.2 L4505.3 1411.1 L4504 1410.1 L4502.8 1409.1 L4501.5 1408.2 L4500.3 1407.2 L4499.1 1406.2 L4497.9 1405.3 L4496.7 1404.4 L4495.6 1403.5 L4494.4 1402.6 L4493.3 1401.7 L4492.2 1400.8 L4491.1 1400 L4490 1399 L4489 1398.1 L4487.9 1397.2 L4486.9 1396.3 L4485.9 1395.4 L4484.9 1394.5 L4483.9 1393.6 L4482.9 1392.7 L4481.9 1391.8 L4481 1391 L4480 1390.1 L4479.1 1389.3 L4478.2 1388.5 L4477.3 1387.6 L4476.4 1386.8 L4475.5 1386 L4474.6 1385.2 L4473.7 1384.4 L4472.9 1383.6 L4472 1382.8 L4471.2 1382 L4470.4 1381.2 L4469.5 1380.5 L4468.7 1379.7 L4467.9 1378.9 L4467.1 1378.2 L4466.3 1377.5 L4465.5 1376.7 L4464.8 1376 L4464 1375.3 L4463.2 1374.6 L4462.5 1373.8 L4461.7 1373.1 L4461 1372.4 L4460.3 1371.7 L4459.5 1371 L4458.8 1370.3 L4458.1 1369.7 L4457.4 1369 L4456.7 1368.3 L4455.9 1367.6 L4455.2 1367 L4454.6 1366.3 L4453.9 1365.7 L4453.2 1365 L4452.5 1364.4 L4451.8 1363.7 L4451.1 1363.1 L4450.5 1362.4 L4449.8 1361.8 L4449.1 1361.2 L4448.5 1360.5 L4447.8 1359.9 L4447.2 1359.3 L4446.5 1358.7 L4445.9 1358.1 L4445.2 1357.5 L4444.6 1356.9 L4443.9 1356.2 L4443.3 1355.6 L4442.6 1355 L4442 1354.4 L4441.4 1353.9 L4440.7 1353.3 L4440.1 1352.7 L4439.5 1352.1 L4438.8 1351.5 L4438.2 1350.9 L4437.6 1350.3 L4437 1349.7 L4436.3 1349.2 L4435.7 1348.6 L4435.1 1348 L4434.5 1347.4 L4433.8 1346.9 L4433.2 1346.3 L4432.6 1345.7 L4432 1345.1 L4431.3 1344.6 L4430.7 1344 L4430.1 1343.4 L4429.5 1342.9 L4428.8 1342.3 L4428.2 1341.7 L4427.6 1341.2 L4426.9 1340.6 L4426.3 1340 L4425.7 1339.5 L4425 1338.9 L4424.4 1338.3 L4423.8 1337.8 L4423.1 1337.2 L4422.5 1336.6 L4421.8 1336.1 L4421.2 1335.5 L4420.5 1334.9 L4419.9 1334.4 L4419.2 1333.8 L4418.5 1333.2 L4417.9 1332.6 L4417.2 1332.1 L4416.5 1331.5 L4415.9 1330.9 L4415.2 1330.3 L4414.5 1329.8 L4413.8 1329.2 L4413.1 1328.6 L4412.4 1328 L4411.7 1327.4 L4411 1326.9 L4410.3 1326.3 L4409.6 1325.7 L4408.9 1325.1 L4408.1 1324.5 L4407.4 1323.9 L4406.6 1323.3 L4405.8 1322.7 L4405.1 1322.1 L4404.3 1321.5 L4403.5 1320.9 L4402.7 1320.3 L4401.9 1319.7 L4401.1 1319 L4400.3 1318.4 L4399.5 1317.7 L4398.7 1317.1 L4397.9 1316.4 L4397.1 1315.8 L4396.3 1315.1 L4395.5 1314.4 L4394.6 1313.8 L4393.8 1313.1 L4392.9 1312.4 L4392.1 1311.7 L4391.2 1311 L4390.4 1310.2 L4389.5 1309.5 L4388.6 1308.8 L4387.7 1308 L4386.8 1307.3 L4385.9 1306.5 L4385 1305.7 L4384.1 1305 L4383.1 1304.2 L4382.2 1303.4 L4381.2 1302.6 L4380.3 1301.8 L4379.3 1300.9 L4378.3 1300.1 L4377.3 1299.2 L4376.3 1298.4 L4375.2 1297.5 L4374.2 1296.6 L4373.1 1295.7 L4372 1294.8 L4370.9 1293.9 L4369.8 1293 L4368.7 1292 L4367.5 1291.1 L4366.3 1290.1 L4365.1 1289.1 L4363.9 1288.1 L4362.6 1287.1 L4361.3 1286 L4360 1285 L4358.6 1283.9 L4357.2 1282.8 L4355.8 1281.7 L4354.3 1280.6 L4352.8 1279.4 L4351.2 1278.2 L4349.6 1277 L4347.9 1275.8 L4346.1 1274.5 L4344.3 1273.3 L4342.4 1271.9 L4340.5 1270.6 L4338.5 1269.2 L4336.6 1267.8 L4334.6 1266.3 L4332.7 1264.8 L4330.8 1263.3 L4328.9 1261.7 L4327 1260.1 L4325.1 1258.5 L4323.3 1256.9 L4321.4 1255.2 L4319.6 1253.4 L4317.8 1251.7 L4316 1249.9 L4314.2 1248 L4312.4 1246.2 L4310.6 1244.3 L4308.9 1242.4 L4307.2 1240.4 L4305.5 1238.4 L4303.7 1236.4 L4302.1 1234.3 L4300.4 1232.2 L4298.7 1230.1 L4297 1227.9 L4295.5 1225.7 L4293.9 1223.5 L4292.1 1221.2 L4290.1 1218.8 L4288 1216.3 L4285.7 1213.7 L4283.2 1211 L4280.5 1208.2 L4277.6 1205.3 L4274.5 1202.2 L4271.2 1199 L4267.9 1195.7 L4264.5 1192.3 L4261.1 1188.9 L4257.7 1185.4 L4254.6 1181.8 L4251.7 1178.3 L4249 1174.8 L4246.5 1171.3 L4244.3 1167.8 L4242.1 1164.3 L4239.5 1160.6 L4236.7 1156.7 L4233.6 1152.5 L4230 1148.1 L4226 1143.3 L4221.3 1138.2 L4216 1132.5 L4209.8 1126.3 L4202.7 1119.5 L4194.5 1111.8 L4183.9 1102.7 L4171.7 1092.4 L4158.5 1081.2 L4142.6 1068.1 L4107.6 1043.4 L4060.3 1010.4 L4051.2 999.6 L4046.6 991.4 L4043.4 983.8 L4039.3 975.6 L4035.4 967.3 L4033 959.9 L4031.7 953.1 L4031.3 946.8 L4031.7 941 L4032.7 935.6 L4034.4 930.7 L4036.7 926.2 L4039.7 922.1 L4042.1 917.6 L4044.5 913.1 L4048.3 909.7 L4052 906.3 L4055.9 903 L4059.8 899.7 L4063.7 896.5 L4067.8 893.4 L4071.9 890.4 L4076 887.5 L4080.3 884.6 L4084.6 881.9 L4088.9 879.2 L4093.3 876.6 L4097.7 874 L4101.1 870.5 L4103.7 866.1 L4105.9 861.3 L4107.5 855.8 L4108.7 849.7 L4109.4 843 L4109.7 835.8 L4109.8 828.1 L4109.8 820.2 L4110.1 812.5 L4112.1 806.7 L4118.9 806.7 L4125.6 806.8 L4132.2 806.8 L4138.7 806.9 L4145.2 806.9 L4151.6 807 L4157.8 807 L4164 807.1 L4170.2 807.2 L4176.2 807.2 L4182.2 807.3 L4188.1 807.3 L4193.9 807.4 L4199.7 807.5 L4205.4 807.5 L4211 807.6 L4216.6 807.7 L4222.1 807.7 L4227.6 807.8 L4233 807.8 L4350.3 1009.8 L4355.6 1014.1 L4360.3 1017.4 L4364.7 1020.6 L4369.1 1023.6 L4373.2 1026.5 L4377.2 1029.2 L4381.1 1031.8 L4384.8 1034.3 L4388.4 1036.8 L4391.9 1039.2 L4395.4 1041.5 L4398.7 1043.7 L4402 1045.9 L4405.1 1048 L4408.2 1050.1 L4411.2 1052.2 L4414.2 1054.2 L4417.1 1056.1 L4419.9 1058.1 L4422.6 1060 L4425.3 1061.9 L4428 1063.8 L4430.5 1065.6 L4433.2 1067.9 L4435.8 1070.2 L4438.4 1072.4 L4440.8 1074.5 L4443.2 1076.5 L4445.6 1078.5 L4447.8 1080.4 L4450 1082.2 L4452.2 1084 L4454.3 1085.8 L4456.4 1087.5 L4458.4 1089.1 L4460.4 1090.8 L4462.3 1092.3 L4464.2 1093.9 L4466.1 1095.4 L4467.9 1096.9 L4469.7 1098.4 L4471.4 1099.9 L4473.1 1101.3 L4474.8 1102.8 L4476.5 1104.1 L4478.1 1105.5 L4479.7 1106.9 L4481.3 1108.3 L4482.8 1109.6 L4484.3 1110.9 L4485.8 1112.2 L4487.3 1113.5 L4488.7 1114.8 L4490.1 1116.1 L4491.5 1117.4 L4492.9 1118.6 L4494.3 1119.8 L4495.6 1121.1 L4496.9 1122.3 L4498.2 1123.6 L4499.4 1124.8 L4500.7 1126 L4501.9 1127.1 L4503.1 1128.3 L4504.3 1129.5 L4505.5 1130.7 L4506.6 1131.9 L4507.7 1133.1 L4508.8 1134.2 L4509.9 1135.4 L4511 1136.5 L4512.1 1137.7 L4513.1 1138.8 L4514.1 1140 L4515.1 1141.1 L4516.1 1142.3 L4517.1 1143.4 L4518.1 1144.5 L4519 1145.6 L4519.9 1146.7 L4520.8 1147.9 L4521.7 1149 L4522.6 1150.1 L4523.5 1151.2 L4524.3 1152.3 L4525.2 1153.4 L4526 1154.4 L4526.8 1155.5 L4527.6 1156.6 L4528.3 1157.7 L4529.1 1158.8 L4529.8 1159.9 L4530.6 1161 L4531.3 1162 L4532 1163.1 L4532.7 1164.1 L4533.4 1165.1 L4534.1 1166.2 L4534.7 1167.2 L4535.4 1168.2 L4536.1 1169.2 L4536.7 1170.2 L4537.3 1171.2 L4538 1172.1 L4538.6 1172.9 L4539.3 1173.8 L4539.9 1174.7 L4540.5 1175.5 L4541.2 1176.4 L4541.8 1177.2 L4542.4 1178 L4543.1 1178.7 L4543.7 1179.5 L4544.3 1180.2 L4545 1181 L4545.6 1181.7 L4546.2 1182.5 L4546.8 1183.2 L4547.4 1183.9 L4548.1 1184.6 L4548.7 1185.3 L4549.3 1186 L4549.9 1186.6 L4550.5 1187.3 L4551.1 1188 L4551.8 1188.7 L4552.4 1189.3 L4553 1189.9 L4553.6 1190.6 L4554.2 1191.2 L4554.8 1191.9 L4555.4 1192.5 L4556 1193.1 L4556.7 1193.8 L4557.3 1194.4 L4557.9 1195 L4558.5 1195.6 L4559.1 1196.2 L4559.7 1196.9 L4560.3 1197.5 L4560.9 1198.1 L4561.5 1198.7 L4562.1 1199.3 L4562.7 1199.9 L4563.3 1200.5 L4564 1201.1 L4564.6 1201.7 L4565.2 1202.4 L4565.8 1203 L4566.4 1203.6 L4567 1204.2 L4567.6 1204.8 L4568.2 1205.4 L4568.8 1206 L4569.4 1206.6 L4570 1207.2 L4570.6 1207.9 L4571.2 1208.5 L4571.8 1209.1 L4572.4 1209.7 L4573 1210.4 L4573.6 1211 L4574.2 1211.6 L4574.8 1212.2 L4575.4 1212.9 L4576 1213.5 L4576.6 1214.2 L4577.2 1214.8 L4577.8 1215.5 L4578.4 1216.1 L4578.9 1216.8 L4579.5 1217.4 L4580.1 1218.1 L4580.7 1218.8 L4581.3 1219.4 L4581.9 1220.1 L4582.4 1220.8 L4583 1221.5 L4583.6 1222.2 L4584.1 1222.9 L4584.7 1223.6 L4585.3 1224.3 L4585.8 1225 L4586.4 1225.7 L4586.9 1226.4 L4587.5 1227.1 L4588 1227.9 L4588.5 1228.6 L4589.1 1229.3 L4589.6 1230.1 L4590.2 1230.8 L4590.7 1231.6 L4591.3 1232.3 L4591.9 1233 L4592.4 1233.8 L4593 1234.5 L4593.6 1235.3 L4594.2 1236 L4594.9 1236.8 L4595.5 1237.5 L4596.1 1238.3 L4596.7 1239.1 L4597.4 1239.8 L4598.1 1240.6 L4598.7 1241.4 L4599.4 1242.2 L4600.1 1242.9 L4600.8 1243.7 L4601.5 1244.5 L4602.3 1245.3 L4603 1246.1 L4603.8 1247 L4604.5 1247.8 L4605.3 1248.6 L4606.1 1249.4 L4607 1250.3 L4607.8 1251.1 L4608.7 1252 L4609.6 1252.9 L4610.5 1253.7 L4611.5 1254.6 L4612.4 1255.5 L4613.4 1256.4 L4614.5 1257.3 L4615.5 1258.3 L4616.6 1259.2 L4617.8 1260.2 L4618.9 1261.1 L4620.2 1262.1 L4621.4 1263.1 L4622.8 1264.2 L4624.2 1265.2 L4625.6 1266.3 L4627.1 1267.3 L4628.7 1268.4 L4630.2 1269.6 L4631.8 1270.7 Z" fill="none" stroke="red" stroke-width="0.5"/>
</svg>