<svg xmlns="http://www.w3.org/2000/svg" viewBox="2793.86 4807.03 1152.829 644.206" style="background:#f5f5f5">
  <path d="M3515.5 5129.1 L3514.2 5130.4 L3513 5131.6 L3511.8 5132.8 L3510.7 5134 L3509.5 5135.2 L3508.4 5136.4 L3507.4 5137.5 L3506.3 5138.6 L3505.3 5139.8 L3504.3 5140.9 L3503.3 5141.9 L3502.3 5143 L3501.4 5144.1 L3500.4 5145.1 L3499.5 5146.1 L3498.6 5147.2 L3497.7 5148.2 L3496.8 5149.2 L3495.9 5150.2 L3495 5151.1 L3494.2 5152.1 L3493.3 5153 L3492.5 5154 L3491.6 5154.9 L3490.8 5155.8 L3489.9 5156.8 L3489.1 5157.7 L3488.3 5158.5 L3487.4 5159.4 L3486.6 5160.3 L3485.8 5161.2 L3485 5162 L3484.1 5162.9 L3483.3 5163.7 L3482.5 5164.5 L3481.7 5165.3 L3480.9 5166.1 L3480.1 5166.9 L3479.2 5167.7 L3478.4 5168.5 L3477.6 5169.3 L3476.8 5170 L3476 5170.8 L3475.1 5171.5 L3474.3 5172.2 L3473.5 5172.9 L3472.6 5173.6 L3471.8 5174.3 L3471 5175 L3470.2 5175.7 L3469.3 5176.4 L3468.5 5177 L3467.6 5177.7 L3466.8 5178.3 L3466 5178.9 L3465.2 5179.6 L3464.4 5180.2 L3463.6 5180.9 L3462.9 5181.5 L3462.1 5182.2 L3461.4 5182.8 L3460.6 5183.4 L3459.9 5184 L3459.1 5184.7 L3458.4 5185.3 L3457.7 5185.9 L3457 5186.6 L3456.3 5187.2 L3455.6 5187.8 L3455 5188.4 L3454.3 5189 L3453.6 5189.7 L3452.9 5190.3 L3452.3 5190.9 L3451.6 5191.5 L3451 5192.2 L3450.3 5192.8 L3449.7 5193.4 L3449 5194 L3448.4 5194.7 L3447.7 5195.3 L3447.1 5195.9 L3446.5 5196.5 L3445.9 5197.2 L3445.2 5197.8 L3444.6 5198.5 L3444 5199.1 L3443.4 5199.7 L3442.8 5200.4 L3442.2 5201 L3441.6 5201.7 L3440.9 5202.3 L3440.3 5203 L3439.7 5203.6 L3439.1 5204.3 L3438.5 5204.9 L3437.9 5205.6 L3437.3 5206.3 L3436.7 5206.9 L3436.1 5207.6 L3435.5 5208.3 L3434.9 5209 L3434.3 5209.6 L3433.7 5210.3 L3433.1 5211 L3432.5 5211.7 L3431.9 5212.4 L3431.3 5213.2 L3430.7 5213.9 L3430.1 5214.6 L3429.5 5215.3 L3428.9 5216 L3428.3 5216.8 L3427.7 5217.5 L3427.1 5218.3 L3426.4 5219 L3425.8 5219.8 L3425.2 5220.5 L3424.6 5221.3 L3423.9 5222.1 L3423.3 5222.9 L3422.7 5223.7 L3422 5224.5 L3421.4 5225.3 L3420.8 5226.1 L3420.1 5227 L3419.5 5227.8 L3418.8 5228.6 L3418.1 5229.5 L3417.5 5230.4 L3416.8 5231.3 L3416.1 5232.1 L3415.5 5233 L3414.8 5234 L3414.1 5234.9 L3413.4 5235.8 L3412.7 5236.8 L3412 5237.7 L3411.2 5238.7 L3410.5 5239.7 L3409.8 5240.7 L3409 5241.7 L3408.3 5242.7 L3407.5 5243.8 L3406.8 5244.8 L3406 5245.9 L3405.2 5247 L3404.4 5248.1 L3403.6 5249.3 L3402.8 5250.4 L3401.9 5251.6 L3401.1 5252.8 L3400.2 5254 L3399.4 5255.2 L3398.5 5256.4 L3397.6 5257.7 L3396.7 5259.1 L3395.8 5260.5 L3394.9 5262.1 L3394 5263.8 L3393.1 5265.7 L3392.2 5267.7 L3391.3 5270.1 L3390.5 5272.9 L3389.6 5276.2 L3388.9 5280.6 L3388.3 5287.6 L3388.4 5302 L3388.6 5319.5 L3388.8 5340.4 L3388.9 5366.2 L3389.2 5399.8 L3387.7 5414.8 L3385.2 5414.8 L3382.7 5414.8 L3380.3 5414.8 L3377.8 5414.8 L3375.3 5414.8 L3372.8 5414.9 L3370.3 5414.9 L3367.8 5414.9 L3365.3 5414.9 L3362.8 5414.9 L3360.3 5414.9 L3357.8 5414.9 L3355.3 5415 L3352.8 5415 L3350.3 5415 L3347.8 5415 L3345.3 5415 L3342.7 5415 L3340.2 5415 L3337.7 5415.1 L3335.2 5415.1 L3332.6 5415.1 L3330.1 5415.1 L3327.5 5415.1 L3325 5415.1 L3322.4 5415.1 L3319.8 5415.1 L3317.3 5415.2 L3314.7 5415.2 L3312.1 5415.2 L3309.5 5415.2 L3306.9 5415.2 L3304.2 5415.2 L3301.6 5415.2 L3298.9 5415.2 L3296.3 5415.3 L3293.6 5415.3 L3290.9 5415.3 L3288.2 5415.3 L3285.5 5415.3 L3282.8 5415.3 L3280 5415.3 L3277.3 5415.3 L3274.5 5415.4 L3271.7 5415.4 L3268.9 5415.4 L3266.1 5415.4 L3263.2 5415.4 L3260.4 5415.4 L3257.5 5415.4 L3254.6 5415.4 L3251.7 5415.4 L3248.7 5415.5 L3245.8 5415.5 L3242.8 5415.5 L3239.8 5415.5 L3236.7 5415.5 L3233.7 5415.5 L3230.6 5415.5 L3227.5 5415.5 L3224.3 5415.6 L3221.2 5415.6 L3218 5415.6 L3214.7 5415.6 L3211.5 5415.6 L3208.2 5415.6 L3204.9 5415.6 L3201.5 5415.6 L3198.1 5415.6 L3194.7 5415.7 L3191.2 5415.7 L3187.7 5415.7 L3184.2 5415.7 L3180.6 5415.7 L3177 5415.7 L3173.3 5415.7 L3169.6 5415.7 L3165.8 5415.8 L3162 5415.8 L3158.2 5415.8 L3154.3 5415.8 L3150.3 5415.8 L3146.3 5415.8 L3142.2 5415.8 L3138.1 5415.9 L3133.9 5415.9 L3129.7 5415.9 L3125.3 5415.9 L3121 5415.9 L3116.5 5415.9 L3112 5416 L3107.4 5416 L3102.8 5416 L3098 5416 L3093.2 5416 L3088.3 5416.1 L3083.3 5416.1 L3078.3 5416.1 L3073.1 5416.1 L3067.8 5416.1 L3062.5 5416.2 L3057 5416.2 L3051.4 5416.2 L3045.8 5416.2 L3040 5416.3 L3034.1 5416.3 L3028 5416.3 L3021.9 5416.3 L3015.6 5416.4 L3009.1 5416.4 L3002.5 5416.4 L2995.8 5416.5 L2988.9 5416.5 L2981.8 5416.6 L2974.6 5416.6 L2967.2 5416.6 L2959.6 5416.7 L2951.8 5416.8 L2943.8 5416.8 L2935.6 5416.9 L2927.1 5416.9 L2918.4 5417 L2909.5 5417.1 L2900.3 5417.1 L2890.8 5417.2 L2881.1 5417.3 L2871 5417.4 L2860.6 5417.5 L2849.8 5417.6 L2838.8 5417.7 L2828.4 5417.2 L2828.2 5411.3 L2828 5405.4 L2827.9 5399.6 L2827.8 5393.7 L2827.7 5387.9 L2827.6 5382.2 L2827.5 5376.5 L2827.4 5370.8 L2827.4 5365.2 L2827.3 5359.6 L2827.3 5354 L2827.3 5348.5 L2827.2 5343 L2827.2 5337.6 L2827.2 5332.2 L2827.1 5326.8 L2827.1 5321.5 L2827 5316.2 L2827 5310.9 L2826.9 5305.7 L2826.9 5300.5 L2826.8 5295.3 L2826.8 5290.1 L2826.9 5285 L2827.6 5279.6 L2828.9 5274.2 L2830.7 5268.7 L2833 5263.1 L2836.1 5257.4 L2839.6 5251.6 L2843.6 5245.9 L2848 5240.2 L2852.5 5234.5 L2857 5228.9 L2861.5 5223.4 L2865.7 5218.1 L2869.7 5212.9 L2874.1 5207.7 L2878.7 5202.6 L2883.7 5197.5 L2889 5192.5 L2894.4 5187.6 L2899.9 5182.7 L2905.5 5178 L2911 5173.4 L2916.2 5168.9 L2920.9 5164.5 L2925.2 5160.3 L2929.2 5156.1 L2932.9 5152.1 L2936.3 5148.1 L2939.5 5144.2 L2942.8 5140.3 L2946.2 5136.5 L2949.8 5132.8 L2953.6 5129.1 L2957.4 5125.5 L2961.3 5122 L2965.2 5118.5 L2969.1 5115.1 L2973 5111.8 L2976.9 5108.5 L2980.7 5105.3 L2984.4 5102.2 L2988.1 5099.1 L2991.6 5096 L2994.7 5093 L2997.5 5090 L3000.1 5087 L3002.5 5084 L3004.8 5081 L3007.2 5078.1 L3009.6 5075.2 L3012.1 5072.4 L3014.9 5069.7 L3017.9 5067 L3021.3 5064.4 L3024.9 5062 L3028.5 5059.6 L3032.1 5057.2 L3035.7 5055 L3039.3 5052.7 L3042.9 5050.5 L3046.5 5048.4 L3050 5046.3 L3053.5 5044.3 L3057 5042.3 L3060.4 5040.3 L3063.8 5038.4 L3067.1 5036.5 L3070.4 5034.6 L3073.6 5032.8 L3076.8 5030.9 L3079.9 5029.2 L3083 5027.4 L3086 5025.7 L3089 5024 L3092 5022.3 L3094.9 5020.7 L3097.8 5019 L3100.7 5017.5 L3103.5 5015.9 L3106.3 5014.4 L3109.1 5012.8 L3111.8 5011.3 L3114.5 5009.9 L3117.2 5008.4 L3119.8 5007 L3122.4 5005.6 L3125 5004.2 L3127.6 5002.8 L3130.1 5001.4 L3132.7 5000.1 L3135.2 4998.8 L3137.6 4997.5 L3140.1 4996.2 L3142.5 4995 L3144.9 4993.7 L3147.3 4992.5 L3149.7 4991.3 L3152 4990.1 L3154.4 4988.9 L3156.7 4987.7 L3158.9 4986.6 L3161.2 4985.4 L3163.5 4984.3 L3165.7 4983.2 L3168 4982.1 L3170.2 4981.1 L3172.4 4980 L3174.5 4978.9 L3176.7 4977.9 L3178.9 4976.9 L3181 4975.9 L3183.1 4974.9 L3185.3 4973.9 L3187.3 4972.9 L3189.4 4971.9 L3191.5 4971 L3193.5 4970 L3195.6 4969.1 L3197.7 4968.2 L3199.7 4967.3 L3201.7 4966.4 L3203.7 4965.5 L3205.7 4964.6 L3207.7 4963.7 L3209.7 4962.8 L3211.7 4962 L3213.6 4961.2 L3215.6 4960.3 L3217.5 4959.5 L3219.5 4958.7 L3221.4 4957.9 L3223.3 4957.1 L3225.2 4956.3 L3227.1 4955.5 L3229 4954.7 L3230.9 4954 L3232.8 4953.2 L3234.7 4952.5 L3236.6 4951.7 L3238.4 4951 L3240.3 4950.2 L3242.2 4949.5 L3244 4948.8 L3245.9 4948.1 L3247.7 4947.4 L3249.6 4946.8 L3251.4 4946.1 L3253.2 4945.4 L3255 4944.7 L3256.8 4944 L3258.7 4943.4 L3260.5 4942.8 L3262.3 4942.1 L3264.1 4941.5 L3265.9 4940.9 L3267.7 4940.3 L3269.5 4939.6 L3271.3 4939 L3273.1 4938.4 L3274.9 4937.8 L3276.7 4937.3 L3278.5 4936.8 L3280.4 4936.3 L3282.2 4935.8 L3284 4935.3 L3285.8 4934.8 L3287.6 4934.3 L3289.4 4933.8 L3291.2 4933.3 L3292.9 4932.8 L3294.7 4932.3 L3296.5 4931.8 L3298.3 4931.4 L3300.1 4931 L3301.9 4930.5 L3303.7 4930.1 L3305.5 4929.7 L3307.2 4929.2 L3309 4928.8 L3310.8 4928.4 L3312.6 4927.9 L3314.4 4927.5 L3316.1 4927.1 L3317.9 4926.7 L3319.7 4926.3 L3321.5 4925.9 L3323.3 4925.5 L3325 4925 L3326.8 4924.6 L3328.6 4924.2 L3330.3 4923.7 L3332.1 4923.2 L3333.9 4922.8 L3335.7 4922.3 L3337.4 4921.7 L3339.2 4921 L3340.9 4920.3 L3342.7 4919.6 L3344.4 4918.5 L3346.1 4917.2 L3347.9 4915.9 L3349.5 4913 L3351 4909.1 L3352.2 4899.3 L3351.8 4864.8 L3352.7 4841.3 L3355.2 4841.3 L3357.7 4841.3 L3360.2 4841.3 L3362.7 4841.3 L3365.3 4841.3 L3367.8 4841.3 L3370.3 4841.3 L3372.8 4841.3 L3375.3 4841.3 L3377.8 4841.3 L3380.3 4841.3 L3382.8 4841.3 L3385.4 4841.3 L3387.9 4841.3 L3390.4 4841.3 L3392.9 4841.4 L3395.5 4841.4 L3398 4841.4 L3400.5 4841.4 L3403.1 4841.4 L3405.6 4841.4 L3408.2 4841.4 L3410.7 4841.4 L3413.3 4841.4 L3415.9 4841.4 L3418.4 4841.4 L3421 4841.4 L3423.6 4841.4 L3426.2 4841.4 L3428.8 4841.4 L3431.4 4841.4 L3434.1 4841.4 L3436.7 4841.3 L3439.4 4841.3 L3442 4841.3 L3444.7 4841.3 L3447.4 4841.3 L3450.1 4841.3 L3452.8 4841.3 L3455.5 4841.3 L3458.3 4841.3 L3461 4841.3 L3463.8 4841.3 L3466.6 4841.3 L3469.4 4841.3 L3472.2 4841.3 L3475 4841.3 L3477.9 4841.3 L3480.8 4841.3 L3483.7 4841.3 L3486.6 4841.3 L3489.5 4841.3 L3492.5 4841.3 L3495.5 4841.2 L3498.5 4841.2 L3501.5 4841.2 L3504.5 4841.2 L3507.6 4841.2 L3510.7 4841.2 L3513.8 4841.2 L3517 4841.2 L3520.2 4841.2 L3523.4 4841.2 L3526.6 4841.2 L3529.9 4841.2 L3533.2 4841.1 L3536.6 4841.1 L3539.9 4841.1 L3543.3 4841.1 L3546.8 4841.1 L3550.3 4841.1 L3553.8 4841.1 L3557.3 4841.1 L3560.9 4841.1 L3564.6 4841 L3568.3 4841 L3572 4841 L3575.8 4841 L3579.6 4841 L3583.5 4841 L3587.4 4841 L3591.4 4841 L3595.4 4840.9 L3599.5 4840.9 L3603.7 4840.9 L3607.9 4840.9 L3612.1 4840.9 L3616.5 4840.9 L3620.9 4840.9 L3625.3 4840.8 L3629.9 4840.8 L3634.5 4840.8 L3639.1 4840.8 L3643.9 4840.8 L3648.7 4840.8 L3653.6 4840.8 L3658.7 4840.8 L3663.7 4840.7 L3668.9 4840.7 L3674.2 4840.7 L3679.6 4840.7 L3685 4840.7 L3690.6 4840.7 L3696.3 4840.7 L3702.1 4840.7 L3708 4840.7 L3714.1 4840.6 L3720.3 4840.6 L3726.6 4840.6 L3733 4840.6 L3739.6 4840.6 L3746.3 4840.6 L3753.2 4840.6 L3760.3 4840.5 L3767.5 4840.5 L3774.9 4840.5 L3782.5 4840.5 L3790.3 4840.5 L3798.3 4840.4 L3806.5 4840.4 L3814.9 4840.4 L3823.5 4840.4 L3832.4 4840.4 L3841.5 4840.4 L3850.9 4840.3 L3860.6 4840.3 L3870.6 4840.3 L3880.8 4840.3 L3891.4 4840.3 L3902.3 4840.2 L3913 4840.5 L3913 4846.6 L3913 4852.6 L3912.9 4858.6 L3913.1 4864.4 L3913.3 4870.1 L3913.4 4875.8 L3913.7 4881.5 L3914 4887 L3914.2 4892.6 L3914.4 4898.2 L3764.7 4965.7 L3712.8 4990.7 L3685.9 5004.8 L3665.3 5015.9 L3651.4 5024 L3636 5032.4 L3622.1 5040 L3610.9 5046.3 L3602 5051.6 L3595.1 5056.1 L3589.4 5060 L3584.5 5063.6 L3580.7 5066.8 L3577.1 5069.8 L3574.4 5072.5 L3571.8 5075.1 L3569.6 5077.6 L3567.8 5079.9 L3566.1 5082.1 L3564.3 5084.3 L3562.6 5086.5 L3560.8 5088.6 L3558.9 5090.8 L3556.9 5092.9 L3554.8 5094.9 L3552.7 5097 L3550.5 5099 L3548.3 5100.9 L3546.1 5102.9 L3543.8 5104.7 L3541.6 5106.6 L3539.4 5108.4 L3537.3 5110.1 L3535.2 5111.8 L3533.2 5113.4 L3531.2 5115.1 L3529.3 5116.6 L3527.5 5118.1 L3525.8 5119.6 L3524.1 5121.1 L3522.5 5122.5 L3521 5123.9 L3519.6 5125.2 L3518.2 5126.6 L3516.8 5127.9 Z" fill="rgba(0,120,255,0.2)" stroke="blue" stroke-width="1.5"/>
  <g opacity="0.5"><path d="M0 0c-.003.713-.299 1.425-.523 2.425h-16.99C-19.301-63.937-.715-51.808-68.439-69.328c-47.141-13.927-91.437-36.736-134.551-60.08-22.079-14.012-61.519-29.797-75.448-50.786-9.717-13.006-24.276-21.555-35.763-32.93-13.283-12.568-23.791-27.94-38.671-38.82-20.433-16.326-35.98-37.379-50.906-58.586-5.179-7.33-7.391-15.574-7.287-24.59.387-31.178.42-62.358.792-93.536l17.364.247c-.288 30.575-.647 61.049-1.251 91.607-.22 10.409 2.307 19.754 8.404 28.096 14.502 19.765 28.774 40.014 48.199 55.368 10.243 8.103 19.754 17.021 27.999 27.244 10.281 12.434 23.306 22.235 35.317 32.91 10.647 7.489 15.517 20.468 26.646 27.31 69.73 43.214 142.982 84.444 223.341 103.545 8.075 3.754 24.57 3.248 24.477 14.75C-.03-31.721.065-15.86 0 0" style="fill:#231f20;fill-opacity:1;fill-rule:nonzero;stroke:none" transform="matrix(1.33333 0 0 -1.33333 3936.39 4843.079)"/>
<path d="M0 0h-17.499c-.579 34.691-1.647 69.466-.591 104.141 9.23 29.967 37.689 57.217 60.94 77.804 8.314 6.641 15.702 14.254 22.443 22.518 12.726 15.884 29.571 27.428 44.382 41.167 15.516 23.781 43.03 34.217 66.508 48.454 46.324 26.013 94.168 50.822 144.958 66.764 67.574 18.437 52.511 3.048 54.098 71.05l17.249.338-.117.086c-.9-73.387 12.513-51.569-57.956-72.482-49.807-16.501-97.002-40.679-142.597-66.515-15.476-9.003-31.299-17.401-46.092-27.546-9.557-5.924-14.659-16.143-22.628-23.737-14.24-12.633-29.771-23.945-41.67-39.011-6.002-7.369-12.739-14.005-20.01-20.09-11.191-9.366-22.296-18.782-31.383-30.346-12.959-17.682-32.574-34.56-31.431-58.314.599-31.451.161-62.932 1.284-94.375Z" style="fill:#231f20;fill-opacity:1;fill-rule:nonzero;stroke:none" transform="matrix(1.33333 0 0 -1.33333 2828.576 5417.711)"/>
<path d="M0 0v-17.752l-420.104-2.21c.076 6.024-.727 11.822.147 17.645l-.204-.094C-280.06-.84-139.94-1.021.168-.106z" style="fill:#231f20;fill-opacity:1;fill-rule:nonzero;stroke:none" transform="matrix(1.33333 0 0 -1.33333 3388.076 5414.622)"/>
<path d="M0 0c50.885.112 101.574.255 152.482.322l-.001.001c.875.132.068 16.734.362 17.097-11.924.962-413.767-.616-420.526-1.681V-.471C-178.456-.72-89.228-.116 0 0" style="fill:#231f20;fill-opacity:1;fill-rule:nonzero;stroke:none" transform="matrix(1.33333 0 0 -1.33333 3709.184 4840.655)"/></g>
  <path d="M3515.5 5129.1 L3514.2 5130.4 L3513 5131.6 L3511.8 5132.8 L3510.7 5134 L3509.5 5135.2 L3508.4 5136.4 L3507.4 5137.5 L3506.3 5138.6 L3505.3 5139.8 L3504.3 5140.9 L3503.3 5141.9 L3502.3 5143 L3501.4 5144.1 L3500.4 5145.1 L3499.5 5146.1 L3498.6 5147.2 L3497.7 5148.2 L3496.8 5149.2 L3495.9 5150.2 L3495 5151.1 L3494.2 5152.1 L3493.3 5153 L3492.5 5154 L3491.6 5154.9 L3490.8 5155.8 L3489.9 5156.8 L3489.1 5157.7 L3488.3 5158.5 L3487.4 5159.4 L3486.6 5160.3 L3485.8 5161.2 L3485 5162 L3484.1 5162.9 L3483.3 5163.7 L3482.5 5164.5 L3481.7 5165.3 L3480.9 5166.1 L3480.1 5166.9 L3479.2 5167.7 L3478.4 5168.5 L3477.6 5169.3 L3476.8 5170 L3476 5170.8 L3475.1 5171.5 L3474.3 5172.2 L3473.5 5172.9 L3472.6 5173.6 L3471.8 5174.3 L3471 5175 L3470.2 5175.7 L3469.3 5176.4 L3468.5 5177 L3467.6 5177.7 L3466.8 5178.3 L3466 5178.9 L3465.2 5179.6 L3464.4 5180.2 L3463.6 5180.9 L3462.9 5181.5 L3462.1 5182.2 L3461.4 5182.8 L3460.6 5183.4 L3459.9 5184 L3459.1 5184.7 L3458.4 5185.3 L3457.7 5185.9 L3457 5186.6 L3456.3 5187.2 L3455.6 5187.8 L3455 5188.4 L3454.3 5189 L3453.6 5189.7 L3452.9 5190.3 L3452.3 5190.9 L3451.6 5191.5 L3451 5192.2 L3450.3 5192.8 L3449.7 5193.4 L3449 5194 L3448.4 5194.7 L3447.7 5195.3 L3447.1 5195.9 L3446.5 5196.5 L3445.9 5197.2 L3445.2 5197.8 L3444.6 5198.5 L3444 5199.1 L3443.4 5199.7 L3442.8 5200.4 L3442.2 5201 L3441.6 5201.7 L3440.9 5202.3 L3440.3 5203 L3439.7 5203.6 L3439.1 5204.3 L3438.5 5204.9 L3437.9 5205.6 L3437.3 5206.3 L3436.7 5206.9 L3436.1 5207.6 L3435.5 5208.3 L3434.9 5209 L3434.3 5209.6 L3433.7 5210.3 L3433.1 5211 L3432.5 5211.7 L3431.9 5212.4 L3431.3 5213.2 L3430.7 5213.9 L3430.1 5214.6 L3429.5 5215.3 L3428.9 5216 L3428.3 5216.8 L3427.7 5217.5 L3427.1 5218.3 L3426.4 5219 L3425.8 5219.8 L3425.2 5220.5 L3424.6 5221.3 L3423.9 5222.1 L3423.3 5222.9 L3422.7 5223.7 L3422 5224.5 L3421.4 5225.3 L3420.8 5226.1 L3420.1 5227 L3419.5 5227.8 L3418.8 5228.6 L3418.1 5229.5 L3417.5 5230.4 L3416.8 5231.3 L3416.1 5232.1 L3415.5 5233 L3414.8 5234 L3414.1 5234.9 L3413.4 5235.8 L3412.7 5236.8 L3412 5237.7 L3411.2 5238.7 L3410.5 5239.7 L3409.8 5240.7 L3409 5241.7 L3408.3 5242.7 L3407.5 5243.8 L3406.8 5244.8 L3406 5245.9 L3405.2 5247 L3404.4 5248.1 L3403.6 5249.3 L3402.8 5250.4 L3401.9 5251.6 L3401.1 5252.8 L3400.2 5254 L3399.4 5255.2 L3398.5 5256.4 L3397.6 5257.7 L3396.7 5259.1 L3395.8 5260.5 L3394.9 5262.1 L3394 5263.8 L3393.1 5265.7 L3392.2 5267.7 L3391.3 5270.1 L3390.5 5272.9 L3389.6 5276.2 L3388.9 5280.6 L3388.3 5287.6 L3388.4 5302 L3388.6 5319.5 L3388.8 5340.4 L3388.9 5366.2 L3389.2 5399.8 L3387.7 5414.8 L3385.2 5414.8 L3382.7 5414.8 L3380.3 5414.8 L3377.8 5414.8 L3375.3 5414.8 L3372.8 5414.9 L3370.3 5414.9 L3367.8 5414.9 L3365.3 5414.9 L3362.8 5414.9 L3360.3 5414.9 L3357.8 5414.9 L3355.3 5415 L3352.8 5415 L3350.3 5415 L3347.8 5415 L3345.3 5415 L3342.7 5415 L3340.2 5415 L3337.7 5415.1 L3335.2 5415.1 L3332.6 5415.1 L3330.1 5415.1 L3327.5 5415.1 L3325 5415.1 L3322.4 5415.1 L3319.8 5415.1 L3317.3 5415.2 L3314.7 5415.2 L3312.1 5415.2 L3309.5 5415.2 L3306.9 5415.2 L3304.2 5415.2 L3301.6 5415.2 L3298.9 5415.2 L3296.3 5415.3 L3293.6 5415.3 L3290.9 5415.3 L3288.2 5415.3 L3285.5 5415.3 L3282.8 5415.3 L3280 5415.3 L3277.3 5415.3 L3274.5 5415.4 L3271.7 5415.4 L3268.9 5415.4 L3266.1 5415.4 L3263.2 5415.4 L3260.4 5415.4 L3257.5 5415.4 L3254.6 5415.4 L3251.7 5415.4 L3248.7 5415.5 L3245.8 5415.5 L3242.8 5415.5 L3239.8 5415.5 L3236.7 5415.5 L3233.7 5415.5 L3230.6 5415.5 L3227.5 5415.5 L3224.3 5415.6 L3221.2 5415.6 L3218 5415.6 L3214.7 5415.6 L3211.5 5415.6 L3208.2 5415.6 L3204.9 5415.6 L3201.5 5415.6 L3198.1 5415.6 L3194.7 5415.7 L3191.2 5415.7 L3187.7 5415.7 L3184.2 5415.7 L3180.6 5415.7 L3177 5415.7 L3173.3 5415.7 L3169.6 5415.7 L3165.8 5415.8 L3162 5415.8 L3158.2 5415.8 L3154.3 5415.8 L3150.3 5415.8 L3146.3 5415.8 L3142.2 5415.8 L3138.1 5415.9 L3133.9 5415.9 L3129.7 5415.9 L3125.3 5415.9 L3121 5415.9 L3116.5 5415.9 L3112 5416 L3107.4 5416 L3102.8 5416 L3098 5416 L3093.2 5416 L3088.3 5416.1 L3083.3 5416.1 L3078.3 5416.1 L3073.1 5416.1 L3067.8 5416.1 L3062.5 5416.2 L3057 5416.2 L3051.4 5416.2 L3045.8 5416.2 L3040 5416.3 L3034.1 5416.3 L3028 5416.3 L3021.9 5416.3 L3015.6 5416.4 L3009.1 5416.4 L3002.5 5416.4 L2995.8 5416.5 L2988.9 5416.5 L2981.8 5416.6 L2974.6 5416.6 L2967.2 5416.6 L2959.6 5416.7 L2951.8 5416.8 L2943.8 5416.8 L2935.6 5416.9 L2927.1 5416.9 L2918.4 5417 L2909.5 5417.1 L2900.3 5417.1 L2890.8 5417.2 L2881.1 5417.3 L2871 5417.4 L2860.6 5417.5 L2849.8 5417.6 L2838.8 5417.7 L2828.4 5417.2 L2828.2 5411.3 L2828 5405.4 L2827.9 5399.6 L2827.8 5393.7 L2827.7 5387.9 L2827.6 5382.2 L2827.5 5376.5 L2827.4 5370.8 L2827.4 5365.2 L2827.3 5359.6 L2827.3 5354 L2827.3 5348.5 L2827.2 5343 L2827.2 5337.6 L2827.2 5332.2 L2827.1 5326.8 L2827.1 5321.5 L2827 5316.2 L2827 5310.9 L2826.9 5305.7 L2826.9 5300.5 L2826.8 5295.3 L2826.8 5290.1 L2826.9 5285 L2827.6 5279.6 L2828.9 5274.2 L2830.7 5268.7 L2833 5263.1 L2836.1 5257.4 L2839.6 5251.6 L2843.6 5245.9 L2848 5240.2 L2852.5 5234.5 L2857 5228.9 L2861.5 5223.4 L2865.7 5218.1 L2869.7 5212.9 L2874.1 5207.7 L2878.7 5202.6 L2883.7 5197.5 L2889 5192.5 L2894.4 5187.6 L2899.9 5182.7 L2905.5 5178 L2911 5173.4 L2916.2 5168.9 L2920.9 5164.5 L2925.2 5160.3 L2929.2 5156.1 L2932.9 5152.1 L2936.3 5148.1 L2939.5 5144.2 L2942.8 5140.3 L2946.2 5136.5 L2949.8 5132.8 L2953.6 5129.1 L2957.4 5125.5 L2961.3 5122 L2965.2 5118.5 L2969.1 5115.1 L2973 5111.8 L2976.9 5108.5 L2980.7 5105.3 L2984.4 5102.2 L2988.1 5099.1 L2991.6 5096 L2994.7 5093 L2997.5 5090 L3000.1 5087 L3002.5 5084 L3004.8 5081 L3007.2 5078.1 L3009.6 5075.2 L3012.1 5072.4 L3014.9 5069.7 L3017.9 5067 L3021.3 5064.4 L3024.9 5062 L3028.5 5059.6 L3032.1 5057.2 L3035.7 5055 L3039.3 5052.7 L3042.9 5050.5 L3046.5 5048.4 L3050 5046.3 L3053.5 5044.3 L3057 5042.3 L3060.4 5040.3 L3063.8 5038.4 L3067.1 5036.5 L3070.4 5034.6 L3073.6 5032.8 L3076.8 5030.9 L3079.9 5029.2 L3083 5027.4 L3086 5025.7 L3089 5024 L3092 5022.3 L3094.9 5020.7 L3097.8 5019 L3100.7 5017.5 L3103.5 5015.9 L3106.3 5014.4 L3109.1 5012.8 L3111.8 5011.3 L3114.5 5009.9 L3117.2 5008.4 L3119.8 5007 L3122.4 5005.6 L3125 5004.2 L3127.6 5002.8 L3130.1 5001.4 L3132.7 5000.1 L3135.2 4998.8 L3137.6 4997.5 L3140.1 4996.2 L3142.5 4995 L3144.9 4993.7 L3147.3 4992.5 L3149.7 4991.3 L3152 4990.1 L3154.4 4988.9 L3156.7 4987.7 L3158.9 4986.6 L3161.2 4985.4 L3163.5 4984.3 L3165.7 4983.2 L3168 4982.1 L3170.2 4981.1 L3172.4 4980 L3174.5 4978.9 L3176.7 4977.9 L3178.9 4976.9 L3181 4975.9 L3183.1 4974.9 L3185.3 4973.9 L3187.3 4972.9 L3189.4 4971.9 L3191.5 4971 L3193.5 4970 L3195.6 4969.1 L3197.7 4968.2 L3199.7 4967.3 L3201.7 4966.4 L3203.7 4965.5 L3205.7 4964.6 L3207.7 4963.7 L3209.7 4962.8 L3211.7 4962 L3213.6 4961.2 L3215.6 4960.3 L3217.5 4959.5 L3219.5 4958.7 L3221.4 4957.9 L3223.3 4957.1 L3225.2 4956.3 L3227.1 4955.5 L3229 4954.7 L3230.9 4954 L3232.8 4953.2 L3234.7 4952.5 L3236.6 4951.7 L3238.4 4951 L3240.3 4950.2 L3242.2 4949.5 L3244 4948.8 L3245.9 4948.1 L3247.7 4947.4 L3249.6 4946.8 L3251.4 4946.1 L3253.2 4945.4 L3255 4944.7 L3256.8 4944 L3258.7 4943.4 L3260.5 4942.8 L3262.3 4942.1 L3264.1 4941.5 L3265.9 4940.9 L3267.7 4940.3 L3269.5 4939.6 L3271.3 4939 L3273.1 4938.4 L3274.9 4937.8 L3276.7 4937.3 L3278.5 4936.8 L3280.4 4936.3 L3282.2 4935.8 L3284 4935.3 L3285.8 4934.8 L3287.6 4934.3 L3289.4 4933.8 L3291.2 4933.3 L3292.9 4932.8 L3294.7 4932.3 L3296.5 4931.8 L3298.3 4931.4 L3300.1 4931 L3301.9 4930.5 L3303.7 4930.1 L3305.5 4929.7 L3307.2 4929.2 L3309 4928.8 L3310.8 4928.4 L3312.6 4927.9 L3314.4 4927.5 L3316.1 4927.1 L3317.9 4926.7 L3319.7 4926.3 L3321.5 4925.9 L3323.3 4925.5 L3325 4925 L3326.8 4924.6 L3328.6 4924.2 L3330.3 4923.7 L3332.1 4923.2 L3333.9 4922.8 L3335.7 4922.3 L3337.4 4921.7 L3339.2 4921 L3340.9 4920.3 L3342.7 4919.6 L3344.4 4918.5 L3346.1 4917.2 L3347.9 4915.9 L3349.5 4913 L3351 4909.1 L3352.2 4899.3 L3351.8 4864.8 L3352.7 4841.3 L3355.2 4841.3 L3357.7 4841.3 L3360.2 4841.3 L3362.7 4841.3 L3365.3 4841.3 L3367.8 4841.3 L3370.3 4841.3 L3372.8 4841.3 L3375.3 4841.3 L3377.8 4841.3 L3380.3 4841.3 L3382.8 4841.3 L3385.4 4841.3 L3387.9 4841.3 L3390.4 4841.3 L3392.9 4841.4 L3395.5 4841.4 L3398 4841.4 L3400.5 4841.4 L3403.1 4841.4 L3405.6 4841.4 L3408.2 4841.4 L3410.7 4841.4 L3413.3 4841.4 L3415.9 4841.4 L3418.4 4841.4 L3421 4841.4 L3423.6 4841.4 L3426.2 4841.4 L3428.8 4841.4 L3431.4 4841.4 L3434.1 4841.4 L3436.7 4841.3 L3439.4 4841.3 L3442 4841.3 L3444.7 4841.3 L3447.4 4841.3 L3450.1 4841.3 L3452.8 4841.3 L3455.5 4841.3 L3458.3 4841.3 L3461 4841.3 L3463.8 4841.3 L3466.6 4841.3 L3469.4 4841.3 L3472.2 4841.3 L3475 4841.3 L3477.9 4841.3 L3480.8 4841.3 L3483.7 4841.3 L3486.6 4841.3 L3489.5 4841.3 L3492.5 4841.3 L3495.5 4841.2 L3498.5 4841.2 L3501.5 4841.2 L3504.5 4841.2 L3507.6 4841.2 L3510.7 4841.2 L3513.8 4841.2 L3517 4841.2 L3520.2 4841.2 L3523.4 4841.2 L3526.6 4841.2 L3529.9 4841.2 L3533.2 4841.1 L3536.6 4841.1 L3539.9 4841.1 L3543.3 4841.1 L3546.8 4841.1 L3550.3 4841.1 L3553.8 4841.1 L3557.3 4841.1 L3560.9 4841.1 L3564.6 4841 L3568.3 4841 L3572 4841 L3575.8 4841 L3579.6 4841 L3583.5 4841 L3587.4 4841 L3591.4 4841 L3595.4 4840.9 L3599.5 4840.9 L3603.7 4840.9 L3607.9 4840.9 L3612.1 4840.9 L3616.5 4840.9 L3620.9 4840.9 L3625.3 4840.8 L3629.9 4840.8 L3634.5 4840.8 L3639.1 4840.8 L3643.9 4840.8 L3648.7 4840.8 L3653.6 4840.8 L3658.7 4840.8 L3663.7 4840.7 L3668.9 4840.7 L3674.2 4840.7 L3679.6 4840.7 L3685 4840.7 L3690.6 4840.7 L3696.3 4840.7 L3702.1 4840.7 L3708 4840.7 L3714.1 4840.6 L3720.3 4840.6 L3726.6 4840.6 L3733 4840.6 L3739.6 4840.6 L3746.3 4840.6 L3753.2 4840.6 L3760.3 4840.5 L3767.5 4840.5 L3774.9 4840.5 L3782.5 4840.5 L3790.3 4840.5 L3798.3 4840.4 L3806.5 4840.4 L3814.9 4840.4 L3823.5 4840.4 L3832.4 4840.4 L3841.5 4840.4 L3850.9 4840.3 L3860.6 4840.3 L3870.6 4840.3 L3880.8 4840.3 L3891.4 4840.3 L3902.3 4840.2 L3913 4840.5 L3913 4846.6 L3913 4852.6 L3912.9 4858.6 L3913.1 4864.4 L3913.3 4870.1 L3913.4 4875.8 L3913.7 4881.5 L3914 4887 L3914.2 4892.6 L3914.4 4898.2 L3764.7 4965.7 L3712.8 4990.7 L3685.9 5004.8 L3665.3 5015.9 L3651.4 5024 L3636 5032.4 L3622.1 5040 L3610.9 5046.3 L3602 5051.6 L3595.1 5056.1 L3589.4 5060 L3584.5 5063.6 L3580.7 5066.8 L3577.1 5069.8 L3574.4 5072.5 L3571.8 5075.1 L3569.6 5077.6 L3567.8 5079.9 L3566.1 5082.1 L3564.3 5084.3 L3562.6 5086.5 L3560.8 5088.6 L3558.9 5090.8 L3556.9 5092.9 L3554.8 5094.9 L3552.7 5097 L3550.5 5099 L3548.3 5100.9 L3546.1 5102.9 L3543.8 5104.7 L3541.6 5106.6 L3539.4 5108.4 L3537.3 5110.1 L3535.2 5111.8 L3533.2 5113.4 L3531.2 5115.1 L3529.3 5116.6 L3527.5 5118.1 L3525.8 5119.6 L3524.1 5121.1 L3522.5 5122.5 L3521 5123.9 L3519.6 5125.2 L3518.2 5126.6 L3516.8 5127.9 Z" fill="none" stroke="red" stroke-width="0.5"/>
</svg>