<svg xmlns="http://www.w3.org/2000/svg" viewBox="3156.85 463.815 565.094 702.974" style="background:#f5f5f5">
  <path d="M3474.6 473.8 L3481.4 495.5 L3481.4 495.5 L3481.5 504.7 L3481.7 513.9 L3481.8 523.1 L3481.9 532.4 L3482 541.6 L3482.1 550.9 L3482.2 560.2 L3482.2 569.6 L3482.3 578.9 L3482.4 588.2 L3482.5 597.4 L3482.6 606.7 L3483.6 611.1 L3486.9 614.7 L3492.2 617.7 L3499.1 620 L3507.1 621.8 L3515.9 623.1 L3525 624.2 L3534 625 L3542.6 625.6 L3550.3 626.2 L3556.8 626.9 L3561.6 627.7 L3572 628.7 L3582.5 629.6 L3593 630.5 L3603.5 631.2 L3614 632 L3624.5 632.8 L3634.9 633.6 L3645.4 634.6 L3655.9 635.8 L3666.3 637.1 L3676.6 638.7 L3687 640.6 L3687.7 640.8 L3688.3 641 L3688.8 641.3 L3689.3 641.7 L3689.6 642 L3689.8 642.4 L3690 642.9 L3690 643.4 L3690 643.9 L3689.9 644.5 L3689.7 645.2 L3689.4 645.9 L3688.6 650.4 L3688.1 655 L3687.8 659.6 L3687.7 664.3 L3687.7 668.9 L3687.8 673.6 L3687.9 678.3 L3688 683 L3688 687.7 L3687.9 692.3 L3687.7 697 L3687.2 701.6 L3688.1 713 L3688.7 724.4 L3689.2 735.8 L3689.6 747.3 L3689.8 758.7 L3689.9 770.1 L3689.9 781.5 L3689.8 792.9 L3689.6 804.4 L3689.4 815.8 L3689.1 827.2 L3688.8 838.7 L3688.5 841.5 L3688.5 844.7 L3688.7 848.3 L3689 852.2 L3689.3 856.2 L3689.5 860.1 L3689.5 864 L3689.3 867.6 L3688.7 870.9 L3687.6 873.8 L3686 876.1 L3683.7 877.6 L3680.1 878.9 L3676.4 879.9 L3672.7 880.9 L3668.9 881.7 L3665.2 882.4 L3661.4 883 L3657.6 883.5 L3653.8 884 L3650 884.4 L3646.1 884.8 L3642.3 885.3 L3638.5 885.7 L3628.6 886.7 L3618.6 887.6 L3608.6 888.5 L3598.7 889.4 L3588.7 890.3 L3578.7 891.1 L3568.7 892 L3558.8 892.9 L3548.8 893.8 L3538.8 894.7 L3528.9 895.7 L3518.9 896.7 L3517.5 897 L3515.8 897.3 L3514 897.6 L3512 897.9 L3510 898.2 L3508.1 898.7 L3506.3 899.2 L3504.6 899.9 L3503.3 900.8 L3502.4 902 L3501.8 903.3 L3501.9 905 L3502 907.5 L3502.1 910.1 L3502.1 912.6 L3502.2 915.1 L3502.3 917.7 L3502.4 920.2 L3502.5 922.7 L3502.6 925.3 L3502.7 927.8 L3502.8 930.3 L3502.9 932.8 L3503 935.4 L3503.6 950.9 L3504.2 966.4 L3504.8 981.9 L3505.5 997.5 L3506.2 1013 L3506.9 1028.5 L3507.6 1044 L3508.3 1059.5 L3509 1075 L3509.6 1090.6 L3510.2 1106.1 L3510.8 1121.6 L3511.8 1143.8 L3510.7 1121.5 L3510.8 1121.6 L3486.6 1122.9 L3462.3 1124.1 L3438 1125.2 L3413.7 1126.3 L3389.4 1127.4 L3365.1 1128.5 L3340.8 1129.6 L3316.5 1130.6 L3292.2 1131.8 L3267.9 1132.9 L3243.7 1134.1 L3219.4 1135.3 L3197.3 1135.8 L3218.5 1134.9 L3218 1121 L3217.5 1107 L3217 1093 L3216.4 1079.1 L3215.8 1065.1 L3215.1 1051.1 L3214.5 1037.2 L3213.8 1023.2 L3213.2 1009.2 L3212.5 995.3 L3211.9 981.3 L3211.4 967.3 L3211.2 962.1 L3211 957 L3210.8 951.8 L3210.6 946.6 L3210.3 941.4 L3210.1 936.2 L3209.9 931 L3209.7 925.8 L3209.5 920.6 L3209.3 915.4 L3209.1 910.2 L3208.9 905 L3208.9 903.4 L3209.3 902.1 L3210 901.1 L3211 900.2 L3212.2 899.6 L3213.6 899.1 L3215.1 898.7 L3216.6 898.4 L3218.2 898.1 L3219.7 897.9 L3221.1 897.6 L3222.4 897.2 L3232.6 895.8 L3242.7 894.6 L3252.9 893.6 L3263.1 892.7 L3273.3 891.8 L3283.6 891 L3293.8 890.2 L3304 889.5 L3314.2 888.6 L3324.4 887.7 L3334.6 886.7 L3344.8 885.6 L3357.2 883.8 L3367.4 882.5 L3375.8 881.5 L3382.4 880.6 L3387.5 879.4 L3391.2 877.6 L3393.8 875 L3395.4 871.2 L3396.2 866.1 L3396.4 859.3 L3396.3 850.6 L3395.9 839.6 L3396.2 827.9 L3396.5 816.2 L3396.8 804.6 L3397 792.9 L3397.1 781.3 L3397.1 769.6 L3397 757.9 L3396.8 746.3 L3396.5 734.6 L3396 723 L3395.4 711.3 L3394.6 699.7 L3395 695.2 L3395.2 690.7 L3395.2 686.1 L3395.2 681.6 L3395.1 677.1 L3395 672.5 L3395 668 L3395 663.4 L3395.1 658.9 L3395.4 654.4 L3396 650 L3396.7 645.6 L3397 645 L3397.2 644.4 L3397.3 643.8 L3397.3 643.3 L3397.2 642.9 L3397 642.4 L3396.7 642 L3396.4 641.7 L3395.9 641.3 L3395.4 641 L3394.8 640.8 L3394.1 640.5 L3388.6 639.4 L3383 638.3 L3377.4 637.5 L3371.7 636.7 L3366.1 636.1 L3360.4 635.5 L3354.7 635 L3349 634.5 L3343.4 634 L3337.7 633.5 L3332 633 L3326.3 632.5 L3316.7 631.8 L3307.1 631 L3297.4 630.3 L3287.8 629.5 L3278.2 628.6 L3268.6 627.7 L3259 626.8 L3249.4 625.8 L3239.8 624.7 L3230.2 623.5 L3220.6 622.2 L3211 620.8 L3208.9 620.5 L3206.6 620 L3204.2 619.5 L3201.8 618.9 L3199.5 618.1 L3197.3 617.2 L3195.3 616.1 L3193.5 614.8 L3192 613.2 L3190.8 611.3 L3190.1 609.1 L3189.9 606.6 L3189.8 597.5 L3189.8 588.5 L3189.7 579.5 L3189.6 570.4 L3189.5 561.4 L3189.4 552.4 L3189.3 543.3 L3189.2 534.3 L3189.1 525.3 L3189.1 516.2 L3189.1 507.2 L3189.2 498.2 L3213.5 497.7 L3237.9 497.3 L3262.2 497 L3286.6 496.8 L3311 496.6 L3335.3 496.4 L3359.7 496.3 L3384 496.2 L3408.4 496 L3432.8 495.9 L3457.1 495.7 L3481.5 495.4 L3481.5 495.4 L3481.4 493.7 L3481.4 492 L3481.4 490.2 L3481.4 488.4 L3481.3 486.6 L3481.3 484.8 L3481.4 483 L3481.4 481.1 L3481.4 479.3 L3481.4 477.5 L3481.3 475.7 L3481.3 473.9 L3474.6 473.8 Z" fill="rgba(0,120,255,0.2)" stroke="blue" stroke-width="1.5"/>
  <g opacity="0.5"><path d="M0 0c-73.074-.838-146.195-.51-219.243-2.055-.221-27.096.487-54.215.516-81.323-.029-8.113 9.664-9.605 15.882-10.696 28.676-4.292 57.587-6.589 86.487-8.747 16.943-1.713 34.215-2.235 50.841-6.02 2.166-.689 2.881-1.856 1.949-3.784-2.755-13.177-.16-27.15-1.611-40.574 2.675-34.96 2.099-69.923.963-104.914 1.304-36.633 2.184-27.899-38.3-34.53-30.528-3.634-61.362-4.288-91.787-8.692-3.545-1.259-10.818-.579-10.125-5.889.609-15.574 1.213-31.148 1.861-46.72 1.561-41.924 4.085-83.768 5.29-125.703l-15.887-.677c-2.093 39.922-3.877 79.843-5.674 119.782-.736 17.728-1.118 35.471-2.205 53.181-.8 5.836 8.978 5.159 12.908 6.349 33.976 3.857 68.156 5.662 102.103 9.768 21.372 4.174 27.54-.449 25.675 25.09-1.187 22.4 1.577 44.722.516 67.104.601 16.866-2.193 33.706-1.582 50.493.683 11.655-.818 23.641 1.039 35.128 1.079 3.029.692 4.138-2.457 4.891-30.54 5.461-61.82 6.21-92.677 9.306-11.706 2.558-60.194 1.018-59.716 15.793-.1 27.134-.544 54.202-.743 81.343l16.42.21v15.922c1.876.596 215.818 2.618 219.436 2.07C-.038 10.88-.203 4.981 0 0" style="fill:#231f20;fill-opacity:1;fill-rule:nonzero;stroke:none" transform="matrix(1.33333 0 0 -1.33333 3481.49 495.414)"/>
<path d="M0 0c-1.689 46.568-4.274 93.102-5.841 139.677-.298 7.587-.592 15.174-.89 22.761-.896 5.49 9.074 5.166 12.79 6.221 29.869 3.171 59.841 5.284 89.727 8.274 11.362 1.349 23.02 2.099 33.862 6.033 7.916 3.648 2.467 21.629 3.831 29.245.896 34.281 1.711 68.57-1.21 102.782 1.801 13.84-1.065 28.21 1.646 41.792.981 2.186.502 3.404-1.812 3.986-30.895 6.128-62.759 6.248-94.044 9.679-11.45 2.619-60.246 1.196-59.245 15.742-.261 27.697-.448 55.991-.879 83.384h16.509c.698-28.149.416-56.364.741-84.535 1.163-12.783 42.823-11.747 53.756-14.208 33.134-3.558 66.812-3.828 99.574-10.025 2.084-.706 2.822-1.663 1.978-3.574-2.577-11.338-.597-23.271-1.333-34.855.877-36.858 2.373-73.763.707-110.661-1.53-21.864 8.481-28.968-18.448-32.241-32.122-4.404-64.519-6.25-96.78-9.281-35.661-4.741-22.8 1.03-23.516-47.998C12.819 81.735 15.028 41.284 16.422.812 10.951.194 5.428.035-.067.076Z" style="fill:#231f20;fill-opacity:1;fill-rule:nonzero;stroke:none" transform="matrix(1.33333 0 0 -1.33333 3510.827 1121.602)"/>
<path d="m0 0 .778-16.744-218.577-9.723-.73 16.121C-145.677-6.562-72.764-3.935.069-.079z" style="fill:#231f20;fill-opacity:1;fill-rule:nonzero;stroke:none" transform="matrix(1.33333 0 0 -1.33333 3510.738 1121.5)"/></g>
  <path d="M3474.6 473.8 L3481.4 495.5 L3481.4 495.5 L3481.5 504.7 L3481.7 513.9 L3481.8 523.1 L3481.9 532.4 L3482 541.6 L3482.1 550.9 L3482.2 560.2 L3482.2 569.6 L3482.3 578.9 L3482.4 588.2 L3482.5 597.4 L3482.6 606.7 L3483.6 611.1 L3486.9 614.7 L3492.2 617.7 L3499.1 620 L3507.1 621.8 L3515.9 623.1 L3525 624.2 L3534 625 L3542.6 625.6 L3550.3 626.2 L3556.8 626.9 L3561.6 627.7 L3572 628.7 L3582.5 629.6 L3593 630.5 L3603.5 631.2 L3614 632 L3624.5 632.8 L3634.9 633.6 L3645.4 634.6 L3655.9 635.8 L3666.3 637.1 L3676.6 638.7 L3687 640.6 L3687.7 640.8 L3688.3 641 L3688.8 641.3 L3689.3 641.7 L3689.6 642 L3689.8 642.4 L3690 642.9 L3690 643.4 L3690 643.9 L3689.9 644.5 L3689.7 645.2 L3689.4 645.9 L3688.6 650.4 L3688.1 655 L3687.8 659.6 L3687.7 664.3 L3687.7 668.9 L3687.8 673.6 L3687.9 678.3 L3688 683 L3688 687.7 L3687.9 692.3 L3687.7 697 L3687.2 701.6 L3688.1 713 L3688.7 724.4 L3689.2 735.8 L3689.6 747.3 L3689.8 758.7 L3689.9 770.1 L3689.9 781.5 L3689.8 792.9 L3689.6 804.4 L3689.4 815.8 L3689.1 827.2 L3688.8 838.7 L3688.5 841.5 L3688.5 844.7 L3688.7 848.3 L3689 852.2 L3689.3 856.2 L3689.5 860.1 L3689.5 864 L3689.3 867.6 L3688.7 870.9 L3687.6 873.8 L3686 876.1 L3683.7 877.6 L3680.1 878.9 L3676.4 879.9 L3672.7 880.9 L3668.9 881.7 L3665.2 882.4 L3661.4 883 L3657.6 883.5 L3653.8 884 L3650 884.4 L3646.1 884.8 L3642.3 885.3 L3638.5 885.7 L3628.6 886.7 L3618.6 887.6 L3608.6 888.5 L3598.7 889.4 L3588.7 890.3 L3578.7 891.1 L3568.7 892 L3558.8 892.9 L3548.8 893.8 L3538.8 894.7 L3528.9 895.7 L3518.9 896.7 L3517.5 897 L3515.8 897.3 L3514 897.6 L3512 897.9 L3510 898.2 L3508.1 898.7 L3506.3 899.2 L3504.6 899.9 L3503.3 900.8 L3502.4 902 L3501.8 903.3 L3501.9 905 L3502 907.5 L3502.1 910.1 L3502.1 912.6 L3502.2 915.1 L3502.3 917.7 L3502.4 920.2 L3502.5 922.7 L3502.6 925.3 L3502.7 927.8 L3502.8 930.3 L3502.9 932.8 L3503 935.4 L3503.6 950.9 L3504.2 966.4 L3504.8 981.9 L3505.5 997.5 L3506.2 1013 L3506.9 1028.5 L3507.6 1044 L3508.3 1059.5 L3509 1075 L3509.6 1090.6 L3510.2 1106.1 L3510.8 1121.6 L3511.8 1143.8 L3510.7 1121.5 L3510.8 1121.6 L3486.6 1122.9 L3462.3 1124.1 L3438 1125.2 L3413.7 1126.3 L3389.4 1127.4 L3365.1 1128.5 L3340.8 1129.6 L3316.5 1130.6 L3292.2 1131.8 L3267.9 1132.9 L3243.7 1134.1 L3219.4 1135.3 L3197.3 1135.8 L3218.5 1134.9 L3218 1121 L3217.5 1107 L3217 1093 L3216.4 1079.1 L3215.8 1065.1 L3215.1 1051.1 L3214.5 1037.2 L3213.8 1023.2 L3213.2 1009.2 L3212.5 995.3 L3211.9 981.3 L3211.4 967.3 L3211.2 962.1 L3211 957 L3210.8 951.8 L3210.6 946.6 L3210.3 941.4 L3210.1 936.2 L3209.9 931 L3209.7 925.8 L3209.5 920.6 L3209.3 915.4 L3209.1 910.2 L3208.9 905 L3208.9 903.4 L3209.3 902.1 L3210 901.1 L3211 900.2 L3212.2 899.6 L3213.6 899.1 L3215.1 898.7 L3216.6 898.4 L3218.2 898.1 L3219.7 897.9 L3221.1 897.6 L3222.4 897.2 L3232.6 895.8 L3242.7 894.6 L3252.9 893.6 L3263.1 892.7 L3273.3 891.8 L3283.6 891 L3293.8 890.2 L3304 889.5 L3314.2 888.6 L3324.4 887.7 L3334.6 886.7 L3344.8 885.6 L3357.2 883.8 L3367.4 882.5 L3375.8 881.5 L3382.4 880.6 L3387.5 879.4 L3391.2 877.6 L3393.8 875 L3395.4 871.2 L3396.2 866.1 L3396.4 859.3 L3396.3 850.6 L3395.9 839.6 L3396.2 827.9 L3396.5 816.2 L3396.8 804.6 L3397 792.9 L3397.1 781.3 L3397.1 769.6 L3397 757.9 L3396.8 746.3 L3396.5 734.6 L3396 723 L3395.4 711.3 L3394.6 699.7 L3395 695.2 L3395.2 690.7 L3395.2 686.1 L3395.2 681.6 L3395.1 677.1 L3395 672.5 L3395 668 L3395 663.4 L3395.1 658.9 L3395.4 654.4 L3396 650 L3396.7 645.6 L3397 645 L3397.2 644.4 L3397.3 643.8 L3397.3 643.3 L3397.2 642.9 L3397 642.4 L3396.7 642 L3396.4 641.7 L3395.9 641.3 L3395.4 641 L3394.8 640.8 L3394.1 640.5 L3388.6 639.4 L3383 638.3 L3377.4 637.5 L3371.7 636.7 L3366.1 636.1 L3360.4 635.5 L3354.7 635 L3349 634.5 L3343.4 634 L3337.7 633.5 L3332 633 L3326.3 632.5 L3316.7 631.8 L3307.1 631 L3297.4 630.3 L3287.8 629.5 L3278.2 628.6 L3268.6 627.7 L3259 626.8 L3249.4 625.8 L3239.8 624.7 L3230.2 623.5 L3220.6 622.2 L3211 620.8 L3208.9 620.5 L3206.6 620 L3204.2 619.5 L3201.8 618.9 L3199.5 618.1 L3197.3 617.2 L3195.3 616.1 L3193.5 614.8 L3192 613.2 L3190.8 611.3 L3190.1 609.1 L3189.9 606.6 L3189.8 597.5 L3189.8 588.5 L3189.7 579.5 L3189.6 570.4 L3189.5 561.4 L3189.4 552.4 L3189.3 543.3 L3189.2 534.3 L3189.1 525.3 L3189.1 516.2 L3189.1 507.2 L3189.2 498.2 L3213.5 497.7 L3237.9 497.3 L3262.2 497 L3286.6 496.8 L3311 496.6 L3335.3 496.4 L3359.7 496.3 L3384 496.2 L3408.4 496 L3432.8 495.9 L3457.1 495.7 L3481.5 495.4 L3481.5 495.4 L3481.4 493.7 L3481.4 492 L3481.4 490.2 L3481.4 488.4 L3481.3 486.6 L3481.3 484.8 L3481.4 483 L3481.4 481.1 L3481.4 479.3 L3481.4 477.5 L3481.3 475.7 L3481.3 473.9 L3474.6 473.8 Z" fill="none" stroke="red" stroke-width="0.5"/>
</svg>