<svg xmlns="http://www.w3.org/2000/svg" viewBox="274.743 1422.98 552.34 459.962" style="background:#f5f5f5">
  <path d="M302.8 1433 L303.1 1434.9 L303.3 1436.8 L303.5 1438.6 L303.7 1440.5 L303.9 1442.4 L304.2 1444.2 L304.4 1446.1 L304.6 1447.9 L304.9 1449.8 L305.2 1451.6 L305.5 1453.5 L305.8 1455.4 L305.7 1455.3 L330 1455.2 L354.2 1455.1 L378.5 1455 L402.8 1454.9 L427.1 1454.8 L451.3 1454.8 L475.6 1454.8 L499.9 1454.7 L524.1 1454.7 L548.4 1454.6 L572.7 1454.6 L597 1454.5 L610.5 1454.4 L605.1 1454.5 L597.7 1454.8 L597.7 1454.8 L599.6 1459.7 L602.1 1464.1 L605 1467.8 L608.2 1471.3 L611.7 1474.5 L615.4 1477.7 L619.1 1481 L622.8 1484.6 L626.4 1488.6 L629.8 1493.2 L632.9 1498.6 L635.6 1504.9 L636.8 1507 L637.9 1509.2 L638.8 1511.4 L639.6 1513.6 L640.3 1515.9 L641 1518.2 L641.6 1520.6 L642.2 1522.9 L642.7 1525.3 L643.3 1527.6 L643.9 1529.9 L644.6 1532.2 L646.5 1539.3 L648.9 1546.2 L651.6 1552.9 L654.8 1559.4 L658.2 1565.8 L661.9 1572 L665.8 1578.1 L669.9 1584.1 L674 1590.1 L678.3 1596 L682.5 1601.9 L686.7 1607.8 L694.3 1619.4 L702 1630.8 L709.8 1642.2 L717.6 1653.5 L725.4 1664.8 L733.3 1676.2 L741 1687.5 L748.7 1699 L756.3 1710.5 L763.6 1722.2 L770.8 1734 L777.7 1745.9 L781.9 1752.8 L785.5 1759.9 L788.5 1767.3 L790.9 1774.8 L792.9 1782.4 L794.5 1790.2 L795.7 1798 L796.6 1805.9 L797.2 1813.9 L797.6 1821.8 L797.8 1829.8 L797.9 1837.8 L797.9 1838.5 L798 1839.1 L798.2 1839.6 L798.5 1840 L798.9 1840.4 L799.7 1840.6 L800.6 1840.7 L801.9 1840.8 L803.6 1840.8 L794.8 1854.2 L794.7 1851.9 L794.6 1849.5 L794.5 1847.3 L794.4 1845.3 L794.3 1843.7 L794.4 1842.5 L770.4 1843.4 L746.4 1844.3 L722.4 1845.1 L698.4 1846 L674.4 1846.8 L650.4 1847.5 L626.4 1848.3 L602.3 1849 L578.3 1849.7 L554.3 1850.3 L530.3 1850.9 L506.2 1851.4 L504.4 1850.8 L504.1 1843.5 L504 1836.1 L504 1828.7 L504 1821.2 L503.9 1813.8 L503.7 1806.3 L503.2 1798.9 L502.4 1791.6 L501.2 1784.3 L499.6 1777.2 L497.4 1770.2 L494.6 1763.3 L487.7 1750.1 L480.5 1737.2 L472.9 1724.4 L465.1 1711.8 L457.1 1699.3 L448.9 1687 L440.6 1674.7 L432.1 1662.5 L423.7 1650.3 L415.2 1638.1 L406.7 1626 L398.3 1613.7 L395.6 1609.3 L392.8 1605 L389.9 1600.8 L386.9 1596.6 L384 1592.4 L381 1588.2 L378 1584 L375.1 1579.7 L372.2 1575.5 L369.5 1571.1 L366.9 1566.7 L364.4 1562.1 L361.8 1557.2 L359.5 1552.3 L357.6 1547.2 L355.9 1542 L354.4 1536.8 L352.9 1531.5 L351.5 1526.3 L350 1521.1 L348.3 1515.9 L346.4 1510.8 L344.3 1505.7 L341.8 1500.8 L340.4 1498.4 L339.1 1496 L337.6 1493.6 L336.2 1491.3 L334.6 1489.1 L333 1486.9 L331.3 1484.8 L329.5 1482.7 L327.6 1480.8 L325.6 1478.9 L323.5 1477.1 L321.2 1475.4 L319.5 1474.1 L317.8 1472.7 L316.2 1471.3 L314.6 1469.9 L313.2 1468.3 L311.8 1466.7 L310.5 1465 L309.3 1463.3 L308.2 1461.4 L307.2 1459.5 L306.4 1457.5 L305.7 1455.3 Z" fill="rgba(0,120,255,0.2)" stroke="blue" stroke-width="1.5"/>
  <g opacity="0.5"><path d="M0 0c1.924-6.534 6.334-11.207 11.659-15.049 6.908-4.984 11.46-11.622 15.407-19.089 8.138-14.509 8.468-31.549 16.963-45.955 7.114-13.815 17.522-25.394 25.445-38.709 24.985-36.77 52.155-72.314 72.175-112.162 9.479-20.386 6.305-43.818 7.381-65.678h-14.811c-1.897 22.88 1.653 47.48-9.769 68.424-21.175 40.617-49.691 76.491-74.462 114.783-11.466 16.539-24.466 32.363-29.991 52.08-2.476 8.323-3.054 17.359-8.083 24.765C3.98-15.831-11.876-15.176-15.713-.233c5.291.109 10.529-.256 15.756.201z" style="fill:#231f20;fill-opacity:1;fill-rule:nonzero;stroke:none" transform="matrix(1.33333 0 0 -1.33333 305.693 1455.328)"/>
<path d="M0 0c25.305.815 9.92.4 25.076-13.3 7.762-5.795 14.322-12.419 18.123-21.417 8.378-13.306 7.995-29.651 15.767-43.302 5.455-12.403 14.684-22.249 21.95-33.417 21.567-34.183 46.858-65.96 66.908-101.193 16.047-22.404 17.659-45.699 16.344-72.321-.222-3.614.044-4.56-3.954-4.384a422 422 0 0 1-7.626-.282c-2.374-.103-2.37-.09-2.449 2.364-.22 23.743-1.526 48.508-15.131 68.888-20.363 36.12-45.795 68.847-68.25 103.553C54.234-97.06 40.17-79.775 35.152-58.113c-2.053 6.895-2.902 14.301-6.73 20.508C21.002-17.165 4.852-16.143 0 0" style="fill:#231f20;fill-opacity:1;fill-rule:nonzero;stroke:none" transform="matrix(1.33333 0 0 -1.33333 597.712 1454.757)"/>
<path d="M0 0c-.907 5.617-1.548 11.084-2.18 16.796h218.366L218.407.69C145.596.324 72.768.561-.039.029z" style="fill:#231f20;fill-opacity:1;fill-rule:nonzero;stroke:none" transform="matrix(1.33333 0 0 -1.33333 305.75 1455.37)"/>
<path d="M0 0c72.138 1.526 144.104 4.023 216.152 6.714-.458-2.856 1.835-15.589-2.053-14.928-8.411-.245-16.82-.513-25.227-.842-24.558-.882-49.1-2.083-73.637-3.394-29.502-1-59.008-2.066-88.522-2.66C-2.739-14.277.817-23.215 0 0" style="fill:#231f20;fill-opacity:1;fill-rule:nonzero;stroke:none" transform="matrix(1.33333 0 0 -1.33333 506.23 1851.442)"/></g>
  <path d="M302.8 1433 L303.1 1434.9 L303.3 1436.8 L303.5 1438.6 L303.7 1440.5 L303.9 1442.4 L304.2 1444.2 L304.4 1446.1 L304.6 1447.9 L304.9 1449.8 L305.2 1451.6 L305.5 1453.5 L305.8 1455.4 L305.7 1455.3 L330 1455.2 L354.2 1455.1 L378.5 1455 L402.8 1454.9 L427.1 1454.8 L451.3 1454.8 L475.6 1454.8 L499.9 1454.7 L524.1 1454.7 L548.4 1454.6 L572.7 1454.6 L597 1454.5 L610.5 1454.4 L605.1 1454.5 L597.7 1454.8 L597.7 1454.8 L599.6 1459.7 L602.1 1464.1 L605 1467.8 L608.2 1471.3 L611.7 1474.5 L615.4 1477.7 L619.1 1481 L622.8 1484.6 L626.4 1488.6 L629.8 1493.2 L632.9 1498.6 L635.6 1504.9 L636.8 1507 L637.9 1509.2 L638.8 1511.4 L639.6 1513.6 L640.3 1515.9 L641 1518.2 L641.6 1520.6 L642.2 1522.9 L642.7 1525.3 L643.3 1527.6 L643.9 1529.9 L644.6 1532.2 L646.5 1539.3 L648.9 1546.2 L651.6 1552.9 L654.8 1559.4 L658.2 1565.8 L661.9 1572 L665.8 1578.1 L669.9 1584.1 L674 1590.1 L678.3 1596 L682.5 1601.9 L686.7 1607.8 L694.3 1619.4 L702 1630.8 L709.8 1642.2 L717.6 1653.5 L725.4 1664.8 L733.3 1676.2 L741 1687.5 L748.7 1699 L756.3 1710.5 L763.6 1722.2 L770.8 1734 L777.7 1745.9 L781.9 1752.8 L785.5 1759.9 L788.5 1767.3 L790.9 1774.8 L792.9 1782.4 L794.5 1790.2 L795.7 1798 L796.6 1805.9 L797.2 1813.9 L797.6 1821.8 L797.8 1829.8 L797.9 1837.8 L797.9 1838.5 L798 1839.1 L798.2 1839.6 L798.5 1840 L798.9 1840.4 L799.7 1840.6 L800.6 1840.7 L801.9 1840.8 L803.6 1840.8 L794.8 1854.2 L794.7 1851.9 L794.6 1849.5 L794.5 1847.3 L794.4 1845.3 L794.3 1843.7 L794.4 1842.5 L770.4 1843.4 L746.4 1844.3 L722.4 1845.1 L698.4 1846 L674.4 1846.8 L650.4 1847.5 L626.4 1848.3 L602.3 1849 L578.3 1849.7 L554.3 1850.3 L530.3 1850.9 L506.2 1851.4 L504.4 1850.8 L504.1 1843.5 L504 1836.1 L504 1828.7 L504 1821.2 L503.9 1813.8 L503.7 1806.3 L503.2 1798.9 L502.4 1791.6 L501.2 1784.3 L499.6 1777.2 L497.4 1770.2 L494.6 1763.3 L487.7 1750.1 L480.5 1737.2 L472.9 1724.4 L465.1 1711.8 L457.1 1699.3 L448.9 1687 L440.6 1674.7 L432.1 1662.5 L423.7 1650.3 L415.2 1638.1 L406.7 1626 L398.3 1613.7 L395.6 1609.3 L392.8 1605 L389.9 1600.8 L386.9 1596.6 L384 1592.4 L381 1588.2 L378 1584 L375.1 1579.7 L372.2 1575.5 L369.5 1571.1 L366.9 1566.7 L364.4 1562.1 L361.8 1557.2 L359.5 1552.3 L357.6 1547.2 L355.9 1542 L354.4 1536.8 L352.9 1531.5 L351.5 1526.3 L350 1521.1 L348.3 1515.9 L346.4 1510.8 L344.3 1505.7 L341.8 1500.8 L340.4 1498.4 L339.1 1496 L337.6 1493.6 L336.2 1491.3 L334.6 1489.1 L333 1486.9 L331.3 1484.8 L329.5 1482.7 L327.6 1480.8 L325.6 1478.9 L323.5 1477.1 L321.2 1475.4 L319.5 1474.1 L317.8 1472.7 L316.2 1471.3 L314.6 1469.9 L313.2 1468.3 L311.8 1466.7 L310.5 1465 L309.3 1463.3 L308.2 1461.4 L307.2 1459.5 L306.4 1457.5 L305.7 1455.3 Z" fill="none" stroke="red" stroke-width="0.5"/>
</svg>