<svg xmlns="http://www.w3.org/2000/svg" viewBox="4117.49 4142.46 882.593 342.015" style="background:#f5f5f5">
  <path d="M4182.8 4157.8 L4182.8 4159.4 L4182.8 4160.9 L4182.8 4162.4 L4182.9 4163.9 L4182.9 4165.4 L4183 4166.9 L4183 4168.4 L4183 4169.9 L4183 4171.4 L4183 4172.3 L4183.1 4173 L4183.1 4173.5 L4183.2 4174 L4183.3 4174.4 L4183.5 4174.6 L4183.8 4174.8 L4184.2 4175 L4184.6 4175 L4185.2 4175.1 L4185.9 4175.1 L4186.7 4175.1 L4190.8 4175.1 L4194.9 4175.1 L4199.1 4175.1 L4203.2 4175.1 L4207.3 4175.1 L4211.5 4175.1 L4215.6 4175.1 L4219.7 4175.1 L4223.8 4175.1 L4228 4175.1 L4232.1 4175 L4236.2 4175 L4270.5 4175.1 L4318.3 4175.1 L4376.9 4175.1 L4443.7 4175 L4516 4174.9 L4590.9 4174.9 L4665.8 4174.8 L4738.1 4174.7 L4804.8 4174.6 L4863.5 4174.5 L4911.3 4174.4 L4945.6 4174.4 L4945.6 4152.5 L4946.5 4174.7 L4946.7 4182.4 L4946.8 4188.5 L4946.8 4193.2 L4946.5 4196.9 L4945.9 4199.8 L4944.8 4202 L4943 4203.8 L4940.6 4205.4 L4937.3 4207.1 L4933.1 4209.1 L4927.8 4211.7 L4921.4 4215 L4921.7 4219.1 L4925.9 4222.6 L4932.9 4225.5 L4941.5 4228.2 L4950.5 4230.7 L4958.8 4233.3 L4965.2 4236.2 L4968.6 4239.4 L4967.8 4243.2 L4961.6 4247.8 L4949 4253.4 L4928.6 4260.1 L4923.6 4262.8 L4921.5 4265.4 L4921.8 4267.8 L4924.2 4270 L4928.1 4272.1 L4933.1 4274 L4938.8 4275.9 L4944.8 4277.7 L4950.5 4279.5 L4955.6 4281.3 L4959.6 4283 L4962 4284.8 L4963.8 4287.6 L4963.2 4290.3 L4960.7 4292.9 L4956.6 4295.4 L4951.4 4297.9 L4945.5 4300.3 L4939.1 4302.6 L4932.7 4304.7 L4926.8 4306.8 L4921.6 4308.7 L4917.5 4310.5 L4915 4312.1 L4913.2 4315.2 L4914.2 4317.9 L4917.6 4320.4 L4922.6 4322.7 L4928.9 4324.8 L4935.7 4326.9 L4942.6 4329 L4949 4331.1 L4954.3 4333.4 L4957.9 4335.8 L4959.4 4338.5 L4958 4341.5 L4956 4343.3 L4952.7 4345 L4948.4 4346.7 L4943.4 4348.4 L4938 4350.1 L4932.7 4351.8 L4927.7 4353.7 L4923.4 4355.6 L4920.1 4357.6 L4918.1 4359.7 L4917.8 4362 L4919.6 4364.5 L4921.6 4365.8 L4924 4367.2 L4926.6 4368.5 L4929.4 4369.8 L4932 4371.2 L4934.4 4372.7 L4936.4 4374.3 L4937.9 4376 L4938.6 4377.9 L4938.4 4380.1 L4937.1 4382.5 L4934.6 4385.1 L4933.4 4386.4 L4932.5 4387.7 L4931.9 4389.2 L4931.5 4390.6 L4931.3 4392.2 L4931.2 4393.7 L4931.3 4395.3 L4931.4 4396.9 L4931.6 4398.6 L4931.8 4400.2 L4931.9 4401.8 L4931.9 4403.4 L4931.8 4407.5 L4931.6 4411.6 L4931.5 4415.6 L4931.3 4419.7 L4931.2 4423.7 L4931 4427.8 L4930.9 4431.9 L4930.9 4435.9 L4930.9 4440 L4931.1 4444.1 L4931.3 4448.1 L4931.6 4452.2 L4953.3 4452.2 L4931.4 4474.4 L4931.4 4452.6 L4168.3 4452.6 L4168.3 4454.4 L4168.3 4456.1 L4168.3 4457.8 L4168.3 4459.5 L4168.3 4461.2 L4168.3 4462.9 L4168.3 4464.6 L4168.3 4466.2 L4168.3 4467.9 L4168.3 4469.6 L4168.3 4471.3 L4168.3 4473 L4167.4 4452.2 L4167 4448.7 L4166.8 4445.2 L4166.7 4441.7 L4166.6 4438.2 L4166.7 4434.7 L4166.7 4431.2 L4166.8 4427.6 L4166.9 4424.1 L4167.1 4420.6 L4167.2 4417.1 L4167.3 4413.6 L4167.4 4410.1 L4167.6 4407.5 L4167.6 4404.9 L4167.5 4402.3 L4167.3 4399.7 L4167.2 4397.1 L4167.2 4394.6 L4167.4 4392.2 L4167.8 4389.8 L4168.6 4387.5 L4169.7 4385.3 L4171.3 4383.2 L4173.5 4381.2 L4174.2 4378.9 L4174.1 4376.9 L4173.2 4375.1 L4171.7 4373.6 L4169.7 4372.2 L4167.4 4371 L4164.9 4369.9 L4162.4 4368.8 L4159.9 4367.6 L4157.6 4366.4 L4155.7 4365.1 L4154.2 4363.7 L4153.2 4361.6 L4153.6 4359.6 L4155.2 4357.8 L4157.7 4356.1 L4160.9 4354.6 L4164.6 4353.1 L4168.6 4351.8 L4172.6 4350.5 L4176.4 4349.4 L4179.8 4348.3 L4182.5 4347.4 L4184.4 4346.5 L4191.1 4343.2 L4194.2 4340.2 L4194.4 4337.5 L4192.2 4335 L4188 4332.7 L4182.4 4330.5 L4175.9 4328.5 L4169.1 4326.4 L4162.6 4324.3 L4156.7 4322.2 L4152.1 4319.9 L4149.3 4317.4 L4148.7 4315.2 L4150 4312.9 L4153 4310.8 L4157.3 4308.6 L4162.5 4306.5 L4168.4 4304.4 L4174.5 4302.3 L4180.5 4300.3 L4186.2 4298.2 L4191.1 4296.2 L4195 4294.1 L4197.4 4292 L4199.4 4288.5 L4198.1 4285.5 L4194.3 4282.8 L4188.7 4280.4 L4181.9 4278.1 L4174.8 4276 L4168 4273.9 L4162.3 4271.6 L4158.3 4269.2 L4156.8 4266.6 L4158.5 4263.5 L4164.1 4260.1 L4167.4 4258.8 L4170.7 4257.6 L4174.1 4256.5 L4177.6 4255.4 L4181 4254.3 L4184.4 4253.2 L4187.7 4252 L4191 4250.7 L4194.2 4249.2 L4197.3 4247.5 L4200.2 4245.6 L4203 4243.3 L4204 4240.4 L4202.4 4237.8 L4198.6 4235.3 L4193.2 4233.1 L4186.8 4231 L4179.8 4228.9 L4172.9 4226.8 L4166.5 4224.7 L4161.2 4222.4 L4157.6 4220 L4156.1 4217.3 L4157.3 4214.4 L4163.6 4211.4 L4168.7 4209 L4172.8 4207.1 L4176 4205.5 L4178.4 4203.8 L4180.1 4202 L4181.2 4199.7 L4181.8 4196.9 L4182.1 4193.3 L4182.1 4188.7 L4182 4182.9 L4181.8 4175.6 L4181.8 4175.6 L4180.6 4175.8 L4178.9 4175.9 L4176.9 4175.8 L4174.7 4175.7 L4172.5 4175.5 L4170.1 4175.4 L4167.9 4175.3 Z" fill="rgba(0,120,255,0.2)" stroke="blue" stroke-width="1.5"/>
  <g opacity="0.5"><path d="M0 0v-16.435c-79.656-.139-452.34-.654-532.002-.499-12.382-.009-24.765-.045-37.147-.05-2.685-.001-2.713.036-2.763 2.752.005 4.539-.299 9.066-.078 13.594C-479.077-.425-93.189-.213 0 0" style="fill:#231f20;fill-opacity:1;fill-rule:nonzero;stroke:none" transform="matrix(1.33333 0 0 -1.33333 4945.553 4152.463)"/>
<path d="M0 0c-65.412-.037-423.862-.164-489.281.015-26.009-.015-52.017.014-78.025.132-1.526.406-4.582-.953-4.987.91.031 5.038.016 10.077.016 15.241H0Z" style="fill:#231f20;fill-opacity:1;fill-rule:nonzero;stroke:none" transform="matrix(1.33333 0 0 -1.33333 4931.357 4474.372)"/>
<path d="M0 0h-16.343c-1.079 12.243-.083 24.36.293 36.59.005 4.751-2.077 10.045 2.005 13.733 9.435 8.413-6.073 11.27-11.297 15.476-8.564 7.62 25.23 11.894 28.839 17.232 8.743 9.567-42.551 12.292-32.257 22.029 4.841 4.656 44.332 12.197 35.258 20.464-4.58 5.506-44.847 9.923-25.032 18.589 73.616 21.92-11.539 20.246-5.42 33.809 21.186 11.311 19.215 4.665 18.848 30.202h16.124c.024-23.627 3.079-19.554-18.046-29.45-10.688-9.66 42.321-12.487 33.609-22.208-9.224-8.345-23.031-7.989-33.24-14.721-7.586-7.448 25.82-11.606 29.732-16.536 9.59-10.799-47.864-15.851-35.238-25.36 9.73-6.088 21.922-6.709 31.795-12.438C28.082 77.105-20.557 75.36-8.723 65.479c5.91-4.026 20.503-7.11 10.5-15.689-4.435-5.088-.288-11.967-1.724-17.97C-.294 21.197-.991 10.626 0 0" style="fill:#231f20;fill-opacity:1;fill-rule:nonzero;stroke:none" transform="matrix(1.33333 0 0 -1.33333 4953.348 4452.205)"/>
<path d="M0 0c.332-24.041 2.257-18.939-18.412-29.049-8.268-9.355 41.889-12.462 34.268-21.722C7.83-58.01-3.612-59.162-13.286-63.324c-23.481-11.203 36.514-12.671 24.932-23.983-4.771-6.201-41.24-12.195-36.028-19.022 5.13-7.697 52.195-11.314 26.27-21.816-4.043-2.559-27.872-6.386-22.601-12.875 3.478-4.72 18.1-5.61 14.423-13.183-7.224-5.704-3.732-13.855-4.508-21.664-.255-10.513-1.186-21.04-.056-31.544h-16.167c-.832 12.562.247 25.155.366 37.728-.924 5.725-.82 10.849 3.946 14.853 4.912 8.373-10.249 8.911-13.989 13.854-5.479 7.315 25.773 11.13 29.824 16.775 7.208 9.355-40 11.468-33.219 21.275 19.507 11.218 64.064 15.822 14.685 29.127-2.806 1.662-9.017 2.051-9.046 6.003 8.598 9.945 26.427 7.235 35.469 17.413 3.629 6.378-18.386 9.527-22.584 11.875-23.716 7.402-10.682 9.955 3.354 16.956 5.772 4.471 2.055 13.729 3.058 20.134C-15.253 1.858-3.08-.85 0 0" style="fill:#231f20;fill-opacity:1;fill-rule:nonzero;stroke:none" transform="matrix(1.33333 0 0 -1.33333 4181.842 4175.633)"/></g>
  <path d="M4182.8 4157.8 L4182.8 4159.4 L4182.8 4160.9 L4182.8 4162.4 L4182.9 4163.9 L4182.9 4165.4 L4183 4166.9 L4183 4168.4 L4183 4169.9 L4183 4171.4 L4183 4172.3 L4183.1 4173 L4183.1 4173.5 L4183.2 4174 L4183.3 4174.4 L4183.5 4174.6 L4183.8 4174.8 L4184.2 4175 L4184.6 4175 L4185.2 4175.1 L4185.9 4175.1 L4186.7 4175.1 L4190.8 4175.1 L4194.9 4175.1 L4199.1 4175.1 L4203.2 4175.1 L4207.3 4175.1 L4211.5 4175.1 L4215.6 4175.1 L4219.7 4175.1 L4223.8 4175.1 L4228 4175.1 L4232.1 4175 L4236.2 4175 L4270.5 4175.1 L4318.3 4175.1 L4376.9 4175.1 L4443.7 4175 L4516 4174.9 L4590.9 4174.9 L4665.8 4174.8 L4738.1 4174.7 L4804.8 4174.6 L4863.5 4174.5 L4911.3 4174.4 L4945.6 4174.4 L4945.6 4152.5 L4946.5 4174.7 L4946.7 4182.4 L4946.8 4188.5 L4946.8 4193.2 L4946.5 4196.9 L4945.9 4199.8 L4944.8 4202 L4943 4203.8 L4940.6 4205.4 L4937.3 4207.1 L4933.1 4209.1 L4927.8 4211.7 L4921.4 4215 L4921.7 4219.1 L4925.9 4222.6 L4932.9 4225.5 L4941.5 4228.2 L4950.5 4230.7 L4958.8 4233.3 L4965.2 4236.2 L4968.6 4239.4 L4967.8 4243.2 L4961.6 4247.8 L4949 4253.4 L4928.6 4260.1 L4923.6 4262.8 L4921.5 4265.4 L4921.8 4267.8 L4924.2 4270 L4928.1 4272.1 L4933.1 4274 L4938.8 4275.9 L4944.8 4277.7 L4950.5 4279.5 L4955.6 4281.3 L4959.6 4283 L4962 4284.8 L4963.8 4287.6 L4963.2 4290.3 L4960.7 4292.9 L4956.6 4295.4 L4951.4 4297.9 L4945.5 4300.3 L4939.1 4302.6 L4932.7 4304.7 L4926.8 4306.8 L4921.6 4308.7 L4917.5 4310.5 L4915 4312.1 L4913.2 4315.2 L4914.2 4317.9 L4917.6 4320.4 L4922.6 4322.7 L4928.9 4324.8 L4935.7 4326.9 L4942.6 4329 L4949 4331.1 L4954.3 4333.4 L4957.9 4335.8 L4959.4 4338.5 L4958 4341.5 L4956 4343.3 L4952.7 4345 L4948.4 4346.7 L4943.4 4348.4 L4938 4350.1 L4932.7 4351.8 L4927.7 4353.7 L4923.4 4355.6 L4920.1 4357.6 L4918.1 4359.7 L4917.8 4362 L4919.6 4364.5 L4921.6 4365.8 L4924 4367.2 L4926.6 4368.5 L4929.4 4369.8 L4932 4371.2 L4934.4 4372.7 L4936.4 4374.3 L4937.9 4376 L4938.6 4377.9 L4938.4 4380.1 L4937.1 4382.5 L4934.6 4385.1 L4933.4 4386.4 L4932.5 4387.7 L4931.9 4389.2 L4931.5 4390.6 L4931.3 4392.2 L4931.2 4393.7 L4931.3 4395.3 L4931.4 4396.9 L4931.6 4398.6 L4931.8 4400.2 L4931.9 4401.8 L4931.9 4403.4 L4931.8 4407.5 L4931.6 4411.6 L4931.5 4415.6 L4931.3 4419.7 L4931.2 4423.7 L4931 4427.8 L4930.9 4431.9 L4930.9 4435.9 L4930.9 4440 L4931.1 4444.1 L4931.3 4448.1 L4931.6 4452.2 L4953.3 4452.2 L4931.4 4474.4 L4931.4 4452.6 L4168.3 4452.6 L4168.3 4454.4 L4168.3 4456.1 L4168.3 4457.8 L4168.3 4459.5 L4168.3 4461.2 L4168.3 4462.9 L4168.3 4464.6 L4168.3 4466.2 L4168.3 4467.9 L4168.3 4469.6 L4168.3 4471.3 L4168.3 4473 L4167.4 4452.2 L4167 4448.7 L4166.8 4445.2 L4166.7 4441.7 L4166.6 4438.2 L4166.7 4434.7 L4166.7 4431.2 L4166.8 4427.6 L4166.9 4424.1 L4167.1 4420.6 L4167.2 4417.1 L4167.3 4413.6 L4167.4 4410.1 L4167.6 4407.5 L4167.6 4404.9 L4167.5 4402.3 L4167.3 4399.7 L4167.2 4397.1 L4167.2 4394.6 L4167.4 4392.2 L4167.8 4389.8 L4168.6 4387.5 L4169.7 4385.3 L4171.3 4383.2 L4173.5 4381.2 L4174.2 4378.9 L4174.1 4376.9 L4173.2 4375.1 L4171.7 4373.6 L4169.7 4372.2 L4167.4 4371 L4164.9 4369.9 L4162.4 4368.8 L4159.9 4367.6 L4157.6 4366.4 L4155.7 4365.1 L4154.2 4363.7 L4153.2 4361.6 L4153.6 4359.6 L4155.2 4357.8 L4157.7 4356.1 L4160.9 4354.6 L4164.6 4353.1 L4168.6 4351.8 L4172.6 4350.5 L4176.4 4349.4 L4179.8 4348.3 L4182.5 4347.4 L4184.4 4346.5 L4191.1 4343.2 L4194.2 4340.2 L4194.4 4337.5 L4192.2 4335 L4188 4332.7 L4182.4 4330.5 L4175.9 4328.5 L4169.1 4326.4 L4162.6 4324.3 L4156.7 4322.2 L4152.1 4319.9 L4149.3 4317.4 L4148.7 4315.2 L4150 4312.9 L4153 4310.8 L4157.3 4308.6 L4162.5 4306.5 L4168.4 4304.4 L4174.5 4302.3 L4180.5 4300.3 L4186.2 4298.2 L4191.1 4296.2 L4195 4294.1 L4197.4 4292 L4199.4 4288.5 L4198.1 4285.5 L4194.3 4282.8 L4188.7 4280.4 L4181.9 4278.1 L4174.8 4276 L4168 4273.9 L4162.3 4271.6 L4158.3 4269.2 L4156.8 4266.6 L4158.5 4263.5 L4164.1 4260.1 L4167.4 4258.8 L4170.7 4257.6 L4174.1 4256.5 L4177.6 4255.4 L4181 4254.3 L4184.4 4253.2 L4187.7 4252 L4191 4250.7 L4194.2 4249.2 L4197.3 4247.5 L4200.2 4245.6 L4203 4243.3 L4204 4240.4 L4202.4 4237.8 L4198.6 4235.3 L4193.2 4233.1 L4186.8 4231 L4179.8 4228.9 L4172.9 4226.8 L4166.5 4224.7 L4161.2 4222.4 L4157.6 4220 L4156.1 4217.3 L4157.3 4214.4 L4163.6 4211.4 L4168.7 4209 L4172.8 4207.1 L4176 4205.5 L4178.4 4203.8 L4180.1 4202 L4181.2 4199.7 L4181.8 4196.9 L4182.1 4193.3 L4182.1 4188.7 L4182 4182.9 L4181.8 4175.6 L4181.8 4175.6 L4180.6 4175.8 L4178.9 4175.9 L4176.9 4175.8 L4174.7 4175.7 L4172.5 4175.5 L4170.1 4175.4 L4167.9 4175.3 Z" fill="none" stroke="red" stroke-width="0.5"/>
</svg>