<svg xmlns="http://www.w3.org/2000/svg" viewBox="991.34 1432.19 552.222 441.203" style="background:#f5f5f5">
  <path d="M1401.5 1652.8 L1400.9 1654 L1400.3 1655.1 L1399.7 1656.3 L1399.1 1657.4 L1398.5 1658.5 L1397.9 1659.6 L1397.3 1660.7 L1396.7 1661.8 L1396.1 1662.9 L1395.6 1664 L1395 1665.1 L1394.4 1666.1 L1393.9 1667.2 L1393.3 1668.2 L1392.8 1669.3 L1392.2 1670.3 L1391.7 1671.4 L1391.1 1672.4 L1390.6 1673.4 L1390.1 1674.4 L1389.6 1675.4 L1389 1676.4 L1388.5 1677.4 L1388 1678.4 L1387.5 1679.4 L1387 1680.4 L1386.5 1681.4 L1386 1682.4 L1385.5 1683.3 L1385 1684.3 L1384.5 1685.3 L1384.1 1686.2 L1383.6 1687.2 L1383.1 1688.2 L1382.6 1689.1 L1382.2 1690.1 L1381.7 1691 L1381.2 1692 L1380.8 1692.9 L1380.3 1693.9 L1379.9 1694.8 L1379.4 1695.8 L1379 1696.7 L1378.5 1697.7 L1378.1 1698.6 L1377.7 1699.6 L1377.2 1700.5 L1376.8 1701.5 L1376.4 1702.4 L1375.9 1703.4 L1375.5 1704.3 L1375.1 1705.3 L1374.7 1706.3 L1374.3 1707.2 L1373.9 1708.2 L1373.4 1709.1 L1373 1710.1 L1372.6 1711.1 L1372.1 1712 L1371.7 1713 L1371.2 1713.9 L1370.8 1714.9 L1370.3 1715.8 L1369.8 1716.8 L1369.4 1717.7 L1368.9 1718.7 L1368.5 1719.6 L1368 1720.6 L1367.5 1721.6 L1367.1 1722.5 L1366.6 1723.5 L1366.1 1724.5 L1365.7 1725.5 L1365.2 1726.5 L1364.7 1727.4 L1364.3 1728.4 L1363.8 1729.4 L1363.3 1730.4 L1362.9 1731.4 L1362.4 1732.4 L1361.9 1733.5 L1361.4 1734.5 L1360.9 1735.5 L1360.5 1736.5 L1360 1737.6 L1359.5 1738.6 L1359 1739.7 L1358.5 1740.7 L1358 1741.8 L1357.5 1742.9 L1357 1744 L1356.5 1745.1 L1356 1746.1 L1355.5 1747.3 L1355 1748.4 L1354.5 1749.5 L1354 1750.6 L1353.5 1751.8 L1353 1752.9 L1352.5 1754.1 L1351.9 1755.3 L1351.4 1756.5 L1350.9 1757.7 L1350.3 1758.9 L1349.8 1760.1 L1349.3 1761.4 L1348.7 1762.6 L1348.2 1763.9 L1347.6 1765.2 L1347.1 1766.5 L1346.5 1767.8 L1345.9 1769.1 L1345.3 1770.5 L1344.8 1771.9 L1344.2 1773.2 L1343.6 1774.7 L1343 1776.1 L1342.4 1777.5 L1341.8 1779 L1341.2 1780.5 L1340.6 1782 L1340 1783.6 L1339.3 1785.2 L1338.7 1786.8 L1338 1788.4 L1337.4 1790.1 L1336.7 1791.8 L1336.1 1793.5 L1335.4 1795.3 L1334.7 1797.1 L1334 1798.9 L1333.3 1800.8 L1332.5 1802.5 L1331.7 1804.3 L1331 1806.3 L1330.4 1808.6 L1329.8 1811.1 L1329.3 1814 L1329 1817.3 L1328.7 1821.1 L1328.5 1825.2 L1328.3 1829.5 L1328 1833.7 L1327.5 1837.7 L1326.4 1839.6 L1324.6 1839.6 L1322.8 1839.6 L1321 1839.6 L1319.3 1839.6 L1317.5 1839.6 L1315.8 1839.6 L1314 1839.6 L1312.3 1839.6 L1310.6 1839.6 L1308.9 1839.6 L1307.2 1839.6 L1305.5 1839.6 L1303.8 1839.7 L1302.1 1839.7 L1300.4 1839.7 L1298.7 1839.7 L1297 1839.7 L1295.4 1839.7 L1293.7 1839.7 L1292.1 1839.7 L1290.4 1839.7 L1288.7 1839.7 L1287.1 1839.7 L1285.4 1839.7 L1283.8 1839.7 L1282.2 1839.7 L1280.5 1839.7 L1278.9 1839.7 L1277.2 1839.7 L1275.6 1839.7 L1274 1839.7 L1272.3 1839.7 L1270.7 1839.7 L1269.1 1839.7 L1267.5 1839.7 L1265.8 1839.7 L1264.2 1839.7 L1262.6 1839.7 L1260.9 1839.7 L1259.3 1839.8 L1257.7 1839.8 L1256 1839.8 L1254.4 1839.8 L1252.7 1839.8 L1251.1 1839.8 L1249.4 1839.8 L1247.8 1839.8 L1246.1 1839.8 L1244.5 1839.8 L1242.8 1839.8 L1241.2 1839.8 L1239.5 1839.8 L1237.8 1839.8 L1236.2 1839.8 L1234.5 1839.8 L1232.8 1839.8 L1231.1 1839.8 L1229.4 1839.8 L1227.7 1839.8 L1226 1839.8 L1224.3 1839.8 L1222.5 1839.8 L1220.8 1839.8 L1219.1 1839.8 L1217.3 1839.9 L1215.6 1839.9 L1213.8 1839.9 L1212 1839.9 L1210.3 1839.9 L1208.5 1839.9 L1206.7 1839.9 L1204.9 1839.9 L1203 1839.9 L1201.2 1839.9 L1199.3 1839.9 L1197.5 1839.9 L1195.6 1839.9 L1193.7 1839.9 L1191.8 1839.9 L1189.9 1839.9 L1188 1839.9 L1186.1 1839.9 L1184.1 1839.9 L1182.2 1839.9 L1180.2 1839.9 L1178.2 1840 L1176.2 1840 L1174.1 1840 L1172.1 1840 L1170 1840 L1167.9 1840 L1165.8 1840 L1163.7 1840 L1161.5 1840 L1159.4 1840 L1157.2 1840 L1155 1840 L1152.7 1840 L1150.5 1840 L1148.2 1840 L1145.9 1840 L1143.5 1840 L1141.1 1840 L1138.8 1840 L1136.3 1840.1 L1133.9 1840.1 L1131.4 1840.1 L1128.9 1840.1 L1126.3 1840.1 L1123.7 1840.1 L1121.1 1840.1 L1118.5 1840.1 L1115.8 1840.1 L1113 1840.1 L1110.3 1840.1 L1107.5 1840.1 L1104.6 1840.1 L1101.7 1840.1 L1098.8 1840.1 L1095.8 1840.1 L1092.7 1840.1 L1089.7 1840.2 L1086.5 1840.2 L1083.3 1840.2 L1080.1 1840.2 L1076.8 1840.2 L1073.4 1840.2 L1070 1840.2 L1066.5 1840.2 L1062.9 1840.2 L1059.3 1840.2 L1055.6 1840.2 L1051.8 1840.2 L1048 1840.2 L1044.1 1840.2 L1040.1 1840.2 L1036 1840.2 L1031.8 1840.2 L1027.5 1840.2 L1023.8 1839.7 L1024.2 1836.1 L1024.4 1832.6 L1024.6 1829.2 L1024.7 1825.9 L1024.9 1822.7 L1025 1819.4 L1025.3 1816.1 L1025.8 1812.7 L1026.5 1809.3 L1027.5 1805.6 L1029.3 1801.6 L1031.2 1797.5 L1032.8 1793.8 L1034.2 1790.2 L1035.4 1786.7 L1036.6 1783.4 L1037.6 1780.2 L1038.7 1777 L1039.7 1773.9 L1040.8 1770.8 L1042 1767.7 L1043.2 1764.6 L1044.6 1761.5 L1046.4 1758.2 L1048.1 1755.1 L1049.6 1752.1 L1051 1749.2 L1052.3 1746.3 L1053.6 1743.6 L1054.8 1740.9 L1056 1738.2 L1057.2 1735.6 L1058.3 1733.1 L1059.5 1730.5 L1060.6 1728.1 L1061.8 1725.6 L1062.9 1723.2 L1064 1720.9 L1065.1 1718.5 L1066.2 1716.3 L1067.2 1714 L1068.2 1711.8 L1069.3 1709.6 L1070.3 1707.5 L1071.3 1705.4 L1072.2 1703.3 L1073.2 1701.2 L1074.2 1699.2 L1075.1 1697.2 L1076.1 1695.2 L1077 1693.3 L1077.9 1691.4 L1078.8 1689.5 L1079.7 1687.6 L1080.6 1685.7 L1081.5 1683.9 L1082.4 1682.1 L1083.3 1680.3 L1084.2 1678.6 L1085 1676.8 L1085.9 1675.1 L1086.7 1673.4 L1087.6 1671.7 L1088.4 1670 L1089.3 1668.4 L1090.1 1666.8 L1090.9 1665.1 L1091.8 1663.5 L1092.6 1662 L1093.4 1660.4 L1094.2 1658.8 L1095 1657.3 L1095.8 1655.8 L1096.6 1654.3 L1097.4 1652.8 L1098.2 1651.3 L1099 1649.9 L1099.8 1648.4 L1100.6 1647 L1101.4 1645.5 L1102.2 1644.1 L1102.9 1642.7 L1103.7 1641.3 L1104.5 1640 L1105.3 1638.6 L1106.1 1637.3 L1106.9 1635.9 L1107.6 1634.6 L1108.4 1633.3 L1109.2 1632 L1109.9 1630.7 L1110.7 1629.4 L1111.5 1628.1 L1112.2 1626.8 L1113 1625.6 L1113.8 1624.3 L1114.6 1623.1 L1115.5 1621.9 L1116.4 1620.7 L1117.2 1619.5 L1118.1 1618.3 L1118.9 1617.1 L1119.7 1616 L1120.5 1614.8 L1121.3 1613.6 L1122.1 1612.5 L1122.9 1611.3 L1123.7 1610.2 L1124.4 1609.1 L1125.2 1607.9 L1125.9 1606.8 L1126.7 1605.7 L1127.4 1604.6 L1128.1 1603.4 L1128.8 1602.3 L1129.5 1601.2 L1130.2 1600.1 L1130.9 1599 L1131.6 1597.9 L1132.3 1596.8 L1132.9 1595.7 L1133.6 1594.6 L1134.3 1593.5 L1134.9 1592.4 L1135.6 1591.3 L1136.2 1590.2 L1136.8 1589.1 L1137.5 1588 L1138.1 1586.9 L1138.7 1585.8 L1139.3 1584.7 L1139.9 1583.6 L1140.6 1582.5 L1141.1 1581.3 L1141.7 1580.2 L1142.3 1579.1 L1142.9 1578 L1143.5 1576.8 L1144.1 1575.7 L1144.7 1574.6 L1145.2 1573.4 L1145.8 1572.3 L1146.4 1571.1 L1147 1570 L1147.5 1568.8 L1148.1 1567.6 L1148.6 1566.5 L1149.2 1565.3 L1149.7 1564.1 L1150.3 1562.9 L1150.8 1561.7 L1151.3 1560.4 L1151.9 1559.2 L1152.4 1558 L1153 1556.7 L1153.5 1555.5 L1154 1554.2 L1154.5 1552.9 L1155.1 1551.6 L1155.6 1550.3 L1156.1 1549 L1156.7 1547.6 L1157.2 1546.3 L1157.8 1545 L1158.4 1543.7 L1159 1542.4 L1159.6 1541.2 L1160.3 1539.9 L1161 1538.6 L1161.7 1537.4 L1162.4 1536.1 L1163.1 1534.9 L1163.9 1533.7 L1164.7 1532.5 L1165.5 1531.3 L1166.3 1530.1 L1167.1 1528.9 L1168 1527.8 L1168.9 1526.6 L1169.8 1525.5 L1170.7 1524.4 L1171.6 1523.3 L1172.5 1522.1 L1173.4 1520.9 L1174.3 1519.7 L1175.2 1518.5 L1176 1517.3 L1176.9 1516 L1177.8 1514.7 L1178.7 1513.4 L1179.5 1512.1 L1180.4 1510.8 L1181.3 1509.4 L1182.2 1508 L1183.1 1506.7 L1184 1505.3 L1184.9 1503.9 L1185.9 1502.5 L1186.8 1501.1 L1187.8 1499.8 L1188.8 1498.4 L1189.8 1497.1 L1190.8 1495.7 L1191.9 1494.4 L1193 1493.1 L1194.1 1491.8 L1195.2 1490.5 L1196.2 1489 L1197.3 1487.5 L1198.3 1485.9 L1199.3 1484.2 L1200.3 1482.4 L1201.3 1480.5 L1202.3 1478.5 L1203.3 1476.4 L1204.2 1474.2 L1205.1 1471.8 L1206.1 1469.3 L1208.1 1464.5 L1208.7 1460.6 L1208.9 1455.2 L1208.8 1448.4 L1209.4 1443.4 L1211.3 1443.4 L1213.3 1443.4 L1215.2 1443.4 L1217.2 1443.4 L1219.1 1443.4 L1221 1443.4 L1222.9 1443.4 L1224.8 1443.4 L1226.7 1443.3 L1228.6 1443.3 L1230.5 1443.3 L1232.4 1443.3 L1234.3 1443.3 L1236.1 1443.3 L1238 1443.3 L1239.9 1443.3 L1241.7 1443.3 L1243.6 1443.3 L1245.4 1443.3 L1247.3 1443.3 L1249.1 1443.3 L1251 1443.2 L1252.8 1443.2 L1254.6 1443.2 L1256.5 1443.2 L1258.3 1443.2 L1260.1 1443.2 L1262 1443.2 L1263.8 1443.2 L1265.6 1443.2 L1267.5 1443.2 L1269.3 1443.2 L1271.1 1443.2 L1272.9 1443.2 L1274.8 1443.1 L1276.6 1443.1 L1278.4 1443.1 L1280.3 1443.1 L1282.1 1443.1 L1284 1443.1 L1285.8 1443.1 L1287.6 1443.1 L1289.5 1443.1 L1291.3 1443.1 L1293.2 1443.1 L1295.1 1443.1 L1296.9 1443.1 L1298.8 1443.1 L1300.7 1443 L1302.6 1443 L1304.4 1443 L1306.3 1443 L1308.2 1443 L1310.1 1443 L1312 1443 L1314 1443 L1315.9 1443 L1317.8 1443 L1319.8 1443 L1321.7 1443 L1323.7 1443 L1325.6 1442.9 L1327.6 1442.9 L1329.6 1442.9 L1331.6 1442.9 L1333.6 1442.9 L1335.6 1442.9 L1337.7 1442.9 L1339.7 1442.9 L1341.8 1442.9 L1343.9 1442.9 L1345.9 1442.9 L1348 1442.9 L1350.2 1442.8 L1352.3 1442.8 L1354.4 1442.8 L1356.6 1442.8 L1358.8 1442.8 L1360.9 1442.8 L1363.2 1442.8 L1365.4 1442.8 L1367.6 1442.8 L1369.9 1442.8 L1372.2 1442.8 L1374.5 1442.7 L1376.8 1442.7 L1379.1 1442.7 L1381.5 1442.7 L1383.9 1442.7 L1386.3 1442.7 L1388.8 1442.7 L1391.2 1442.7 L1393.7 1442.7 L1396.2 1442.7 L1398.8 1442.6 L1401.3 1442.6 L1403.9 1442.6 L1406.6 1442.6 L1409.2 1442.6 L1411.9 1442.6 L1414.6 1442.6 L1417.4 1442.6 L1420.2 1442.6 L1423 1442.5 L1425.9 1442.5 L1428.8 1442.5 L1431.7 1442.5 L1434.7 1442.5 L1437.8 1442.5 L1440.8 1442.5 L1443.9 1442.5 L1447.1 1442.4 L1450.3 1442.4 L1453.6 1442.4 L1456.9 1442.4 L1460.2 1442.4 L1463.7 1442.4 L1467.1 1442.4 L1470.7 1442.4 L1474.3 1442.3 L1477.9 1442.3 L1481.6 1442.3 L1485.4 1442.3 L1489.3 1442.3 L1493.2 1442.3 L1497.2 1442.2 L1501.3 1442.2 L1505.5 1442.2 L1509.7 1442.2 L1511.5 1444.4 L1511.6 1447.9 L1511.6 1451.5 L1511.5 1455.1 L1511.3 1458.8 L1511 1462.5 L1509.8 1470.2 L1508 1474.8 L1505.9 1479.6 L1503.5 1484.4 L1499.3 1490.4 L1495.1 1496.4 L1490.8 1502.1 L1486.7 1507.7 L1482.8 1513 L1479.1 1518 L1475.8 1522.6 L1472.7 1527 L1470 1531.1 L1467.6 1534.9 L1465.3 1538.6 L1463.3 1542 L1461.9 1545 L1460.8 1547.8 L1459.6 1550.6 L1458.4 1553.4 L1457.3 1556.1 L1456.1 1558.7 L1454.9 1561.4 L1453.8 1563.9 L1452.6 1566.5 L1451.4 1569 L1450.2 1571.4 L1449 1573.9 L1447.8 1576.2 L1446.6 1578.6 L1445.3 1580.9 L1444.1 1583.2 L1442.9 1585.5 L1441.6 1587.7 L1440.4 1589.8 L1439.2 1592 L1438.2 1594 L1437 1596.1 L1435.8 1598.1 L1434.6 1600.1 L1433.3 1602.1 L1432 1604.1 L1430.7 1606 L1429.4 1607.9 L1428 1609.8 L1426.7 1611.6 L1425.4 1613.4 L1424.2 1615.2 L1422.9 1616.9 L1421.7 1618.6 L1420.5 1620.3 L1419.4 1621.9 L1418.2 1623.5 L1417.2 1625 L1416.1 1626.6 L1415.2 1628.1 L1414.2 1629.5 L1413.3 1631 L1412.4 1632.4 L1411.6 1633.8 L1410.8 1635.2 L1410.1 1636.5 L1409.4 1637.9 L1408.7 1639.2 L1408 1640.5 L1407.3 1641.8 L1406.7 1643.1 L1406 1644.3 L1405.4 1645.6 L1404.7 1646.8 L1404.1 1648 L1403.4 1649.2 L1402.8 1650.4 L1402.2 1651.6 Z" fill="rgba(0,120,255,0.2)" stroke="blue" stroke-width="1.5"/>
  <g opacity="0.5"><path d="M0 0c-2.518-7.284-5.491-14.274-10.758-20.102-6.473-7.613-10.884-16.779-17.477-24.358-4.419-5.601-7.83-11.721-10.367-18.366-7.776-19.856-18.766-38.273-31.348-55.414-15.451-25.108-27.772-51.999-40.227-78.685-3.752-7.973-6.993-16.192-11.447-23.805-4.84-10.155-6.712-21.458-12.151-31.393-3.833-8.675-2.32-18.579-3.611-27.797h-16.833c.497 9.953-.134 20.537 4.373 29.688 2.619 5.656 4.952 11.418 6.606 17.415 4.835 14.467 13.021 27.547 18.745 41.703 9.946 22.194 21.098 43.758 32.617 65.107 10.492 15.791 21.597 31.309 29.73 48.526 5.661 11.439 9.07 24.256 17.668 33.998 4.191 5.006 7.673 10.465 11.139 15.967 5.688 8.017 12.714 15.195 15.328 24.96.831 2.507.806 2.54 3.417 2.551C-9.771.013-4.946 0 0 0" style="fill:#231f20;fill-opacity:1;fill-rule:nonzero;stroke:none" transform="matrix(1.33333 0 0 -1.33333 1206.965 1466.752)"/>
<path d="M0 0c1.786 9.602-.217 20.192 4.568 29.093C13.1 52.197 23.346 74.389 34.129 96.585c7.662 18.415 17.608 35.622 26.742 53.294 6.514 13.199 17.212 23.785 23.76 37.012 6.639 11.396 12.108 23.343 17.009 35.576 8.702 15.535 20.664 29.203 30.586 43.958 9.021 17.24 1.068 15.229 22.532 14.701-4.989-17.743-18.566-31.368-28.714-46.39-8.809-11.101-12.27-25.125-18.979-37.427-5.816-11.208-12.058-22.254-19.74-32.311-17.77-26.614-30.559-56.231-44.12-85.144-8.088-16.267-15.059-32.772-21.353-49.785-4.635-9.355-3.62-19.558-4.744-29.74C11.429.2 5.623.593-.036.034Z" style="fill:#231f20;fill-opacity:1;fill-rule:nonzero;stroke:none" transform="matrix(1.33333 0 0 -1.33333 1327.217 1839.608)"/>
<path d="M0 0v-17.339l-227.21-.536V-.51c75.756.066 151.491.343 227.245.477z" style="fill:#231f20;fill-opacity:1;fill-rule:nonzero;stroke:none" transform="matrix(1.33333 0 0 -1.33333 1327.17 1839.563)"/>
<path d="M0 0c1.62 5.569.648 11.305.988 17.097l226.661.923c.662-1.687.328-14.859-.407-16.549z" style="fill:#231f20;fill-opacity:1;fill-rule:nonzero;stroke:none" transform="matrix(1.33333 0 0 -1.33333 1207.626 1466.214)"/></g>
  <path d="M1401.5 1652.8 L1400.9 1654 L1400.3 1655.1 L1399.7 1656.3 L1399.1 1657.4 L1398.5 1658.5 L1397.9 1659.6 L1397.3 1660.7 L1396.7 1661.8 L1396.1 1662.9 L1395.6 1664 L1395 1665.1 L1394.4 1666.1 L1393.9 1667.2 L1393.3 1668.2 L1392.8 1669.3 L1392.2 1670.3 L1391.7 1671.4 L1391.1 1672.4 L1390.6 1673.4 L1390.1 1674.4 L1389.6 1675.4 L1389 1676.4 L1388.5 1677.4 L1388 1678.4 L1387.5 1679.4 L1387 1680.4 L1386.5 1681.4 L1386 1682.4 L1385.5 1683.3 L1385 1684.3 L1384.5 1685.3 L1384.1 1686.2 L1383.6 1687.2 L1383.1 1688.2 L1382.6 1689.1 L1382.2 1690.1 L1381.7 1691 L1381.2 1692 L1380.8 1692.9 L1380.3 1693.9 L1379.9 1694.8 L1379.4 1695.8 L1379 1696.7 L1378.5 1697.7 L1378.1 1698.6 L1377.7 1699.6 L1377.2 1700.5 L1376.8 1701.5 L1376.4 1702.4 L1375.9 1703.4 L1375.5 1704.3 L1375.1 1705.3 L1374.7 1706.3 L1374.3 1707.2 L1373.9 1708.2 L1373.4 1709.1 L1373 1710.1 L1372.6 1711.1 L1372.1 1712 L1371.7 1713 L1371.2 1713.9 L1370.8 1714.9 L1370.3 1715.8 L1369.8 1716.8 L1369.4 1717.7 L1368.9 1718.7 L1368.5 1719.6 L1368 1720.6 L1367.5 1721.6 L1367.1 1722.5 L1366.6 1723.5 L1366.1 1724.5 L1365.7 1725.5 L1365.2 1726.5 L1364.7 1727.4 L1364.3 1728.4 L1363.8 1729.4 L1363.3 1730.4 L1362.9 1731.4 L1362.4 1732.4 L1361.9 1733.5 L1361.4 1734.5 L1360.9 1735.5 L1360.5 1736.5 L1360 1737.6 L1359.5 1738.6 L1359 1739.7 L1358.5 1740.7 L1358 1741.8 L1357.5 1742.9 L1357 1744 L1356.5 1745.1 L1356 1746.1 L1355.5 1747.3 L1355 1748.4 L1354.5 1749.5 L1354 1750.6 L1353.5 1751.8 L1353 1752.9 L1352.5 1754.1 L1351.9 1755.3 L1351.4 1756.5 L1350.9 1757.7 L1350.3 1758.9 L1349.8 1760.1 L1349.3 1761.4 L1348.7 1762.6 L1348.2 1763.9 L1347.6 1765.2 L1347.1 1766.5 L1346.5 1767.8 L1345.9 1769.1 L1345.3 1770.5 L1344.8 1771.9 L1344.2 1773.2 L1343.6 1774.7 L1343 1776.1 L1342.4 1777.5 L1341.8 1779 L1341.2 1780.5 L1340.6 1782 L1340 1783.6 L1339.3 1785.2 L1338.7 1786.8 L1338 1788.4 L1337.4 1790.1 L1336.7 1791.8 L1336.1 1793.5 L1335.4 1795.3 L1334.7 1797.1 L1334 1798.9 L1333.3 1800.8 L1332.5 1802.5 L1331.7 1804.3 L1331 1806.3 L1330.4 1808.6 L1329.8 1811.1 L1329.3 1814 L1329 1817.3 L1328.7 1821.1 L1328.5 1825.2 L1328.3 1829.5 L1328 1833.7 L1327.5 1837.7 L1326.4 1839.6 L1324.6 1839.6 L1322.8 1839.6 L1321 1839.6 L1319.3 1839.6 L1317.5 1839.6 L1315.8 1839.6 L1314 1839.6 L1312.3 1839.6 L1310.6 1839.6 L1308.9 1839.6 L1307.2 1839.6 L1305.5 1839.6 L1303.8 1839.7 L1302.1 1839.7 L1300.4 1839.7 L1298.7 1839.7 L1297 1839.7 L1295.4 1839.7 L1293.7 1839.7 L1292.1 1839.7 L1290.4 1839.7 L1288.7 1839.7 L1287.1 1839.7 L1285.4 1839.7 L1283.8 1839.7 L1282.2 1839.7 L1280.5 1839.7 L1278.9 1839.7 L1277.2 1839.7 L1275.6 1839.7 L1274 1839.7 L1272.3 1839.7 L1270.7 1839.7 L1269.1 1839.7 L1267.5 1839.7 L1265.8 1839.7 L1264.2 1839.7 L1262.6 1839.7 L1260.9 1839.7 L1259.3 1839.8 L1257.7 1839.8 L1256 1839.8 L1254.4 1839.8 L1252.7 1839.8 L1251.1 1839.8 L1249.4 1839.8 L1247.8 1839.8 L1246.1 1839.8 L1244.5 1839.8 L1242.8 1839.8 L1241.2 1839.8 L1239.5 1839.8 L1237.8 1839.8 L1236.2 1839.8 L1234.5 1839.8 L1232.8 1839.8 L1231.1 1839.8 L1229.4 1839.8 L1227.7 1839.8 L1226 1839.8 L1224.3 1839.8 L1222.5 1839.8 L1220.8 1839.8 L1219.1 1839.8 L1217.3 1839.9 L1215.6 1839.9 L1213.8 1839.9 L1212 1839.9 L1210.3 1839.9 L1208.5 1839.9 L1206.7 1839.9 L1204.9 1839.9 L1203 1839.9 L1201.2 1839.9 L1199.3 1839.9 L1197.5 1839.9 L1195.6 1839.9 L1193.7 1839.9 L1191.8 1839.9 L1189.9 1839.9 L1188 1839.9 L1186.1 1839.9 L1184.1 1839.9 L1182.2 1839.9 L1180.2 1839.9 L1178.2 1840 L1176.2 1840 L1174.1 1840 L1172.1 1840 L1170 1840 L1167.9 1840 L1165.8 1840 L1163.7 1840 L1161.5 1840 L1159.4 1840 L1157.2 1840 L1155 1840 L1152.7 1840 L1150.5 1840 L1148.2 1840 L1145.9 1840 L1143.5 1840 L1141.1 1840 L1138.8 1840 L1136.3 1840.1 L1133.9 1840.1 L1131.4 1840.1 L1128.9 1840.1 L1126.3 1840.1 L1123.7 1840.1 L1121.1 1840.1 L1118.5 1840.1 L1115.8 1840.1 L1113 1840.1 L1110.3 1840.1 L1107.5 1840.1 L1104.6 1840.1 L1101.7 1840.1 L1098.8 1840.1 L1095.8 1840.1 L1092.7 1840.1 L1089.7 1840.2 L1086.5 1840.2 L1083.3 1840.2 L1080.1 1840.2 L1076.8 1840.2 L1073.4 1840.2 L1070 1840.2 L1066.5 1840.2 L1062.9 1840.2 L1059.3 1840.2 L1055.6 1840.2 L1051.8 1840.2 L1048 1840.2 L1044.1 1840.2 L1040.1 1840.2 L1036 1840.2 L1031.8 1840.2 L1027.5 1840.2 L1023.8 1839.7 L1024.2 1836.1 L1024.4 1832.6 L1024.6 1829.2 L1024.7 1825.9 L1024.9 1822.7 L1025 1819.4 L1025.3 1816.1 L1025.8 1812.7 L1026.5 1809.3 L1027.5 1805.6 L1029.3 1801.6 L1031.2 1797.5 L1032.8 1793.8 L1034.2 1790.2 L1035.4 1786.7 L1036.6 1783.4 L1037.6 1780.2 L1038.7 1777 L1039.7 1773.9 L1040.8 1770.8 L1042 1767.7 L1043.2 1764.6 L1044.6 1761.5 L1046.4 1758.2 L1048.1 1755.1 L1049.6 1752.1 L1051 1749.2 L1052.3 1746.3 L1053.6 1743.6 L1054.8 1740.9 L1056 1738.2 L1057.2 1735.6 L1058.3 1733.1 L1059.5 1730.5 L1060.6 1728.1 L1061.8 1725.6 L1062.9 1723.2 L1064 1720.9 L1065.1 1718.5 L1066.2 1716.3 L1067.2 1714 L1068.2 1711.8 L1069.3 1709.6 L1070.3 1707.5 L1071.3 1705.4 L1072.2 1703.3 L1073.2 1701.2 L1074.2 1699.2 L1075.1 1697.2 L1076.1 1695.2 L1077 1693.3 L1077.9 1691.4 L1078.8 1689.5 L1079.7 1687.6 L1080.6 1685.7 L1081.5 1683.9 L1082.4 1682.1 L1083.3 1680.3 L1084.2 1678.6 L1085 1676.8 L1085.9 1675.1 L1086.7 1673.4 L1087.6 1671.7 L1088.4 1670 L1089.3 1668.4 L1090.1 1666.8 L1090.9 1665.1 L1091.8 1663.5 L1092.6 1662 L1093.4 1660.4 L1094.2 1658.8 L1095 1657.3 L1095.8 1655.8 L1096.6 1654.3 L1097.4 1652.8 L1098.2 1651.3 L1099 1649.9 L1099.8 1648.4 L1100.6 1647 L1101.4 1645.5 L1102.2 1644.1 L1102.9 1642.7 L1103.7 1641.3 L1104.5 1640 L1105.3 1638.6 L1106.1 1637.3 L1106.9 1635.9 L1107.6 1634.6 L1108.4 1633.3 L1109.2 1632 L1109.9 1630.7 L1110.7 1629.4 L1111.5 1628.1 L1112.2 1626.8 L1113 1625.6 L1113.8 1624.3 L1114.6 1623.1 L1115.5 1621.9 L1116.4 1620.7 L1117.2 1619.5 L1118.1 1618.3 L1118.9 1617.1 L1119.7 1616 L1120.5 1614.8 L1121.3 1613.6 L1122.1 1612.5 L1122.9 1611.3 L1123.7 1610.2 L1124.4 1609.1 L1125.2 1607.9 L1125.9 1606.8 L1126.7 1605.7 L1127.4 1604.6 L1128.1 1603.4 L1128.8 1602.3 L1129.5 1601.2 L1130.2 1600.1 L1130.9 1599 L1131.6 1597.9 L1132.3 1596.8 L1132.9 1595.7 L1133.6 1594.6 L1134.3 1593.5 L1134.9 1592.4 L1135.6 1591.3 L1136.2 1590.2 L1136.8 1589.1 L1137.5 1588 L1138.1 1586.9 L1138.7 1585.8 L1139.3 1584.7 L1139.9 1583.6 L1140.6 1582.5 L1141.1 1581.3 L1141.7 1580.2 L1142.3 1579.1 L1142.9 1578 L1143.5 1576.8 L1144.1 1575.7 L1144.7 1574.6 L1145.2 1573.4 L1145.8 1572.3 L1146.4 1571.1 L1147 1570 L1147.5 1568.8 L1148.1 1567.6 L1148.6 1566.5 L1149.2 1565.3 L1149.7 1564.1 L1150.3 1562.9 L1150.8 1561.7 L1151.3 1560.4 L1151.9 1559.2 L1152.4 1558 L1153 1556.7 L1153.5 1555.5 L1154 1554.2 L1154.5 1552.9 L1155.1 1551.6 L1155.6 1550.3 L1156.1 1549 L1156.7 1547.6 L1157.2 1546.3 L1157.8 1545 L1158.4 1543.7 L1159 1542.4 L1159.6 1541.2 L1160.3 1539.9 L1161 1538.6 L1161.7 1537.4 L1162.4 1536.1 L1163.1 1534.9 L1163.9 1533.7 L1164.7 1532.5 L1165.5 1531.3 L1166.3 1530.1 L1167.1 1528.9 L1168 1527.8 L1168.9 1526.6 L1169.8 1525.5 L1170.7 1524.4 L1171.6 1523.3 L1172.5 1522.1 L1173.4 1520.9 L1174.3 1519.7 L1175.2 1518.5 L1176 1517.3 L1176.9 1516 L1177.8 1514.7 L1178.7 1513.4 L1179.5 1512.1 L1180.4 1510.8 L1181.3 1509.4 L1182.2 1508 L1183.1 1506.7 L1184 1505.3 L1184.9 1503.9 L1185.9 1502.5 L1186.8 1501.1 L1187.8 1499.8 L1188.8 1498.4 L1189.8 1497.1 L1190.8 1495.7 L1191.9 1494.4 L1193 1493.1 L1194.1 1491.8 L1195.2 1490.5 L1196.2 1489 L1197.3 1487.5 L1198.3 1485.9 L1199.3 1484.2 L1200.3 1482.4 L1201.3 1480.5 L1202.3 1478.5 L1203.3 1476.4 L1204.2 1474.2 L1205.1 1471.8 L1206.1 1469.3 L1208.1 1464.5 L1208.7 1460.6 L1208.9 1455.2 L1208.8 1448.4 L1209.4 1443.4 L1211.3 1443.4 L1213.3 1443.4 L1215.2 1443.4 L1217.2 1443.4 L1219.1 1443.4 L1221 1443.4 L1222.9 1443.4 L1224.8 1443.4 L1226.7 1443.3 L1228.6 1443.3 L1230.5 1443.3 L1232.4 1443.3 L1234.3 1443.3 L1236.1 1443.3 L1238 1443.3 L1239.9 1443.3 L1241.7 1443.3 L1243.6 1443.3 L1245.4 1443.3 L1247.3 1443.3 L1249.1 1443.3 L1251 1443.2 L1252.8 1443.2 L1254.6 1443.2 L1256.5 1443.2 L1258.3 1443.2 L1260.1 1443.2 L1262 1443.2 L1263.8 1443.2 L1265.6 1443.2 L1267.5 1443.2 L1269.3 1443.2 L1271.1 1443.2 L1272.9 1443.2 L1274.8 1443.1 L1276.6 1443.1 L1278.4 1443.1 L1280.3 1443.1 L1282.1 1443.1 L1284 1443.1 L1285.8 1443.1 L1287.6 1443.1 L1289.5 1443.1 L1291.3 1443.1 L1293.2 1443.1 L1295.1 1443.1 L1296.9 1443.1 L1298.8 1443.1 L1300.7 1443 L1302.6 1443 L1304.4 1443 L1306.3 1443 L1308.2 1443 L1310.1 1443 L1312 1443 L1314 1443 L1315.9 1443 L1317.8 1443 L1319.8 1443 L1321.7 1443 L1323.7 1443 L1325.6 1442.9 L1327.6 1442.9 L1329.6 1442.9 L1331.6 1442.9 L1333.6 1442.9 L1335.6 1442.9 L1337.7 1442.9 L1339.7 1442.9 L1341.8 1442.9 L1343.9 1442.9 L1345.9 1442.9 L1348 1442.9 L1350.2 1442.8 L1352.3 1442.8 L1354.4 1442.8 L1356.6 1442.8 L1358.8 1442.8 L1360.9 1442.8 L1363.2 1442.8 L1365.4 1442.8 L1367.6 1442.8 L1369.9 1442.8 L1372.2 1442.8 L1374.5 1442.7 L1376.8 1442.7 L1379.1 1442.7 L1381.5 1442.7 L1383.9 1442.7 L1386.3 1442.7 L1388.8 1442.7 L1391.2 1442.7 L1393.7 1442.7 L1396.2 1442.7 L1398.8 1442.6 L1401.3 1442.6 L1403.9 1442.6 L1406.6 1442.6 L1409.2 1442.6 L1411.9 1442.6 L1414.6 1442.6 L1417.4 1442.6 L1420.2 1442.6 L1423 1442.5 L1425.9 1442.5 L1428.8 1442.5 L1431.7 1442.5 L1434.7 1442.5 L1437.8 1442.5 L1440.8 1442.5 L1443.9 1442.5 L1447.1 1442.4 L1450.3 1442.4 L1453.6 1442.4 L1456.9 1442.4 L1460.2 1442.4 L1463.7 1442.4 L1467.1 1442.4 L1470.7 1442.4 L1474.3 1442.3 L1477.9 1442.3 L1481.6 1442.3 L1485.4 1442.3 L1489.3 1442.3 L1493.2 1442.3 L1497.2 1442.2 L1501.3 1442.2 L1505.5 1442.2 L1509.7 1442.2 L1511.5 1444.4 L1511.6 1447.9 L1511.6 1451.5 L1511.5 1455.1 L1511.3 1458.8 L1511 1462.5 L1509.8 1470.2 L1508 1474.8 L1505.9 1479.6 L1503.5 1484.4 L1499.3 1490.4 L1495.1 1496.4 L1490.8 1502.1 L1486.7 1507.7 L1482.8 1513 L1479.1 1518 L1475.8 1522.6 L1472.7 1527 L1470 1531.1 L1467.6 1534.9 L1465.3 1538.6 L1463.3 1542 L1461.9 1545 L1460.8 1547.8 L1459.6 1550.6 L1458.4 1553.4 L1457.3 1556.1 L1456.1 1558.7 L1454.9 1561.4 L1453.8 1563.9 L1452.6 1566.5 L1451.4 1569 L1450.2 1571.4 L1449 1573.9 L1447.8 1576.2 L1446.6 1578.6 L1445.3 1580.9 L1444.1 1583.2 L1442.9 1585.5 L1441.6 1587.7 L1440.4 1589.8 L1439.2 1592 L1438.2 1594 L1437 1596.1 L1435.8 1598.1 L1434.6 1600.1 L1433.3 1602.1 L1432 1604.1 L1430.7 1606 L1429.4 1607.9 L1428 1609.8 L1426.7 1611.6 L1425.4 1613.4 L1424.2 1615.2 L1422.9 1616.9 L1421.7 1618.6 L1420.5 1620.3 L1419.4 1621.9 L1418.2 1623.5 L1417.2 1625 L1416.1 1626.6 L1415.2 1628.1 L1414.2 1629.5 L1413.3 1631 L1412.4 1632.4 L1411.6 1633.8 L1410.8 1635.2 L1410.1 1636.5 L1409.4 1637.9 L1408.7 1639.2 L1408 1640.5 L1407.3 1641.8 L1406.7 1643.1 L1406 1644.3 L1405.4 1645.6 L1404.7 1646.8 L1404.1 1648 L1403.4 1649.2 L1402.8 1650.4 L1402.2 1651.6 Z" fill="none" stroke="red" stroke-width="0.5"/>
</svg>