<svg xmlns="http://www.w3.org/2000/svg" viewBox="4121.35 2204.85 900.291 644.216" style="background:#f5f5f5">
  <path d="M4590.5 2527 L4590.3 2527.1 L4590.1 2527.3 L4590 2527.4 L4589.8 2527.6 L4589.7 2527.8 L4589.5 2527.9 L4589.4 2528.1 L4589.2 2528.2 L4589.1 2528.3 L4588.9 2528.5 L4588.8 2528.6 L4588.6 2528.8 L4588.5 2528.9 L4588.4 2529 L4588.2 2529.2 L4588.1 2529.3 L4588 2529.4 L4587.8 2529.5 L4587.7 2529.7 L4587.6 2529.8 L4587.5 2529.9 L4587.4 2530 L4587.2 2530.2 L4587.1 2530.3 L4587 2530.4 L4586.9 2530.5 L4586.8 2530.6 L4586.7 2530.7 L4586.6 2530.9 L4586.5 2531 L4586.4 2531.1 L4586.2 2531.2 L4586.1 2531.3 L4586 2531.4 L4585.9 2531.5 L4585.8 2531.6 L4585.7 2531.7 L4585.6 2531.8 L4585.5 2531.9 L4585.4 2532 L4585.3 2532.1 L4585.2 2532.2 L4585.1 2532.3 L4585 2532.4 L4585 2532.5 L4584.9 2532.6 L4584.8 2532.7 L4584.7 2532.8 L4584.6 2532.9 L4584.5 2533 L4584.4 2533.1 L4584.3 2533.2 L4584.2 2533.3 L4584.1 2533.4 L4584 2533.5 L4583.9 2533.6 L4583.9 2533.7 L4583.8 2533.8 L4583.7 2533.9 L4583.6 2533.9 L4583.5 2534 L4583.4 2534.1 L4583.3 2534.2 L4583.3 2534.3 L4583.2 2534.4 L4583.1 2534.5 L4583 2534.6 L4582.9 2534.7 L4582.8 2534.8 L4582.8 2534.8 L4582.7 2534.9 L4582.6 2535 L4582.5 2535.1 L4582.4 2535.2 L4582.3 2535.3 L4582.3 2535.4 L4582.2 2535.5 L4582.1 2535.5 L4582 2535.6 L4581.9 2535.7 L4581.9 2535.8 L4581.8 2535.9 L4581.7 2536 L4581.6 2536.1 L4581.5 2536.2 L4581.5 2536.2 L4581.4 2536.3 L4581.3 2536.4 L4581.2 2536.5 L4581.1 2536.6 L4581.1 2536.7 L4581 2536.8 L4580.9 2536.9 L4580.8 2536.9 L4580.7 2537 L4580.6 2537.1 L4580.6 2537.2 L4580.5 2537.3 L4580.4 2537.4 L4580.3 2537.5 L4580.2 2537.6 L4580.2 2537.7 L4580.1 2537.7 L4580 2537.8 L4579.9 2537.9 L4579.8 2538 L4579.7 2538.1 L4579.7 2538.2 L4579.6 2538.3 L4579.5 2538.4 L4579.4 2538.5 L4579.3 2538.6 L4579.2 2538.7 L4579.2 2538.7 L4579.1 2538.8 L4579 2538.9 L4578.9 2539 L4578.8 2539.1 L4578.7 2539.2 L4578.6 2539.3 L4578.5 2539.4 L4578.5 2539.5 L4578.4 2539.6 L4578.3 2539.7 L4578.2 2539.8 L4578.1 2539.9 L4578 2540 L4577.9 2540.1 L4577.8 2540.2 L4577.7 2540.3 L4577.6 2540.4 L4577.5 2540.5 L4577.4 2540.6 L4577.3 2540.7 L4577.3 2540.9 L4577.2 2541 L4577.1 2541.1 L4577 2541.2 L4576.9 2541.3 L4576.8 2541.4 L4576.7 2541.5 L4576.5 2541.6 L4576.4 2541.7 L4576.3 2541.9 L4576.2 2542 L4576.1 2542.1 L4576 2542.2 L4575.9 2542.3 L4575.8 2542.5 L4575.7 2542.6 L4575.6 2542.7 L4575.5 2542.8 L4575.3 2543 L4575.2 2543.1 L4575.1 2543.2 L4575 2543.4 L4574.9 2543.5 L4574.7 2543.6 L4574.6 2543.8 L4574.5 2543.9 L4574.4 2544.1 L4574.2 2544.2 L4574.1 2544.4 L4574 2544.5 L4573.8 2544.7 L4573.7 2544.8 L4573.5 2545 L4573.4 2545.1 L4573.3 2545.3 L4573.1 2545.5 L4573 2545.6 L4572.8 2545.8 L4572.7 2546 L4572.5 2546.1 L4572.3 2546.3 L4572.2 2546.5 L4572 2546.7 L4571.8 2546.9 L4571.7 2547.1 L4571.5 2547.3 L4571.3 2547.5 L4571.1 2547.7 L4570.9 2547.9 L4570.8 2548.1 L4570.6 2548.3 L4570.4 2548.5 L4570.2 2548.7 L4570 2549 L4569.7 2549.2 L4569.5 2549.4 L4569.3 2549.7 L4569.1 2549.9 L4568.8 2550.2 L4568.6 2550.5 L4568.4 2550.7 L4568.1 2551 L4567.9 2551.3 L4567.6 2551.6 L4567.3 2551.9 L4567 2552.2 L4566.8 2552.5 L4566.5 2552.8 L4566.2 2553.2 L4565.9 2553.5 L4565.5 2553.8 L4565.2 2554.2 L4564.9 2554.6 L4564.5 2554.9 L4564.2 2555.3 L4563.8 2555.7 L4563.4 2556.2 L4563 2556.6 L4562.6 2557 L4562.2 2557.5 L4561.7 2557.9 L4561.3 2558.4 L4560.8 2558.9 L4560.3 2559.4 L4559.8 2559.9 L4559.3 2560.5 L4558.8 2561 L4558.2 2561.6 L4557.6 2562.1 L4557 2562.7 L4556.4 2563.3 L4555.8 2564 L4555.1 2564.6 L4554.4 2565.3 L4553.7 2566 L4553 2566.6 L4552.2 2567.3 L4551.4 2568.1 L4550.6 2568.9 L4549.8 2569.6 L4548.9 2570.3 L4548 2571.1 L4547.1 2571.9 L4546.1 2572.7 L4545.2 2573.5 L4544.2 2574.2 L4543.2 2575 L4542.1 2575.8 L4541 2576.7 L4539.8 2577.7 L4538.5 2578.8 L4537.1 2580 L4535.6 2581.2 L4534 2582.5 L4532.1 2584.2 L4530.1 2586.1 L4527.9 2588 L4525.2 2590.7 L4522.1 2593.7 L4518.1 2597.9 L4512.4 2603.9 L4498.8 2620 L4343.5 2813.6 L4339.4 2813.6 L4335.2 2813.6 L4330.9 2813.7 L4326.6 2813.7 L4322.2 2813.7 L4317.8 2813.7 L4313.2 2813.8 L4308.6 2813.8 L4304 2813.8 L4299.2 2813.9 L4294.4 2813.9 L4289.5 2813.9 L4284.5 2814 L4279.4 2814 L4274.2 2814.1 L4268.9 2814.1 L4263.5 2814.2 L4258 2814.2 L4252.4 2814.3 L4246.7 2814.3 L4240.8 2814.4 L4234.9 2814.4 L4228.8 2814.5 L4222.6 2814.6 L4216.2 2814.7 L4209.7 2814.8 L4203 2814.9 L4196.2 2815 L4189.2 2815.1 L4182 2815.2 L4174.6 2815.3 L4167 2815.5 L4159.3 2815.6 L4155.8 2812.6 L4155.7 2807.4 L4155.5 2802.3 L4155.4 2797.2 L4155.3 2792.1 L4155.2 2787.1 L4155.1 2782.1 L4155 2777.2 L4155 2772.3 L4154.9 2767.5 L4154.9 2762.7 L4154.8 2757.9 L4154.8 2753.2 L4154.8 2748.5 L4154.7 2743.9 L4154.7 2739.3 L4154.7 2734.8 L4154.7 2730.3 L4154.6 2725.8 L4154.6 2721.4 L4154.6 2717 L4154.5 2712.6 L4154.5 2708.3 L4154.4 2704 L4154.4 2699.7 L4154.3 2695.5 L4154.2 2691.3 L4154.3 2687.1 L4154.4 2682.9 L4155 2678.6 L4155.7 2674.2 L4157.1 2669.7 L4158.8 2665.1 L4160.8 2660.4 L4163.3 2655.7 L4166.2 2650.9 L4169.4 2646.1 L4172.9 2641.3 L4176.6 2636.5 L4180.4 2631.7 L4184.2 2627.1 L4187.9 2622.6 L4191.4 2618.2 L4194.7 2614 L4198 2609.8 L4201.5 2605.6 L4205.2 2601.5 L4209.2 2597.4 L4213.2 2593.4 L4217.5 2589.4 L4221.8 2585.5 L4226.1 2581.7 L4230.5 2577.9 L4234.8 2574.3 L4239 2570.7 L4243 2567.3 L4246.6 2564 L4250 2560.7 L4253.2 2557.6 L4256.1 2554.6 L4258.9 2551.6 L4261.4 2548.6 L4263.9 2545.8 L4266.2 2543 L4268.5 2540.2 L4270.9 2537.5 L4273.3 2534.8 L4275.9 2532.1 L4278.4 2529.5 L4281.1 2527 L4283.7 2524.4 L4286.4 2522 L4289.1 2519.6 L4291.7 2517.2 L4294.4 2514.9 L4297.1 2512.6 L4299.7 2510.3 L4302.3 2508.1 L4304.9 2506 L4307.4 2503.8 L4309.8 2501.8 L4312.2 2499.7 L4314.6 2497.7 L4316.9 2495.7 L4319.1 2493.7 L4321.2 2491.8 L4323.1 2489.8 L4324.9 2487.9 L4326.5 2486 L4328.1 2484 L4329.7 2482.1 L4331.2 2480.2 L4332.7 2478.4 L4334.2 2476.5 L4335.7 2474.7 L4337.3 2472.9 L4338.8 2471.1 L4340.5 2469.4 L4342.2 2467.7 L4344 2466 L4345.9 2464.4 L4347.9 2462.8 L4350.1 2461.4 L4352.2 2459.9 L4354.3 2458.5 L4356.5 2457.1 L4358.6 2455.7 L4360.7 2454.4 L4362.8 2453 L4364.9 2451.7 L4366.9 2450.5 L4369 2449.2 L4371 2448 L4373 2446.8 L4375 2445.6 L4377 2444.4 L4379 2443.3 L4380.9 2442.1 L4382.9 2441 L4384.8 2439.9 L4386.7 2438.8 L4388.6 2437.7 L4390.4 2436.7 L4392.3 2435.6 L4394.1 2434.6 L4395.9 2433.6 L4397.6 2432.6 L4399.4 2431.6 L4401.1 2430.6 L4402.9 2429.6 L4404.6 2428.6 L4406.2 2427.7 L4407.9 2426.7 L4409.5 2425.8 L4411.2 2424.8 L4412.8 2423.9 L4414.4 2423 L4416 2422.1 L4417.6 2421.2 L4419.2 2420.3 L4420.7 2419.4 L4422.3 2418.6 L4423.8 2417.7 L4425.4 2416.8 L4426.9 2416 L4428.4 2415.1 L4429.9 2414.3 L4431.4 2413.5 L4432.9 2412.7 L4434.3 2411.9 L4435.8 2411.1 L4437.3 2410.3 L4438.7 2409.5 L4440.1 2408.7 L4441.6 2407.9 L4443 2407.1 L4444.4 2406.4 L4445.8 2405.6 L4447.2 2404.8 L4448.6 2404.1 L4450 2403.3 L4451.4 2402.6 L4452.8 2401.9 L4454.2 2401.1 L4455.5 2400.4 L4456.9 2399.7 L4458.2 2398.9 L4459.6 2398.2 L4460.9 2397.5 L4462.3 2396.8 L4463.6 2396.1 L4465 2395.4 L4466.3 2394.7 L4467.6 2394 L4469 2393.3 L4470.3 2392.6 L4471.6 2392 L4472.9 2391.3 L4474.2 2390.6 L4475.5 2389.9 L4476.9 2389.3 L4478.2 2388.6 L4479.5 2387.9 L4480.8 2387.3 L4482.1 2386.6 L4483.4 2386 L4484.7 2385.3 L4486 2384.6 L4487.3 2384 L4488.6 2383.3 L4489.9 2382.7 L4491.2 2382.1 L4492.5 2381.4 L4493.8 2380.8 L4495.1 2380.2 L4496.4 2379.5 L4497.7 2378.9 L4499 2378.3 L4500.3 2377.6 L4501.6 2377 L4502.9 2376.4 L4504.2 2375.7 L4505.5 2375.1 L4506.8 2374.5 L4508.1 2373.9 L4509.4 2373.3 L4510.7 2372.7 L4512 2372 L4513.3 2371.4 L4514.7 2370.8 L4516 2370.2 L4517.3 2369.6 L4518.6 2369 L4520 2368.3 L4521.3 2367.7 L4522.6 2367.1 L4524 2366.5 L4525.3 2365.9 L4526.7 2365.3 L4528 2364.7 L4529.4 2364.1 L4530.7 2363.5 L4532.1 2362.9 L4533.5 2362.3 L4534.9 2361.7 L4536.2 2361.1 L4537.6 2360.5 L4539 2359.9 L4540.4 2359.3 L4541.8 2358.7 L4543.2 2358.1 L4544.7 2357.5 L4546.1 2356.9 L4547.5 2356.3 L4548.9 2355.7 L4550.4 2355.1 L4551.8 2354.4 L4553.3 2353.8 L4554.8 2353.3 L4556.2 2352.7 L4557.7 2352.1 L4559.2 2351.5 L4560.7 2350.9 L4562.2 2350.3 L4563.8 2349.7 L4565.3 2349.1 L4566.8 2348.4 L4568.4 2347.8 L4569.9 2347.2 L4571.5 2346.6 L4573.1 2346.1 L4574.7 2345.5 L4576.3 2344.9 L4577.9 2344.3 L4579.5 2343.7 L4581.1 2343.1 L4582.8 2342.4 L4584.4 2341.8 L4586.1 2341.2 L4587.8 2340.6 L4589.5 2340.1 L4591.2 2339.5 L4592.9 2338.9 L4594.7 2338.3 L4596.4 2337.7 L4598.2 2337.1 L4600 2336.4 L4601.8 2335.8 L4603.6 2335.3 L4605.4 2334.8 L4607.2 2334.3 L4609 2333.8 L4610.9 2333.3 L4612.8 2332.7 L4614.7 2332.2 L4616.6 2331.7 L4618.5 2331.2 L4620.4 2330.6 L4622.4 2330.1 L4624.4 2329.6 L4626.4 2329.1 L4628.4 2328.6 L4630.4 2328.1 L4632.4 2327.6 L4634.5 2327.1 L4636.6 2326.6 L4638.7 2326.1 L4640.8 2325.6 L4643 2325.1 L4645.2 2324.6 L4647.4 2324.1 L4649.6 2323.5 L4651.8 2323 L4654.1 2322.5 L4656.4 2321.9 L4658.8 2321.3 L4661.2 2320.6 L4663.6 2320 L4666.3 2319 L4669 2317.9 L4672 2316.2 L4676.6 2311.6 L4715 2239.1 L4718.1 2239.1 L4721.3 2239.1 L4724.5 2239.1 L4727.8 2239.1 L4731 2239.1 L4734.3 2239.1 L4737.7 2239.1 L4741.1 2239.1 L4744.5 2239.1 L4747.9 2239.1 L4751.4 2239.1 L4754.9 2239.1 L4758.5 2239.1 L4762.1 2239 L4765.7 2239 L4769.4 2239 L4773.1 2239 L4776.9 2239 L4780.7 2239 L4784.6 2239 L4788.5 2238.9 L4792.5 2238.9 L4796.5 2238.9 L4800.6 2238.9 L4804.8 2238.9 L4809 2238.8 L4813.3 2238.8 L4817.6 2238.8 L4822 2238.8 L4826.5 2238.8 L4831 2238.7 L4835.6 2238.7 L4840.3 2238.7 L4845.1 2238.7 L4849.9 2238.6 L4854.9 2238.6 L4859.9 2238.6 L4865 2238.5 L4870.2 2238.5 L4875.5 2238.5 L4880.9 2238.5 L4886.4 2238.4 L4892 2238.4 L4897.7 2238.4 L4903.5 2238.3 L4909.5 2238.3 L4915.5 2238.3 L4921.7 2238.3 L4928.1 2238.2 L4934.5 2238.2 L4941.1 2238.2 L4947.9 2238.1 L4954.8 2238.1 L4655 2465.2 L4649.1 2470.6 L4645.6 2474.1 L4643.9 2476.3 L4642.3 2478.3 L4640.9 2480.2 L4639.4 2482 L4638 2483.8 L4636.7 2485.4 L4635 2487.3 L4633.5 2489 L4631.8 2490.7 L4630.1 2492.5 L4628.3 2494.2 L4626.5 2495.8 L4624.7 2497.5 L4622.9 2499.1 L4621.2 2500.5 L4619.4 2502 L4617.8 2503.4 L4616.3 2504.6 L4614.8 2505.8 L4613.4 2507 L4612.1 2508 L4610.9 2509 L4609.8 2509.9 L4608.7 2510.8 L4607.8 2511.6 L4606.8 2512.3 L4606 2513 L4605.2 2513.7 L4604.4 2514.3 L4603.7 2514.9 L4603 2515.5 L4602.4 2516 L4601.8 2516.5 L4601.2 2517 L4600.7 2517.5 L4600.2 2517.9 L4599.7 2518.3 L4599.2 2518.7 L4598.8 2519.1 L4598.4 2519.5 L4598 2519.9 L4597.6 2520.2 L4597.2 2520.5 L4596.8 2520.9 L4596.5 2521.2 L4596.2 2521.5 L4595.9 2521.8 L4595.6 2522.1 L4595.3 2522.3 L4595 2522.6 L4594.7 2522.9 L4594.4 2523.1 L4594.2 2523.4 L4593.9 2523.6 L4593.7 2523.8 L4593.4 2524.1 L4593.2 2524.3 L4593 2524.5 L4592.8 2524.7 L4592.5 2524.9 L4592.3 2525.1 L4592.1 2525.3 L4591.9 2525.5 L4591.7 2525.7 L4591.5 2525.9 L4591.4 2526.1 L4591.2 2526.3 L4591 2526.4 L4590.8 2526.6 L4590.6 2526.8 Z" fill="rgba(0,120,255,0.2)" stroke="blue" stroke-width="1.5"/>
  <g opacity="0.5"><path d="M0 0v16.296c3.72 1.064 224.839 2.642 231.4 1.68V1.164h17.039c1.473-16.525.044-33.357.746-50.003.069-4.426-1.734-7.205-5.561-8.59-19.659-7.296-40.273-11.447-60.348-17.369-53.3-19.439-103.956-45.784-152.91-74.336-9.826-5.726-19.381-11.923-28.998-18.001-11.129-6.843-16.001-19.822-26.648-27.31-12.01-10.676-25.035-20.476-35.316-32.91-16.899-21.274-41.231-34.959-57.089-57.158-6.606-8.297-12.849-16.888-19.109-25.454-6.097-8.343-8.624-17.687-8.404-28.096.604-30.559.964-61.031 1.251-91.607l-17.455-.248.092-.107c-.372 31.213-.406 62.43-.793 93.643-.104 9.016 2.108 17.26 7.287 24.59 14.925 21.207 30.474 42.261 50.907 58.586 14.881 10.882 25.386 26.252 38.669 38.822 11.484 11.372 26.051 19.924 35.766 32.926 13.815 20.91 53.47 36.844 75.445 50.788 43.116 23.345 87.41 46.153 134.551 60.081 66.405 17.386 49.94 4.763 50.744 71.467C154.122.791 77.022-.108-.117.086Z" style="fill:#231f20;fill-opacity:1;fill-rule:nonzero;stroke:none" transform="matrix(1.33333 0 0 -1.33333 4679.388 2239.22)"/>
<path d="M0 0h-17.499c-.579 34.691-1.647 69.467-.591 104.141 9.23 29.967 37.689 57.217 60.94 77.804 8.314 6.641 15.702 14.254 22.443 22.518 12.726 15.884 29.571 27.428 44.382 41.167 15.516 23.781 43.03 34.217 66.508 48.454 46.324 26.013 94.168 50.822 144.958 66.764 67.574 18.437 52.511 3.048 54.098 71.05l17.249.338-.117.086c-.9-73.387 12.513-51.569-57.956-72.481-49.807-16.502-97.002-40.68-142.597-66.516-15.476-9.003-31.299-17.4-46.092-27.546-9.557-5.924-14.659-16.143-22.628-23.737-14.24-12.633-29.771-23.945-41.67-39.011-6.002-7.369-12.739-14.005-20.01-20.09-11.191-9.366-22.296-18.782-31.383-30.346-12.959-17.681-32.574-34.56-31.431-58.314.599-31.451.161-62.932 1.284-94.375Z" style="fill:#231f20;fill-opacity:1;fill-rule:nonzero;stroke:none" transform="matrix(1.33333 0 0 -1.33333 4156.07 2815.535)"/>
<path d="M0 0v-17.752l-231.167-2.21c.042 6.024-.4 11.822.081 17.645l-.112-.094C-154.116-.841-77.002-1.021.093-.106z" style="fill:#231f20;fill-opacity:1;fill-rule:nonzero;stroke:none" transform="matrix(1.33333 0 0 -1.33333 4464.185 2812.445)"/></g>
  <path d="M4590.5 2527 L4590.3 2527.1 L4590.1 2527.3 L4590 2527.4 L4589.8 2527.6 L4589.7 2527.8 L4589.5 2527.9 L4589.4 2528.1 L4589.2 2528.2 L4589.1 2528.3 L4588.9 2528.5 L4588.8 2528.6 L4588.6 2528.8 L4588.5 2528.9 L4588.4 2529 L4588.2 2529.2 L4588.1 2529.3 L4588 2529.4 L4587.8 2529.5 L4587.7 2529.7 L4587.6 2529.8 L4587.5 2529.9 L4587.4 2530 L4587.2 2530.2 L4587.1 2530.3 L4587 2530.4 L4586.9 2530.5 L4586.8 2530.6 L4586.7 2530.7 L4586.6 2530.9 L4586.5 2531 L4586.4 2531.1 L4586.2 2531.2 L4586.1 2531.3 L4586 2531.4 L4585.9 2531.5 L4585.8 2531.6 L4585.7 2531.7 L4585.6 2531.8 L4585.5 2531.9 L4585.4 2532 L4585.3 2532.1 L4585.2 2532.2 L4585.1 2532.3 L4585 2532.4 L4585 2532.5 L4584.9 2532.6 L4584.8 2532.7 L4584.7 2532.8 L4584.6 2532.9 L4584.5 2533 L4584.4 2533.1 L4584.3 2533.2 L4584.2 2533.3 L4584.1 2533.4 L4584 2533.5 L4583.9 2533.6 L4583.9 2533.7 L4583.8 2533.8 L4583.7 2533.9 L4583.6 2533.9 L4583.5 2534 L4583.4 2534.1 L4583.3 2534.2 L4583.3 2534.3 L4583.2 2534.4 L4583.1 2534.5 L4583 2534.6 L4582.9 2534.7 L4582.8 2534.8 L4582.8 2534.8 L4582.7 2534.9 L4582.6 2535 L4582.5 2535.1 L4582.4 2535.2 L4582.3 2535.3 L4582.3 2535.4 L4582.2 2535.5 L4582.1 2535.5 L4582 2535.6 L4581.9 2535.7 L4581.9 2535.8 L4581.8 2535.9 L4581.7 2536 L4581.6 2536.1 L4581.5 2536.2 L4581.5 2536.2 L4581.4 2536.3 L4581.3 2536.4 L4581.2 2536.5 L4581.1 2536.6 L4581.1 2536.7 L4581 2536.8 L4580.9 2536.9 L4580.8 2536.9 L4580.7 2537 L4580.6 2537.1 L4580.6 2537.2 L4580.5 2537.3 L4580.4 2537.4 L4580.3 2537.5 L4580.2 2537.6 L4580.2 2537.7 L4580.1 2537.7 L4580 2537.8 L4579.9 2537.9 L4579.8 2538 L4579.7 2538.1 L4579.7 2538.2 L4579.6 2538.3 L4579.5 2538.4 L4579.4 2538.5 L4579.3 2538.6 L4579.2 2538.7 L4579.2 2538.7 L4579.1 2538.8 L4579 2538.9 L4578.9 2539 L4578.8 2539.1 L4578.7 2539.2 L4578.6 2539.3 L4578.5 2539.4 L4578.5 2539.5 L4578.4 2539.6 L4578.3 2539.7 L4578.2 2539.8 L4578.1 2539.9 L4578 2540 L4577.9 2540.1 L4577.8 2540.2 L4577.7 2540.3 L4577.6 2540.4 L4577.5 2540.5 L4577.4 2540.6 L4577.3 2540.7 L4577.3 2540.9 L4577.2 2541 L4577.1 2541.1 L4577 2541.2 L4576.9 2541.3 L4576.8 2541.4 L4576.7 2541.5 L4576.5 2541.6 L4576.4 2541.7 L4576.3 2541.9 L4576.2 2542 L4576.1 2542.1 L4576 2542.2 L4575.9 2542.3 L4575.8 2542.5 L4575.7 2542.6 L4575.6 2542.7 L4575.5 2542.8 L4575.3 2543 L4575.2 2543.1 L4575.1 2543.2 L4575 2543.4 L4574.9 2543.5 L4574.7 2543.6 L4574.6 2543.8 L4574.5 2543.9 L4574.4 2544.1 L4574.2 2544.2 L4574.1 2544.4 L4574 2544.5 L4573.8 2544.7 L4573.7 2544.8 L4573.5 2545 L4573.4 2545.1 L4573.3 2545.3 L4573.1 2545.5 L4573 2545.6 L4572.8 2545.8 L4572.7 2546 L4572.5 2546.1 L4572.3 2546.3 L4572.2 2546.5 L4572 2546.7 L4571.8 2546.9 L4571.7 2547.1 L4571.5 2547.3 L4571.3 2547.5 L4571.1 2547.7 L4570.9 2547.9 L4570.8 2548.1 L4570.6 2548.3 L4570.4 2548.5 L4570.2 2548.7 L4570 2549 L4569.7 2549.2 L4569.5 2549.4 L4569.3 2549.7 L4569.1 2549.9 L4568.8 2550.2 L4568.6 2550.5 L4568.4 2550.7 L4568.1 2551 L4567.9 2551.3 L4567.6 2551.6 L4567.3 2551.9 L4567 2552.2 L4566.8 2552.5 L4566.5 2552.8 L4566.2 2553.2 L4565.9 2553.5 L4565.5 2553.8 L4565.2 2554.2 L4564.9 2554.6 L4564.5 2554.9 L4564.2 2555.3 L4563.8 2555.7 L4563.4 2556.2 L4563 2556.6 L4562.6 2557 L4562.2 2557.5 L4561.7 2557.9 L4561.3 2558.4 L4560.8 2558.9 L4560.3 2559.4 L4559.8 2559.9 L4559.3 2560.5 L4558.8 2561 L4558.2 2561.6 L4557.6 2562.1 L4557 2562.7 L4556.4 2563.3 L4555.8 2564 L4555.1 2564.6 L4554.4 2565.3 L4553.7 2566 L4553 2566.6 L4552.2 2567.3 L4551.4 2568.1 L4550.6 2568.9 L4549.8 2569.6 L4548.9 2570.3 L4548 2571.1 L4547.1 2571.9 L4546.1 2572.7 L4545.2 2573.5 L4544.2 2574.2 L4543.2 2575 L4542.1 2575.8 L4541 2576.7 L4539.8 2577.7 L4538.5 2578.8 L4537.1 2580 L4535.6 2581.2 L4534 2582.5 L4532.1 2584.2 L4530.1 2586.1 L4527.9 2588 L4525.2 2590.7 L4522.1 2593.7 L4518.1 2597.9 L4512.4 2603.9 L4498.8 2620 L4343.5 2813.6 L4339.4 2813.6 L4335.2 2813.6 L4330.9 2813.7 L4326.6 2813.7 L4322.2 2813.7 L4317.8 2813.7 L4313.2 2813.8 L4308.6 2813.8 L4304 2813.8 L4299.2 2813.9 L4294.4 2813.9 L4289.5 2813.9 L4284.5 2814 L4279.4 2814 L4274.2 2814.1 L4268.9 2814.1 L4263.5 2814.2 L4258 2814.2 L4252.4 2814.3 L4246.7 2814.3 L4240.8 2814.4 L4234.9 2814.4 L4228.8 2814.5 L4222.6 2814.6 L4216.2 2814.7 L4209.7 2814.8 L4203 2814.9 L4196.2 2815 L4189.2 2815.1 L4182 2815.2 L4174.6 2815.3 L4167 2815.5 L4159.3 2815.6 L4155.8 2812.6 L4155.7 2807.4 L4155.5 2802.3 L4155.4 2797.2 L4155.3 2792.1 L4155.2 2787.1 L4155.1 2782.1 L4155 2777.2 L4155 2772.3 L4154.9 2767.5 L4154.9 2762.7 L4154.8 2757.9 L4154.8 2753.2 L4154.8 2748.5 L4154.7 2743.9 L4154.7 2739.3 L4154.7 2734.8 L4154.7 2730.3 L4154.6 2725.8 L4154.6 2721.4 L4154.6 2717 L4154.5 2712.6 L4154.5 2708.3 L4154.4 2704 L4154.4 2699.7 L4154.3 2695.5 L4154.2 2691.3 L4154.3 2687.1 L4154.4 2682.9 L4155 2678.6 L4155.7 2674.2 L4157.1 2669.7 L4158.8 2665.1 L4160.8 2660.4 L4163.3 2655.7 L4166.2 2650.9 L4169.4 2646.1 L4172.9 2641.3 L4176.6 2636.5 L4180.4 2631.7 L4184.2 2627.1 L4187.9 2622.6 L4191.4 2618.2 L4194.7 2614 L4198 2609.8 L4201.5 2605.6 L4205.2 2601.5 L4209.2 2597.4 L4213.2 2593.4 L4217.5 2589.4 L4221.8 2585.5 L4226.1 2581.7 L4230.5 2577.9 L4234.8 2574.3 L4239 2570.7 L4243 2567.3 L4246.6 2564 L4250 2560.7 L4253.2 2557.6 L4256.1 2554.6 L4258.9 2551.6 L4261.4 2548.6 L4263.9 2545.8 L4266.2 2543 L4268.5 2540.2 L4270.9 2537.5 L4273.3 2534.8 L4275.9 2532.1 L4278.4 2529.5 L4281.1 2527 L4283.7 2524.4 L4286.4 2522 L4289.1 2519.6 L4291.7 2517.2 L4294.4 2514.9 L4297.1 2512.6 L4299.7 2510.3 L4302.3 2508.1 L4304.9 2506 L4307.4 2503.8 L4309.8 2501.8 L4312.2 2499.7 L4314.6 2497.7 L4316.9 2495.7 L4319.1 2493.7 L4321.2 2491.8 L4323.1 2489.8 L4324.9 2487.9 L4326.5 2486 L4328.1 2484 L4329.7 2482.1 L4331.2 2480.2 L4332.7 2478.4 L4334.2 2476.5 L4335.7 2474.7 L4337.3 2472.9 L4338.8 2471.1 L4340.5 2469.4 L4342.2 2467.7 L4344 2466 L4345.9 2464.4 L4347.9 2462.8 L4350.1 2461.4 L4352.2 2459.9 L4354.3 2458.5 L4356.5 2457.1 L4358.6 2455.7 L4360.7 2454.4 L4362.8 2453 L4364.9 2451.7 L4366.9 2450.5 L4369 2449.2 L4371 2448 L4373 2446.8 L4375 2445.6 L4377 2444.4 L4379 2443.3 L4380.9 2442.1 L4382.9 2441 L4384.8 2439.9 L4386.7 2438.8 L4388.6 2437.7 L4390.4 2436.7 L4392.3 2435.6 L4394.1 2434.6 L4395.9 2433.6 L4397.6 2432.6 L4399.4 2431.6 L4401.1 2430.6 L4402.9 2429.6 L4404.6 2428.6 L4406.2 2427.7 L4407.9 2426.7 L4409.5 2425.8 L4411.2 2424.8 L4412.8 2423.9 L4414.4 2423 L4416 2422.1 L4417.6 2421.2 L4419.2 2420.3 L4420.7 2419.4 L4422.3 2418.6 L4423.8 2417.7 L4425.4 2416.8 L4426.9 2416 L4428.4 2415.1 L4429.9 2414.3 L4431.4 2413.5 L4432.9 2412.7 L4434.3 2411.9 L4435.8 2411.1 L4437.3 2410.3 L4438.7 2409.5 L4440.1 2408.7 L4441.6 2407.9 L4443 2407.1 L4444.4 2406.4 L4445.8 2405.6 L4447.2 2404.8 L4448.6 2404.1 L4450 2403.3 L4451.4 2402.6 L4452.8 2401.9 L4454.2 2401.1 L4455.5 2400.4 L4456.9 2399.7 L4458.2 2398.9 L4459.6 2398.2 L4460.9 2397.5 L4462.3 2396.8 L4463.6 2396.1 L4465 2395.4 L4466.3 2394.7 L4467.6 2394 L4469 2393.3 L4470.3 2392.6 L4471.6 2392 L4472.9 2391.3 L4474.2 2390.6 L4475.5 2389.9 L4476.9 2389.3 L4478.2 2388.6 L4479.5 2387.9 L4480.8 2387.3 L4482.1 2386.6 L4483.4 2386 L4484.7 2385.3 L4486 2384.6 L4487.3 2384 L4488.6 2383.3 L4489.9 2382.7 L4491.2 2382.1 L4492.5 2381.4 L4493.8 2380.8 L4495.1 2380.2 L4496.4 2379.5 L4497.7 2378.9 L4499 2378.3 L4500.3 2377.6 L4501.6 2377 L4502.9 2376.4 L4504.2 2375.7 L4505.5 2375.1 L4506.8 2374.5 L4508.1 2373.9 L4509.4 2373.3 L4510.7 2372.7 L4512 2372 L4513.3 2371.4 L4514.7 2370.8 L4516 2370.2 L4517.3 2369.6 L4518.6 2369 L4520 2368.3 L4521.3 2367.7 L4522.6 2367.1 L4524 2366.5 L4525.3 2365.9 L4526.7 2365.3 L4528 2364.7 L4529.4 2364.1 L4530.7 2363.5 L4532.1 2362.9 L4533.5 2362.3 L4534.9 2361.7 L4536.2 2361.1 L4537.6 2360.5 L4539 2359.9 L4540.4 2359.3 L4541.8 2358.7 L4543.2 2358.1 L4544.7 2357.5 L4546.1 2356.9 L4547.5 2356.3 L4548.9 2355.7 L4550.4 2355.1 L4551.8 2354.4 L4553.3 2353.8 L4554.8 2353.3 L4556.2 2352.7 L4557.7 2352.1 L4559.2 2351.5 L4560.7 2350.9 L4562.2 2350.3 L4563.8 2349.7 L4565.3 2349.1 L4566.8 2348.4 L4568.4 2347.8 L4569.9 2347.2 L4571.5 2346.6 L4573.1 2346.1 L4574.7 2345.5 L4576.3 2344.9 L4577.9 2344.3 L4579.5 2343.7 L4581.1 2343.1 L4582.8 2342.4 L4584.4 2341.8 L4586.1 2341.2 L4587.8 2340.6 L4589.5 2340.1 L4591.2 2339.5 L4592.9 2338.9 L4594.7 2338.3 L4596.4 2337.7 L4598.2 2337.1 L4600 2336.4 L4601.8 2335.8 L4603.6 2335.3 L4605.4 2334.8 L4607.2 2334.3 L4609 2333.8 L4610.9 2333.3 L4612.8 2332.7 L4614.7 2332.2 L4616.6 2331.7 L4618.5 2331.2 L4620.4 2330.6 L4622.4 2330.1 L4624.4 2329.6 L4626.4 2329.1 L4628.4 2328.6 L4630.4 2328.1 L4632.4 2327.6 L4634.5 2327.1 L4636.6 2326.6 L4638.7 2326.1 L4640.8 2325.6 L4643 2325.1 L4645.2 2324.6 L4647.4 2324.1 L4649.6 2323.5 L4651.8 2323 L4654.1 2322.5 L4656.4 2321.9 L4658.8 2321.3 L4661.2 2320.6 L4663.6 2320 L4666.3 2319 L4669 2317.9 L4672 2316.2 L4676.6 2311.6 L4715 2239.1 L4718.1 2239.1 L4721.3 2239.1 L4724.5 2239.1 L4727.8 2239.1 L4731 2239.1 L4734.3 2239.1 L4737.7 2239.1 L4741.1 2239.1 L4744.5 2239.1 L4747.9 2239.1 L4751.4 2239.1 L4754.9 2239.1 L4758.5 2239.1 L4762.1 2239 L4765.7 2239 L4769.4 2239 L4773.1 2239 L4776.9 2239 L4780.7 2239 L4784.6 2239 L4788.5 2238.9 L4792.5 2238.9 L4796.5 2238.9 L4800.6 2238.9 L4804.8 2238.9 L4809 2238.8 L4813.3 2238.8 L4817.6 2238.8 L4822 2238.8 L4826.5 2238.8 L4831 2238.7 L4835.6 2238.7 L4840.3 2238.7 L4845.1 2238.7 L4849.9 2238.6 L4854.9 2238.6 L4859.9 2238.6 L4865 2238.5 L4870.2 2238.5 L4875.5 2238.5 L4880.9 2238.5 L4886.4 2238.4 L4892 2238.4 L4897.7 2238.4 L4903.5 2238.3 L4909.5 2238.3 L4915.5 2238.3 L4921.7 2238.3 L4928.1 2238.2 L4934.5 2238.2 L4941.1 2238.2 L4947.9 2238.1 L4954.8 2238.1 L4655 2465.2 L4649.1 2470.6 L4645.6 2474.1 L4643.9 2476.3 L4642.3 2478.3 L4640.9 2480.2 L4639.4 2482 L4638 2483.8 L4636.7 2485.4 L4635 2487.3 L4633.5 2489 L4631.8 2490.7 L4630.1 2492.5 L4628.3 2494.2 L4626.5 2495.8 L4624.7 2497.5 L4622.9 2499.1 L4621.2 2500.5 L4619.4 2502 L4617.8 2503.4 L4616.3 2504.6 L4614.8 2505.8 L4613.4 2507 L4612.1 2508 L4610.9 2509 L4609.8 2509.9 L4608.7 2510.8 L4607.8 2511.6 L4606.8 2512.3 L4606 2513 L4605.2 2513.7 L4604.4 2514.3 L4603.7 2514.9 L4603 2515.5 L4602.4 2516 L4601.8 2516.5 L4601.2 2517 L4600.7 2517.5 L4600.2 2517.9 L4599.7 2518.3 L4599.2 2518.7 L4598.8 2519.1 L4598.4 2519.5 L4598 2519.9 L4597.6 2520.2 L4597.2 2520.5 L4596.8 2520.9 L4596.5 2521.2 L4596.2 2521.5 L4595.9 2521.8 L4595.6 2522.1 L4595.3 2522.3 L4595 2522.6 L4594.7 2522.9 L4594.4 2523.1 L4594.2 2523.4 L4593.9 2523.6 L4593.7 2523.8 L4593.4 2524.1 L4593.2 2524.3 L4593 2524.5 L4592.8 2524.7 L4592.5 2524.9 L4592.3 2525.1 L4592.1 2525.3 L4591.9 2525.5 L4591.7 2525.7 L4591.5 2525.9 L4591.4 2526.1 L4591.2 2526.3 L4591 2526.4 L4590.8 2526.6 L4590.6 2526.8 Z" fill="none" stroke="red" stroke-width="0.5"/>
</svg>