<svg xmlns="http://www.w3.org/2000/svg" viewBox="2394.51 555.406 627.752 519.791" style="background:#f5f5f5">
  <path d="M2836.7 815.3 L2829.7 816.4 L2823.6 817.3 L2818.2 818.2 L2813.4 819 L2808.9 819.7 L2805 820.4 L2801.4 821 L2798.1 821.6 L2795 822.1 L2792.1 822.6 L2789.5 823.1 L2787.1 823.6 L2784.8 824 L2782.6 824.4 L2780.5 824.8 L2778.6 825.2 L2776.8 825.5 L2775.1 825.9 L2773.5 826.2 L2771.9 826.5 L2770.5 826.8 L2769.1 827.1 L2767.7 827.4 L2766.4 827.6 L2765.2 827.9 L2764 828.1 L2762.8 828.4 L2761.7 828.6 L2760.7 828.8 L2759.7 829 L2758.7 829.3 L2757.8 829.5 L2756.9 829.7 L2756 829.9 L2755.2 830.1 L2754.4 830.2 L2753.6 830.4 L2752.8 830.6 L2752.1 830.8 L2751.3 830.9 L2750.6 831.1 L2749.9 831.2 L2749.3 831.4 L2748.6 831.5 L2748 831.7 L2747.3 831.8 L2746.7 832 L2746.1 832.1 L2745.5 832.2 L2745 832.4 L2744.4 832.5 L2743.9 832.6 L2743.4 832.8 L2742.9 832.9 L2742.4 833 L2741.9 833.1 L2741.4 833.2 L2741 833.4 L2740.5 833.5 L2740 833.6 L2739.6 833.7 L2739.2 833.8 L2738.7 833.9 L2738.3 834 L2737.9 834.1 L2737.5 834.2 L2737.1 834.3 L2736.7 834.4 L2736.3 834.5 L2735.9 834.6 L2735.6 834.7 L2735.2 834.8 L2734.8 834.9 L2734.5 835 L2734.1 835 L2733.8 835.1 L2733.4 835.2 L2733.1 835.3 L2732.8 835.4 L2732.4 835.5 L2732.1 835.6 L2731.8 835.6 L2731.5 835.7 L2731.1 835.8 L2730.8 835.9 L2730.5 835.9 L2730.2 836 L2729.9 836.1 L2729.6 836.2 L2729.3 836.2 L2729 836.3 L2728.8 836.4 L2728.5 836.5 L2728.2 836.6 L2728 836.7 L2727.7 836.8 L2727.5 836.9 L2727.2 837 L2727 837.1 L2726.8 837.2 L2726.5 837.3 L2726.3 837.4 L2726.1 837.6 L2725.9 837.7 L2725.6 837.8 L2725.4 837.9 L2725.2 838.1 L2725 838.2 L2724.8 838.3 L2724.6 838.5 L2724.4 838.6 L2724.2 838.8 L2724 838.9 L2723.8 839.1 L2723.6 839.2 L2723.4 839.4 L2723.3 839.6 L2723.1 839.7 L2722.9 839.9 L2722.7 840.1 L2722.6 840.3 L2722.4 840.5 L2722.2 840.8 L2722.1 841 L2721.9 841.3 L2721.7 841.5 L2721.6 841.8 L2721.5 842.1 L2721.3 842.4 L2721.2 842.8 L2721.1 843.2 L2721 843.6 L2720.9 844.1 L2720.8 844.6 L2720.8 845.3 L2720.8 846 L2720.8 846.8 L2720.8 847.6 L2720.8 848.4 L2720.8 849.3 L2720.7 850.2 L2720.7 851.2 L2720.7 852.2 L2720.7 853.2 L2720.7 854.4 L2720.7 855.5 L2720.7 856.8 L2720.7 858.1 L2720.6 859.5 L2720.6 860.9 L2720.6 862.5 L2720.6 864.2 L2720.6 866 L2720.5 867.9 L2720.5 870 L2720.5 872.2 L2720.5 874.6 L2720.4 877.2 L2720.4 880.1 L2720.4 883.2 L2720.3 886.6 L2720.3 890.3 L2720.2 894.5 L2720.2 899.1 L2720.1 904.3 L2720 910.2 L2720 917 L2719.9 924.7 L2719.8 933.8 L2719.7 944.4 L2719.6 957.3 L2719.4 973.1 L2719.3 993 L2719.1 1019.4 L2718.3 1043.3 L2716.3 1043.3 L2714.4 1043.3 L2712.4 1043.3 L2710.4 1043.3 L2708.4 1043.2 L2706.4 1043.2 L2704.4 1043.2 L2702.4 1043.2 L2700.4 1043.2 L2698.4 1043.2 L2696.4 1043.2 L2694.4 1043.2 L2692.4 1043.2 L2690.5 1043.2 L2688.4 1043.2 L2686.4 1043.2 L2684.4 1043.2 L2682.4 1043.2 L2680.4 1043.1 L2678.4 1043.1 L2676.4 1043.1 L2674.3 1043.1 L2672.3 1043.1 L2670.3 1043.1 L2668.2 1043.1 L2666.2 1043.1 L2664.1 1043.1 L2662.1 1043 L2660 1043 L2657.9 1043 L2655.8 1043 L2653.7 1043 L2651.6 1043 L2649.5 1042.9 L2647.4 1042.9 L2645.3 1042.9 L2643.1 1042.9 L2641 1042.9 L2638.8 1042.9 L2636.6 1042.8 L2634.5 1042.8 L2632.3 1042.8 L2630.1 1042.8 L2627.8 1042.8 L2625.6 1042.7 L2623.4 1042.7 L2621.1 1042.7 L2618.8 1042.7 L2616.5 1042.6 L2614.2 1042.6 L2611.9 1042.6 L2609.6 1042.6 L2607.2 1042.5 L2604.8 1042.5 L2602.4 1042.5 L2600 1042.5 L2597.6 1042.4 L2595.1 1042.4 L2592.7 1042.4 L2590.2 1042.4 L2587.7 1042.3 L2585.1 1042.3 L2582.6 1042.3 L2580 1042.2 L2577.4 1042.2 L2574.7 1042.2 L2572.1 1042.2 L2569.4 1042.1 L2566.7 1042.1 L2563.9 1042.1 L2561.1 1042 L2558.3 1042 L2555.5 1042 L2552.6 1041.9 L2549.7 1041.9 L2546.8 1041.9 L2543.8 1041.8 L2540.8 1041.8 L2537.7 1041.7 L2534.7 1041.7 L2531.5 1041.7 L2528.4 1041.6 L2525.1 1041.6 L2521.9 1041.6 L2518.6 1041.5 L2515.2 1041.5 L2511.8 1041.4 L2508.3 1041.4 L2504.8 1041.4 L2501.3 1041.3 L2497.7 1041.3 L2494 1041.2 L2490.2 1041.2 L2486.4 1041.2 L2482.6 1041.1 L2478.6 1041.1 L2474.6 1041 L2470.5 1041 L2466.4 1041 L2462.2 1040.9 L2457.9 1040.9 L2453.5 1040.8 L2449 1040.8 L2444.4 1040.8 L2439.7 1040.7 L2435 1040.7 L2430.1 1040.7 L2426.2 1039.8 L2426.2 1035.8 L2426.2 1031.8 L2426.3 1027.9 L2426.3 1024 L2426.3 1020.2 L2426.4 1016.5 L2426.4 1012.8 L2426.4 1009.1 L2426.5 1005.5 L2426.5 1001.9 L2426.5 998.3 L2426.6 994.9 L2426.6 991.4 L2426.6 988 L2426.7 984.6 L2426.7 981.2 L2426.7 977.9 L2426.7 974.6 L2426.8 971.4 L2426.8 968.2 L2426.9 965 L2426.9 961.8 L2426.9 958.7 L2426.9 955.6 L2427 952.6 L2427 949.5 L2427 946.5 L2427.1 943.5 L2427.1 940.5 L2427.1 937.6 L2427.2 934.7 L2427.2 931.8 L2427.2 928.9 L2427.3 926 L2427.3 923.2 L2427.3 920.4 L2427.4 917.6 L2427.4 914.8 L2427.4 912 L2427.5 909.3 L2427.5 906.6 L2427.5 903.9 L2427.6 901.2 L2427.6 898.5 L2427.6 895.8 L2427.7 893.2 L2427.7 890.5 L2427.7 887.9 L2427.7 885.3 L2427.8 882.7 L2427.8 880.1 L2427.8 877.5 L2427.9 874.9 L2427.9 872.4 L2427.9 869.8 L2428 867.3 L2428 864.7 L2428 862.2 L2428 859.7 L2428.1 857.2 L2428.1 854.7 L2428.1 852.2 L2428.2 849.7 L2428.1 847.2 L2428.3 844.7 L2429.2 842.2 L2431.1 839.6 L2435 836.8 L2443.4 833.8 L2458.2 830.6 L2474.3 827.6 L2488.9 824.9 L2502.3 822.5 L2514.5 820.4 L2525.7 818.5 L2535.8 816.8 L2545.2 815.3 L2553.7 814 L2561.5 812.7 L2568.8 811.6 L2575.4 810.7 L2581.5 809.8 L2587.2 808.9 L2592.4 808.2 L2597.2 807.5 L2601.8 806.9 L2606 806.3 L2609.9 805.8 L2613.5 805.3 L2617 804.9 L2620.2 804.5 L2623.2 804.1 L2626 803.7 L2628.7 803.4 L2631.2 803.1 L2633.6 802.8 L2635.8 802.5 L2638 802.3 L2640 802 L2641.9 801.8 L2643.7 801.6 L2645.3 801.3 L2646.7 801.1 L2648.3 800.9 L2649.8 800.7 L2651.3 800.5 L2652.7 800.4 L2654.1 800.3 L2655.5 800.1 L2656.7 800 L2658 799.9 L2659.1 799.8 L2660.3 799.7 L2661.3 799.6 L2662.4 799.5 L2663.4 799.4 L2664.3 799.3 L2665.3 799.2 L2666.1 799.1 L2667 799 L2667.8 798.9 L2668.6 798.8 L2669.4 798.8 L2670.2 798.7 L2670.9 798.6 L2671.6 798.5 L2672.3 798.5 L2672.9 798.4 L2673.6 798.3 L2674.2 798.3 L2674.8 798.2 L2675.4 798.1 L2676 798.1 L2676.5 798 L2677.1 797.9 L2677.6 797.9 L2678.1 797.8 L2678.6 797.8 L2679.1 797.7 L2679.6 797.7 L2680.1 797.6 L2680.5 797.6 L2681 797.5 L2681.4 797.5 L2681.8 797.4 L2682.3 797.3 L2682.7 797.3 L2683.1 797.2 L2683.5 797.2 L2683.8 797.1 L2684.2 797.1 L2684.6 797 L2684.9 797 L2685.3 796.9 L2685.7 796.9 L2686 796.8 L2686.3 796.8 L2686.7 796.8 L2687 796.7 L2687.3 796.7 L2687.7 796.6 L2688 796.6 L2688.3 796.6 L2688.6 796.5 L2688.9 796.5 L2689.2 796.4 L2689.5 796.4 L2689.8 796.4 L2690.1 796.3 L2690.3 796.3 L2690.6 796.2 L2690.9 796.2 L2691.2 796.2 L2691.4 796.1 L2691.7 796.1 L2692 796.1 L2692.2 796 L2692.5 796 L2692.7 795.9 L2693 795.9 L2693.2 795.9 L2693.4 795.8 L2693.7 795.8 L2693.9 795.7 L2694.1 795.7 L2694.4 795.7 L2694.6 795.6 L2694.8 795.6 L2695.1 795.5 L2695.3 795.5 L2695.5 795.5 L2695.7 795.4 L2696 795.4 L2696.2 795.4 L2696.4 795.3 L2696.6 795.3 L2696.8 795.3 L2697 795.2 L2697.2 795.2 L2697.4 795.2 L2697.7 795.1 L2697.9 795.1 L2698.1 795.1 L2698.3 795 L2698.5 795 L2698.7 795 L2698.9 794.9 L2699.1 794.9 L2699.3 794.9 L2699.5 794.8 L2699.7 794.8 L2699.9 794.8 L2700.1 794.7 L2700.3 794.7 L2700.5 794.7 L2700.7 794.6 L2700.8 794.6 L2701 794.6 L2701.2 794.5 L2701.4 794.5 L2701.6 794.5 L2701.8 794.4 L2702 794.4 L2702.2 794.3 L2702.4 794.3 L2702.5 794.3 L2702.7 794.2 L2702.9 794.2 L2703.1 794.1 L2703.3 794.1 L2703.5 794 L2703.7 794 L2703.9 794 L2704 793.9 L2704.2 793.9 L2704.4 793.8 L2704.6 793.8 L2704.8 793.8 L2705 793.7 L2705.2 793.7 L2705.3 793.6 L2705.5 793.6 L2705.7 793.5 L2705.9 793.5 L2706.1 793.5 L2706.3 793.4 L2706.5 793.4 L2706.7 793.3 L2706.8 793.3 L2707 793.3 L2707.2 793.2 L2707.4 793.2 L2707.6 793.1 L2707.8 793.1 L2708 793 L2708.2 793 L2708.4 792.9 L2708.6 792.9 L2708.8 792.9 L2709 792.8 L2709.2 792.8 L2709.4 792.7 L2709.6 792.7 L2709.8 792.6 L2710 792.6 L2710.2 792.5 L2710.4 792.5 L2710.6 792.4 L2710.8 792.3 L2711 792.3 L2711.2 792.2 L2711.4 792.1 L2711.7 792 L2711.9 792 L2712.1 791.9 L2712.3 791.8 L2712.5 791.7 L2712.8 791.7 L2713 791.6 L2713.2 791.5 L2713.5 791.4 L2713.7 791.3 L2713.9 791.3 L2714.2 791.2 L2714.4 791.1 L2714.7 791 L2714.9 790.9 L2715.2 790.8 L2715.4 790.8 L2715.7 790.7 L2715.9 790.6 L2716.2 790.5 L2716.5 790.4 L2716.8 790.3 L2717.1 790 L2717.4 789.8 L2717.7 789.6 L2718.1 789.4 L2718.4 789.2 L2718.8 788.9 L2719.1 788.7 L2719.5 788.5 L2719.9 788.2 L2720.3 788 L2734.8 756 L2735.4 756.1 L2735.9 756.2 L2736.5 756.4 L2737.1 756.5 L2737.7 756.6 L2738.2 756.7 L2738.8 756.8 L2739.4 757 L2740 757.1 L2740.6 757.2 L2741.2 757.3 L2741.8 757.5 L2742.4 757.6 L2743 757.7 L2743.6 757.8 L2744.2 757.9 L2744.9 758.1 L2745.5 758.2 L2746.1 758.3 L2746.8 758.4 L2747.4 758.5 L2748.1 758.6 L2748.7 758.7 L2749.4 758.8 L2750.1 759 L2750.8 759.1 L2751.4 759.2 L2752.1 759.3 L2752.8 759.4 L2753.5 759.5 L2754.2 759.7 L2755 759.8 L2755.7 759.9 L2756.4 760 L2757.2 760.2 L2757.9 760.3 L2758.7 760.4 L2759.5 760.5 L2760.3 760.6 L2761.1 760.7 L2761.9 760.8 L2762.7 760.9 L2763.6 761.1 L2764.4 761.2 L2765.3 761.3 L2766.2 761.4 L2767 761.6 L2767.9 761.7 L2768.8 761.8 L2769.8 761.9 L2770.7 762 L2771.7 762.2 L2772.7 762.3 L2773.7 762.4 L2774.8 762.5 L2775.8 762.6 L2776.9 762.8 L2778 762.9 L2779.1 763 L2780.2 763.1 L2781.3 763.3 L2782.5 763.4 L2783.7 763.5 L2785 763.6 L2786.3 763.8 L2787.6 763.9 L2788.9 764 L2790.3 764.1 L2791.7 764.3 L2793.1 764.4 L2794.6 764.5 L2796.1 764.7 L2797.7 764.8 L2799.3 764.9 L2800.9 765.1 L2802.6 765.2 L2804.4 765.3 L2806.2 765.5 L2808.1 765.6 L2810 765.7 L2812 765.9 L2814.1 766 L2816.2 766.2 L2818.4 766.3 L2820.7 766.5 L2823.1 766.6 L2825.6 766.7 L2828.2 766.9 L2830.9 767.1 L2833.6 767.2 L2836.5 767.4 L2839.6 767.6 L2842.7 767.7 L2846 767.9 L2849.4 768.1 L2853 768.3 L2856.7 768.5 L2860.6 768.8 L2864.6 769 L2868.9 769.3 L2873.3 769.6 L2877.8 769.9 L2882.6 770.3 L2887.6 770.6 L2893.2 770.9 L2899.1 771.3 L2905.2 771.7 L2911.7 772.1 L2918.4 772.6 L2925.5 773.1 L2933 773.7 L2940.9 774.3 L2949.2 775 L2958 775.8 L2967.4 776.6 L2977.4 777.5 L2986.1 778.7 L2988.7 780.9 L2990.6 783.1 L2991.3 785.6 L2989.6 788.2 L2985.3 791.1 L2977.5 794.1 L2962.9 797.5 L2938.2 801.2 L2912.3 804.6 L2893.6 807.2 L2877.9 809.4 L2864.9 811.2 L2854 812.8 L2844.6 814.1 Z" fill="rgba(0,120,255,0.2)" stroke="blue" stroke-width="1.5"/>
  <g opacity="0.5"><path d="M0 0h16.249c.248-39.892-.547-79.829-.889-119.739-.042-2.33.804-3.552 2.813-4.372 39.705-9.085 81.373-8.503 121.921-11.878 22.019-1.25 43.986-3.184 65.959-5.029 5.199-.38 5.31-1.278 6.642-6.195-3.497-9.393-38.476-10.284-48.559-12.484-48.961-6.982-98.498-12.798-146.487-24.829-6.134-2.264-7.017-3.682-7.078-10.251-.686-48.515-.667-97.039-1.566-145.543H-7.442c-.358-5.476-.079-10.729-.324-16.254-72.925.535-145.77 1.392-218.953 2.349-.362 5.35-.025 10.744-.081 16.127l-.075-.058c73.203-.458 146.392-1.931 219.589-1.975.221 49.451.776 98.754 1.389 148.183-.166 3.827 2.833 5.906 6.087 7.018 48.058 12.493 97.806 18.06 146.916 25.122 7.068 1.034 66.403 5.963 45.512 18.457-24.648 2.259-49.304 4.454-74.024 5.744-38.907 3.179-78.696 2.838-116.843 11.52-3.376.605-2.953 3.907-2.844 6.665C-.758-78.257-.444-39.092.053.072z" style="fill:#231f20;fill-opacity:1;fill-rule:nonzero;stroke:none" transform="matrix(1.33333 0 0 -1.33333 2728.667 589.765)"/>
<path d="m0 0-16.319.436c.199 48.457.775 96.931 1.348 145.387.331 12.139 32.918 12.028 42.46 15.259 41.265 8.088 82.967 13.829 124.723 18.707 5.934 1.647 64.07 3.869 50.348 14.312-38.959 6.067-78.702 7.211-118.041 9.901-30.75 3.228-62.724 1.89-92.579 10.348-4.722 1.024-.72 28.587-1.791 34.701.408 30.327.202 60.657.974 90.971H7.678l-.072.064c-.763-32.198-.61-64.417-1.028-96.623-.075-8.472-.161-16.945-.376-25.414-.318-4.274 4.914-4.615 7.911-5.608 41.466-6.911 83.641-7.977 125.514-10.893 26.346-1.942 52.802-3.372 78.942-7.312 16.824-10.581-50.176-13.448-55.43-14.973-47.725-5.637-95.191-13.303-142.375-22.398-7.573-2.047-20.942-2.754-19.343-13.548C.881 95.525.267 47.735-.074-.059z" style="fill:#231f20;fill-opacity:1;fill-rule:nonzero;stroke:none" transform="matrix(1.33333 0 0 -1.33333 2426.266 1040.562)"/>
<path d="M0 0v16.345c73.237-.41 145.759-1.489 219.068-1.834.116-5.577-.356-10.909.054-16.435l.053.071C146.094-1.09 73.009-.822-.072.064Z" style="fill:#231f20;fill-opacity:1;fill-rule:nonzero;stroke:none" transform="matrix(1.33333 0 0 -1.33333 2436.504 587.2)"/></g>
  <path d="M2836.7 815.3 L2829.7 816.4 L2823.6 817.3 L2818.2 818.2 L2813.4 819 L2808.9 819.7 L2805 820.4 L2801.4 821 L2798.1 821.6 L2795 822.1 L2792.1 822.6 L2789.5 823.1 L2787.1 823.6 L2784.8 824 L2782.6 824.4 L2780.5 824.8 L2778.6 825.2 L2776.8 825.5 L2775.1 825.9 L2773.5 826.2 L2771.9 826.5 L2770.5 826.8 L2769.1 827.1 L2767.7 827.4 L2766.4 827.6 L2765.2 827.9 L2764 828.1 L2762.8 828.4 L2761.7 828.6 L2760.7 828.8 L2759.7 829 L2758.7 829.3 L2757.8 829.5 L2756.9 829.7 L2756 829.9 L2755.2 830.1 L2754.4 830.2 L2753.6 830.4 L2752.8 830.6 L2752.1 830.8 L2751.3 830.9 L2750.6 831.1 L2749.9 831.2 L2749.3 831.4 L2748.6 831.5 L2748 831.7 L2747.3 831.8 L2746.7 832 L2746.1 832.1 L2745.5 832.2 L2745 832.4 L2744.4 832.5 L2743.9 832.6 L2743.4 832.8 L2742.9 832.9 L2742.4 833 L2741.9 833.1 L2741.4 833.2 L2741 833.4 L2740.5 833.5 L2740 833.6 L2739.6 833.7 L2739.2 833.8 L2738.7 833.9 L2738.3 834 L2737.9 834.1 L2737.5 834.2 L2737.1 834.3 L2736.7 834.4 L2736.3 834.5 L2735.9 834.6 L2735.6 834.7 L2735.2 834.8 L2734.8 834.9 L2734.5 835 L2734.1 835 L2733.8 835.1 L2733.4 835.2 L2733.1 835.3 L2732.8 835.4 L2732.4 835.5 L2732.1 835.6 L2731.8 835.6 L2731.5 835.7 L2731.1 835.8 L2730.8 835.9 L2730.5 835.9 L2730.2 836 L2729.9 836.1 L2729.6 836.2 L2729.3 836.2 L2729 836.3 L2728.8 836.4 L2728.5 836.5 L2728.2 836.6 L2728 836.7 L2727.7 836.8 L2727.5 836.9 L2727.2 837 L2727 837.1 L2726.8 837.2 L2726.5 837.3 L2726.3 837.4 L2726.1 837.6 L2725.9 837.7 L2725.6 837.8 L2725.4 837.9 L2725.2 838.1 L2725 838.2 L2724.8 838.3 L2724.6 838.5 L2724.4 838.6 L2724.2 838.8 L2724 838.9 L2723.8 839.1 L2723.6 839.2 L2723.4 839.4 L2723.3 839.6 L2723.1 839.7 L2722.9 839.9 L2722.7 840.1 L2722.6 840.3 L2722.4 840.5 L2722.2 840.8 L2722.1 841 L2721.9 841.3 L2721.7 841.5 L2721.6 841.8 L2721.5 842.1 L2721.3 842.4 L2721.2 842.8 L2721.1 843.2 L2721 843.6 L2720.9 844.1 L2720.8 844.6 L2720.8 845.3 L2720.8 846 L2720.8 846.8 L2720.8 847.6 L2720.8 848.4 L2720.8 849.3 L2720.7 850.2 L2720.7 851.2 L2720.7 852.2 L2720.7 853.2 L2720.7 854.4 L2720.7 855.5 L2720.7 856.8 L2720.7 858.1 L2720.6 859.5 L2720.6 860.9 L2720.6 862.5 L2720.6 864.2 L2720.6 866 L2720.5 867.9 L2720.5 870 L2720.5 872.2 L2720.5 874.6 L2720.4 877.2 L2720.4 880.1 L2720.4 883.2 L2720.3 886.6 L2720.3 890.3 L2720.2 894.5 L2720.2 899.1 L2720.1 904.3 L2720 910.2 L2720 917 L2719.9 924.7 L2719.8 933.8 L2719.7 944.4 L2719.6 957.3 L2719.4 973.1 L2719.3 993 L2719.1 1019.4 L2718.3 1043.3 L2716.3 1043.3 L2714.4 1043.3 L2712.4 1043.3 L2710.4 1043.3 L2708.4 1043.2 L2706.4 1043.2 L2704.4 1043.2 L2702.4 1043.2 L2700.4 1043.2 L2698.4 1043.2 L2696.4 1043.2 L2694.4 1043.2 L2692.4 1043.2 L2690.5 1043.2 L2688.4 1043.2 L2686.4 1043.2 L2684.4 1043.2 L2682.4 1043.2 L2680.4 1043.1 L2678.4 1043.1 L2676.4 1043.1 L2674.3 1043.1 L2672.3 1043.1 L2670.3 1043.1 L2668.2 1043.1 L2666.2 1043.1 L2664.1 1043.1 L2662.1 1043 L2660 1043 L2657.9 1043 L2655.8 1043 L2653.7 1043 L2651.6 1043 L2649.5 1042.9 L2647.4 1042.9 L2645.3 1042.9 L2643.1 1042.9 L2641 1042.9 L2638.8 1042.9 L2636.6 1042.8 L2634.5 1042.8 L2632.3 1042.8 L2630.1 1042.8 L2627.8 1042.8 L2625.6 1042.7 L2623.4 1042.7 L2621.1 1042.7 L2618.8 1042.7 L2616.5 1042.6 L2614.2 1042.6 L2611.9 1042.6 L2609.6 1042.6 L2607.2 1042.5 L2604.8 1042.5 L2602.4 1042.5 L2600 1042.5 L2597.6 1042.4 L2595.1 1042.4 L2592.7 1042.4 L2590.2 1042.4 L2587.7 1042.3 L2585.1 1042.3 L2582.6 1042.3 L2580 1042.2 L2577.4 1042.2 L2574.7 1042.2 L2572.1 1042.2 L2569.4 1042.1 L2566.7 1042.1 L2563.9 1042.1 L2561.1 1042 L2558.3 1042 L2555.5 1042 L2552.6 1041.9 L2549.7 1041.9 L2546.8 1041.9 L2543.8 1041.8 L2540.8 1041.8 L2537.7 1041.7 L2534.7 1041.7 L2531.5 1041.7 L2528.4 1041.6 L2525.1 1041.6 L2521.9 1041.6 L2518.6 1041.5 L2515.2 1041.5 L2511.8 1041.4 L2508.3 1041.4 L2504.8 1041.4 L2501.3 1041.3 L2497.7 1041.3 L2494 1041.2 L2490.2 1041.2 L2486.4 1041.2 L2482.6 1041.1 L2478.6 1041.1 L2474.6 1041 L2470.5 1041 L2466.4 1041 L2462.2 1040.9 L2457.9 1040.9 L2453.5 1040.8 L2449 1040.8 L2444.4 1040.8 L2439.7 1040.7 L2435 1040.7 L2430.1 1040.7 L2426.2 1039.8 L2426.2 1035.8 L2426.2 1031.8 L2426.3 1027.9 L2426.3 1024 L2426.3 1020.2 L2426.4 1016.5 L2426.4 1012.8 L2426.4 1009.1 L2426.5 1005.5 L2426.5 1001.9 L2426.5 998.3 L2426.6 994.9 L2426.6 991.4 L2426.6 988 L2426.7 984.6 L2426.7 981.2 L2426.7 977.9 L2426.7 974.6 L2426.8 971.4 L2426.8 968.2 L2426.9 965 L2426.9 961.8 L2426.9 958.7 L2426.9 955.6 L2427 952.6 L2427 949.5 L2427 946.5 L2427.1 943.5 L2427.1 940.5 L2427.1 937.6 L2427.2 934.7 L2427.2 931.8 L2427.2 928.9 L2427.3 926 L2427.3 923.2 L2427.3 920.4 L2427.4 917.6 L2427.4 914.8 L2427.4 912 L2427.5 909.3 L2427.5 906.6 L2427.5 903.9 L2427.6 901.2 L2427.6 898.5 L2427.6 895.8 L2427.7 893.2 L2427.7 890.5 L2427.7 887.9 L2427.7 885.3 L2427.8 882.7 L2427.8 880.1 L2427.8 877.5 L2427.9 874.9 L2427.9 872.4 L2427.9 869.8 L2428 867.3 L2428 864.7 L2428 862.2 L2428 859.7 L2428.1 857.2 L2428.1 854.7 L2428.1 852.2 L2428.2 849.7 L2428.1 847.2 L2428.3 844.7 L2429.2 842.2 L2431.1 839.6 L2435 836.8 L2443.4 833.8 L2458.2 830.6 L2474.3 827.6 L2488.9 824.9 L2502.3 822.5 L2514.5 820.4 L2525.7 818.5 L2535.8 816.8 L2545.2 815.3 L2553.7 814 L2561.5 812.7 L2568.8 811.6 L2575.4 810.7 L2581.5 809.8 L2587.2 808.9 L2592.4 808.2 L2597.2 807.5 L2601.8 806.9 L2606 806.3 L2609.9 805.8 L2613.5 805.3 L2617 804.9 L2620.2 804.5 L2623.2 804.1 L2626 803.7 L2628.7 803.4 L2631.2 803.1 L2633.6 802.8 L2635.8 802.5 L2638 802.3 L2640 802 L2641.9 801.8 L2643.7 801.6 L2645.3 801.3 L2646.7 801.1 L2648.3 800.9 L2649.8 800.7 L2651.3 800.5 L2652.7 800.4 L2654.1 800.3 L2655.5 800.1 L2656.7 800 L2658 799.9 L2659.1 799.8 L2660.3 799.7 L2661.3 799.6 L2662.4 799.5 L2663.4 799.4 L2664.3 799.3 L2665.3 799.2 L2666.1 799.1 L2667 799 L2667.8 798.9 L2668.6 798.8 L2669.4 798.8 L2670.2 798.7 L2670.9 798.6 L2671.6 798.5 L2672.3 798.5 L2672.9 798.4 L2673.6 798.3 L2674.2 798.3 L2674.8 798.2 L2675.4 798.1 L2676 798.1 L2676.5 798 L2677.1 797.9 L2677.6 797.9 L2678.1 797.8 L2678.6 797.8 L2679.1 797.7 L2679.6 797.7 L2680.1 797.6 L2680.5 797.6 L2681 797.5 L2681.4 797.5 L2681.8 797.4 L2682.3 797.3 L2682.7 797.3 L2683.1 797.2 L2683.5 797.2 L2683.8 797.1 L2684.2 797.1 L2684.6 797 L2684.9 797 L2685.3 796.9 L2685.7 796.9 L2686 796.8 L2686.3 796.8 L2686.7 796.8 L2687 796.7 L2687.3 796.7 L2687.7 796.6 L2688 796.6 L2688.3 796.6 L2688.6 796.5 L2688.9 796.5 L2689.2 796.4 L2689.5 796.4 L2689.8 796.4 L2690.1 796.3 L2690.3 796.3 L2690.6 796.2 L2690.9 796.2 L2691.2 796.2 L2691.4 796.1 L2691.7 796.1 L2692 796.1 L2692.2 796 L2692.5 796 L2692.7 795.9 L2693 795.9 L2693.2 795.9 L2693.4 795.8 L2693.7 795.8 L2693.9 795.7 L2694.1 795.7 L2694.4 795.7 L2694.6 795.6 L2694.8 795.6 L2695.1 795.5 L2695.3 795.5 L2695.5 795.5 L2695.7 795.4 L2696 795.4 L2696.2 795.4 L2696.4 795.3 L2696.6 795.3 L2696.8 795.3 L2697 795.2 L2697.2 795.2 L2697.4 795.2 L2697.7 795.1 L2697.9 795.1 L2698.1 795.1 L2698.3 795 L2698.5 795 L2698.7 795 L2698.9 794.9 L2699.1 794.9 L2699.3 794.9 L2699.5 794.8 L2699.7 794.8 L2699.9 794.8 L2700.1 794.7 L2700.3 794.7 L2700.5 794.7 L2700.7 794.6 L2700.8 794.6 L2701 794.6 L2701.2 794.5 L2701.4 794.5 L2701.6 794.5 L2701.8 794.4 L2702 794.4 L2702.2 794.3 L2702.4 794.3 L2702.5 794.3 L2702.7 794.2 L2702.9 794.2 L2703.1 794.1 L2703.3 794.1 L2703.5 794 L2703.7 794 L2703.9 794 L2704 793.9 L2704.2 793.9 L2704.4 793.8 L2704.6 793.8 L2704.8 793.8 L2705 793.7 L2705.2 793.7 L2705.3 793.6 L2705.5 793.6 L2705.7 793.5 L2705.9 793.5 L2706.1 793.5 L2706.3 793.4 L2706.5 793.4 L2706.7 793.3 L2706.8 793.3 L2707 793.3 L2707.2 793.2 L2707.4 793.2 L2707.6 793.1 L2707.8 793.1 L2708 793 L2708.2 793 L2708.4 792.9 L2708.6 792.9 L2708.8 792.9 L2709 792.8 L2709.2 792.8 L2709.4 792.7 L2709.6 792.7 L2709.8 792.6 L2710 792.6 L2710.2 792.5 L2710.4 792.5 L2710.6 792.4 L2710.8 792.3 L2711 792.3 L2711.2 792.2 L2711.4 792.1 L2711.7 792 L2711.9 792 L2712.1 791.9 L2712.3 791.8 L2712.5 791.7 L2712.8 791.7 L2713 791.6 L2713.2 791.5 L2713.5 791.4 L2713.7 791.3 L2713.9 791.3 L2714.2 791.2 L2714.4 791.1 L2714.7 791 L2714.9 790.9 L2715.2 790.8 L2715.4 790.8 L2715.7 790.7 L2715.9 790.6 L2716.2 790.5 L2716.5 790.4 L2716.8 790.3 L2717.1 790 L2717.4 789.8 L2717.7 789.6 L2718.1 789.4 L2718.4 789.2 L2718.8 788.9 L2719.1 788.7 L2719.5 788.5 L2719.9 788.2 L2720.3 788 L2734.8 756 L2735.4 756.1 L2735.9 756.2 L2736.5 756.4 L2737.1 756.5 L2737.7 756.6 L2738.2 756.7 L2738.8 756.8 L2739.4 757 L2740 757.1 L2740.6 757.2 L2741.2 757.3 L2741.8 757.5 L2742.4 757.6 L2743 757.7 L2743.6 757.8 L2744.2 757.9 L2744.9 758.1 L2745.5 758.2 L2746.1 758.3 L2746.8 758.4 L2747.4 758.5 L2748.1 758.6 L2748.7 758.7 L2749.4 758.8 L2750.1 759 L2750.8 759.1 L2751.4 759.2 L2752.1 759.3 L2752.8 759.4 L2753.5 759.5 L2754.2 759.7 L2755 759.8 L2755.7 759.9 L2756.4 760 L2757.2 760.2 L2757.9 760.3 L2758.7 760.4 L2759.5 760.5 L2760.3 760.6 L2761.1 760.7 L2761.9 760.8 L2762.7 760.9 L2763.6 761.1 L2764.4 761.2 L2765.3 761.3 L2766.2 761.4 L2767 761.6 L2767.9 761.7 L2768.8 761.8 L2769.8 761.9 L2770.7 762 L2771.7 762.2 L2772.7 762.3 L2773.7 762.4 L2774.8 762.5 L2775.8 762.6 L2776.9 762.8 L2778 762.9 L2779.1 763 L2780.2 763.1 L2781.3 763.3 L2782.5 763.4 L2783.7 763.5 L2785 763.6 L2786.3 763.8 L2787.6 763.9 L2788.9 764 L2790.3 764.1 L2791.7 764.3 L2793.1 764.4 L2794.6 764.5 L2796.1 764.7 L2797.7 764.8 L2799.3 764.9 L2800.9 765.1 L2802.6 765.2 L2804.4 765.3 L2806.2 765.5 L2808.1 765.6 L2810 765.7 L2812 765.9 L2814.1 766 L2816.2 766.2 L2818.4 766.3 L2820.7 766.5 L2823.1 766.6 L2825.6 766.7 L2828.2 766.9 L2830.9 767.1 L2833.6 767.2 L2836.5 767.4 L2839.6 767.6 L2842.7 767.7 L2846 767.9 L2849.4 768.1 L2853 768.3 L2856.7 768.5 L2860.6 768.8 L2864.6 769 L2868.9 769.3 L2873.3 769.6 L2877.8 769.9 L2882.6 770.3 L2887.6 770.6 L2893.2 770.9 L2899.1 771.3 L2905.2 771.7 L2911.7 772.1 L2918.4 772.6 L2925.5 773.1 L2933 773.7 L2940.9 774.3 L2949.2 775 L2958 775.8 L2967.4 776.6 L2977.4 777.5 L2986.1 778.7 L2988.7 780.9 L2990.6 783.1 L2991.3 785.6 L2989.6 788.2 L2985.3 791.1 L2977.5 794.1 L2962.9 797.5 L2938.2 801.2 L2912.3 804.6 L2893.6 807.2 L2877.9 809.4 L2864.9 811.2 L2854 812.8 L2844.6 814.1 Z" fill="none" stroke="red" stroke-width="0.5"/>
</svg>