<svg xmlns="http://www.w3.org/2000/svg" viewBox="269.084 644.224 491.944 342.014" style="background:#f5f5f5">
  <path d="M675.1 815.2 L674.3 816.6 L674.5 818 L675.1 819.4 L676.8 820.9 L679 822.4 L682.6 824 L687.5 825.8 L693.6 827.7 L700.6 829.8 L707.6 832.1 L713.4 834.3 L717.3 836.5 L719.4 838.5 L720.2 840.4 L719.5 842.1 L718.3 843.8 L716.4 845.3 L713.7 846.7 L710.5 847.9 L707.3 849.1 L703.9 850.2 L700.6 851.3 L697.5 852.3 L694.4 853.4 L691.6 854.4 L688.9 855.4 L686.5 856.4 L684.2 857.4 L682.4 858.5 L680.8 859.6 L679.6 860.9 L679 862.2 L678.8 863.7 L680.1 865.7 L684.3 868.6 L693.2 873.1 L697.6 876.3 L699.1 878.6 L699.4 880.5 L699.1 882.2 L698.3 883.7 L697.2 885.1 L695.9 886.5 L694.7 887.8 L693.7 889.2 L692.9 890.7 L692.5 892.4 L692.2 894.1 L692.2 896 L692.3 897.9 L692.5 899.9 L692.7 901.9 L692.9 903.9 L692.9 905.8 L692.8 907.8 L692.7 909.7 L692.7 911.7 L692.6 913.6 L692.5 915.6 L692.4 917.6 L692.3 919.6 L692.2 921.7 L692.2 923.8 L692.1 925.8 L692 928 L692 930.1 L691.9 932.3 L691.9 934.5 L691.9 936.7 L691.9 939 L691.9 941.4 L691.9 943.7 L692 946.2 L692.1 948.7 L692.3 951.2 L692.5 953.9 L690 954.4 L686.9 954.4 L683.9 954.4 L680.9 954.4 L678 954.4 L675.2 954.4 L672.4 954.4 L669.6 954.4 L666.9 954.4 L664.3 954.4 L661.7 954.4 L659.2 954.4 L656.7 954.4 L654.2 954.4 L651.8 954.4 L649.5 954.4 L647.1 954.4 L644.8 954.4 L642.6 954.4 L640.4 954.4 L638.2 954.4 L636 954.4 L633.9 954.4 L631.8 954.4 L629.8 954.4 L627.8 954.4 L625.8 954.4 L623.8 954.4 L621.8 954.4 L619.9 954.4 L618 954.4 L616.2 954.4 L614.3 954.4 L612.5 954.4 L610.7 954.4 L608.9 954.4 L607.2 954.4 L605.4 954.4 L603.7 954.4 L602 954.4 L600.3 954.4 L598.7 954.4 L597 954.4 L595.4 954.4 L593.8 954.4 L592.2 954.4 L590.6 954.4 L589.1 954.4 L587.5 954.4 L586 954.4 L584.4 954.4 L582.9 954.4 L581.4 954.4 L580 954.4 L578.5 954.4 L577 954.4 L575.6 954.4 L574.1 954.4 L572.7 954.4 L571.3 954.4 L569.9 954.4 L568.5 954.4 L567.1 954.4 L565.7 954.4 L564.3 954.4 L563 954.4 L561.6 954.4 L560.3 954.4 L558.9 954.4 L557.6 954.4 L556.3 954.4 L555 954.4 L553.7 954.4 L552.3 954.4 L551 954.4 L549.8 954.4 L548.5 954.4 L547.2 954.4 L545.9 954.4 L544.6 954.4 L543.4 954.4 L542.1 954.4 L540.8 954.4 L539.6 954.4 L538.3 954.4 L537.1 954.4 L535.9 954.4 L534.6 954.4 L533.4 954.4 L532.1 954.4 L530.9 954.4 L529.7 954.4 L528.5 954.4 L527.2 954.4 L526 954.4 L524.8 954.4 L523.6 954.4 L522.3 954.4 L521.1 954.4 L519.9 954.4 L518.7 954.4 L517.5 954.4 L516.3 954.4 L515.1 954.4 L513.8 954.4 L512.6 954.4 L511.4 954.4 L510.2 954.4 L509 954.4 L507.8 954.4 L506.5 954.4 L505.3 954.4 L504.1 954.4 L502.9 954.4 L501.7 954.4 L500.4 954.4 L499.2 954.4 L498 954.4 L496.7 954.4 L495.5 954.4 L494.3 954.4 L493 954.4 L491.8 954.4 L490.5 954.4 L489.3 954.4 L488 954.4 L486.7 954.4 L485.5 954.4 L484.2 954.4 L482.9 954.4 L481.6 954.4 L480.4 954.4 L479.1 954.4 L477.8 954.4 L476.5 954.4 L475.1 954.4 L473.8 954.4 L472.5 954.4 L471.2 954.4 L469.8 954.4 L468.5 954.4 L467.1 954.4 L465.8 954.4 L464.4 954.4 L463 954.4 L461.6 954.4 L460.2 954.4 L458.8 954.4 L457.4 954.4 L456 954.4 L454.5 954.4 L453.1 954.4 L451.6 954.4 L450.2 954.4 L448.7 954.4 L447.2 954.4 L445.7 954.4 L444.1 954.4 L442.6 954.4 L441.1 954.4 L439.5 954.4 L437.9 954.4 L436.3 954.4 L434.7 954.4 L433.1 954.4 L431.4 954.4 L429.8 954.4 L428.1 954.4 L426.4 954.4 L424.7 954.4 L422.9 954.4 L421.2 954.4 L419.4 954.4 L417.6 954.4 L415.8 954.4 L413.9 954.4 L412.1 954.4 L410.2 954.4 L408.3 954.4 L406.3 954.4 L404.4 954.4 L402.4 954.4 L400.3 954.4 L398.3 954.4 L396.2 954.4 L394.1 954.4 L391.9 954.4 L389.7 954.4 L387.5 954.4 L385.3 954.4 L383 954.4 L380.7 954.4 L378.3 954.4 L375.9 954.4 L373.4 954.4 L370.9 954.4 L368.4 954.4 L365.8 954.4 L363.2 954.4 L360.5 954.4 L357.8 954.4 L355 954.4 L352.1 954.4 L349.2 954.4 L346.2 954.4 L343.2 954.4 L340.1 954.4 L336.9 954.4 L333.7 954.4 L330.4 954.4 L327 954.4 L323.5 954.4 L319.9 954.4 L318.8 952.6 L318.6 950.2 L318.5 947.8 L318.4 945.4 L318.3 943 L318.2 940.6 L318.2 938.2 L318.3 935.8 L318.3 933.5 L318.4 931.1 L318.4 928.8 L318.5 926.4 L318.6 924.1 L318.7 921.8 L318.8 919.6 L318.9 917.4 L318.9 915.2 L319 913 L319.1 910.8 L319.2 908.7 L319.2 906.6 L319.1 904.5 L319 902.5 L318.9 900.5 L318.8 898.5 L318.8 896.5 L319 894.5 L319.3 892.3 L319.9 890.1 L320.9 887.8 L322.7 885.2 L325.2 882.5 L325.8 880.4 L325.6 878.6 L324.8 877 L323.5 875.6 L321.8 874.3 L319.6 873.1 L317.2 872 L314.6 870.8 L312 869.6 L309.5 868.4 L307.4 867 L305.8 865.5 L305 863.7 L305.2 861.8 L307 859.5 L312.1 856.5 L323.9 852.4 L335.4 848.5 L340.5 846 L343.8 843.9 L345.7 842.1 L345.9 840.5 L345.8 839 L344.6 837.7 L343 836.4 L340.7 835.1 L337.9 833.8 L334.7 832.6 L331 831.3 L326.9 830 L322.5 828.7 L318 827.3 L313.4 825.8 L309.1 824.2 L305.6 822.5 L302.8 820.8 L300.9 819 L300.3 817.1 L301.3 815.2 L303.4 813.4 L306.5 811.6 L310.1 809.9 L314.2 808.2 L318.6 806.7 L322.9 805.2 L327.1 803.7 L331.1 802.4 L334.8 801 L338.3 799.8 L341.3 798.5 L344 797.2 L346.3 796 L347.9 794.7 L349.2 793.4 L350 792 L350.7 790.7 L350.5 789.2 L349.8 787.6 L347.5 785.7 L343.1 783.4 L333.8 780 L318.7 775.3 L311.4 772 L309.1 769.6 L308.8 767.6 L309.7 765.9 L311.4 764.5 L313.6 763.1 L315.7 761.8 L318.5 760.7 L321.3 759.7 L324.2 758.7 L327.2 757.8 L330 756.9 L332.8 756 L335.5 755.2 L338 754.3 L340.4 753.4 L342.6 752.5 L344.7 751.5 L346.6 750.6 L348.4 749.6 L350 748.5 L351.6 747.5 L352.9 746.4 L354.3 745.3 L355 744 L355.5 742.5 L354.5 740.3 L308.6 716.8 L310.4 715.4 L312.7 714.3 L314.9 713.3 L317.2 712.2 L319.4 711.2 L321.6 710.2 L323.8 709.2 L325.8 708.2 L327.8 707.1 L329.5 705.9 L330.9 704.6 L332 703 L332.8 701.3 L333.2 699.4 L333.5 697.3 L333.7 695.2 L333.7 692.9 L333.7 690.6 L333.6 688.2 L333.6 685.8 L333.5 683.4 L333.5 680.9 L333.4 678.4 L338 676.9 L341.1 676.9 L344.2 676.9 L347.2 676.9 L350.1 676.9 L353 676.9 L355.9 676.9 L358.6 676.8 L361.4 676.8 L364 676.8 L366.6 676.8 L369.2 676.8 L371.7 676.8 L374.2 676.8 L376.6 676.8 L379 676.8 L381.4 676.8 L383.7 676.8 L386 676.8 L388.2 676.8 L390.4 676.8 L392.6 676.8 L394.7 676.8 L396.8 676.8 L398.9 676.8 L401 676.8 L403 676.8 L405 676.8 L406.9 676.8 L408.9 676.8 L410.8 676.8 L412.6 676.8 L414.5 676.8 L416.3 676.8 L418.2 676.8 L419.9 676.8 L421.7 676.8 L423.5 676.8 L425.2 676.8 L426.9 676.8 L428.6 676.8 L430.2 676.8 L431.9 676.8 L433.5 676.8 L435.2 676.8 L436.8 676.8 L438.3 676.8 L439.9 676.8 L441.5 676.8 L443 676.8 L444.5 676.8 L446.1 676.8 L447.6 676.8 L449 676.8 L450.5 676.8 L452 676.8 L453.4 676.8 L454.9 676.8 L456.3 676.8 L457.7 676.8 L459.1 676.8 L460.5 676.8 L461.9 676.8 L463.3 676.8 L464.7 676.8 L466 676.8 L467.4 676.8 L468.7 676.8 L470.1 676.8 L471.4 676.8 L472.7 676.8 L474.1 676.8 L475.4 676.8 L476.7 676.8 L478 676.8 L479.3 676.8 L480.5 676.8 L481.8 676.8 L483.1 676.8 L484.4 676.8 L485.6 676.8 L486.9 676.8 L488.1 676.8 L489.4 676.8 L490.6 676.8 L491.9 676.8 L493.1 676.8 L494.4 676.8 L495.6 676.8 L496.8 676.8 L498.1 676.8 L499.3 676.8 L500.5 676.7 L501.7 676.7 L502.9 676.7 L504.2 676.7 L505.4 676.7 L506.6 676.7 L507.8 676.7 L509 676.7 L510.2 676.7 L511.4 676.7 L512.6 676.7 L513.8 676.7 L515.1 676.7 L516.3 676.7 L517.5 676.7 L518.7 676.7 L519.9 676.7 L521.1 676.7 L522.3 676.7 L523.5 676.7 L524.7 676.7 L526 676.7 L527.2 676.7 L528.4 676.7 L529.6 676.7 L530.8 676.7 L532.1 676.7 L533.3 676.7 L534.5 676.7 L535.8 676.7 L537 676.6 L538.2 676.6 L539.5 676.6 L540.7 676.6 L542 676.6 L543.3 676.6 L544.5 676.6 L545.8 676.6 L547.1 676.6 L548.3 676.6 L549.6 676.6 L550.9 676.6 L552.2 676.6 L553.5 676.6 L554.8 676.6 L556.1 676.6 L557.4 676.6 L558.8 676.6 L560.1 676.6 L561.5 676.6 L562.8 676.6 L564.2 676.6 L565.5 676.6 L566.9 676.6 L568.3 676.5 L569.7 676.5 L571.1 676.5 L572.5 676.5 L573.9 676.5 L575.4 676.5 L576.8 676.5 L578.3 676.5 L579.7 676.5 L581.2 676.5 L582.7 676.5 L584.2 676.5 L585.7 676.5 L587.3 676.5 L588.8 676.5 L590.4 676.5 L592 676.5 L593.6 676.5 L595.2 676.5 L596.8 676.5 L598.4 676.4 L600.1 676.4 L601.8 676.4 L603.5 676.4 L605.2 676.4 L606.9 676.4 L608.7 676.4 L610.5 676.4 L612.3 676.4 L614.1 676.4 L615.9 676.4 L617.8 676.4 L619.7 676.4 L621.6 676.4 L623.6 676.4 L625.5 676.4 L627.5 676.3 L629.5 676.3 L631.6 676.3 L633.7 676.3 L635.8 676.3 L638 676.3 L640.1 676.3 L642.4 676.3 L644.6 676.3 L646.9 676.3 L649.2 676.3 L651.6 676.3 L654 676.3 L656.5 676.3 L659 676.3 L661.5 676.2 L664.1 676.2 L666.7 676.2 L669.4 676.2 L672.2 676.2 L675 676.2 L677.8 676.2 L680.8 676.2 L683.7 676.2 L686.8 676.2 L689.9 676.2 L693.1 676.2 L696.3 676.2 L699.6 676.2 L703 676.1 L707.5 678 L707.6 680.4 L707.6 682.9 L707.7 685.3 L707.7 687.7 L707.7 690.1 L707.7 692.5 L707.7 694.8 L707.6 697.3 L707.2 699.8 L706.3 702.6 L682.5 718.6 L682.6 720.4 L683.7 721.7 L685.1 722.9 L686.5 724.1 L688.4 725 L690.5 725.9 L692.5 726.7 L694.8 727.6 L697.2 728.3 L699.7 729.1 L702.3 729.9 L705 730.7 L707.7 731.5 L710.5 732.3 L713.3 733.1 L716.1 734 L719 734.9 L721.6 735.9 L724.2 737.1 L726.5 738.3 L728.1 739.8 L729.5 741.4 L729 743.6 L726.8 746.4 L720.8 750.4 L689.3 761.9 L684.1 765.2 L682.5 767.2 L682.7 768.7 L683.4 770.1 L684.7 771.4 L686.5 772.5 L688.6 773.6 L691 774.6 L693.7 775.6 L696.6 776.6 L699.7 777.7 L703.1 778.7 L706.6 779.7 L710.1 780.8 L713.6 782 L717 783.2 L720.1 784.6 L722.3 786.1 L723.7 787.8 L724.7 789.5 L724.3 791.4 L722.8 793.4 L720.3 795.5 L716.8 797.6 L712.3 799.7 L707 801.8 L701.4 803.8 L695.9 805.8 L690.6 807.6 L685.8 809.3 L681.6 810.9 L678.3 812.4 L676 813.8 Z" fill="rgba(0,120,255,0.2)" stroke="blue" stroke-width="1.5"/>
  <g opacity="0.5"><path d="M0 0v-16.436c-79.656-.138-159.355-.653-239.017-.499-12.382-.008-24.765-.044-37.147-.049-2.685-.001-2.713.036-2.764 2.752.005 4.539-.298 9.066-.077 13.594z" style="fill:#231f20;fill-opacity:1;fill-rule:nonzero;stroke:none" transform="matrix(1.33333 0 0 -1.33333 706.496 654.224)"/>
<path d="M0 0c-65.412-.036-130.878-.164-196.296.015-26.009-.015-52.017.014-78.026.132-1.525.406-4.581-.953-4.987.91.032 5.039.017 10.077.017 15.242H0Z" style="fill:#231f20;fill-opacity:1;fill-rule:nonzero;stroke:none" transform="matrix(1.33333 0 0 -1.33333 692.3 976.134)"/>
<path d="M0 0h-16.343c-1.079 12.243-.083 24.359.294 36.589.004 4.752-2.078 10.046 2.004 13.733 9.435 8.413-6.073 11.271-11.296 15.477-8.565 7.619 25.229 11.894 28.838 17.232 8.743 9.567-42.551 12.292-32.257 22.029 4.841 4.656 44.332 12.197 35.258 20.464-4.58 5.505-44.847 9.923-25.032 18.588 73.616 21.921-11.539 20.247-5.42 33.81 21.186 11.311 19.215 4.664 18.848 30.202h16.124c.025-23.627 3.079-19.555-18.046-29.45-10.688-9.66 42.321-12.487 33.609-22.208-9.224-8.345-23.031-7.989-33.24-14.721-7.586-7.449 25.82-11.606 29.732-16.536 9.59-10.799-47.864-15.851-35.238-25.36 9.73-6.088 21.922-6.709 31.795-12.438 8.452-10.306-40.187-12.052-28.353-21.932 5.91-4.027 20.503-7.11 10.5-15.689-4.436-5.088-.288-11.967-1.724-17.97C-.294 21.197-.991 10.626 0 0" style="fill:#231f20;fill-opacity:1;fill-rule:nonzero;stroke:none" transform="matrix(1.33333 0 0 -1.33333 714.29 953.966)"/>
<path d="M0 0c.332-24.041 2.257-18.938-18.411-29.049-8.269-9.355 41.888-12.462 34.267-21.722C7.83-58.01-3.611-59.162-13.286-63.324c-23.481-11.203 36.514-12.671 24.932-23.983-4.771-6.201-41.24-12.195-36.028-19.022 5.13-7.696 52.195-11.314 26.27-21.816-4.043-2.559-27.872-6.386-22.601-12.875 3.478-4.72 18.101-5.61 14.423-13.183-7.224-5.704-3.732-13.855-4.508-21.664-.255-10.512-1.186-21.04-.056-31.544H-27.02c-.832 12.561.246 25.156.365 37.728-.924 5.725-.82 10.849 3.946 14.853 4.913 8.373-10.249 8.912-13.988 13.854-5.48 7.315 25.772 11.13 29.823 16.775 7.208 9.355-40 11.469-33.218 21.275 19.506 11.218 64.063 15.822 14.684 29.128-2.806 1.661-9.017 2.049-9.046 6.003 8.598 9.944 26.428 7.234 35.469 17.412 3.629 6.378-18.386 9.528-22.584 11.875-23.716 7.402-10.682 9.955 3.354 16.956 5.772 4.471 2.055 13.73 3.058 20.135C-15.253 1.858-3.08-.85 0 0" style="fill:#231f20;fill-opacity:1;fill-rule:nonzero;stroke:none" transform="matrix(1.33333 0 0 -1.33333 333.431 677.394)"/></g>
  <path d="M675.1 815.2 L674.3 816.6 L674.5 818 L675.1 819.4 L676.8 820.9 L679 822.4 L682.6 824 L687.5 825.8 L693.6 827.7 L700.6 829.8 L707.6 832.1 L713.4 834.3 L717.3 836.5 L719.4 838.5 L720.2 840.4 L719.5 842.1 L718.3 843.8 L716.4 845.3 L713.7 846.7 L710.5 847.9 L707.3 849.1 L703.9 850.2 L700.6 851.3 L697.5 852.3 L694.4 853.4 L691.6 854.4 L688.9 855.4 L686.5 856.4 L684.2 857.4 L682.4 858.5 L680.8 859.6 L679.6 860.9 L679 862.2 L678.8 863.7 L680.1 865.7 L684.3 868.6 L693.2 873.1 L697.6 876.3 L699.1 878.6 L699.4 880.5 L699.1 882.2 L698.3 883.7 L697.2 885.1 L695.9 886.5 L694.7 887.8 L693.7 889.2 L692.9 890.7 L692.5 892.4 L692.2 894.1 L692.2 896 L692.3 897.9 L692.5 899.9 L692.7 901.9 L692.9 903.9 L692.9 905.8 L692.8 907.8 L692.7 909.7 L692.7 911.7 L692.6 913.6 L692.5 915.6 L692.4 917.6 L692.3 919.6 L692.2 921.7 L692.2 923.8 L692.1 925.8 L692 928 L692 930.1 L691.9 932.3 L691.9 934.5 L691.9 936.7 L691.9 939 L691.9 941.4 L691.9 943.7 L692 946.2 L692.1 948.7 L692.3 951.2 L692.5 953.9 L690 954.4 L686.9 954.4 L683.9 954.4 L680.9 954.4 L678 954.4 L675.2 954.4 L672.4 954.4 L669.6 954.4 L666.9 954.4 L664.3 954.4 L661.7 954.4 L659.2 954.4 L656.7 954.4 L654.2 954.4 L651.8 954.4 L649.5 954.4 L647.1 954.4 L644.8 954.4 L642.6 954.4 L640.4 954.4 L638.2 954.4 L636 954.4 L633.9 954.4 L631.8 954.4 L629.8 954.4 L627.8 954.4 L625.8 954.4 L623.8 954.4 L621.8 954.4 L619.9 954.4 L618 954.4 L616.2 954.4 L614.3 954.4 L612.5 954.4 L610.7 954.4 L608.9 954.4 L607.2 954.4 L605.4 954.4 L603.7 954.4 L602 954.4 L600.3 954.4 L598.7 954.4 L597 954.4 L595.4 954.4 L593.8 954.4 L592.2 954.4 L590.6 954.4 L589.1 954.4 L587.5 954.4 L586 954.4 L584.4 954.4 L582.9 954.4 L581.4 954.4 L580 954.4 L578.5 954.4 L577 954.4 L575.6 954.4 L574.1 954.4 L572.7 954.4 L571.3 954.4 L569.9 954.4 L568.5 954.4 L567.1 954.4 L565.7 954.4 L564.3 954.4 L563 954.4 L561.6 954.4 L560.3 954.4 L558.9 954.4 L557.6 954.4 L556.3 954.4 L555 954.4 L553.7 954.4 L552.3 954.4 L551 954.4 L549.8 954.4 L548.5 954.4 L547.2 954.4 L545.9 954.4 L544.6 954.4 L543.4 954.4 L542.1 954.4 L540.8 954.4 L539.6 954.4 L538.3 954.4 L537.1 954.4 L535.9 954.4 L534.6 954.4 L533.4 954.4 L532.1 954.4 L530.9 954.4 L529.7 954.4 L528.5 954.4 L527.2 954.4 L526 954.4 L524.8 954.4 L523.6 954.4 L522.3 954.4 L521.1 954.4 L519.9 954.4 L518.7 954.4 L517.5 954.4 L516.3 954.4 L515.1 954.4 L513.8 954.4 L512.6 954.4 L511.4 954.4 L510.2 954.4 L509 954.4 L507.8 954.4 L506.5 954.4 L505.3 954.4 L504.1 954.4 L502.9 954.4 L501.7 954.4 L500.4 954.4 L499.2 954.4 L498 954.4 L496.7 954.4 L495.5 954.4 L494.3 954.4 L493 954.4 L491.8 954.4 L490.5 954.4 L489.3 954.4 L488 954.4 L486.7 954.4 L485.5 954.4 L484.2 954.4 L482.9 954.4 L481.6 954.4 L480.4 954.4 L479.1 954.4 L477.8 954.4 L476.5 954.4 L475.1 954.4 L473.8 954.4 L472.5 954.4 L471.2 954.4 L469.8 954.4 L468.5 954.4 L467.1 954.4 L465.8 954.4 L464.4 954.4 L463 954.4 L461.6 954.4 L460.2 954.4 L458.8 954.4 L457.4 954.4 L456 954.4 L454.5 954.4 L453.1 954.4 L451.6 954.4 L450.2 954.4 L448.7 954.4 L447.2 954.4 L445.7 954.4 L444.1 954.4 L442.6 954.4 L441.1 954.4 L439.5 954.4 L437.9 954.4 L436.3 954.4 L434.7 954.4 L433.1 954.4 L431.4 954.4 L429.8 954.4 L428.1 954.4 L426.4 954.4 L424.7 954.4 L422.9 954.4 L421.2 954.4 L419.4 954.4 L417.6 954.4 L415.8 954.4 L413.9 954.4 L412.1 954.4 L410.2 954.4 L408.3 954.4 L406.3 954.4 L404.4 954.4 L402.4 954.4 L400.3 954.4 L398.3 954.4 L396.2 954.4 L394.1 954.4 L391.9 954.4 L389.7 954.4 L387.5 954.4 L385.3 954.4 L383 954.4 L380.7 954.4 L378.3 954.4 L375.9 954.4 L373.4 954.4 L370.9 954.4 L368.4 954.4 L365.8 954.4 L363.2 954.4 L360.5 954.4 L357.8 954.4 L355 954.4 L352.1 954.4 L349.2 954.4 L346.2 954.4 L343.2 954.4 L340.1 954.4 L336.9 954.4 L333.7 954.4 L330.4 954.4 L327 954.4 L323.5 954.4 L319.9 954.4 L318.8 952.6 L318.6 950.2 L318.5 947.8 L318.4 945.4 L318.3 943 L318.2 940.6 L318.2 938.2 L318.3 935.8 L318.3 933.5 L318.4 931.1 L318.4 928.8 L318.5 926.4 L318.6 924.1 L318.7 921.8 L318.8 919.6 L318.9 917.4 L318.9 915.2 L319 913 L319.1 910.8 L319.2 908.7 L319.2 906.6 L319.1 904.5 L319 902.5 L318.9 900.5 L318.8 898.5 L318.8 896.5 L319 894.5 L319.3 892.3 L319.9 890.1 L320.9 887.8 L322.7 885.2 L325.2 882.5 L325.8 880.4 L325.6 878.6 L324.8 877 L323.5 875.6 L321.8 874.3 L319.6 873.1 L317.2 872 L314.6 870.8 L312 869.6 L309.5 868.4 L307.4 867 L305.8 865.5 L305 863.7 L305.2 861.8 L307 859.5 L312.1 856.5 L323.9 852.4 L335.4 848.5 L340.5 846 L343.8 843.9 L345.7 842.1 L345.9 840.5 L345.8 839 L344.6 837.7 L343 836.4 L340.7 835.1 L337.9 833.8 L334.7 832.6 L331 831.3 L326.9 830 L322.5 828.7 L318 827.3 L313.4 825.8 L309.1 824.2 L305.6 822.5 L302.8 820.8 L300.9 819 L300.3 817.1 L301.3 815.2 L303.4 813.4 L306.5 811.6 L310.1 809.9 L314.2 808.2 L318.6 806.7 L322.9 805.2 L327.1 803.7 L331.1 802.4 L334.8 801 L338.3 799.8 L341.3 798.5 L344 797.2 L346.3 796 L347.9 794.7 L349.2 793.4 L350 792 L350.7 790.7 L350.5 789.2 L349.8 787.6 L347.5 785.7 L343.1 783.4 L333.8 780 L318.7 775.3 L311.4 772 L309.1 769.6 L308.8 767.6 L309.7 765.9 L311.4 764.5 L313.6 763.1 L315.7 761.8 L318.5 760.7 L321.3 759.7 L324.2 758.7 L327.2 757.8 L330 756.9 L332.8 756 L335.5 755.2 L338 754.3 L340.4 753.4 L342.6 752.5 L344.7 751.5 L346.6 750.6 L348.4 749.6 L350 748.5 L351.6 747.5 L352.9 746.4 L354.3 745.3 L355 744 L355.5 742.5 L354.5 740.3 L308.6 716.8 L310.4 715.4 L312.7 714.3 L314.9 713.3 L317.2 712.2 L319.4 711.2 L321.6 710.2 L323.8 709.2 L325.8 708.2 L327.8 707.1 L329.5 705.9 L330.9 704.6 L332 703 L332.8 701.3 L333.2 699.4 L333.5 697.3 L333.7 695.2 L333.7 692.9 L333.7 690.6 L333.6 688.2 L333.6 685.8 L333.5 683.4 L333.5 680.9 L333.4 678.4 L338 676.9 L341.1 676.9 L344.2 676.9 L347.2 676.9 L350.1 676.9 L353 676.9 L355.9 676.9 L358.6 676.8 L361.4 676.8 L364 676.8 L366.6 676.8 L369.2 676.8 L371.7 676.8 L374.2 676.8 L376.6 676.8 L379 676.8 L381.4 676.8 L383.7 676.8 L386 676.8 L388.2 676.8 L390.4 676.8 L392.6 676.8 L394.7 676.8 L396.8 676.8 L398.9 676.8 L401 676.8 L403 676.8 L405 676.8 L406.9 676.8 L408.9 676.8 L410.8 676.8 L412.6 676.8 L414.5 676.8 L416.3 676.8 L418.2 676.8 L419.9 676.8 L421.7 676.8 L423.5 676.8 L425.2 676.8 L426.9 676.8 L428.6 676.8 L430.2 676.8 L431.9 676.8 L433.5 676.8 L435.2 676.8 L436.8 676.8 L438.3 676.8 L439.9 676.8 L441.5 676.8 L443 676.8 L444.5 676.8 L446.1 676.8 L447.6 676.8 L449 676.8 L450.5 676.8 L452 676.8 L453.4 676.8 L454.9 676.8 L456.3 676.8 L457.7 676.8 L459.1 676.8 L460.5 676.8 L461.9 676.8 L463.3 676.8 L464.7 676.8 L466 676.8 L467.4 676.8 L468.7 676.8 L470.1 676.8 L471.4 676.8 L472.7 676.8 L474.1 676.8 L475.4 676.8 L476.7 676.8 L478 676.8 L479.3 676.8 L480.5 676.8 L481.8 676.8 L483.1 676.8 L484.4 676.8 L485.6 676.8 L486.9 676.8 L488.1 676.8 L489.4 676.8 L490.6 676.8 L491.9 676.8 L493.1 676.8 L494.4 676.8 L495.6 676.8 L496.8 676.8 L498.1 676.8 L499.3 676.8 L500.5 676.7 L501.7 676.7 L502.9 676.7 L504.2 676.7 L505.4 676.7 L506.6 676.7 L507.8 676.7 L509 676.7 L510.2 676.7 L511.4 676.7 L512.6 676.7 L513.8 676.7 L515.1 676.7 L516.3 676.7 L517.5 676.7 L518.7 676.7 L519.9 676.7 L521.1 676.7 L522.3 676.7 L523.5 676.7 L524.7 676.7 L526 676.7 L527.2 676.7 L528.4 676.7 L529.6 676.7 L530.8 676.7 L532.1 676.7 L533.3 676.7 L534.5 676.7 L535.8 676.7 L537 676.6 L538.2 676.6 L539.5 676.6 L540.7 676.6 L542 676.6 L543.3 676.6 L544.5 676.6 L545.8 676.6 L547.1 676.6 L548.3 676.6 L549.6 676.6 L550.9 676.6 L552.2 676.6 L553.5 676.6 L554.8 676.6 L556.1 676.6 L557.4 676.6 L558.8 676.6 L560.1 676.6 L561.5 676.6 L562.8 676.6 L564.2 676.6 L565.5 676.6 L566.9 676.6 L568.3 676.5 L569.7 676.5 L571.1 676.5 L572.5 676.5 L573.9 676.5 L575.4 676.5 L576.8 676.5 L578.3 676.5 L579.7 676.5 L581.2 676.5 L582.7 676.5 L584.2 676.5 L585.7 676.5 L587.3 676.5 L588.8 676.5 L590.4 676.5 L592 676.5 L593.6 676.5 L595.2 676.5 L596.8 676.5 L598.4 676.4 L600.1 676.4 L601.8 676.4 L603.5 676.4 L605.2 676.4 L606.9 676.4 L608.7 676.4 L610.5 676.4 L612.3 676.4 L614.1 676.4 L615.9 676.4 L617.8 676.4 L619.7 676.4 L621.6 676.4 L623.6 676.4 L625.5 676.4 L627.5 676.3 L629.5 676.3 L631.6 676.3 L633.7 676.3 L635.8 676.3 L638 676.3 L640.1 676.3 L642.4 676.3 L644.6 676.3 L646.9 676.3 L649.2 676.3 L651.6 676.3 L654 676.3 L656.5 676.3 L659 676.3 L661.5 676.2 L664.1 676.2 L666.7 676.2 L669.4 676.2 L672.2 676.2 L675 676.2 L677.8 676.2 L680.8 676.2 L683.7 676.2 L686.8 676.2 L689.9 676.2 L693.1 676.2 L696.3 676.2 L699.6 676.2 L703 676.1 L707.5 678 L707.6 680.4 L707.6 682.9 L707.7 685.3 L707.7 687.7 L707.7 690.1 L707.7 692.5 L707.7 694.8 L707.6 697.3 L707.2 699.8 L706.3 702.6 L682.5 718.6 L682.6 720.4 L683.7 721.7 L685.1 722.9 L686.5 724.1 L688.4 725 L690.5 725.9 L692.5 726.7 L694.8 727.6 L697.2 728.3 L699.7 729.1 L702.3 729.9 L705 730.7 L707.7 731.5 L710.5 732.3 L713.3 733.1 L716.1 734 L719 734.9 L721.6 735.9 L724.2 737.1 L726.5 738.3 L728.1 739.8 L729.5 741.4 L729 743.6 L726.8 746.4 L720.8 750.4 L689.3 761.9 L684.1 765.2 L682.5 767.2 L682.7 768.7 L683.4 770.1 L684.7 771.4 L686.5 772.5 L688.6 773.6 L691 774.6 L693.7 775.6 L696.6 776.6 L699.7 777.7 L703.1 778.7 L706.6 779.7 L710.1 780.8 L713.6 782 L717 783.2 L720.1 784.6 L722.3 786.1 L723.7 787.8 L724.7 789.5 L724.3 791.4 L722.8 793.4 L720.3 795.5 L716.8 797.6 L712.3 799.7 L707 801.8 L701.4 803.8 L695.9 805.8 L690.6 807.6 L685.8 809.3 L681.6 810.9 L678.3 812.4 L676 813.8 Z" fill="none" stroke="red" stroke-width="0.5"/>
</svg>