<svg xmlns="http://www.w3.org/2000/svg" viewBox="269.084 644.224 491.944 342.014" style="background:#f5f5f5">
  <path d="M334.4 659.6 L334.4 661.1 L334.4 662.6 L334.4 664.1 L334.5 665.6 L334.5 667.2 L334.5 668.7 L334.6 670.2 L334.6 671.7 L334.6 673.2 L334.6 674 L334.6 674.7 L334.7 675.3 L334.8 675.8 L334.9 676.1 L335.1 676.4 L335.4 676.6 L335.7 676.7 L336.2 676.8 L336.8 676.8 L337.5 676.9 L338.3 676.9 L342.4 676.9 L346.5 676.9 L350.7 676.9 L354.8 676.9 L358.9 676.8 L363 676.8 L367.2 676.8 L371.3 676.8 L375.4 676.8 L379.6 676.8 L383.7 676.8 L387.8 676.8 L414.4 676.8 L440.9 676.8 L467.5 676.8 L494 676.8 L520.6 676.7 L547.2 676.6 L573.7 676.5 L600.3 676.4 L626.8 676.3 L653.4 676.3 L679.9 676.2 L706.5 676.1 L706.5 654.2 L707.5 676.5 L707.6 684.1 L707.8 690.2 L707.7 695 L707.5 698.7 L706.8 701.5 L705.7 703.7 L704 705.5 L701.5 707.2 L698.3 708.9 L694.1 710.9 L688.8 713.4 L682.4 716.7 L682.7 720.9 L686.9 724.3 L693.8 727.3 L702.4 730 L711.4 732.5 L719.7 735.1 L726.1 737.9 L729.5 741.2 L728.7 745 L722.6 749.6 L709.9 755.1 L689.6 761.8 L684.6 764.6 L682.5 767.2 L682.8 769.5 L685.1 771.7 L689 773.8 L694.1 775.8 L699.8 777.7 L705.7 779.5 L711.4 781.3 L716.5 783 L720.5 784.8 L723 786.6 L724.7 789.3 L724.1 792 L721.6 794.6 L717.6 797.2 L712.4 799.7 L706.4 802 L700 804.3 L693.7 806.5 L687.7 808.6 L682.5 810.5 L678.5 812.3 L675.9 813.9 L674.1 816.9 L675.2 819.7 L678.5 822.2 L683.6 824.4 L689.8 826.6 L696.7 828.7 L703.6 830.7 L709.9 832.9 L715.2 835.1 L718.9 837.6 L720.3 840.2 L719 843.3 L717 845 L713.6 846.7 L709.3 848.4 L704.3 850.1 L699 851.8 L693.6 853.6 L688.6 855.4 L684.3 857.3 L681 859.4 L679.1 861.5 L678.8 863.8 L680.5 866.2 L682.5 867.6 L684.9 868.9 L687.6 870.2 L690.3 871.6 L693 873 L695.4 874.4 L697.4 876 L698.8 877.8 L699.5 879.7 L699.3 881.8 L698 884.2 L695.6 886.9 L694.4 888.1 L693.5 889.5 L692.9 890.9 L692.5 892.4 L692.2 893.9 L692.2 895.5 L692.2 897.1 L692.4 898.7 L692.5 900.3 L692.7 902 L692.8 903.6 L692.9 905.2 L692.8 909.3 L692.6 913.3 L692.4 917.4 L692.2 921.4 L692.1 925.5 L692 929.6 L691.9 933.6 L691.8 937.7 L691.9 941.7 L692 945.8 L692.2 949.9 L692.5 954 L714.3 954 L692.3 976.1 L692.3 954.4 L319.9 954.4 L319.9 956.1 L319.9 957.8 L319.9 959.5 L319.9 961.2 L319.9 962.9 L319.9 964.6 L319.9 966.3 L319.9 968 L319.9 969.7 L319.9 971.4 L319.9 973 L319.9 974.7 L319 953.9 L318.6 950.4 L318.4 946.9 L318.3 943.4 L318.2 939.9 L318.2 936.4 L318.3 932.9 L318.4 929.4 L318.5 925.9 L318.7 922.4 L318.8 918.9 L318.9 915.4 L319 911.9 L319.2 909.3 L319.2 906.7 L319.1 904 L318.9 901.5 L318.8 898.9 L318.8 896.4 L319 893.9 L319.4 891.6 L320.2 889.3 L321.3 887.1 L322.9 885 L325 883 L325.8 880.7 L325.6 878.6 L324.8 876.9 L323.3 875.4 L321.3 874 L319 872.8 L316.5 871.6 L314 870.5 L311.5 869.4 L309.2 868.2 L307.3 866.9 L305.8 865.4 L304.8 863.3 L305.2 861.4 L306.8 859.6 L309.3 857.9 L312.5 856.3 L316.2 854.9 L320.2 853.5 L324.2 852.3 L328 851.2 L331.4 850.1 L334.1 849.1 L335.9 848.3 L342.7 844.9 L345.8 841.9 L346 839.2 L343.8 836.8 L339.6 834.5 L334 832.3 L327.5 830.2 L320.7 828.2 L314.1 826.1 L308.3 823.9 L303.7 821.6 L300.9 819.2 L300.3 816.9 L301.6 814.7 L304.6 812.5 L308.9 810.4 L314.1 808.3 L319.9 806.2 L326.1 804.1 L332.1 802 L337.8 800 L342.7 797.9 L346.5 795.9 L349 793.8 L351 790.3 L349.7 787.2 L345.9 784.5 L340.2 782.1 L333.5 779.9 L326.4 777.8 L319.6 775.6 L313.9 773.4 L309.9 771 L308.4 768.3 L310.1 765.3 L315.7 761.8 L319 760.5 L322.3 759.3 L325.7 758.2 L329.1 757.2 L332.6 756.1 L336 755 L339.3 753.8 L342.6 752.5 L345.8 751 L348.9 749.3 L351.8 747.3 L354.6 745.1 L355.6 742.2 L354 739.5 L350.2 737.1 L344.8 734.9 L338.4 732.7 L331.4 730.7 L324.5 728.6 L318.1 726.4 L312.8 724.2 L309.1 721.7 L307.7 719.1 L308.9 716.1 L315.2 713.1 L320.3 710.8 L324.4 708.9 L327.6 707.2 L330 705.6 L331.7 703.7 L332.8 701.5 L333.4 698.7 L333.7 695.1 L333.7 690.5 L333.6 684.6 L333.4 677.4 L333.4 677.4 L332.2 677.6 L330.5 677.6 L328.5 677.6 L326.3 677.4 L324 677.3 L321.7 677.1 L319.5 677.1 Z" fill="rgba(0,120,255,0.2)" stroke="blue" stroke-width="1.5"/>
  <g opacity="0.5"><path d="M0 0v-16.436c-79.656-.138-159.355-.653-239.017-.499-12.382-.008-24.765-.044-37.147-.049-2.685-.001-2.713.036-2.764 2.752.005 4.539-.298 9.066-.077 13.594z" style="fill:#231f20;fill-opacity:1;fill-rule:nonzero;stroke:none" transform="matrix(1.33333 0 0 -1.33333 706.496 654.224)"/>
<path d="M0 0c-65.412-.036-130.878-.164-196.296.015-26.009-.015-52.017.014-78.026.132-1.525.406-4.581-.953-4.987.91.032 5.039.017 10.077.017 15.242H0Z" style="fill:#231f20;fill-opacity:1;fill-rule:nonzero;stroke:none" transform="matrix(1.33333 0 0 -1.33333 692.3 976.134)"/>
<path d="M0 0h-16.343c-1.079 12.243-.083 24.359.294 36.589.004 4.752-2.078 10.046 2.004 13.733 9.435 8.413-6.073 11.271-11.296 15.477-8.565 7.619 25.229 11.894 28.838 17.232 8.743 9.567-42.551 12.292-32.257 22.029 4.841 4.656 44.332 12.197 35.258 20.464-4.58 5.505-44.847 9.923-25.032 18.588 73.616 21.921-11.539 20.247-5.42 33.81 21.186 11.311 19.215 4.664 18.848 30.202h16.124c.025-23.627 3.079-19.555-18.046-29.45-10.688-9.66 42.321-12.487 33.609-22.208-9.224-8.345-23.031-7.989-33.24-14.721-7.586-7.449 25.82-11.606 29.732-16.536 9.59-10.799-47.864-15.851-35.238-25.36 9.73-6.088 21.922-6.709 31.795-12.438 8.452-10.306-40.187-12.052-28.353-21.932 5.91-4.027 20.503-7.11 10.5-15.689-4.436-5.088-.288-11.967-1.724-17.97C-.294 21.197-.991 10.626 0 0" style="fill:#231f20;fill-opacity:1;fill-rule:nonzero;stroke:none" transform="matrix(1.33333 0 0 -1.33333 714.29 953.966)"/>
<path d="M0 0c.332-24.041 2.257-18.938-18.411-29.049-8.269-9.355 41.888-12.462 34.267-21.722C7.83-58.01-3.611-59.162-13.286-63.324c-23.481-11.203 36.514-12.671 24.932-23.983-4.771-6.201-41.24-12.195-36.028-19.022 5.13-7.696 52.195-11.314 26.27-21.816-4.043-2.559-27.872-6.386-22.601-12.875 3.478-4.72 18.101-5.61 14.423-13.183-7.224-5.704-3.732-13.855-4.508-21.664-.255-10.512-1.186-21.04-.056-31.544H-27.02c-.832 12.561.246 25.156.365 37.728-.924 5.725-.82 10.849 3.946 14.853 4.913 8.373-10.249 8.912-13.988 13.854-5.48 7.315 25.772 11.13 29.823 16.775 7.208 9.355-40 11.469-33.218 21.275 19.506 11.218 64.063 15.822 14.684 29.128-2.806 1.661-9.017 2.049-9.046 6.003 8.598 9.944 26.428 7.234 35.469 17.412 3.629 6.378-18.386 9.528-22.584 11.875-23.716 7.402-10.682 9.955 3.354 16.956 5.772 4.471 2.055 13.73 3.058 20.135C-15.253 1.858-3.08-.85 0 0" style="fill:#231f20;fill-opacity:1;fill-rule:nonzero;stroke:none" transform="matrix(1.33333 0 0 -1.33333 333.431 677.394)"/></g>
  <path d="M334.4 659.6 L334.4 661.1 L334.4 662.6 L334.4 664.1 L334.5 665.6 L334.5 667.2 L334.5 668.7 L334.6 670.2 L334.6 671.7 L334.6 673.2 L334.6 674 L334.6 674.7 L334.7 675.3 L334.8 675.8 L334.9 676.1 L335.1 676.4 L335.4 676.6 L335.7 676.7 L336.2 676.8 L336.8 676.8 L337.5 676.9 L338.3 676.9 L342.4 676.9 L346.5 676.9 L350.7 676.9 L354.8 676.9 L358.9 676.8 L363 676.8 L367.2 676.8 L371.3 676.8 L375.4 676.8 L379.6 676.8 L383.7 676.8 L387.8 676.8 L414.4 676.8 L440.9 676.8 L467.5 676.8 L494 676.8 L520.6 676.7 L547.2 676.6 L573.7 676.5 L600.3 676.4 L626.8 676.3 L653.4 676.3 L679.9 676.2 L706.5 676.1 L706.5 654.2 L707.5 676.5 L707.6 684.1 L707.8 690.2 L707.7 695 L707.5 698.7 L706.8 701.5 L705.7 703.7 L704 705.5 L701.5 707.2 L698.3 708.9 L694.1 710.9 L688.8 713.4 L682.4 716.7 L682.7 720.9 L686.9 724.3 L693.8 727.3 L702.4 730 L711.4 732.5 L719.7 735.1 L726.1 737.9 L729.5 741.2 L728.7 745 L722.6 749.6 L709.9 755.1 L689.6 761.8 L684.6 764.6 L682.5 767.2 L682.8 769.5 L685.1 771.7 L689 773.8 L694.1 775.8 L699.8 777.7 L705.7 779.5 L711.4 781.3 L716.5 783 L720.5 784.8 L723 786.6 L724.7 789.3 L724.1 792 L721.6 794.6 L717.6 797.2 L712.4 799.7 L706.4 802 L700 804.3 L693.7 806.5 L687.7 808.6 L682.5 810.5 L678.5 812.3 L675.9 813.9 L674.1 816.9 L675.2 819.7 L678.5 822.2 L683.6 824.4 L689.8 826.6 L696.7 828.7 L703.6 830.7 L709.9 832.9 L715.2 835.1 L718.9 837.6 L720.3 840.2 L719 843.3 L717 845 L713.6 846.7 L709.3 848.4 L704.3 850.1 L699 851.8 L693.6 853.6 L688.6 855.4 L684.3 857.3 L681 859.4 L679.1 861.5 L678.8 863.8 L680.5 866.2 L682.5 867.6 L684.9 868.9 L687.6 870.2 L690.3 871.6 L693 873 L695.4 874.4 L697.4 876 L698.8 877.8 L699.5 879.7 L699.3 881.8 L698 884.2 L695.6 886.9 L694.4 888.1 L693.5 889.5 L692.9 890.9 L692.5 892.4 L692.2 893.9 L692.2 895.5 L692.2 897.1 L692.4 898.7 L692.5 900.3 L692.7 902 L692.8 903.6 L692.9 905.2 L692.8 909.3 L692.6 913.3 L692.4 917.4 L692.2 921.4 L692.1 925.5 L692 929.6 L691.9 933.6 L691.8 937.7 L691.9 941.7 L692 945.8 L692.2 949.9 L692.5 954 L714.3 954 L692.3 976.1 L692.3 954.4 L319.9 954.4 L319.9 956.1 L319.9 957.8 L319.9 959.5 L319.9 961.2 L319.9 962.9 L319.9 964.6 L319.9 966.3 L319.9 968 L319.9 969.7 L319.9 971.4 L319.9 973 L319.9 974.7 L319 953.9 L318.6 950.4 L318.4 946.9 L318.3 943.4 L318.2 939.9 L318.2 936.4 L318.3 932.9 L318.4 929.4 L318.5 925.9 L318.7 922.4 L318.8 918.9 L318.9 915.4 L319 911.9 L319.2 909.3 L319.2 906.7 L319.1 904 L318.9 901.5 L318.8 898.9 L318.8 896.4 L319 893.9 L319.4 891.6 L320.2 889.3 L321.3 887.1 L322.9 885 L325 883 L325.8 880.7 L325.6 878.6 L324.8 876.9 L323.3 875.4 L321.3 874 L319 872.8 L316.5 871.6 L314 870.5 L311.5 869.4 L309.2 868.2 L307.3 866.9 L305.8 865.4 L304.8 863.3 L305.2 861.4 L306.8 859.6 L309.3 857.9 L312.5 856.3 L316.2 854.9 L320.2 853.5 L324.2 852.3 L328 851.2 L331.4 850.1 L334.1 849.1 L335.9 848.3 L342.7 844.9 L345.8 841.9 L346 839.2 L343.8 836.8 L339.6 834.5 L334 832.3 L327.5 830.2 L320.7 828.2 L314.1 826.1 L308.3 823.9 L303.7 821.6 L300.9 819.2 L300.3 816.9 L301.6 814.7 L304.6 812.5 L308.9 810.4 L314.1 808.3 L319.9 806.2 L326.1 804.1 L332.1 802 L337.8 800 L342.7 797.9 L346.5 795.9 L349 793.8 L351 790.3 L349.7 787.2 L345.9 784.5 L340.2 782.1 L333.5 779.9 L326.4 777.8 L319.6 775.6 L313.9 773.4 L309.9 771 L308.4 768.3 L310.1 765.3 L315.7 761.8 L319 760.5 L322.3 759.3 L325.7 758.2 L329.1 757.2 L332.6 756.1 L336 755 L339.3 753.8 L342.6 752.5 L345.8 751 L348.9 749.3 L351.8 747.3 L354.6 745.1 L355.6 742.2 L354 739.5 L350.2 737.1 L344.8 734.9 L338.4 732.7 L331.4 730.7 L324.5 728.6 L318.1 726.4 L312.8 724.2 L309.1 721.7 L307.7 719.1 L308.9 716.1 L315.2 713.1 L320.3 710.8 L324.4 708.9 L327.6 707.2 L330 705.6 L331.7 703.7 L332.8 701.5 L333.4 698.7 L333.7 695.1 L333.7 690.5 L333.6 684.6 L333.4 677.4 L333.4 677.4 L332.2 677.6 L330.5 677.6 L328.5 677.6 L326.3 677.4 L324 677.3 L321.7 677.1 L319.5 677.1 Z" fill="none" stroke="red" stroke-width="0.5"/>
</svg>